<svg viewBox="0 0 24 24" fill="current" xmlns="http://www.w3.org/2000/svg">
    <g clip-path="url(#clip0_338_97)">
        <path fill-rule="evenodd" clip-rule="evenodd" d="M13.6092 18.5241C13.0212 19.0648 12.1062 19.0267 11.5652 18.4391C11.3041 18.1566 11.1663 17.7819 11.182 17.3976C11.1978 17.0134 11.3659 16.6512 11.6492 16.3911C14.599 13.6616 16.571 10.0391 17.2622 6.08007C17.2752 6.00734 17.2553 5.93256 17.2078 5.87596C17.1603 5.81937 17.0901 5.7868 17.0162 5.78707H16.4762C15.9083 5.78713 15.393 5.45507 15.1583 4.93798C14.9237 4.42089 15.0132 3.81436 15.3872 3.38707L17.9312 0.487072C18.1907 0.175786 18.5759 -0.00290751 18.9812 3.57971e-05C19.3845 0.00383546 19.7707 0.164101 20.0582 0.447072L22.8282 3.34207C23.2261 3.76131 23.3368 4.37712 23.1094 4.90862C22.882 5.44012 22.3603 5.78544 21.7822 5.78707H20.4722C20.3483 5.78677 20.2431 5.87753 20.2252 6.00007C19.5151 10.8079 17.1803 15.2277 13.6092 18.5241ZM7.91017 22.1301C8.12995 22.1301 8.34681 22.0798 8.54417 21.9831C9.15917 21.6831 9.76917 21.3471 10.3572 20.9831C10.8143 20.7201 11.0922 20.2294 11.0825 19.7021C11.0728 19.1748 10.777 18.6946 10.3105 18.4487C9.844 18.2028 9.28066 18.2301 8.84017 18.5201C8.33117 18.8331 7.80417 19.1201 7.27417 19.3821C6.66779 19.6773 6.34577 20.3523 6.49784 21.0093C6.64991 21.6664 7.23574 22.1313 7.91017 22.1301ZM1.45217 24.0001C1.50517 24.0001 1.55817 24.0001 1.61217 23.992C2.29317 23.917 2.98117 23.807 3.65817 23.664C4.43295 23.4914 4.92432 22.7272 4.75986 21.9507C4.59539 21.1741 3.8364 20.6748 3.05817 20.831C2.47561 20.9548 1.8872 21.0493 1.29517 21.114C0.528827 21.1949 -0.0396893 21.8622 0.00216994 22.6317C0.0440292 23.4011 0.681577 24.0028 1.45217 24.0001Z" fill="current"/>
    </g>
    <defs>
        <clipPath id="clip0_338_97">
            <rect width="24" height="24" fill="white"/>
        </clipPath>
    </defs>
</svg>
