<svg viewBox="0 0 24 24" fill="current" xmlns="http://www.w3.org/2000/svg">
    <g clip-path="url(#clip0_338_108)">
        <path d="M1.19767e-06 3.72575C1.19767e-06 2.93046 0.644714 2.28576 1.44 2.28576L10.375 2.28576C14.5301 2.28716 18.1588 5.09723 19.2 9.11975L20.674 14.8138C20.7079 14.9457 20.8416 15.0259 20.974 14.9938L22.226 14.6938C22.7927 14.56 23.3842 14.7808 23.7248 15.2531C24.0653 15.7254 24.0879 16.3563 23.782 16.8518L21.642 20.3178C21.4665 20.5926 21.2049 20.8015 20.898 20.9118C20.4972 21.0612 20.05 21.0192 19.684 20.7978L16.2 18.6518C15.7042 18.3459 15.4415 17.7713 15.5345 17.1962C15.6276 16.6211 16.058 16.1587 16.625 16.0248L17.689 15.7728C17.7545 15.7574 17.8111 15.7163 17.8459 15.6587C17.8807 15.6011 17.8909 15.5319 17.874 15.4668L16.416 9.84475C15.7032 7.09157 13.219 5.16867 10.375 5.16875L1.44 5.16875C1.05757 5.16876 0.690847 5.01663 0.420708 4.74593C0.15057 4.47523 -0.000792406 4.10819 1.19767e-06 3.72575Z" fill="current"/>
    </g>


</svg>
