<svg viewBox="0 0 24 24" fill="current" xmlns="http://www.w3.org/2000/svg">
    <g clip-path="url(#clip0_341_114)">
        <path fill-rule="evenodd" clip-rule="evenodd" d="M13.6092 5.47593C13.0212 4.9352 12.1062 4.97325 11.5652 5.56093C11.3041 5.84336 11.1663 6.2181 11.182 6.60237C11.1978 6.98663 11.3659 7.34882 11.6492 7.60893C14.599 10.3384 16.571 13.9609 17.2622 17.9199C17.2752 17.9927 17.2553 18.0674 17.2078 18.124C17.1603 18.1806 17.0901 18.2132 17.0162 18.2129H16.4762C15.9083 18.2129 15.393 18.5449 15.1583 19.062C14.9237 19.5791 15.0132 20.1856 15.3872 20.6129L17.9312 23.5129C18.1907 23.8242 18.5759 24.0029 18.9812 24C19.3845 23.9962 19.7707 23.8359 20.0582 23.5529L22.8282 20.6579C23.2261 20.2387 23.3368 19.6229 23.1094 19.0914C22.882 18.5599 22.3603 18.2146 21.7822 18.2129H20.4722C20.3483 18.2132 20.2431 18.1225 20.2252 17.9999C19.5151 13.1921 17.1803 8.77234 13.6092 5.47593ZM7.91017 1.86993C8.12995 1.86993 8.34681 1.92023 8.54417 2.01693C9.15917 2.31693 9.76917 2.65294 10.3572 3.01693C10.8143 3.27986 11.0922 3.77065 11.0825 4.2979C11.0728 4.82516 10.777 5.30538 10.3105 5.5513C9.844 5.79721 9.28066 5.76987 8.84017 5.47993C8.33117 5.16693 7.80417 4.87993 7.27417 4.61793C6.66779 4.32271 6.34577 3.64772 6.49784 2.99066C6.64991 2.3336 7.23574 1.86872 7.91017 1.86993ZM1.45217 -5.72205e-05C1.50517 -5.72205e-05 1.55817 -5.72205e-05 1.61217 0.00795174C2.29317 0.0829525 2.98117 0.192953 3.65817 0.335953C4.43295 0.508572 4.92432 1.27277 4.75986 2.04931C4.59539 2.82586 3.8364 3.32524 3.05817 3.16895C2.47561 3.0452 1.8872 2.95075 1.29517 2.88595C0.528827 2.80508 -0.0396893 2.13781 0.00216994 1.36834C0.0440292 0.598879 0.681577 -0.00278473 1.45217 -5.72205e-05Z" fill="current"/>
    </g>
    <defs>
        <clipPath id="clip0_341_114">
            <rect width="24" height="24" fill="white" transform="matrix(1 0 0 -1 0 24)"/>
        </clipPath>
    </defs>
</svg>

