<svg viewBox="0 0 24 24" fill="current" xmlns="http://www.w3.org/2000/svg">
    <path d="M3.10502e-06 20.2742C3.10502e-06 21.0695 0.644716 21.7142 1.44001 21.7142H10.375C14.5301 21.7128 18.1588 18.9028 19.2 14.8802L20.674 9.18625C20.7079 9.05427 20.8416 8.97405 20.974 9.00625L22.226 9.30625C22.7927 9.43997 23.3842 9.21924 23.7248 8.74693C24.0653 8.27462 24.0879 7.6437 23.782 7.14825L21.642 3.68225C21.4665 3.4074 21.2049 3.1985 20.898 3.08825C20.4972 2.93877 20.05 2.98076 19.684 3.20225L16.2 5.34825C15.7042 5.65413 15.4415 6.22866 15.5345 6.80379C15.6276 7.37892 16.058 7.84131 16.625 7.97524L17.689 8.22725C17.7545 8.2426 17.8111 8.28372 17.8459 8.34131C17.8807 8.3989 17.8909 8.46809 17.874 8.53325L16.416 14.1552C15.7032 16.9084 13.219 18.8313 10.375 18.8312H1.44001C1.05757 18.8312 0.690849 18.9834 0.42071 19.2541C0.150572 19.5248 -0.000790499 19.8918 3.10502e-06 20.2742Z" fill="current"/>
</svg>
