<?xml version="1.0" encoding="UTF-8"?>
<svg viewBox="0 0 24 24" fill="current" xmlns="http://www.w3.org/2000/svg">
    <title>call</title>
    <path d="M22.673 17.009L20.221 14.556C19.6937 14.0277 18.9779 13.7309 18.2315 13.7309C17.4851 13.7309 16.7693 14.0277 16.242 14.556L15.742 15.056C13.2777 12.9913 11.0015 10.712 8.93999 8.245L9.43999 7.745C10.5362 6.64557 10.5362 4.86644 9.43999 3.767L6.98299 1.317C5.86871 0.252487 4.11428 0.252487 2.99999 1.317L1.65999 2.663C0.332816 3.99973 0.124171 6.08369 1.15999 7.657C5.15509 13.6768 10.314 18.8367 16.333 22.833C17.9109 23.8588 19.9895 23.6509 21.333 22.333L22.678 20.987C23.2062 20.46 23.503 19.7446 23.503 18.9985C23.503 18.2524 23.2062 17.537 22.678 17.01L22.673 17.009Z" fill="current"/>
</svg>
