<?xml version="1.0" encoding="UTF-8"?>
<svg viewBox="0 0 24 24" fill="current" xmlns="http://www.w3.org/2000/svg">
    <title>game</title>
    <g clip-path="url(#clip0)">
        <path d="M23.9672 16.8535L22.6056 7.2847C22.2558 4.82381 20.1447 3 17.6588 3H6.34119C3.85532 3 1.74419 4.82381 1.39442 7.2847L0.0328115 16.8535C-0.242009 18.7772 1.24452 20.4886 3.18076 20.4886C4.0302 20.4886 4.82968 20.1513 5.42929 19.5517L8.25245 16.741H15.7476L18.5582 19.5517C19.1578 20.1513 19.9698 20.4886 20.8068 20.4886C22.7555 20.4886 24.242 18.7772 23.9672 16.8535ZM10.7508 10.4951H8.25245V12.9935H7.00326V10.4951H4.50489V9.24592H7.00326V6.74755H8.25245V9.24592H10.7508V10.4951ZM15.7476 9.24592C15.0605 9.24592 14.4984 8.68379 14.4984 7.99674C14.4984 7.30969 15.0605 6.74755 15.7476 6.74755C16.4346 6.74755 16.9967 7.30969 16.9967 7.99674C16.9967 8.68379 16.4346 9.24592 15.7476 9.24592ZM18.2459 12.9935C17.5589 12.9935 16.9967 12.4313 16.9967 11.7443C16.9967 11.0572 17.5589 10.4951 18.2459 10.4951C18.933 10.4951 19.4951 11.0572 19.4951 11.7443C19.4951 12.4313 18.933 12.9935 18.2459 12.9935Z" fill="current"/>
    </g>
    <defs>
        <clipPath id="clip0">
            <rect width="24" height="24" fill="white"/>
        </clipPath>
    </defs>
</svg>
