<?xml version="1.0" encoding="UTF-8"?>
<svg viewBox="0 0 24 24" fill="current" xmlns="http://www.w3.org/2000/svg">
    <title>add_shield_black</title>
    <path d="M16.704 9.50396C18.0087 9.50396 19.2288 9.80597 20.328 10.3254V5.13099C20.328 4.12835 19.6999 3.22235 18.7576 2.87203L11.5096 0.15402C10.966 -0.0513401 10.362 -0.0513401 9.81842 0.15402L2.5704 2.87203C1.62816 3.23443 1 4.12835 1 5.14307V10.8207C1 16.9211 5.11929 22.6108 10.664 24C10.7003 23.9879 10.7244 23.9758 10.7607 23.9758C9.21442 22.4417 8.24802 20.3156 8.24802 17.96C8.24802 13.285 12.0291 9.50396 16.704 9.50396Z" fill="current"/>
    <path d="M16.704 11.92C13.37 11.92 10.664 14.6259 10.664 17.96C10.664 21.2941 13.37 24 16.704 24C20.0381 24 22.7441 21.2941 22.7441 17.96C22.7441 14.6259 20.0381 11.92 16.704 11.92ZM19.7241 18.564H17.308V20.98C17.308 21.3182 17.0423 21.584 16.704 21.584C16.3658 21.584 16.1 21.3182 16.1 20.98V18.564H13.684C13.3458 18.564 13.08 18.2982 13.08 17.96C13.08 17.6217 13.3458 17.356 13.684 17.356H16.1V14.94C16.1 14.6017 16.3658 14.336 16.704 14.336C17.0423 14.336 17.308 14.6017 17.308 14.94V17.356H19.7241C20.0623 17.356 20.3281 17.6217 20.3281 17.96C20.3281 18.2982 20.0623 18.564 19.7241 18.564Z" fill="current"/>
</svg>
