<?xml version="1.0" encoding="UTF-8"?>
<svg viewBox="0 0 24 24" version="1.1" xmlns="http://www.w3.org/2000/svg">
    <title>circle_check_24</title>
    <g id="Status-Icon" stroke="current" stroke-width="1" fill="current" fill-rule="evenodd">
        <g id="circle_check_24">
            <path d="M12,22 C17.5228475,22 22,17.5228475 22,12 C22,6.4771525 17.5228475,2 12,2 C6.4771525,2 2,6.4771525 2,12 C2,17.5228475 6.4771525,22 12,22 Z M9.29,16.29 L6.7,13.7 C6.31,13.31 6.31,12.68 6.7,12.29 C7.09,11.9 7.72,11.9 8.11,12.29 L10,14.17 L15.88,8.29 C16.27,7.9 16.9,7.9 17.29,8.29 C17.68,8.68 17.68,9.31 17.29,9.7 L10.7,16.29 C10.32,16.68 9.68,16.68 9.29,16.29 Z" id="Shape"></path>
        </g>
    </g>
</svg>