<?xml version="1.0" encoding="UTF-8"?>
<svg viewBox="0 0 24 24" version="1.1" xmlns="http://www.w3.org/2000/svg">
    <title>circle_warn_24</title>
    <g id="Status-Icon" stroke="current" stroke-width="1" fill="current" fill-rule="evenodd">
        <g id="Status-Circle" transform="translate(-24.000000, 0.000000)" fill-rule="nonzero">
            <g id="circle_warn_24" transform="translate(24.000000, 0.000000)">
                <path d="M12,2 C17.5228475,2 22,6.4771525 22,12 C22,17.5228475 17.5228475,22 12,22 C6.4771525,22 2,17.5228475 2,12 C2,6.4771525 6.4771525,2 12,2 Z M13,15 L11,15 L11,17 L13,17 L13,15 Z M12,7 C11.45,7 11,7.45 11,8 L11,8 L11,12 C11,12.55 11.45,13 12,13 C12.55,13 13,12.55 13,12 L13,12 L13,8 C13,7.45 12.55,7 12,7 Z" id="Shape" fill="current" fill-rule="nonzero"></path>
            </g>
        </g>
    </g>
</svg>