<?xml version="1.0" encoding="UTF-8"?>
<svg viewBox="0 0 24 24" version="1.1" xmlns="http://www.w3.org/2000/svg">
    <title>shield_sync_24</title>
    <g id="Status-Icon" stroke="current" stroke-width="1" fill="current" fill-rule="evenodd">
        <g id="Status-Shield" transform="translate(-168.000000, 0.000000)" fill-rule="nonzero">
            <g id="shield_sync_24" transform="translate(168.000000, 0.000000)">
                <path d="M11.19,1.36 C11.7,1.13 12.3,1.13 12.81,1.36 L12.81,1.36 L19.81,4.47 C20.53,4.79 21,5.51 21,6.3 L21,6.3 L21,11 C21,16.55 17.16,21.74 12,23 C6.84,21.74 3,16.55 3,11 L3,11 L3,6.3 C3,5.51 3.47,4.79 4.19,4.47 L4.19,4.47 Z M6.4351145,9.50240159 C6.15267176,10.2238297 6,11.0166077 6,11.841097 C6,15.3451761 8.73282443,18.1833217 12.1068702,18.1833217 L12.1068702,19.6023945 C12.1068702,19.9591446 12.519084,20.1335558 12.7557252,19.8798668 L14.8854962,17.668016 C15.0381679,17.5094603 15.0381679,17.2636991 14.8854962,17.1051435 L12.7557252,14.8932926 C12.519084,14.6475314 12.1068702,14.8219426 12.1068702,15.1786927 L12.1068702,16.5977655 C9.58015267,16.5977655 7.52671756,14.4651925 7.52671756,11.841097 C7.52671756,11.2148023 7.64122137,10.6043631 7.86259542,10.0573463 C7.97709924,9.77194614 7.89312977,9.44690712 7.6870229,9.23285703 C7.29770992,8.82854021 6.64122137,8.97124026 6.4351145,9.50240159 Z M11.25,4.12013316 L9.11440678,6.33198405 C8.96186441,6.49053966 8.96186441,6.73630087 9.11440678,6.89485649 L11.2423729,9.10670737 C11.4864407,9.35246858 11.8983051,9.1780574 11.8983051,8.82130726 L11.8983051,7.40223447 C14.4228814,7.40223447 16.4745763,9.53480755 16.4745763,12.158903 C16.4745763,12.7851977 16.3601695,13.3956369 16.1389831,13.9426537 C16.0245763,14.2280539 16.1084746,14.5530929 16.3144068,14.767143 C16.7033898,15.1714598 17.359322,15.0287597 17.5652542,14.4975984 C17.8474576,13.7761703 18,12.9833923 18,12.158903 C18,8.65482386 15.2694915,5.81667828 11.8983051,5.81667828 L11.8983051,4.3976055 C11.8983051,4.04085535 11.4864407,3.86644417 11.25,4.12013316 Z" id="Shape"></path>
            </g>
        </g>
    </g>
</svg>