<?xml version="1.0" encoding="UTF-8"?>
<svg viewBox="0 0 24 24" version="1.1" xmlns="http://www.w3.org/2000/svg">
    <title>shield_error_24</title>
    <g id="Status-Icon" stroke="current" stroke-width="1" fill="current" fill-rule="evenodd">
        <g id="Status-Shield" transform="translate(-144.000000, 0.000000)" fill-rule="nonzero">
            <g id="shield_error_24" transform="translate(144.000000, 0.000000)">
                <path d="M11.19,1.36 C11.7,1.13 12.3,1.13 12.81,1.36 L12.81,1.36 L19.81,4.47 C20.53,4.79 21,5.51 21,6.3 L21,6.3 L21,11 C21,16.55 17.16,21.74 12,23 C6.84,21.74 3,16.55 3,11 L3,11 L3,6.3 C3,5.51 3.47,4.79 4.19,4.47 L4.19,4.47 Z M9.11,7.7 C8.72,7.31 8.09,7.31 7.7,7.7 C7.31,8.09 7.31,8.72 7.7,9.11 L7.7,9.11 L10.59,12 L7.7,14.89 C7.31,15.28 7.31,15.91 7.7,16.3 C8.09,16.69 8.72,16.69 9.11,16.3 L9.11,16.3 L12,13.41 L14.89,16.3 C15.28,16.69 15.91,16.69 16.3,16.3 C16.68,15.91 16.68,15.27 16.3,14.89 L16.3,14.89 L13.41,12 L16.3,9.11 C16.69,8.72 16.69,8.09 16.3,7.7 C15.91,7.31 15.28,7.31 14.89,7.7 L14.89,7.7 L12,10.59 Z" id="Shape"></path>
            </g>
        </g>
    </g>
</svg>