<?xml version="1.0" encoding="UTF-8"?>
<svg viewBox="0 0 24 24" fill="current" xmlns="http://www.w3.org/2000/svg">
    <title>twitter</title>
    <path d="M21.5331 7.65207C21.5483 7.85622 21.5483 8.06043 21.5483 8.26458C21.5483 14.4916 16.5991 21.6667 7.55333 21.6667C4.7665 21.6667 2.17768 20.8937 0 19.5521C0.395955 19.5958 0.776628 19.6104 1.18782 19.6104C3.48728 19.6104 5.60407 18.8667 7.29443 17.5979C5.13199 17.5542 3.31979 16.1979 2.69542 14.3312C3.00001 14.375 3.30456 14.4041 3.62439 14.4041C4.066 14.4041 4.50766 14.3458 4.9188 14.2438C2.66499 13.8062 0.974582 11.9104 0.974582 9.62082V9.56251C1.62938 9.91252 2.39087 10.1313 3.19792 10.1604C1.87304 9.31454 1.00505 7.87081 1.00505 6.23747C1.00505 5.36248 1.24866 4.5604 1.67508 3.86039C4.09642 6.71873 7.73605 8.58536 11.8172 8.78956C11.7411 8.43956 11.6954 8.07501 11.6954 7.71042C11.6954 5.11456 13.8883 3 16.6142 3C18.0304 3 19.3096 3.56875 20.2081 4.4875C21.3198 4.28334 22.3858 3.88957 23.33 3.35C22.9644 4.44378 22.1878 5.36253 21.1675 5.94582C22.1574 5.84379 23.1168 5.58123 24 5.21668C23.3301 6.14998 22.4924 6.98119 21.5331 7.65207Z" fill="current"/>
</svg>
