<?xml version="1.0" encoding="UTF-8"?>
<svg viewBox="0 0 24 24" fill="current" xmlns="http://www.w3.org/2000/svg">
    <title>website</title>
    <path fill-rule="evenodd" clip-rule="evenodd" d="M11.988 0C5.364 0 0 5.376 0 12C0 18.624 5.364 24 11.988 24C18.624 24 24 18.624 24 12C24 5.376 18.624 0 11.988 0V0ZM20.304 7.20003H16.764C16.38 5.70003 15.828 4.26003 15.108 2.92803C17.316 3.68403 19.152 5.22003 20.304 7.20003V7.20003ZM12 2.44798C12.996 3.88798 13.776 5.48398 14.292 7.19998H9.70803C10.224 5.48398 11.004 3.88798 12 2.44798V2.44798ZM2.71202 14.4C2.52002 13.632 2.40002 12.828 2.40002 12C2.40002 11.172 2.52002 10.368 2.71202 9.59998H6.76802C6.67202 10.392 6.60002 11.184 6.60002 12C6.60002 12.816 6.67202 13.608 6.76802 14.4H2.71202V14.4ZM3.69596 16.8H7.23596C7.61996 18.3 8.17196 19.74 8.89196 21.072C6.68396 20.316 4.84796 18.792 3.69596 16.8V16.8ZM7.23596 7.20003H3.69596C4.84796 5.20803 6.68396 3.68403 8.89196 2.92803C8.17196 4.26003 7.61996 5.70003 7.23596 7.20003V7.20003ZM12 21.552C11.004 20.112 10.224 18.516 9.70803 16.8H14.292C13.776 18.516 12.996 20.112 12 21.552V21.552ZM14.808 14.4H9.192C9.084 13.608 9 12.816 9 12C9 11.184 9.084 10.38 9.192 9.59998H14.808C14.916 10.38 15 11.184 15 12C15 12.816 14.916 13.608 14.808 14.4V14.4ZM15.108 21.072C15.828 19.74 16.38 18.3 16.764 16.8H20.304C19.152 18.78 17.316 20.316 15.108 21.072V21.072ZM17.2319 14.4C17.3279 13.608 17.3999 12.816 17.3999 12C17.3999 11.184 17.3279 10.392 17.2319 9.59998H21.2879C21.4799 10.368 21.5999 11.172 21.5999 12C21.5999 12.828 21.4799 13.632 21.2879 14.4H17.2319V14.4Z" fill="current"/>
</svg>
