<svg viewBox="0 0 24 24" xmlns="http://www.w3.org/2000/svg">
<path d="M17.0909 0H6.18182C4.98182 0 4 0.981818 4 2.18182V21.8182C4 23.0182 4.98182 24 6.18182 24H17.0909C18.2909 24 19.2727 23.0182 19.2727 21.8182V2.18182C19.2727 0.981818 18.2909 0 17.0909 0ZM17.0909 19.6364H6.18182V4.36364H17.0909V19.6364ZM10.5455 16.3636H12.7273V18.5455H10.5455V16.3636ZM8.93091 10.0255H9.07273C9.43273 10.0255 9.71636 9.77455 9.83636 9.43636C10.0982 8.68364 10.8291 8.11636 11.6473 8.11636C12.6618 8.11636 13.5564 9.01091 13.5564 10.0255C13.5564 11.4655 11.9309 11.7164 11.1236 13.1018H11.1127C11.0255 13.2545 10.96 13.4182 10.8945 13.5927C10.8836 13.6145 10.8727 13.6255 10.8727 13.6473C10.8618 13.6691 10.8618 13.6909 10.8618 13.7018C10.7527 14.04 10.6873 14.4218 10.6873 14.88H12.6073C12.6073 14.6073 12.6509 14.3673 12.7382 14.1491C13.3273 12.5455 15.76 12.12 15.4436 9.58909C15.2364 7.89818 13.8836 6.49091 12.1927 6.27273C10.2618 6.02182 8.60364 7.12364 8.03636 8.78182C7.81818 9.39273 8.28727 10.0255 8.93091 10.0255V10.0255Z" fill="current"/>
</svg>
