<svg viewBox="0 0 24 24" fill="current" xmlns="http://www.w3.org/2000/svg">
<path d="M20.7792 1H2.3088C1.03896 1 0 2.03896 0 3.3088V17.1616C0 18.4315 1.03896 19.4704 2.3088 19.4704H12.6984V17.1616H2.3088V5.6176L10.3203 10.6277C11.0707 11.101 12.0173 11.101 12.7677 10.6277L20.7792 5.6176V11.3896H23.088V3.3088C23.088 2.03896 22.0491 1 20.7792 1ZM11.544 9.08081L2.3088 3.3088H20.7792L11.544 9.08081ZM19.6248 15.0952C19.6248 14.5758 20.2482 14.3218 20.6061 14.6912L23.8268 17.912C24.0577 18.1429 24.0577 18.5007 23.8268 18.7316L20.6061 21.9524C20.2482 22.3102 19.6248 22.0563 19.6248 21.5368V19.4704H16.1616C15.5267 19.4704 15.0072 18.9509 15.0072 18.316C15.0072 17.6811 15.5267 17.1616 16.1616 17.1616H19.6248V15.0952Z" fill="current"/>
</svg>
