<svg viewBox="0 0 34 35" fill="current" xmlns="http://www.w3.org/2000/svg">
<g clip-path="url(#clip0_710_16400)">
<path d="M17 0.5C7.616 0.5 0 8.116 0 17.5C0 26.884 7.616 34.5 17 34.5C26.384 34.5 34 26.884 34 17.5C34 8.116 26.384 0.5 17 0.5ZM18.7 29.4H15.3V26H18.7V29.4ZM22.219 16.225L20.689 17.789C19.465 19.03 18.7 20.05 18.7 22.6H15.3V21.75C15.3 19.88 16.065 18.18 17.289 16.939L19.397 14.797C20.026 14.185 20.4 13.335 20.4 12.4C20.4 10.53 18.87 9 17 9C15.13 9 13.6 10.53 13.6 12.4H10.2C10.2 8.643 13.243 5.6 17 5.6C20.757 5.6 23.8 8.643 23.8 12.4C23.8 13.896 23.188 15.256 22.219 16.225Z" fill="current"/>
</g>
<defs>
<clipPath id="clip0_710_16400">
<rect width="34" height="34" fill="white" transform="translate(0 0.5)"/>
</clipPath>
</defs>
</svg>