<?xml version="1.0" encoding="UTF-8"?>
<svg viewBox="0 0 18 24" fill="current" xmlns="http://www.w3.org/2000/svg">
    <title>question</title> 
    <path d="M9.46973 0C5.72822 0 3.30483 1.53295 1.40222 4.26684C1.05708 4.76278 1.16348 5.44275 1.64493 5.80781L3.66703 7.34105C4.15326 7.70972 4.84509 7.62352 5.22576 7.14661C6.39993 5.67562 7.27092 4.82869 9.105 4.82869C10.5471 4.82869 12.3307 5.75677 12.3307 7.15514C12.3307 8.21227 11.4581 8.75517 10.0342 9.55345C8.37375 10.4844 6.17643 11.643 6.17643 14.5412V15C6.17643 15.6213 6.68011 16.125 7.30143 16.125H10.6985C11.3198 16.125 11.8235 15.6213 11.8235 15V14.7294C11.8235 12.7203 17.6954 12.6367 17.6954 7.2C17.6955 3.10575 13.4485 0 9.46973 0ZM9 17.5059C7.20956 17.5059 5.75292 18.9625 5.75292 20.753C5.75292 22.5434 7.20956 24 9 24C10.7904 24 12.2471 22.5434 12.2471 20.7529C12.2471 18.9625 10.7904 17.5059 9 17.5059Z" fill="current"/>
</svg>
