<svg viewBox="0 0 24 24" fill="current" xmlns="http://www.w3.org/2000/svg">
    <g clip-path="url(#clip0)">
        <path d="M17.6973 18.1726L19.463 16.4068L13.4791 10.4229L9.44488 14.4571C8.96666 14.9354 8.19415 14.9354 7.71593 14.4571L0.358666 7.08762C-0.119555 6.6094 -0.119555 5.83689 0.358666 5.35867C0.836888 4.88044 1.6094 4.88044 2.08762 5.35867L8.57427 11.8576L12.6085 7.82335C13.0867 7.34513 13.8592 7.34513 14.3375 7.82335L21.192 14.6656L22.9577 12.8999C23.3378 12.5197 24 12.7895 24 13.329V18.5895C24 18.9328 23.7302 19.2026 23.3869 19.2026H18.1265C17.5869 19.2148 17.3172 18.5527 17.6973 18.1726V18.1726Z" fill="current"/>
    </g>
    <defs>
        <clipPath id="clip0">
            <rect width="24" height="24" fill="white"/>
        </clipPath>
    </defs>
</svg>
