<svg viewBox="0 0 24 24" fill="current" xmlns="http://www.w3.org/2000/svg">
    <g clip-path="url(#clip0)">
        <path d="M17.697 6.04226L19.4627 7.80797L13.4789 13.7918L9.44473 9.75762C8.96651 9.2794 8.19401 9.2794 7.7158 9.75762L0.35866 17.127C-0.119553 17.6052 -0.119553 18.3777 0.35866 18.8559C0.836874 19.3342 1.60937 19.3342 2.08759 18.8559L8.57413 12.3571L12.6083 16.3913C13.0865 16.8695 13.859 16.8695 14.3372 16.3913L21.1916 9.54916L22.9573 11.3149C23.3375 11.695 23.9996 11.4252 23.9996 10.8857V5.61309C24.0119 5.26976 23.7421 5 23.3988 5H18.1384C17.5866 5 17.3169 5.66214 17.697 6.04226V6.04226Z" fill="current"/>
    </g>
    <defs>
        <clipPath id="clip0">
            <rect width="24" height="24" fill="white"/>
        </clipPath>
    </defs>
</svg>
