<svg viewBox="0 0 24 24" fill="current" xmlns="http://www.w3.org/2000/svg">
<path d="M6.54545 12.7273C8.35636 12.7273 9.81818 11.2655 9.81818 9.45455C9.81818 7.64364 8.35636 6.18182 6.54545 6.18182C4.73455 6.18182 3.27273 7.64364 3.27273 9.45455C3.27273 11.2655 4.73455 12.7273 6.54545 12.7273ZM19.6364 6.18182H13.0909C11.8909 6.18182 10.9091 7.16364 10.9091 8.36364V13.8182H2.18182V5.09091C2.18182 4.49091 1.69091 4 1.09091 4C0.490909 4 0 4.49091 0 5.09091V19.2727C0 19.8727 0.490909 20.3636 1.09091 20.3636C1.69091 20.3636 2.18182 19.8727 2.18182 19.2727V17.0909H21.8182V19.2727C21.8182 19.8727 22.3091 20.3636 22.9091 20.3636C23.5091 20.3636 24 19.8727 24 19.2727V10.5455C24 8.13455 22.0473 6.18182 19.6364 6.18182Z"/>
</svg>
