<svg viewBox="0 0 24 24" fill="current" xmlns="http://www.w3.org/2000/svg">
<path fill-rule="evenodd" clip-rule="evenodd" d="M11.293 0.292789L0.29282 11.2929C0.00690651 11.5789 -0.0786076 12.0089 0.0761395 12.3826C0.230885 12.7562 0.595428 12.9998 0.99983 12.9999H2.24985C2.38792 12.9999 2.49985 13.1118 2.49985 13.2499V23C2.49985 23.5523 2.94757 24 3.49987 24H9.24996C9.38803 24 9.49996 23.8881 9.49996 23.75V19C9.49996 17.6192 10.6193 16.4999 12 16.4999C13.3807 16.4999 14.5 17.6192 14.5 19V23.75C14.5 23.8881 14.612 24 14.75 24H20.5001C21.0524 24 21.5001 23.5523 21.5001 23V13.2499C21.5001 13.1118 21.6121 12.9999 21.7501 12.9999H23.0002C23.4046 12.9998 23.7691 12.7562 23.9239 12.3826C24.0786 12.0089 23.9931 11.5789 23.7072 11.2929L12.707 0.292789C12.3165 -0.0975964 11.6835 -0.0975964 11.293 0.292789ZM14.5 9.49987C14.5 10.8806 13.3807 11.9999 12 11.9999C11.3369 11.9999 10.701 11.7365 10.2322 11.2677C9.76333 10.7988 9.49993 10.1629 9.49993 9.49987C9.49993 8.11915 10.6192 6.99985 12 6.99985C13.3807 6.99985 14.5 8.11915 14.5 9.49987Z"/>
</svg>
