<svg viewBox="0 0 24 24" fill="current" xmlns="http://www.w3.org/2000/svg">
<path fill-rule="evenodd" clip-rule="evenodd" d="M23.5714 13.2C23.8081 13.2 24 13.003 24 12.76V9.68C24 8.22197 22.8487 7.04 21.4286 7.04H18.8571C18.8571 3.15192 15.7871 0 12 0C8.2129 0 5.14286 3.15192 5.14286 7.04H2.57143C1.15127 7.04 0 8.22197 0 9.68V12.76C0 13.003 0.191878 13.2 0.428571 13.2H23.5714ZM12 3.52C13.8936 3.52 15.4286 5.09596 15.4286 7.04H8.57144C8.57144 5.09596 10.1065 3.52 12 3.52ZM13.2857 16.02C13.2857 15.788 13.4776 15.6 13.7143 15.6H23.5714C23.8081 15.6 24 15.788 24 16.02V21.48C24 22.8718 22.8487 24 21.4286 24H2.57143C1.15127 24 0 22.8718 0 21.48V16.02C0 15.788 0.191878 15.6 0.428571 15.6H10.2857C10.5224 15.6 10.7143 15.788 10.7143 16.02V17.7C10.7143 18.3959 11.2899 18.96 12 18.96C12.7101 18.96 13.2857 18.3959 13.2857 17.7V16.02Z"/>
</svg>
