<?xml version="1.0" encoding="UTF-8"?>
<svg viewBox="0 0 24 24" version="1.1" xmlns="http://www.w3.org/2000/svg">
    <title>nettype_eth_wifi_24</title>
    <g id="Network-Types" stroke="none" stroke-width="1" fill="current" fill-rule="evenodd">
        <g id="Network-Types-(24x24)" transform="translate(-96.000000, 0.000000)" fill="current">
            <g id="nettype_eth_wifi_24" transform="translate(96.000000, 0.000000)">
                <path d="M12,5 C8.13,5 5,8.13 5,12 L7,12 C7,9.24 9.24,7 12,7 C14.76,7 17,9.24 17,12 L19,12 C19,8.13 15.87,5 12,5 L12,5 Z M13,14.29 C13.88,13.9 14.5,13.03 14.5,12 C14.5,10.62 13.38,9.5 12,9.5 C10.62,9.5 9.5,10.62 9.5,12 C9.5,13.02 10.12,13.9 11,14.29 L11,17.59 L7.59,21 L9,22.41 L12,19.41 L15,22.41 L16.41,21 L13,17.59 L13,14.29 L13,14.29 Z M12,1 C5.93,1 1,5.93 1,12 L3,12 C3,7.03 7.03,3 12,3 C16.97,3 21,7.03 21,12 L23,12 C23,5.93 18.07,1 12,1 L12,1 Z" id="Mask"></path>
            </g>
        </g>
    </g>
</svg>