<?xml version="1.0" encoding="UTF-8"?>
<svg viewBox="0 0 24 24" version="1.1" xmlns="http://www.w3.org/2000/svg">
    <title>nettype_eth_usb_24</title>
    <g id="Network-Types" stroke="none" stroke-width="1" fill="current" fill-rule="evenodd">
        <g id="Network-Types-(24x24)" transform="translate(-72.000000, 0.000000)">
            <g id="cable-24px" transform="translate(72.000000, 0.000000)">
                <path d="M20,5 L20,4 C20,3.45 19.55,3 19,3 L17,3 C16.45,3 16,3.45 16,4 L16,5 L16,5 C15.45,5 15,5.45 15,6 L15,9 C15,9.55 15.45,10 16,10 L17,10 L17,16.91 C17,17.95 16.24,18.89 15.21,18.99 C14.01,19.11 13,18.17 13,17 L13,7.14 C13,5.01 11.39,3.15 9.26,3.01 C6.93,2.86 5,4.7 5,7 L5,14 L4,14 C3.45,14 3,14.45 3,15 L3,18 C3,18.55 3.45,19 4,19 L4,19 L4,20 C4,20.55 4.45,21 5,21 L7,21 C7.55,21 8,20.55 8,20 L8,19 L8,19 C8.55,19 9,18.55 9,18 L9,15 C9,14.45 8.55,14 8,14 L7,14 L7,7.09 C7,6.05 7.76,5.11 8.79,5.01 C9.99,4.89 11,5.83 11,7 L11,16.86 C11,18.99 12.61,20.85 14.74,20.99 C17.07,21.14 19,19.3 19,17 L19,10 L20,10 C20.55,10 21,9.55 21,9 L21,6 C21,5.45 20.55,5 20,5 L20,5 Z" id="Path" fill="current" fill-rule="nonzero"></path>
            </g>
        </g>
    </g>
</svg>