<?xml version="1.0" encoding="UTF-8"?>
<svg viewBox="0 0 24 24" version="1.1" xmlns="http://www.w3.org/2000/svg">
    <title>nettype_fingbox_v2_24</title>
    <g id="Network-Types" stroke="none" stroke-width="1" fill="current" fill-rule="evenodd">
        <g id="Network-Types-(24x24)" transform="translate(-144.000000, 0.000000)" fill="current">
            <g id="nettype_fingbox_v2_24" transform="translate(144.000000, 0.000000)">
                <g id="Fingbox" transform="translate(2.000000, 5.000000)">
                    <path d="M10.5,0 C15.3832916,0 19.4507583,1.38422548 20.3402205,3.21656854 L20.3431018,3.22252896 C21.1152882,4.70528558 21.0632583,8.74999593 20.8958234,9.62304467 C20.6417761,10.9477136 17.887881,13.7254601 10.4972249,13.8406283 C3.10656891,13.9557965 0.228315114,10.8082583 0.093883674,9.62304467 C0.0503392171,9.23913534 -0.258336056,5.08557556 0.654885412,3.22263253 L0.654885412,3.22263253 C0.638242215,3.26128192 0.621007429,3.30023467 0.605216107,3.33937835 L0.659779508,3.21656854 C1.54924168,1.38422548 5.61670837,0 10.5,0 Z M10.5,1 C9.32371775,1 8.20390695,1.08671959 7.17856609,1.23736084 L6.62888657,1.3257311 C6.08903275,1.42016665 5.57934121,1.53238697 5.10597848,1.65869233 L4.64495376,1.78955566 C2.70163431,2.3757876 1.47908745,3.20334753 1.47908745,3.97118644 C1.47908745,4.56183175 2.20248796,5.18781495 3.42089832,5.71210872 L3.80104334,5.86620913 C5.44495387,6.49444114 7.82663126,6.94237288 10.5,6.94237288 C13.1733687,6.94237288 15.5550461,6.49444114 17.1989567,5.86620913 L17.5791017,5.71210872 C18.797512,5.18781495 19.5209125,4.56183175 19.5209125,3.97118644 C19.5209125,3.20334753 18.2983657,2.3757876 16.3550462,1.78955566 L15.8940215,1.65869233 C15.4206588,1.53238697 14.9109672,1.42016665 14.3711134,1.3257311 L13.8214339,1.23736084 C12.796093,1.08671959 11.6762822,1 10.5,1 Z M10.4201521,2.2 C12.1179552,2.2 13.4942966,2.73877598 13.4942966,3.40338983 C13.4942966,4.06800368 12.1179552,4.60677966 10.4201521,4.60677966 C8.72234897,4.60677966 7.3460076,4.06800368 7.3460076,3.40338983 C7.3460076,2.73877598 8.72234897,2.2 10.4201521,2.2 Z" id="Combined-Shape"></path>
                </g>
            </g>
        </g>
    </g>
</svg>