<?xml version="1.0" encoding="UTF-8"?>
<svg viewBox="0 0 24 24" version="1.1" xmlns="http://www.w3.org/2000/svg">
    <title>nettype_wifi_24</title>
    <g id="Network-Types" stroke="none" stroke-width="1" fill="current" fill-rule="evenodd">
        <g id="nettype_wifi_24" fill="current" transform="translate(12.000000, 12.000000) scale(-1, 1) translate(-12.000000, -12.000000) ">
            <path d="M3.97048668,9.67567994 C8.61995759,5.88673154 15.3230371,5.87481097 19.9854299,9.63991825 C20.3357175,9.92279242 21.1704761,10.3820239 21.9782764,9.57422363 C22.7860767,8.76642334 22.3435729,7.92394082 22.0004538,7.63542135 C16.2332833,2.78596525 7.76578519,2.78819391 1.99310012,7.64210733 C1.65230467,7.9286623 1.10875977,8.66125977 2.00277222,9.55527222 C2.89678467,10.4492847 3.63584394,9.94838712 3.97048668,9.67567994 Z M9.30352295,16.8560229 C10.4700916,18.2508095 12,19.5525 12,19.5525 C12,19.5525 13.8447085,17.8327938 14.6433459,16.9091541 C14.9124756,16.5979004 14.7906018,16.3523142 14.6803597,16.2618651 C13.1149266,14.9774908 10.8379121,14.9894894 9.27789166,16.2978608 C9.18246955,16.3778903 9.0489502,16.5525 9.30352295,16.8560229 Z M7.60931142,14.0090162 C10.1756706,11.9718238 13.833241,11.9736629 16.39763,14.0145334 C16.6060305,14.1803891 17.3721109,14.1803891 17.9857227,13.5667773 C18.5993345,12.9531655 18.6095153,12.1775692 18.4058995,12.004467 C14.7232724,8.87371261 9.27943639,8.87517836 5.59034006,12.0088642 C5.38809297,12.1806621 5.28042114,12.8329211 6.00057495,13.553075 C6.72072876,14.2732288 7.39843607,14.1764104 7.60931142,14.0090162 Z" id="Mask"></path>
        </g>
    </g>
</svg>