<?xml version="1.0" encoding="UTF-8"?>
<svg viewBox="0 0 24 24" version="1.1" xmlns="http://www.w3.org/2000/svg">
    <title>nettype_fingbox_v1_24</title>
    <g id="Network-Types" stroke="none" stroke-width="1" fill="current" fill-rule="evenodd">
        <g id="Network-Types-(24x24)" transform="translate(-120.000000, 0.000000)" fill="current">
            <g id="nettype_fingbox_v1_24" transform="translate(120.000000, 0.000000)">
                <g id="fingbox" transform="translate(1.000000, 4.000000)">
                    <path d="M10.5500322,0.728328432 C18.5251561,0.728328432 20.3260347,3.85077859 20.3260347,3.85077859 C21.2636462,4.91639894 21.0121194,6.06055154 21.0121194,6.06055154 L21.0121194,6.06055154 L20.5756655,10.0144262 C20.499289,10.5868222 20.3403145,11.147825 20.0808479,11.6659285 C18.7514588,14.3205625 15.2997045,15.5696379 10.4240534,15.4156542 C6.9275042,15.3052092 3.83464228,14.3742155 2.01487955,12.7878177 C0.988093,11.8927478 0.374296368,10.7405152 0.282929015,9.39593394 L0.282929015,9.39593394 L0.060317378,5.40537987 L0.060317378,5.40537987 L0.0480521108,5.25587215 C0.0268397163,5.02457696 0.0364386211,4.01964326 0.745394766,3.29593753 C0.745394766,3.29593753 2.57490837,0.728328432 10.5500322,0.728328432 Z M10.5009125,2 C9.3246303,2 8.2048195,2.08671959 7.17947864,2.23736084 L6.62979912,2.3257311 C6.0899453,2.42016665 5.58025375,2.53238697 5.10689103,2.65869233 L4.64586631,2.78955566 C2.70254686,3.3757876 1.48,4.20334753 1.48,4.97118644 C1.48,5.56183175 2.20340051,6.18781495 3.42181087,6.71210872 L3.80195588,6.86620913 C5.44586642,7.49444114 7.8275438,7.94237288 10.5009125,7.94237288 C13.1742813,7.94237288 15.5559587,7.49444114 17.1998692,6.86620913 L17.5800142,6.71210872 C18.7984246,6.18781495 19.5218251,5.56183175 19.5218251,4.97118644 C19.5218251,4.20334753 18.2992782,3.3757876 16.3559588,2.78955566 L15.8949341,2.65869233 C15.4215713,2.53238697 14.9118798,2.42016665 14.372026,2.3257311 L13.8223465,2.23736084 C12.7970056,2.08671959 11.6771948,2 10.5009125,2 Z" id="Combined-Shape"></path>
                </g>
            </g>
        </g>
    </g>
</svg>