<?xml version="1.0" encoding="UTF-8"?>
<svg viewBox="0 0 24 24" version="1.1" xmlns="http://www.w3.org/2000/svg">
    <title>nettype_eth_24</title>
    <g id="Network-Types" stroke="none" stroke-width="1" fill="current" fill-rule="evenodd">
        <g id="Network-Types-(24x24)" transform="translate(-48.000000, 0.000000)" fill="current">
            <g id="nettype_eth_24" transform="translate(48.000000, 0.000000)">
                <path d="M7.95,6.28 L6.41,5 L1,11.52 L6.41,18.04 L7.95,16.76 L3.6,11.52 L7.95,6.28 L7.95,6.28 Z M7.18,12.52 L9.18,12.52 L9.18,10.52 L7.18,10.52 L7.18,12.52 L7.18,12.52 Z M17.18,10.52 L15.18,10.52 L15.18,12.52 L17.18,12.52 L17.18,10.52 L17.18,10.52 Z M11.18,12.52 L13.18,12.52 L13.18,10.52 L11.18,10.52 L11.18,12.52 L11.18,12.52 Z M17.95,5 L16.41,6.28 L20.76,11.52 L16.41,16.76 L17.95,18.04 L23.36,11.52 L17.95,5 L17.95,5 Z" id="Mask"></path>
            </g>
        </g>
    </g>
</svg>