<?xml version="1.0" encoding="UTF-8"?>
<svg viewBox="0 0 24 24" version="1.1" xmlns="http://www.w3.org/2000/svg">
    <title>alarm_24</title>
    <g id="Device-Types" stroke="none" stroke-width="1" fill="current" fill-rule="evenodd">
        <g id="Smart-Home" transform="translate(-368.000000, -88.000000)" fill="current" fill-rule="nonzero">
            <g id="safety-bell" transform="translate(368.000000, 88.000000)">
                <path d="M6.341,4.119 C5.28435597,4.68256343 4.34409704,5.44128554 3.57,6.355 C3.33777736,6.62723638 3.26843117,7.00268247 3.38808348,7.33991136 C3.50773578,7.67714026 3.79820854,7.92491886 4.15008348,7.98991137 C4.50195842,8.05490388 4.86177737,7.92723639 5.094,7.655 C5.70553899,6.93146005 6.4482196,6.32991928 7.283,5.882 C7.61070965,5.72073784 7.82443389,5.3936395 7.84050564,5.02875486 C7.85657739,4.66387023 7.67243984,4.31924762 7.36017772,4.12979719 C7.0479156,3.94034677 6.65720567,3.93620758 6.341,4.119 L6.341,4.119 Z" id="Shape"></path>
                <path d="M6.66,2.438 C7.17776695,2.24470034 7.44079966,1.66826695 7.2475,1.1505 C7.05420034,0.632733047 6.47776695,0.369700338 5.96,0.563 C3.75673161,1.38380955 1.82963105,2.80937873 0.4,4.676 C0.17105631,4.95761729 0.112669403,5.34117267 0.247446083,5.67815748 C0.382222763,6.01514229 0.689002938,6.25264952 1.04900451,6.29871884 C1.40900608,6.34478816 1.76570839,6.19218664 1.981,5.9 C3.18326112,4.32813094 4.80525404,3.12801563 6.66,2.438 L6.66,2.438 Z" id="Shape"></path>
                <path d="M13.341,5.882 C14.1758317,6.32815066 14.918861,6.92800266 15.531,7.65 C15.8902552,8.06432537 16.5161723,8.11202633 16.9340651,7.75692716 C17.3519578,7.40182799 17.4059078,6.77641847 17.055,6.355 C16.2807606,5.44102979 15.3401228,4.68227578 14.283,4.119 C13.9667943,3.93620758 13.5760844,3.94034677 13.2638223,4.12979719 C12.9515602,4.31924762 12.7674226,4.66387023 12.7834944,5.02875486 C12.7995661,5.3936395 13.0132904,5.72073784 13.341,5.882 L13.341,5.882 Z" id="Shape"></path>
                <path d="M13.965,2.438 C15.819563,3.12835332 17.4414695,4.32840469 18.644,5.9 C18.8626465,6.18331162 19.2158292,6.32845581 19.5705076,6.28075816 C19.9251859,6.23306051 20.2274758,5.99976743 20.3635076,5.66875816 C20.4995393,5.33774888 20.4486466,4.95931161 20.23,4.676 C18.7976595,2.80787041 16.866914,1.38216908 14.66,0.563 C14.142233,0.369700338 13.5657997,0.632733047 13.3725,1.1505 C13.1792003,1.66826695 13.442233,2.24470034 13.96,2.438 L13.965,2.438 Z" id="Shape"></path>
                <circle id="Oval" cx="21.812" cy="11.501" r="2"></circle>
                <path d="M22.5,14.159 C22.0512305,14.2816598 21.5777695,14.2816598 21.129,14.159 C21.0538347,14.1391789 20.9737273,14.1553028 20.9120838,14.2026607 C20.8504403,14.2500186 20.8142178,14.3232655 20.814,14.401 L20.814,17.974 C20.814,19.9069966 19.2469966,21.474 17.314,21.474 L16.029,21.474 C15.9292667,21.4752341 15.8384202,21.4168353 15.798134,21.3255924 C15.7578478,21.2343495 15.7758962,21.1278705 15.844,21.055 C18.2301822,18.43717 18.4569333,14.5059088 16.3875616,11.6310871 C14.3181899,8.75626537 10.5182292,7.7235364 7.27839864,9.15545717 C4.03856809,10.5873779 2.24427339,14.0926222 2.977164,17.5581338 C3.7100546,21.0236453 6.76984054,23.5023427 10.312,23.5000017 L17.312,23.473 C20.3481953,23.4696932 22.8086932,21.0091953 22.8120002,17.973 L22.8120002,14.4 C22.8120002,14.3223476 22.7761162,14.2490562 22.7146107,14.2016539 C22.6531052,14.1542516 22.5730648,14.1381209 22.498,14.158 L22.5,14.159 Z M10.312,18 C9.2074305,18 8.312,17.1045695 8.312,16 C8.312,14.8954305 9.2074305,14 10.312,14 C11.4165695,14 12.312,14.8954305 12.312,16 C12.312,17.1045695 11.4165695,18 10.312,18 Z" id="Shape"></path>
            </g>
        </g>
    </g>
</svg>