<?xml version="1.0" encoding="UTF-8"?>
<svg viewBox="0 0 24 24" version="1.1" xmlns="http://www.w3.org/2000/svg">
    <title>appliance_24</title>
    <g id="Device-Types" stroke="none" stroke-width="1" fill="current" fill-rule="evenodd">
        <g id="Smart-Home" transform="translate(-8.000000, -48.000000)" fill="current" fill-rule="nonzero">
            <g id="Bold" transform="translate(8.000000, 48.000000)">
                <path d="M22.5,4.5 L1.5,4.5 C1.22385763,4.5 1,4.72385763 1,5 L1,22.5 C1,23.3284271 1.67157288,24 2.5,24 L21.5,24 C22.3284271,24 23,23.3284271 23,22.5 L23,5 C23,4.72385763 22.7761424,4.5 22.5,4.5 Z M15.5,7 C16.0522847,7 16.5,7.44771525 16.5,8 C16.5,8.55228475 16.0522847,9 15.5,9 C14.9477153,9 14.5,8.55228475 14.5,8 C14.5,7.44771525 14.9477153,7 15.5,7 Z M3.5,7.5 C3.5,7.22385763 3.72385763,7 4,7 L12,7 C12.2761424,7 12.5,7.22385763 12.5,7.5 L12.5,8.5 C12.5,8.77614237 12.2761424,9 12,9 L4,9 C3.72385763,9 3.5,8.77614237 3.5,8.5 L3.5,7.5 Z M20.5,21 C20.5,21.2761424 20.2761424,21.5 20,21.5 L4,21.5 C3.72385763,21.5 3.5,21.2761424 3.5,21 L3.5,12 C3.5,11.7238576 3.72385763,11.5 4,11.5 L20,11.5 C20.2761424,11.5 20.5,11.7238576 20.5,12 L20.5,21 Z M19.5,9 C18.9477153,9 18.5,8.55228475 18.5,8 C18.5,7.44771525 18.9477153,7 19.5,7 C20.0522847,7 20.5,7.44771525 20.5,8 C20.5,8.55228475 20.0522847,9 19.5,9 Z" id="Shape"></path>
                <path d="M22.5,0 L1.5,0 C0.671572875,0 -6.19521816e-05,0.671572875 -6.19521816e-05,1.5 L-6.19521816e-05,2 C-0.00297668756,2.26611786 0.101424011,2.52220495 0.289609529,2.71039047 C0.477795046,2.89857599 0.733882136,3.00297669 1,3 L23,3 C23.2661179,3.00297669 23.522205,2.89857599 23.7103905,2.71039047 C23.898576,2.52220495 24.0029767,2.26611786 24.000062,2 L24.000062,1.5 C24.000062,0.671572875 23.3284271,0 22.5,0 Z" id="Shape"></path>
                <path d="M17.5,15.5 L6.5,15.5 C5.94771525,15.5 5.5,15.0522847 5.5,14.5 C5.5,13.9477153 5.94771525,13.5 6.5,13.5 L17.5,13.5 C18.0522847,13.5 18.5,13.9477153 18.5,14.5 C18.5,15.0522847 18.0522847,15.5 17.5,15.5 Z" id="Shape"></path>
            </g>
        </g>
    </g>
</svg>