<?xml version="1.0" encoding="UTF-8"?>
<svg viewBox="0 0 24 24" version="1.1" xmlns="http://www.w3.org/2000/svg">
    <title>arduino_24</title>
    <g id="Device-Types" stroke="none" stroke-width="1" fill="current" fill-rule="evenodd">
        <g id="Engineering" transform="translate(-48.000000, -8.000000)" fill="current" fill-rule="nonzero">
            <g id="arduino_24" transform="translate(48.000000, 8.000000)">
                <g id="arduino-plus-minus-alternate" transform="translate(0.000000, 1.000000)">
                    <path d="M17.7387692,5.95891667 C15.0138462,5.95891667 13.0375385,8.16979167 12,9.685875 C10.9624615,8.16979167 8.98615385,5.95891667 6.26123077,5.95891667 C4.83103627,5.90756684 3.44447121,6.47481893 2.43247891,7.52528204 C1.42048662,8.57574514 0.873863556,10.0151712 0.923076923,11.5 C0.873878654,12.9849107 1.42047512,14.4244228 2.43243526,15.4750342 C3.44439541,16.5256456 4.83094891,17.093119 6.26123077,17.0420417 C8.98615385,17.0420417 10.9624615,14.8311667 12,13.314125 C13.0375385,14.8311667 15.0138462,17.0420417 17.7387692,17.0420417 C19.1690511,17.093119 20.5556046,16.5256456 21.5675647,15.4750342 C22.5795249,14.4244228 23.1261213,12.9849107 23.0769231,11.5 C23.1261364,10.0151712 22.5795134,8.57574514 21.5675211,7.52528204 C20.5555288,6.47481893 19.1689637,5.90756684 17.7387692,5.95891667 Z M6.26123077,15.1263333 C5.32231766,15.1713213 4.40856924,14.803697 3.74403855,14.1136026 C3.07950786,13.4235081 2.72564967,12.4747624 2.76923077,11.5 C2.72618552,10.5255624 3.08028065,9.57733422 3.7447485,8.88766975 C4.40921635,8.19800528 5.32265348,7.83063638 6.26123077,7.87558333 C8.59384615,7.87558333 10.3301538,10.4535 10.9393846,11.4990417 C10.3273846,12.5388333 8.57353846,15.1263333 6.26123077,15.1263333 Z M17.7387692,15.1263333 C15.4061538,15.1263333 13.6698462,12.5484167 13.0606154,11.502875 C13.6726154,10.462125 15.4264615,7.87558333 17.7387692,7.87558333 C18.6773465,7.83063638 19.5907837,8.19800528 20.2552515,8.88766975 C20.9197193,9.57733422 21.2738145,10.5255624 21.2307692,11.5 C21.2743503,12.4747624 20.9204921,13.4235081 20.2559615,14.1136026 C19.5914308,14.803697 18.6776823,15.1713213 17.7387692,15.1263333 L17.7387692,15.1263333 Z" id="Shape"></path>
                    <path d="M7.84615385,10.511 L5.07692308,10.511 C4.6945721,10.511 4.38461538,10.8327953 4.38461538,11.22975 C4.38461538,11.6267047 4.6945721,11.9485 5.07692308,11.9485 L7.84615385,11.9485 C8.22850483,11.9485 8.53846154,11.6267047 8.53846154,11.22975 C8.53846154,10.8327953 8.22850483,10.511 7.84615385,10.511 Z" id="Shape"></path>
                    <path d="M18.9230769,10.511 L18.4615385,10.511 C18.3340881,10.511 18.2307692,10.4037349 18.2307692,10.2714167 L18.2307692,9.79225 C18.2307692,9.39529534 17.9208125,9.0735 17.5384615,9.0735 C17.1561106,9.0735 16.8461538,9.39529534 16.8461538,9.79225 L16.8461538,10.2714167 C16.8461538,10.4037349 16.7428349,10.511 16.6153846,10.511 L16.1538462,10.511 C15.7714952,10.511 15.4615385,10.8327953 15.4615385,11.22975 C15.4615385,11.6267047 15.7714952,11.9485 16.1538462,11.9485 L16.6153846,11.9485 C16.7428349,11.9485 16.8461538,12.0557651 16.8461538,12.1880833 L16.8461538,12.66725 C16.8461538,13.0642047 17.1561106,13.386 17.5384615,13.386 C17.9208125,13.386 18.2307692,13.0642047 18.2307692,12.66725 L18.2307692,12.1880833 C18.2307692,12.0557651 18.3340881,11.9485 18.4615385,11.9485 L18.9230769,11.9485 C19.3054279,11.9485 19.6153846,11.6267047 19.6153846,11.22975 C19.6153846,10.8327953 19.3054279,10.511 18.9230769,10.511 Z" id="Shape"></path>
                </g>
            </g>
        </g>
    </g>
</svg>