<?xml version="1.0" encoding="UTF-8"?>
<svg viewBox="0 0 24 24" version="1.1" xmlns="http://www.w3.org/2000/svg">
    <title>automotive_24</title>
    <g id="Device-Types" stroke="none" stroke-width="1" fill="current" fill-rule="evenodd">
        <g id="Industry" transform="translate(-72.000000, -8.000000)" fill="current" fill-rule="nonzero">
            <g id="streamline-icon-car-repair-bottom@24x24" transform="translate(72.000000, 8.000000)">
                <path d="M15.9,19.885 L15.491,19.65 C15.3992424,19.5971126 15.3507659,19.4921469 15.37,19.388 C15.408301,19.1775009 15.4273795,18.9639548 15.427,18.75 C15.4267625,18.5290758 15.4049929,18.3087007 15.362,18.092 C15.3441498,18.0002371 15.3867926,17.9073079 15.468,17.861 L15.891,17.616 C16.1301341,17.4779248 16.2120647,17.1721402 16.074,16.933 L15.574,16.074 C15.5070097,15.9579246 15.396225,15.8736016 15.2664997,15.8399482 C15.1367744,15.8062948 14.9989693,15.8261286 14.884,15.895 L14.519,16.114 C14.4263291,16.1689397 14.3089831,16.158893 14.227,16.089 C13.9098831,15.8160789 13.5474037,15.600825 13.156,15.453 C13.0610819,15.4141901 12.9993176,15.3215435 13,15.219 L13,14.75 C13,14.4738576 12.7761424,14.25 12.5,14.25 L11.5,14.25 C11.2238576,14.25 11,14.4738576 11,14.75 L11,15.219 C10.9998298,15.3239845 10.9338304,15.4175836 10.835,15.453 C10.4204855,15.6016019 10.033799,15.8186061 9.691,16.095 C9.61136044,16.1619343 9.49850234,16.1723029 9.408,16.121 L8.979,15.878 C8.74075794,15.7426434 8.43795492,15.824253 8.3,16.061 L7.792,16.933 C7.72518108,17.0478575 7.70683032,17.1845887 7.741,17.313 C7.77617825,17.4397571 7.85989297,17.5475443 7.974,17.613 L8.393,17.856 C8.47207442,17.9043756 8.51212647,17.9972964 8.493,18.088 C8.44967137,18.3046677 8.42756684,18.5250431 8.427,18.746 C8.42728025,18.9600157 8.44702829,19.1735623 8.486,19.384 C8.50604949,19.4879976 8.4578421,19.5932504 8.366,19.646 L7.96,19.88 C7.72086592,20.0180752 7.63893533,20.3238598 7.777,20.563 L8.277,21.435 C8.41352802,21.672019 8.71517227,21.7553388 8.954,21.622 L9.399,21.374 C9.48962816,21.3232856 9.6021295,21.3336214 9.682,21.4 C10.0246911,21.677594 10.4118007,21.895322 10.827,22.044 C10.9260195,22.0791675 10.9921277,22.172921 10.992,22.278 L10.992,22.746 C10.992,23.0221424 11.2158576,23.246 11.492,23.246 L12.492,23.246 C12.7681424,23.246 12.992,23.0221424 12.992,22.746 L12.992,22.278 C12.9918716,22.1735985 13.0563819,22.0800188 13.154,22.043 C13.5462535,21.895231 13.9094548,21.679612 14.227,21.406 C14.3081259,21.3361283 14.424739,21.3256733 14.517,21.38 L14.899,21.605 C15.0141619,21.6729799 15.1517564,21.6919943 15.2810387,21.6577946 C15.410321,21.623595 15.5205156,21.5390316 15.587,21.423 L16.079,20.563 C16.2143699,20.3260227 16.1347044,20.0242733 15.9,19.885 Z M12,20.25 C11.1715729,20.25 10.5,19.5784271 10.5,18.75 C10.5,17.9215729 11.1715729,17.25 12,17.25 C12.8284271,17.25 13.5,17.9215729 13.5,18.75 C13.5,19.5784271 12.8284271,20.25 12,20.25 Z" id="Shape"></path>
                <path d="M23,22 L22.75,22 C22.6119288,22 22.5,21.8880712 22.5,21.75 L22.5,5 C22.5,4.44771525 22.0522847,4 21.5,4 C20.9477153,4 20.5,4.44771525 20.5,5 L20.5,10.75 C20.5,10.8880712 20.3880712,11 20.25,11 L18.25,11 C18.1119288,11 18,10.8880712 18,10.75 L18,9.729 C17.9998049,9.60715311 18.0878161,9.50306301 18.208,9.483 C18.8090922,9.38031301 19.2489747,8.85979952 19.25,8.25 L19.25,6.707 C19.2456482,6.35753979 19.0990354,6.02495254 18.844,5.786 L17.618,4.725 C17.5424031,4.65976483 17.48807,4.57338913 17.462,4.477 L16.562,1.125 C16.3909419,0.462494716 15.7932324,-0.000287929999 15.109,-1.04871917e-05 L8.891,-1.04871917e-05 C8.20785824,-0.0025456717 7.61001051,0.458604094 7.439,1.12 L6.539,4.478 C6.51292996,4.57438913 6.45859686,4.66076483 6.383,4.726 L5.117,5.826 C4.88333383,6.06096178 4.75181068,6.37862973 4.751,6.71 L4.751,8.25 C4.75194145,8.85948104 5.19130514,9.37988011 5.792,9.483 C5.91218393,9.50306301 6.00019507,9.60715311 6,9.729 L6,10.75 C6,10.8880712 5.88807119,11 5.75,11 L3.75,11 C3.61192881,11 3.5,10.8880712 3.5,10.75 L3.5,5 C3.5,4.44771525 3.05228475,4 2.5,4 C1.94771525,4 1.5,4.44771525 1.5,5 L1.5,21.75 C1.5,21.8880712 1.38807119,22 1.25,22 L1,22 C0.44771525,22 0,22.4477153 0,23 C0,23.5522847 0.44771525,24 1,24 L4,24 C4.55228475,24 5,23.5522847 5,23 C5,22.4477153 4.55228475,22 4,22 L3.75,22 C3.61192881,22 3.5,21.8880712 3.5,21.75 L3.5,13.25 C3.5,13.1119288 3.61192881,13 3.75,13 L20.25,13 C20.3880712,13 20.5,13.1119288 20.5,13.25 L20.5,21.75 C20.5,21.8880712 20.3880712,22 20.25,22 L20,22 C19.4477153,22 19,22.4477153 19,23 C19,23.5522847 19.4477153,24 20,24 L23,24 C23.5522847,24 24,23.5522847 24,23 C24,22.4477153 23.5522847,22 23,22 Z M15,10.75 C15,10.8880712 14.8880712,11 14.75,11 L9.25,11 C9.11192881,11 9,10.8880712 9,10.75 L9,9.75 C9,9.61192881 9.11192881,9.5 9.25,9.5 L14.75,9.5 C14.8880712,9.5 15,9.61192881 15,9.75 L15,10.75 Z M15.068,3.65 C15.0209959,3.71320198 14.946764,3.75031792 14.868,3.75000203 L9.13,3.75000203 C9.05211883,3.7501863 8.97859963,3.71406652 8.93115242,3.65230672 C8.8837052,3.59054691 8.86775062,3.51020288 8.888,3.435 L9.224,2.185 C9.25375071,2.07583856 9.35285709,2.00007542 9.466,2 L14.534,2 C14.6471429,2.00007542 14.7462493,2.07583856 14.776,2.185 L15.111,3.435 C15.1308789,3.51009463 15.1150133,3.5901605 15.068,3.652 L15.068,3.65 Z" id="Shape"></path>
            </g>
        </g>
    </g>
</svg>