<?xml version="1.0" encoding="UTF-8"?>
<svg viewBox="0 0 24 24" version="1.1" xmlns="http://www.w3.org/2000/svg">
    <title>baby_monitor_24</title>
    <g id="Device-Types" stroke="none" stroke-width="1" fill="current" fill-rule="evenodd">
        <g id="Smart-Home" transform="translate(-288.000000, -88.000000)" fill="current" fill-rule="nonzero">
            <g id="baby-care-cot-mobile" transform="translate(288.000000, 88.000000)">
                <path d="M24,4.5 C24,3.94771525 23.5522847,3.5 23,3.5 L13.5,3.5 C13.2238576,3.5 13,3.27614237 13,3 L13,1 C13,0.44771525 12.5522847,0 12,0 C11.4477153,0 11,0.44771525 11,1 L11,3 C11,3.27614237 10.7761424,3.5 10.5,3.5 L1,3.5 C0.44771525,3.5 0,3.94771525 0,4.5 C0,5.05228475 0.44771525,5.5 1,5.5 L3.5,5.5 C3.77614237,5.5 4,5.72385763 4,6 L4,9.141 C3.99987392,9.3444336 3.87650563,9.52750899 3.688,9.604 C2.1348339,10.2320081 1.24450554,11.8725819 1.56439513,13.5170848 C1.88428472,15.1615877 3.32467342,16.3487891 5,16.3487891 C6.67532658,16.3487891 8.11571528,15.1615877 8.43560487,13.5170848 C8.75549446,11.8725819 7.8651661,10.2320081 6.312,9.604 C6.12349437,9.52750899 6.00012608,9.3444336 6,9.141 L6,6 C6,5.72385763 6.22385763,5.5 6.5,5.5 L10.5,5.5 C10.7761424,5.5 11,5.72385763 11,6 L11,14.233 C10.9998969,14.4082137 10.9080861,14.5705897 10.758,14.661 C9.29738334,15.5437388 8.43847378,17.1563539 8.521,18.861 C8.521,21.866 10.542,23.786 13.929,23.998 L13.978,23.998 C14.2825513,23.998 14.5561938,23.8119261 14.6684264,23.5288088 C14.780659,23.2456916 14.7087528,22.9227516 14.487,22.714 C13.5343922,21.6417705 13.0450645,20.2359872 13.126,18.804 C13.0712145,17.4243589 13.5652635,16.079208 14.5,15.063 C14.7337826,14.8497285 14.8068295,14.5117863 14.682,14.221 C14.5624174,13.9300886 14.2697372,13.7486753 13.956,13.771 C13.819,13.779 13.684,13.789 13.551,13.802 C13.4094529,13.8165196 13.2684241,13.770044 13.1632419,13.6742156 C13.0580596,13.5783871 12.9986881,13.4422838 13,13.3 L13,6 C13,5.72385763 13.2238576,5.5 13.5,5.5 L17.5,5.5 C17.7761424,5.5 18,5.72385763 18,6 L18,11.909 C17.9997139,12.0732797 17.9592005,12.2349897 17.882,12.38 L15.468,16.894 C15.303018,17.2038382 15.3125723,17.5774942 15.4931734,17.878496 C15.6737744,18.1794977 15.9989747,18.3637661 16.35,18.364 L21.65,18.364 C22.0010253,18.3637661 22.3262256,18.1794977 22.5068266,17.878496 C22.6874277,17.5774942 22.696982,17.2038382 22.532,16.894 L22.532,16.894 L20.118,12.38 C20.0407995,12.2349897 20.0002861,12.0732797 20,11.909 L20,6 C20,5.72385763 20.2238576,5.5 20.5,5.5 L23,5.5 C23.5522847,5.5 24,5.05228475 24,4.5 Z" id="Shape"></path>
            </g>
        </g>
    </g>
</svg>