<?xml version="1.0" encoding="UTF-8"?>
<svg viewBox="0 0 24 24" version="1.1" xmlns="http://www.w3.org/2000/svg">
    <title>barcode_24</title>
    <g id="Device-Types" stroke="none" stroke-width="1" fill="current" fill-rule="evenodd">
        <g id="Home-&amp;-Office" transform="translate(-328.000000, -8.000000)" fill="current">
            <g id="barcode_24" transform="translate(328.000000, 8.000000)">
                <path d="M4,2 L0.8,2 C0.3584,2 0,2.35466667 0,2.79166667 L0,5.95833333 C0,6.39533333 0.3584,6.75 0.8,6.75 C1.2416,6.75 1.6,6.39533333 1.6,5.95833333 L1.6,3.58333333 L4,3.58333333 C4.4416,3.58333333 4.8,3.22866667 4.8,2.79166667 C4.8,2.35466667 4.4416,2 4,2 Z" id="Path"></path>
                <path d="M23.2,16.25 C22.7584,16.25 22.4,16.6046667 22.4,17.0416667 L22.4,19.4166667 L20,19.4166667 C19.5584,19.4166667 19.2,19.7713333 19.2,20.2083333 C19.2,20.6453333 19.5584,21 20,21 L23.2,21 C23.6416,21 24,20.6453333 24,20.2083333 L24,17.0416667 C24,16.6046667 23.6416,16.25 23.2,16.25 Z" id="Path"></path>
                <path d="M23.2,2 L20,2 C19.5584,2 19.2,2.35466667 19.2,2.79166667 C19.2,3.22866667 19.5584,3.58333333 20,3.58333333 L22.4,3.58333333 L22.4,5.95833333 C22.4,6.39533333 22.7584,6.75 23.2,6.75 C23.6416,6.75 24,6.39533333 24,5.95833333 L24,2.79166667 C24,2.35466667 23.6416,2 23.2,2 Z" id="Path"></path>
                <path d="M4,19.4166667 L1.6,19.4166667 L1.6,17.0416667 C1.6,16.6046667 1.2416,16.25 0.8,16.25 C0.3584,16.25 0,16.6046667 0,17.0416667 L0,20.2083333 C0,20.6453333 0.3584,21 0.8,21 L4,21 C4.4416,21 4.8,20.6453333 4.8,20.2083333 C4.8,19.7713333 4.4416,19.4166667 4,19.4166667 Z" id="Path"></path>
                <rect id="Rectangle" x="3.2" y="5.16666667" width="1.6" height="12.6666667"></rect>
                <rect id="Rectangle" x="6.4" y="5.16666667" width="1.6" height="9.5"></rect>
                <rect id="Rectangle" x="9.6" y="5.16666667" width="1.6" height="9.5"></rect>
                <rect id="Rectangle" x="12.8" y="5.16666667" width="1.6" height="12.6666667"></rect>
                <rect id="Rectangle" x="16" y="5.16666667" width="1.6" height="9.5"></rect>
                <rect id="Rectangle" x="19.2" y="5.16666667" width="1.6" height="12.6666667"></rect>
                <rect id="Rectangle" x="6.4" y="16.25" width="1.6" height="1.58333333"></rect>
                <rect id="Rectangle" x="9.6" y="16.25" width="1.6" height="1.58333333"></rect>
                <rect id="Rectangle" x="16" y="16.25" width="1.6" height="1.58333333"></rect>
            </g>
        </g>
    </g>
</svg>