<?xml version="1.0" encoding="UTF-8"?>
<svg viewBox="0 0 24 24" version="1.1" xmlns="http://www.w3.org/2000/svg">
    <title>battery_24</title>
    <g id="Device-Types" stroke="none" stroke-width="1" fill="current" fill-rule="evenodd">
        <g id="Network" transform="translate(-128.000000, -45.000000)" fill="current" fill-rule="nonzero">
            <g id="charging-battery-cable-1" transform="translate(128.000000, 45.000000)">
                <path d="M24,7 C24,5.8954305 23.1045695,5 22,5 L21,5 L21,4 C21,2.8954305 20.1045695,2 19,2 L2,2 C0.8954305,2 0,2.8954305 0,4 L0,13 C0,14.1045695 0.8954305,15 2,15 L4.25,15 C4.38807119,15 4.5,14.8880712 4.5,14.75 L4.5,13.25 C4.5,13.1119288 4.38807119,13 4.25,13 L2.5,13 C2.22385763,13 2,12.7761424 2,12.5 L2,4.5 C2,4.22385763 2.22385763,4 2.5,4 L18.5,4 C18.7761424,4 19,4.22385763 19,4.5 L19,6 C19,6.55228475 19.4477153,7 20,7 L21.75,7 C21.8880712,7 22,7.11192881 22,7.25 L22,9.75 C22,9.88807119 21.8880712,10 21.75,10 L20,10 C19.4477153,10 19,10.4477153 19,11 L19,12.5 C19,12.7761424 18.7761424,13 18.5,13 L16.75,13 C16.6119288,13 16.5,13.1119288 16.5,13.25 L16.5,14.75 C16.5,14.8880712 16.6119288,15 16.75,15 L19,15 C20.1045695,15 21,14.1045695 21,13 L21,12 L22,12 C23.1045695,12 24,11.1045695 24,10 L24,7 Z" id="Shape"></path>
                <path d="M15,11.5 C15,10.6715729 14.3284271,10 13.5,10 L13.5,7 C13.5,6.44771525 13.0522847,6 12.5,6 C11.9477153,6 11.5,6.44771525 11.5,7 L11.5,9.746 C11.5,9.88407119 11.3880712,9.996 11.25,9.996 L9.75,9.996 C9.61192881,9.996 9.5,9.88407119 9.5,9.746 L9.5,7 C9.5,6.44771525 9.05228475,6 8.5,6 C7.94771525,6 7.5,6.44771525 7.5,7 L7.5,10 C6.67157288,10 6,10.6715729 6,11.5 L6,14.5 C6,16.4329966 7.56700338,18 9.5,18 L9.5,21 C9.5,21.5522847 9.94771525,22 10.5,22 C11.0522847,22 11.5,21.5522847 11.5,21 L11.5,18 C12.4282577,18 13.3184964,17.6312511 13.9748737,16.9748737 C14.6312511,16.3184964 15,15.4282577 15,14.5 L15,11.5 Z" id="Shape"></path>
            </g>
        </g>
    </g>
</svg>