<?xml version="1.0" encoding="UTF-8"?>
<svg viewBox="0 0 24 24" version="1.1" xmlns="http://www.w3.org/2000/svg">
    <title>bell_24</title>
    <g id="Device-Types" stroke="none" stroke-width="1" fill="current" fill-rule="evenodd">
        <g id="Smart-Home" transform="translate(-328.000000, -48.000000)" fill="current" fill-rule="nonzero">
            <g id="touch-finger-1" transform="translate(328.000000, 48.000000)">
                <path d="M17.129,17 L14.5,17 C14.3619288,17 14.25,16.8880712 14.25,16.75 L14.25,10.373 C14.25,9.06132372 13.1866763,7.998 11.875,7.998 C10.5633237,7.998 9.5,9.06132372 9.5,10.373 L9.5,18.9 C9.50021254,19.0089486 9.42984517,19.1054895 9.32606116,19.1386363 C9.22227715,19.1717832 9.10897775,19.1339024 9.046,19.045 L8.161,17.803 C7.61556648,16.8127453 6.37778986,16.4413574 5.37729077,16.9677638 C4.37679167,17.4941702 3.98181309,18.7246221 4.489,19.735 L6.589,23.726 C6.67367454,23.8931129 6.84466282,23.9988709 7.032,24 L21.25,24 C21.5261424,24 21.75,23.7761424 21.75,23.5 L21.75,21.845 C21.7761802,19.2449735 19.7273546,17.0968324 17.129,17 L17.129,17 Z" id="Shape"></path>
                <path d="M11.75,5 C12.3022847,5 12.75,4.55228475 12.75,4 L12.75,1 C12.75,0.44771525 12.3022847,0 11.75,0 C11.1977153,0 10.75,0.44771525 10.75,1 L10.75,4 C10.75,4.55228475 11.1977153,5 11.75,5 Z" id="Shape"></path>
                <path d="M16.346,6.316 L18.468,4.194 C18.8584653,3.80325854 18.8582414,3.16996532 18.4675,2.77950001 C18.0767585,2.3890347 17.4434653,2.38925855 17.053,2.78 L14.932,4.9 C14.6720434,5.15107447 14.5677874,5.52287789 14.6593028,5.87250732 C14.7508183,6.22213676 15.0238632,6.49518172 15.3734927,6.58669716 C15.7231221,6.6782126 16.0949255,6.57395658 16.346,6.314 L16.346,6.316 Z" id="Shape"></path>
                <path d="M16.25,9.5 C16.25,10.0522847 16.6977153,10.5 17.25,10.5 L20.25,10.5 C20.8022847,10.5 21.25,10.0522847 21.25,9.5 C21.25,8.94771525 20.8022847,8.5 20.25,8.5 L17.25,8.5 C16.6977153,8.5 16.25,8.94771525 16.25,9.5 Z" id="Shape"></path>
                <path d="M7.154,6.316 C7.5450176,6.70646532 8.17853468,6.7060176 8.569,6.315 C8.95946532,5.9239824 8.9590176,5.29046532 8.568,4.9 L6.447,2.78 C6.05462111,2.40102779 5.43091522,2.40644763 5.04518142,2.79218142 C4.65944763,3.17791522 4.65402779,3.80162111 5.033,4.194 L7.154,6.316 Z" id="Shape"></path>
                <path d="M7.25,9.5 C7.25,8.94771525 6.80228475,8.5 6.25,8.5 L3.25,8.5 C2.69771525,8.5 2.25,8.94771525 2.25,9.5 C2.25,10.0522847 2.69771525,10.5 3.25,10.5 L6.25,10.5 C6.80228475,10.5 7.25,10.0522847 7.25,9.5 Z" id="Shape"></path>
            </g>
        </g>
    </g>
</svg>