<?xml version="1.0" encoding="UTF-8"?>
<svg viewBox="0 0 24 24" version="1.1" xmlns="http://www.w3.org/2000/svg">
    <title>car_24</title>
    <g id="Device-Types" stroke="none" stroke-width="1" fill="current" fill-rule="evenodd">
        <g id="Mobile" transform="translate(-330.000000, -8.000000)" fill="current" fill-rule="nonzero">
            <g id="car-1" transform="translate(330.000000, 8.000000)">
                <path d="M22,10.375 C22.5522847,10.375 23,9.92728475 23,9.37499999 L23,8.37499999 C23,7.82271525 22.5522847,7.37499999 22,7.37499999 L19.9,7.37499999 C19.7924402,7.37491833 19.6969889,7.30604841 19.663,7.204 L18.563,3.904 C18.3599916,3.29017494 17.7865241,2.87548904 17.14,2.87499999 L6.86,2.87499999 C6.21453818,2.87499999 5.64139624,3.28775565 5.437,3.9 L4.337,7.2 C4.30301112,7.30204841 4.20755982,7.37091833 4.1,7.371 L2,7.371 C1.44771525,7.371 1,7.81871525 1,8.371 L1,9.371 C1,9.92328475 1.44771525,10.371 2,10.371 L2.689,10.371 C2.79025444,10.3708188 2.88161924,10.4317314 2.92039215,10.5252684 C2.95916507,10.6188053 2.93768842,10.7264929 2.866,10.798 L1.293,12.375 C1.1061891,12.5629855 1.00092717,12.8169793 1,13.082 L1,16.375 C1.00107029,16.7682835 1.23738075,17.1227492 1.6,17.275 C1.69106386,17.3147435 1.74994881,17.4046412 1.75,17.504 L1.75,19.878 C1.75220269,20.5669555 2.31104116,21.1244528 3,21.125 L5,21.125 C5.69012739,21.1244486 6.24944856,20.5651274 6.25,19.875 L6.25,17.625 C6.25,17.4869288 6.36192881,17.375 6.5,17.375 L17.5,17.375 C17.6380712,17.375 17.75,17.4869288 17.75,17.625 L17.75,19.875 C17.7505514,20.5651274 18.3098726,21.1244486 19,21.125 L21,21.125 C21.6901274,21.1244486 22.2494486,20.5651274 22.25,19.875 L22.25,17.5 C22.2500512,17.4006412 22.3089361,17.3107435 22.4,17.271 C22.7626193,17.1187492 22.9989297,16.7642835 23,16.371 L23,13.082 C22.9990728,12.8169793 22.8938109,12.5629855 22.707,12.375 L21.134,10.8 C21.0623116,10.7284929 21.0408349,10.6208053 21.0796078,10.5272684 C21.1183808,10.4337314 21.2097456,10.3728188 21.311,10.373 L22,10.375 Z M16.6,4.875 C16.7075598,4.87508167 16.8030111,4.94395159 16.837,5.046 L18,8.546 C18.0249622,8.62234943 18.0118747,8.70603422 17.9647937,8.77111672 C17.9177127,8.83619922 17.8423263,8.87481674 17.762,8.875 L6.235,8.875 C6.15520418,8.87386667 6.08070252,8.83485517 6.03431746,8.7699161 C5.98793241,8.70497702 5.97519234,8.6218501 6,8.546 L7.167,5.046 C7.20051225,4.94533276 7.29391615,4.87678312 7.4,4.875 L16.6,4.875 Z M6,14.875 L3,14.875 C2.72385763,14.875 2.5,14.6511424 2.5,14.375 L2.5,13.375 C2.5,13.0988576 2.72385763,12.875 3,12.875 L6,12.875 C6.27614237,12.875 6.5,13.0988576 6.5,13.375 L6.5,14.375 C6.5,14.6511424 6.27614237,14.875 6,14.875 Z M17.5,13.375 C17.5,13.0988576 17.7238576,12.875 18,12.875 L21,12.875 C21.2761424,12.875 21.5,13.0988576 21.5,13.375 L21.5,14.375 C21.5,14.6511424 21.2761424,14.875 21,14.875 L18,14.875 C17.7238576,14.875 17.5,14.6511424 17.5,14.375 L17.5,13.375 Z" id="Shape"></path>
            </g>
        </g>
    </g>
</svg>