<?xml version="1.0" encoding="UTF-8"?>
<svg viewBox="0 0 24 24" version="1.1" xmlns="http://www.w3.org/2000/svg">
    <title>circuit_card_24</title>
    <g id="Device-Types" stroke="none" stroke-width="1" fill="current" fill-rule="evenodd">
        <g id="Engineering" transform="translate(-128.000000, -8.000000)" fill="current" fill-rule="nonzero">
            <g id="computer-chip-core-1" transform="translate(128.000000, 8.000000)">
                <rect id="Rectangle-path" x="9" y="4.501" width="6" height="15" rx="0.25"></rect>
                <path d="M21,9.5 C21.5522847,9.5 22,9.05228475 22,8.5 C22,7.94771525 21.5522847,7.5 21,7.5 L19.25,7.5 C19.1119288,7.5 19,7.38807119 19,7.25 L19,6.25 C19,6.11192881 19.1119288,6 19.25,6 L21,6 C21.5522847,6 22,5.55228475 22,5 C22,4.44771525 21.5522847,4 21,4 L19.25,4 C19.1119288,4 19,3.88807119 19,3.75 L19,1.5 C19,0.671572875 18.3284271,0 17.5,0 L6.5,0 C5.67157288,0 5,0.671572875 5,1.5 L5,3.75 C5,3.88807119 4.88807119,4 4.75,4 L3,4 C2.44771525,4 2,4.44771525 2,5 C2,5.55228475 2.44771525,6 3,6 L4.75,6 C4.88807119,6 5,6.11192881 5,6.25 L5,7.25 C5,7.38807119 4.88807119,7.5 4.75,7.5 L3,7.5 C2.44771525,7.5 2,7.94771525 2,8.5 C2,9.05228475 2.44771525,9.5 3,9.5 L4.75,9.5 C4.88807119,9.5 5,9.61192881 5,9.75 L5,10.75 C5,10.8880712 4.88807119,11 4.75,11 L3,11 C2.44771525,11 2,11.4477153 2,12 C2,12.5522847 2.44771525,13 3,13 L4.75,13 C4.88807119,13 5,13.1119288 5,13.25 L5,14.25 C5,14.3880712 4.88807119,14.5 4.75,14.5 L3,14.5 C2.44771525,14.5 2,14.9477153 2,15.5 C2,16.0522847 2.44771525,16.5 3,16.5 L4.75,16.5 C4.88807119,16.5 5,16.6119288 5,16.75 L5,17.75 C5,17.8880712 4.88807119,18 4.75,18 L3,18 C2.44771525,18 2,18.4477153 2,19 C2,19.5522847 2.44771525,20 3,20 L4.75,20 C4.88807119,20 5,20.1119288 5,20.25 L5,22.5 C5,23.3284271 5.67157288,24 6.5,24 L17.5,24 C18.3284271,24 19,23.3284271 19,22.5 L19,20.25 C19,20.1119288 19.1119288,20 19.25,20 L21,20 C21.5522847,20 22,19.5522847 22,19 C22,18.4477153 21.5522847,18 21,18 L19.25,18 C19.1119288,18 19,17.8880712 19,17.75 L19,16.75 C19,16.6119288 19.1119288,16.5 19.25,16.5 L21,16.5 C21.5522847,16.5 22,16.0522847 22,15.5 C22,14.9477153 21.5522847,14.5 21,14.5 L19.25,14.5 C19.1119288,14.5 19,14.3880712 19,14.25 L19,13.25 C19,13.1119288 19.1119288,13 19.25,13 L21,13 C21.5522847,13 22,12.5522847 22,12 C22,11.4477153 21.5522847,11 21,11 L19.25,11 C19.1119288,11 19,10.8880712 19,10.75 L19,9.75 C19,9.61192881 19.1119288,9.5 19.25,9.5 L21,9.5 Z M16.5,3.5 L16.5,20.5 C16.5,20.7761424 16.2761424,21 16,21 L8,21 C7.72385763,21 7.5,20.7761424 7.5,20.5 L7.5,3.5 C7.5,3.22385763 7.72385763,3 8,3 L16,3 C16.2761424,3 16.5,3.22385763 16.5,3.5 Z" id="Shape"></path>
            </g>
        </g>
    </g>
</svg>