<?xml version="1.0" encoding="UTF-8"?>
<svg viewBox="0 0 24 24" version="1.1" xmlns="http://www.w3.org/2000/svg">
    <title>cleaner_24</title>
    <g id="Device-Types" stroke="none" stroke-width="1" fill="current" fill-rule="evenodd">
        <g id="Smart-Home" transform="translate(-128.000000, -48.000000)" fill="current" fill-rule="nonzero">
            <g id="cleaning-vacuum-1" transform="translate(128.000000, 48.000000)">
                <path d="M5.492,21.5 C5.492,19.290861 7.282861,17.5 9.492,17.5 C9.63746368,17.500563 9.78274887,17.5102487 9.927,17.529 C10.0704553,17.5478141 10.2150271,17.5035648 10.3233765,17.4076804 C10.4317258,17.311796 10.4932285,17.1736786 10.4920181,17.029 L10.4920181,14.5 C10.4920181,14.2238576 10.2681424,14 9.992,14 L0.738,14 C0.500741444,14.0004262 0.296451405,14.1675346 0.249,14.4 C-0.195439438,16.9303258 0.0138427773,19.5322407 0.857,21.959 C1.05638198,22.57932 1.6334249,23 2.285,23 L5.434,23 C5.51268933,23 5.5867864,22.9629515 5.634,22.9 C5.68104364,22.8357842 5.69512103,22.7531721 5.672,22.677 C5.55211025,22.2961924 5.4914029,21.8992338 5.492,21.5 L5.492,21.5 Z" id="Shape"></path>
                <path d="M22.992,24 C23.3132672,23.9997561 23.6148543,23.8451743 23.8026349,23.5844999 C23.9904155,23.3238255 24.0415206,22.9888053 23.94,22.684 L23.274,20.684 C23.1379281,20.2754572 22.7556074,19.9998963 22.325,20 L20.492,20 C20.2158576,20 19.992,19.7761424 19.992,19.5 L19.992,6.5 C19.992,2.91014913 17.0818509,0 13.492,0 C9.90214913,0 6.992,2.91014913 6.992,6.5 C6.992,6.77614237 6.76814237,7 6.492,7 C5.93971525,7 5.492,7.44771525 5.492,8 L5.492,8.556 C5.49420646,8.80829536 5.30809855,9.02270539 5.058,9.056 C3.64724066,9.26058871 2.3853076,10.0431829 1.575,11.216 C1.44851162,11.3897134 1.33231242,11.5706903 1.227,11.758 C1.13912461,11.9126641 1.14003892,12.1023701 1.22940105,12.25618 C1.31876317,12.4099899 1.48311517,12.5047401 1.661,12.505 L9.992,12.505 C10.2681424,12.505 10.492,12.2811424 10.492,12.005 L10.492,8 C10.492,7.44771525 10.0442847,7 9.492,7 C9.21585763,7 8.992,6.77614237 8.992,6.5 C8.99200004,4.01471865 11.0067187,2 13.492,2 C15.9772813,2 17.992,4.01471865 17.992,6.5 L17.992,19.5 C17.992,19.7761424 17.7681424,20 17.492,20 L15.659,20 C15.2286578,19.9997528 14.8464184,20.2748524 14.71,20.683 L14.71,20.683 L14.043,22.683 C13.9410247,22.9880975 13.99205,23.3236234 14.1801132,23.5846132 C14.3681764,23.8456029 14.6703117,24 14.992,24 L22.992,24 Z" id="Shape"></path>
                <circle id="Oval" cx="9.492" cy="21.5" r="2.5"></circle>
            </g>
        </g>
    </g>
</svg>