<?xml version="1.0" encoding="UTF-8"?>
<svg viewBox="0 0 24 24" version="1.1" xmlns="http://www.w3.org/2000/svg">
    <title>cloud_24</title>
    <g id="Device-Types" stroke="none" stroke-width="1" fill="current" fill-rule="evenodd">
        <g id="Network" transform="translate(-88.000000, -45.000000)" fill="current" fill-rule="nonzero">
            <g id="cloud" transform="translate(88.000000, 45.000000)">
                <path d="M23.75,13.869 C23.7462658,12.3273882 23.1190144,10.8528605 22.011,9.781 C21.0972024,8.89523424 19.9089546,8.34713775 18.642,8.227 C18.5632448,8.21932291 18.4927735,8.17481476 18.452,8.107 C16.8646454,5.46753731 13.8301875,4.06047985 10.7900044,4.55418481 C7.74982124,5.04788976 5.31654885,7.34286922 4.646,10.349 C4.62393889,10.4587455 4.53161384,10.5404491 4.42,10.549 C2.0702499,10.7251884 0.252814546,12.6816554 0.25,15.038 C0.201532832,16.211906 0.640958701,17.3535446 1.464,18.192 C2.42349821,19.0550614 3.6664729,19.5358112 4.957,19.5430001 L18.543,19.5430001 C18.5861576,19.5430001 18.6292636,19.5400155 18.672,19.534 C21.5615713,19.2167876 23.7495098,16.7759307 23.75,13.869 Z M18.469,17.543 L4.974,17.543 C4.20277182,17.5380545 3.45763527,17.2631394 2.868,16.766 C2.43117207,16.300692 2.20732731,15.674796 2.25,15.038 C2.25055138,13.6545933 3.37159361,12.5331035 4.755,12.532 C4.92873328,12.5321446 5.10198663,12.5502407 5.272,12.586 C5.55623649,12.644554 5.85189072,12.5767429 6.08219927,12.400173 C6.31250782,12.2236031 6.45475213,11.955692 6.472,11.666 C6.62086946,9.14129785 8.46267538,7.03889282 10.9458441,6.55914689 C13.4290128,6.07940096 15.9214064,7.34444259 17,9.632 C17.1628912,10.000715 17.5387721,10.2284005 17.941,10.202 C18.9373102,10.1641962 19.9060423,10.5338183 20.6239452,11.2256843 C21.3418482,11.9175503 21.7469889,12.8719733 21.7460018,13.869 C21.7424085,15.7470984 20.3344765,17.3255977 18.469,17.543 L18.469,17.543 Z" id="Shape"></path>
            </g>
        </g>
    </g>
</svg>