<?xml version="1.0" encoding="UTF-8"?>
<svg viewBox="0 0 24 24" version="1.1" xmlns="http://www.w3.org/2000/svg">
    <title>communication_24</title>
    <g id="Device-Types" stroke="none" stroke-width="1" fill="current" fill-rule="evenodd">
        <g id="Server" transform="translate(-326.000000, -8.000000)" fill="current" fill-rule="nonzero">
            <g id="messages-bubble-double-alternate" transform="translate(326.000000, 8.000000)">
                <path d="M7.189,13.121 C6.97433333,13.075 6.76166667,13.0203333 6.551,12.957 C6.33356331,12.8908319 6.10007281,12.9007077 5.889,12.985 L3.769,13.834 L4.259,12.975 C4.50228439,12.5480247 4.39927814,12.0075598 4.016,11.7 C2.75853492,10.7230466 2.01610284,9.22529301 2,7.633 C2,4.527 5.2,2 9.13,2 C13.06,2 16.261,4.526 16.261,7.632 C16.261,8.18428475 16.7087153,8.632 17.261,8.632 C17.8132847,8.632 18.261,8.18428475 18.261,7.632 C18.261,3.424 14.165,0 9.13,0 C4.095,0 0,3.424 0,7.633 C0.00851191069,9.53156056 0.772407014,11.348645 2.123,12.683 L0.61,15.331 C0.399288358,15.7003454 0.445195129,16.1625516 0.724441019,16.4832339 C1.00368691,16.8039163 1.45519266,16.9129323 1.85,16.755 L6.316,14.968 C6.467,15.008 6.616,15.044 6.773,15.077 C7.124914,15.1577044 7.4930051,15.042444 7.736042,14.7754426 C7.9790789,14.5084413 8.05931772,14.1311645 7.94597196,13.7883681 C7.83262621,13.4455717 7.5432986,13.1904922 7.189,13.121 Z" id="Shape"></path>
                <path d="M22.687,19.9 C23.5420739,18.8770151 24.007237,17.5842656 24.0000832,16.251 C24.0000832,12.598 20.476,9.511 16.3,9.511 C12.124,9.511 8.6,12.598 8.6,16.251 C8.64291923,18.5373645 9.84253208,20.6459119 11.786,21.851 C13.8412495,23.1908622 16.414381,23.463832 18.705,22.585 L22.078,23.921 C22.4205051,24.0691153 22.8177883,24.0055656 23.097,23.758 C23.3135552,23.6399781 23.4705666,23.4364082 23.5297112,23.1969771 C23.5888558,22.957546 23.5446923,22.7042816 23.408,22.499 L22.687,19.9 Z M20.87,18.929 C20.616565,19.1828399 20.5184983,19.5529748 20.613,19.899 L21,21.307 L19.048,20.575 C18.8025366,20.4823613 18.5303865,20.4906301 18.291,20.598 C16.533866,21.3835526 14.4981776,21.2238908 12.885,20.174 C11.5105772,19.3365003 10.6538773,17.8598598 10.609,16.251 C10.609,13.726 13.271,11.511 16.309,11.511 C19.347,11.511 22.0090248,13.726 22.0090248,16.251 C22.0127078,17.2612296 21.6008348,18.2285345 20.87,18.926 L20.87,18.929 Z" id="Shape"></path>
            </g>
        </g>
    </g>
</svg>