<?xml version="1.0" encoding="UTF-8"?>
<svg viewBox="0 0 24 24" version="1.1" xmlns="http://www.w3.org/2000/svg">
    <title>computer_24</title>
    <g id="Device-Types" stroke="none" stroke-width="1" fill="current" fill-rule="evenodd">
        <g id="Home-&amp;-Office" transform="translate(-8.000000, -8.000000)" fill="current" fill-rule="nonzero">
            <g id="monitor-1" transform="translate(8.000000, 8.000000)">
                <path d="M22,0.251 L2,0.251 C0.8954305,0.251 0,1.1464305 0,2.251 L0,15.751 C0,16.8555695 0.8954305,17.751 2,17.751 L9.65,17.751 C9.72191191,17.7503601 9.79056046,17.7809673 9.83814716,17.8348861 C9.88573387,17.8888049 9.90757215,17.9607251 9.898,18.032 L9.698,19.626 C9.68832875,19.7040159 9.71576772,19.7820566 9.77213562,19.8368533 C9.82850353,19.89165 9.90728859,19.9168723 9.985,19.905 C10.6516532,19.8014594 11.3253549,19.7499705 12,19.751 C12.6742654,19.7502276 13.3475892,19.8013788 14.014,19.904 C14.0913156,19.9168629 14.1701185,19.8919582 14.226,19.837 C14.2825932,19.7822475 14.3103393,19.7041883 14.301,19.626 L14.101,18.032 C14.09211,17.9608594 14.11419,17.8893257 14.1616306,17.8355725 C14.2090711,17.7818193 14.2773061,17.7510202 14.349,17.751 L22,17.751 C23.1045695,17.751 24,16.8555695 24,15.751 L24,2.251 C24,1.1464305 23.1045695,0.251 22,0.251 Z M2.5,15.751 C2.22385763,15.751 2,15.5271424 2,15.251 L2,2.751 C2,2.47485763 2.22385763,2.251 2.5,2.251 L21.5,2.251 C21.7761424,2.251 22,2.47485763 22,2.751 L22,15.251 C22,15.5271424 21.7761424,15.751 21.5,15.751 L2.5,15.751 Z" id="Shape"></path>
                <path d="M12,20.751 C9.333,20.751 6.5,21.627 6.5,23.251 C6.5,23.5271424 6.72385763,23.751 7,23.751 L17,23.751 C17.2761424,23.751 17.5,23.5271424 17.5,23.251 C17.5,21.627 14.667,20.751 12,20.751 Z" id="Shape"></path>
            </g>
        </g>
    </g>
</svg>