<?xml version="1.0" encoding="UTF-8"?>
<svg viewBox="0 0 24 24" version="1.1" xmlns="http://www.w3.org/2000/svg">
    <title>conferencing_24</title>
    <g id="Device-Types" stroke="none" stroke-width="1" fill="current" fill-rule="evenodd">
        <g id="Home-&amp;-Office" transform="translate(-8.000000, -42.000000)" fill="current" fill-rule="nonzero">
            <g id="streamline-icon-meeting-remote@24x24" transform="translate(8.000000, 42.000000)">
                <path d="M6.765,12.588 L18.235,12.588 C19.7613819,12.5863466 20.9983466,11.3493819 21,9.823 L21,2.764 C20.9977957,1.2380086 19.7609921,0.00165230208 18.235,0 L6.765,0 C5.2390079,0.00165230208 4.0022043,1.2380086 4,2.764 L4,9.823 C4.00165342,11.3493819 5.23861806,12.5863466 6.765,12.588 Z M6,2.764 C6.00110116,2.34212115 6.34312007,2.00054932 6.765,2 L18.235,2 C18.6568799,2.00054932 18.9988988,2.34212115 19,2.764 L19,9.823 C18.9994491,10.2452694 18.6572694,10.5874491 18.235,10.5880002 L16.478,10.5880002 C16.4119533,10.5880002 16.3486055,10.5617985 16.302,10.515 C15.6996437,9.91263367 14.9570687,9.46935664 14.141,9.225 C14.0458056,9.19733764 13.9760881,9.11584293 13.9634985,9.01751344 C13.9509088,8.91918395 13.9978455,8.82275339 14.083,8.772 C15.1788971,8.10790543 15.6968375,6.79406584 15.3489189,5.56079186 C15.0010002,4.32751787 13.8727773,3.478077 12.5913839,3.48463927 C11.3099906,3.49120154 10.1905269,4.35215327 9.85525792,5.588926 C9.51998891,6.82569873 10.0513586,8.13416459 11.154,8.787 C11.2391326,8.83728908 11.2866274,8.93302862 11.2751624,9.03123812 C11.2636974,9.12944761 11.195427,9.21167273 11.101,9.241 C10.3043911,9.48810377 9.57988037,9.92534992 8.99,10.515 C8.94320869,10.5615205 8.8799812,10.5877455 8.814,10.5880002 L6.765,10.5880002 C6.34273057,10.5874491 6.00055091,10.2452694 6,9.823 L6,2.764 Z" id="Shape"></path>
                <path d="M23.39,23.185 C22.7346943,22.37455 21.8490776,21.7818144 20.85,21.485 C20.7549145,21.4569066 20.6854164,21.3752759 20.672852,21.2769264 C20.6602875,21.1785769 20.7070312,21.082096 20.792,21.031 C21.8865954,20.3662593 22.4031447,19.0528579 22.0546387,17.820558 C21.7061327,16.5882582 20.5782244,15.7399249 19.2976111,15.7469156 C18.0169978,15.7539063 16.8984184,16.614503 16.5633867,17.8505342 C16.2283551,19.0865654 16.7592125,20.3942491 17.861,21.047 C17.9461326,21.0972891 17.9936274,21.1930286 17.9821624,21.2912381 C17.9706974,21.3894476 17.902427,21.4716727 17.808,21.501 C17.101587,21.7177685 16.4506141,22.0852202 15.9,22.578 C15.8048234,22.662824 15.6611766,22.662824 15.566,22.578 C15.0016818,22.0703506 14.3314918,21.694607 13.604,21.478 C13.5095715,21.4491775 13.4408104,21.3676749 13.428299,21.2697415 C13.4157877,21.1718081 13.4618504,21.0756364 13.546,21.024 C14.6414419,20.3593645 15.1586823,19.0453995 14.8102478,17.8123842 C14.4618133,16.5793689 13.3333701,15.7304532 12.0520878,15.7374499 C10.7708055,15.7444467 9.65170075,16.6056357 9.31675297,17.8423828 C8.98180519,19.0791299 9.51336478,20.3873677 10.616,21.04 C10.7011326,21.0902891 10.7486274,21.1860286 10.7371624,21.2842381 C10.7256974,21.3824476 10.657427,21.4646727 10.563,21.494 C9.81070809,21.7268085 9.12221344,22.1299132 8.551,22.672 C8.45476158,22.763937 8.30323842,22.763937 8.207,22.672 C7.62912537,22.1240959 6.93176185,21.7180708 6.17,21.486 C6.07531156,21.4571627 6.00655325,21.3751753 5.99464904,21.2769115 C5.98274483,21.1786476 6.02993664,21.0826134 6.115,21.032 C7.21406491,20.3733637 7.73848376,19.0622406 7.39679176,17.8273349 C7.05509977,16.5924292 5.93130616,15.7373579 4.65,15.7373579 C3.36869384,15.7373579 2.24490023,16.5924292 1.90320824,17.8273349 C1.56151624,19.0622406 2.08593509,20.3733637 3.185,21.032 C3.27003059,21.0827748 3.31707219,21.1789573 3.30494808,21.2772491 C3.29282398,21.3755409 3.22382014,21.4574095 3.129,21.486 C2.13887726,21.7870502 1.2624459,22.379469 0.614,23.186 C0.493402688,23.3354358 0.469042562,23.5407353 0.551320449,23.7142436 C0.633598336,23.8877519 0.807975624,23.9988098 1,24.0000008 L23,24.0000008 C23.1927466,24.0003446 23.3685284,23.8898679 23.451811,23.7160421 C23.5350936,23.5422164 23.5110454,23.335998 23.39,23.186 L23.39,23.185 Z" id="Path"></path>
            </g>
        </g>
    </g>
</svg>