<?xml version="1.0" encoding="UTF-8"?>
<svg viewBox="0 0 24 24" version="1.1" xmlns="http://www.w3.org/2000/svg">
    <title>control_panel_24</title>
    <g id="Device-Types" stroke="none" stroke-width="1" fill="current" fill-rule="evenodd">
        <g id="Smart-Home" transform="translate(-8.000000, -88.000000)" fill="current" fill-rule="nonzero">
            <g id="touch-password-approved-1" transform="translate(8.000000, 88.000000)">
                <path d="M22,0 L2,0 C0.8954305,0 0,0.8954305 0,2 L0,11 C0,12.1045695 0.8954305,13 2,13 L3,13 C3.55228475,13 4,12.5522847 4,12 C4,11.4477153 3.55228475,11 3,11 L2.5,11 C2.22385763,11 2,10.7761424 2,10.5 L2,2.5 C2,2.22385763 2.22385763,2 2.5,2 L21.5,2 C21.7761424,2 22,2.22385763 22,2.5 L22,10.5 C22,10.7761424 21.7761424,11 21.5,11 L13,11 C12.4477153,11 12,11.4477153 12,12 C12,12.5522847 12.4477153,13 13,13 L22,13 C23.1045695,13 24,12.1045695 24,11 L24,2 C24,0.8954305 23.1045695,0 22,0 Z" id="Shape"></path>
                <path d="M16,9.50000031 L16.033,9.50000031 C16.3098719,9.4909668 16.5705916,9.36748705 16.753,9.159 L20.253,5.159 C20.6166795,4.74312958 20.5743704,4.11117951 20.1585,3.7475 C19.7426296,3.38382049 19.1106795,3.42612958 18.747,3.842 L15.947,7.042 L14.707,5.794 C14.4559255,5.53404342 14.0841221,5.4297874 13.7344927,5.52130284 C13.3848632,5.61281828 13.1118183,5.88586324 13.0203028,6.23549268 C12.9287874,6.58512211 13.0330434,6.95692553 13.293,7.208 L15.293,9.208 C15.4806563,9.39518271 15.7349486,9.50020866 16,9.50000031 Z" id="Shape"></path>
                <path d="M13.389,17 L10.5,17 L10.5,10.5 C10.5,9.11928813 9.38071187,8 8,8 C6.61928813,8 5.5,9.11928813 5.5,10.5 L5.5,19.335 L4.411,17.808 C3.85549532,16.8220617 2.62743457,16.4404857 1.611,16.938 C0.609592912,17.4809042 0.223599868,18.7231807 0.741,19.738 L2.841,23.731 C2.92670989,23.8955387 3.09647817,23.9990935 3.282,24 L17.5,24 C17.7761424,24 18,23.7761424 18,23.5 L18,21.848 C18.0279845,19.2505514 15.9845908,17.1021297 13.389,17 Z" id="Shape"></path>
            </g>
        </g>
    </g>
</svg>