<?xml version="1.0" encoding="UTF-8"?>
<svg viewBox="0 0 24 24" version="1.1" xmlns="http://www.w3.org/2000/svg">
    <title>database_24</title>
    <g id="Device-Types" stroke="none" stroke-width="1" fill="current" fill-rule="evenodd">
        <g id="Server" transform="translate(-366.000000, -8.000000)" fill="current" fill-rule="nonzero">
            <g id="database-2" transform="translate(366.000000, 8.000000)">
                <path d="M21.4999951,17.034 C21.4999951,16.9374282 21.4445692,16.8494352 21.3573546,16.8079655 C21.27014,16.7664958 21.1668401,16.7789665 21.092,16.84 C19.155,18.417 15.4999951,19.25 11.9999951,19.25 C8.49999512,19.25 4.844,18.417 2.907,16.84 C2.83236447,16.7787216 2.72902811,16.7661232 2.64185595,16.8076746 C2.55468379,16.8492259 2.49939732,16.9374333 2.49999512,17.034 L2.49999512,18.75 C2.49999512,20.96 6.754,22.75 11.9999951,22.75 C17.246,22.75 21.4999951,20.96 21.4999951,18.75 L21.4999951,17.034 Z" id="Shape"></path>
                <path d="M2.49999512,14.25 C2.49999512,16.46 6.754,18.25 11.9999951,18.25 C17.246,18.25 21.4999951,16.46 21.4999951,14.25 L21.4999951,12.534 C21.4999951,12.4374282 21.4445692,12.3494352 21.3573546,12.3079655 C21.27014,12.2664958 21.1668401,12.2789665 21.092,12.34 C19.155,13.917 15.4999951,14.75 11.9999951,14.75 C8.49999512,14.75 4.844,13.917 2.907,12.34 C2.83236447,12.2787216 2.72902811,12.2661232 2.64185595,12.3076746 C2.55468379,12.3492259 2.49939732,12.4374333 2.49999512,12.534 L2.49999512,14.25 Z" id="Shape"></path>
                <path d="M11.9999951,10.25 C8.49999512,10.25 4.844,9.417 2.907,7.839 C2.83236447,7.77772164 2.72902811,7.76512324 2.64185595,7.80667459 C2.55468379,7.84822594 2.49939732,7.93643325 2.49999512,8.033 L2.49999512,9.75 C2.49999512,11.96 6.754,13.75 11.9999951,13.75 C17.246,13.75 21.4999951,11.96 21.4999951,9.75 L21.4999951,8.034 C21.4997142,7.93760883 21.4440381,7.8499684 21.3569036,7.80875038 C21.2697692,7.76753236 21.1667001,7.78008009 21.092,7.841 C19.154,9.418 15.4999951,10.25 11.9999951,10.25 Z" id="Shape"></path>
                <ellipse id="Oval" cx="12" cy="5.25" rx="9.5" ry="4"></ellipse>
            </g>
        </g>
    </g>
</svg>