<?xml version="1.0" encoding="UTF-8"?>
<svg viewBox="0 0 24 24" version="1.1" xmlns="http://www.w3.org/2000/svg">
    <title>desktop_24</title>
    <g id="Device-Types" stroke="none" stroke-width="1" fill="current" fill-rule="evenodd">
        <g id="Home-&amp;-Office" transform="translate(-88.000000, -8.000000)" fill="current" fill-rule="nonzero">
            <g id="desktop-computer-1" transform="translate(88.000000, 8.000000)">
                <path d="M12.359,19.014 C12.3249912,18.9617377 12.3219303,18.8951625 12.351,18.84 C12.3804771,18.7851484 12.4377296,18.7509505 12.5,18.751 C13.0522847,18.751 13.5,18.3032847 13.5,17.751 C13.5,17.1987153 13.0522847,16.751 12.5,16.751 L2.5,16.751 C2.22385763,16.751 2,16.5271424 2,16.251 L2,4.751 C2,4.47485763 2.22385763,4.251 2.5,4.251 L19,4.251 C19.2761424,4.251 19.5,4.47485763 19.5,4.751 L19.5,5.251 C19.5,5.80328475 19.9477153,6.251 20.5,6.251 C21.0522847,6.251 21.5,5.80328475 21.5,5.251 L21.5,4.251 C21.5,3.1464305 20.6045695,2.251 19.5,2.251 L2,2.251 C0.8954305,2.251 0,3.1464305 0,4.251 L0,16.751 C0,17.8555695 0.8954305,18.751 2,18.751 L8.349,18.751 C8.44097074,18.7511695 8.52542165,18.8018231 8.56887547,18.8828812 C8.61232928,18.9639393 8.60776809,19.0623107 8.557,19.139 L7.334,20.973 C7.23135605,21.1264456 7.22161619,21.3239652 7.30866583,21.4867648 C7.39571547,21.6495644 7.56538875,21.751 7.75,21.751 L13.25,21.751 C13.4346113,21.751 13.6042845,21.6495644 13.6913342,21.4867648 C13.7783838,21.3239652 13.768644,21.1264456 13.666,20.973 L12.359,19.014 Z" id="Shape"></path>
                <path d="M23,7.751 L16,7.751 C15.4477153,7.751 15,8.19871525 15,8.751 L15,20.751 C15,21.3032847 15.4477153,21.751 16,21.751 L23,21.751 C23.5522847,21.751 24,21.3032847 24,20.751 L24,8.751 C24,8.19871525 23.5522847,7.751 23,7.751 Z M22,11 L20,11 C19.5857864,11 19.25,10.6642136 19.25,10.25 C19.25,9.83578644 19.5857864,9.5 20,9.5 L22,9.5 C22.4142136,9.5 22.75,9.83578644 22.75,10.25 C22.75,10.6642136 22.4142136,11 22,11 Z M22.25,18.75 C22.25,19.1642136 21.9142136,19.5 21.5,19.5 L17.5,19.5 C17.0857864,19.5 16.75,19.1642136 16.75,18.75 C16.75,18.3357864 17.0857864,18 17.5,18 L21.5,18 C21.6990857,18 21.8900029,18.0791547 22.030684,18.2200233 C22.171365,18.360892 22.2502654,18.5519144 22.25,18.751 L22.25,18.75 Z" id="Shape"></path>
            </g>
        </g>
    </g>
</svg>