<?xml version="1.0" encoding="UTF-8"?>
<svg viewBox="0 0 24 24" version="1.1" xmlns="http://www.w3.org/2000/svg">
    <title>disc_player_24</title>
    <g id="Device-Types" stroke="none" stroke-width="1" fill="current" fill-rule="evenodd">
        <g id="Audio-&amp;-Video" transform="translate(-286.000000, -9.000000)" fill="current" fill-rule="nonzero">
            <g id="cd-player" transform="translate(286.000000, 8.000000)">
                <path d="M11,9.50000013 C12.1045695,9.50000013 13,10.3954305 13,11.5000001 C13.0000463,11.5741633 12.9960403,11.6482738 12.988,11.722 C12.9796843,11.7929005 13.0021989,11.86396 13.049827,11.9171352 C13.0974551,11.9703103 13.1656152,12.000486 13.237,12.0000001 L19,12.0000001 C19.2761424,12.0000001 19.5,11.7761424 19.5,11.5000001 C19.5,6.80557968 15.6944203,3.00000013 11,3.00000013 C6.30557968,3.00000013 2.5,6.80557968 2.5,11.5000001 C2.5,11.6326082 2.55267842,11.7597852 2.64644661,11.8535534 C2.7402148,11.9473216 2.86739176,12.0000001 3,12.0000001 L8.763,12.0000001 C8.83438483,12.000486 8.90254492,11.9703103 8.95017301,11.9171352 C8.9978011,11.86396 9.02031574,11.7929005 9.012,11.722 C9.0039597,11.6482738 8.99995373,11.5741633 9,11.5000001 C9,10.3954305 9.8954305,9.50000013 11,9.50000013 Z" id="Shape"></path>
                <path d="M24,15.5 C24,14.8369588 23.7366079,14.201074 23.267767,13.732233 C22.798926,13.2633921 22.1630412,13 21.5,13 L2.5,13 C1.11928813,13 0,14.1192881 0,15.5 L0,17.5 C0,18.6179868 0.742417602,19.6000132 1.818,19.905 C1.92561487,19.9357687 1.99985297,20.034073 2,20.146 L2,20.246 C2,20.6602136 2.33578644,20.996 2.75,20.996 C3.16421356,20.996 3.5,20.6602136 3.5,20.246 C3.50218438,20.1094934 3.61347594,19.9999825 3.75,20 L20.25,20 C20.3880712,20 20.5,20.1119288 20.5,20.25 C20.5,20.6642136 20.8357864,21 21.25,21 C21.6642136,21 22,20.6642136 22,20.25 L22,20.15 C22.000147,20.038073 22.0743851,19.9397687 22.182,19.909 C23.2590108,19.6036096 24.0017116,18.6194698 24,17.5 L24,15.5 Z M21,16.5 C21,17.3284271 20.3284271,18 19.5,18 C18.6715729,18 18,17.3284271 18,16.5 C18,15.6715729 18.6715729,15 19.5,15 C20.3284271,15 21,15.6715729 21,16.5 Z M2,16.5 C2,15.9477153 2.44771525,15.5 3,15.5 L15,15.5 C15.5522847,15.5 16,15.9477153 16,16.5 C16,17.0522847 15.5522847,17.5 15,17.5 L3,17.5 C2.44771525,17.5 2,17.0522847 2,16.5 Z" id="Shape"></path>
            </g>
        </g>
    </g>
</svg>