<?xml version="1.0" encoding="UTF-8"?>
<svg viewBox="0 0 24 24" version="1.1" xmlns="http://www.w3.org/2000/svg">
    <title>domain_server_24</title>
    <g id="Device-Types" stroke="none" stroke-width="1" fill="current" fill-rule="evenodd">
        <g id="Server" transform="translate(-286.000000, -8.000000)" fill="current" fill-rule="nonzero">
            <g id="network-1" transform="translate(286.000000, 8.000000)">
                <path d="M22.864,21.14208 L13.245,21.14208 C13.1069288,21.14208 12.995,21.0346283 12.995,20.90208 L12.995,20.11968 C12.9950978,19.9983414 13.0895189,19.8961606 13.215,19.8816 C18.6684169,19.2536745 22.6711688,14.6601934 22.3518662,9.39630809 C22.0325637,4.13242279 17.5014776,0.0160125068 12.009,0 C11.857,0 11.709,0 11.561,0.0096 C6.01797158,0.102547285 1.5828802,4.45650471 1.61,9.77856 C1.56834795,14.8920328 5.51097848,19.2300254 10.794,19.88352 C10.9196563,19.8980406 11.0143944,20.0001005 11.015,20.1216 L11.015,20.90208 C11.015,21.0346283 10.9030712,21.14208 10.765,21.14208 L1.136,21.14208 C0.589238098,21.14208 0.146,21.5675886 0.146,22.09248 C0.146,22.6173714 0.589238098,23.04288 1.136,23.04288 L22.864,23.04288 C23.4107619,23.04288 23.854,22.6173714 23.854,22.09248 C23.854,21.5675886 23.4107619,21.14208 22.864,21.14208 Z M15.177,17.44704 C15.0786153,17.4862465 14.9651583,17.4612981 14.8943593,17.3848893 C14.8235604,17.3084805 14.8109722,17.1973964 14.863,17.10816 C15.2438424,16.4566599 15.5828089,15.7834023 15.878,15.09216 C15.916314,15.0015151 16.008101,14.942265 16.11,14.9423998 L18.079,14.9423998 C18.1774381,14.9423998 18.2667286,14.9978074 18.3070882,15.084 C18.3474479,15.1701926 18.3313629,15.2710989 18.266,15.34176 C17.4149932,16.258284 16.3589468,16.9780229 15.177,17.44704 L15.177,17.44704 Z M9.652,13.03872 C9.54033075,13.0384736 9.44237382,12.967161 9.412,12.864 C9.24950572,12.3180795 9.12555768,11.7622577 9.041,11.20032 C9.0308607,11.1313036 9.05197112,11.0614208 9.099,11.00832 C9.14686235,10.9556475 9.216191,10.9255224 9.289,10.9257571 L14.73,10.9257571 C14.8025462,10.9254171 14.8716112,10.9555865 14.919,11.00832 C14.9667384,11.0610785 14.9882661,11.1311346 14.978,11.20032 C14.8929607,11.7621749 14.7690196,12.3179659 14.607,12.864 C14.5762313,12.9673103 14.477927,13.0385789 14.366,13.03872 L9.652,13.03872 Z M19.841,12.88512 C19.8038279,12.9775997 19.711256,13.0386256 19.608,13.0387219 L16.913,13.0387219 C16.834236,13.0390252 16.7600041,13.0033939 16.713,12.94272 C16.6653396,12.8851607 16.6476635,12.8098606 16.665,12.73824 C16.7964586,12.2087373 16.8966185,11.6725212 16.965,11.13216 C16.9797401,11.0114837 17.0864347,10.9206212 17.213,10.9209571 L20.06,10.9209571 C20.1332438,10.9206114 20.2029325,10.9512386 20.2505202,11.004691 C20.2981079,11.0581433 20.3187671,11.1289984 20.307,11.1984 C20.2159506,11.7752211 20.0596949,12.3407995 19.841,12.88512 Z M20.323,8.74848 C20.3326247,8.81746039 20.311574,8.88714532 20.265,8.94048 C20.217242,8.99340526 20.1479395,9.02386917 20.075,9.0240003 L17.292,9.0240003 C17.1592164,9.02420002 17.0494357,8.92471242 17.042,8.79744 C16.9946991,7.92375371 16.8536188,7.05708448 16.621,6.2112 C16.6015454,6.13917486 16.6178434,6.06256118 16.6651572,6.00362613 C16.7124711,5.94469109 16.7854931,5.91004593 16.863,5.90976 L19.131,5.90976 C19.2214748,5.90983329 19.3048483,5.95682844 19.349,6.03264 C19.8423553,6.87380495 20.172383,7.79403335 20.323,8.74848 L20.323,8.74848 Z M17.135,3.57888 C17.219376,3.64198561 17.2528257,3.74948996 17.2183264,3.84668351 C17.183827,3.94387706 17.0889585,4.00940507 16.982,4.0099208 L15.921,4.0099208 C15.8251063,4.01015681 15.7375923,3.95750835 15.696,3.87456 C15.544,3.57504 15.383,3.27744 15.209,2.98464 C15.1549941,2.89398416 15.168254,2.78020768 15.241794,2.70325107 C15.315334,2.62629446 15.4322712,2.60382491 15.531,2.64768 C16.1001227,2.89976488 16.6381264,3.21210217 17.135,3.57888 Z M11.812,2.18496 C11.8613965,2.12787224 11.9346937,2.09484718 12.012,2.09484718 C12.0893063,2.09484718 12.1626035,2.12787224 12.212,2.18496 C12.6130409,2.64626777 12.980574,3.13349632 13.312,3.6432 C13.3599004,3.71716187 13.3623047,3.81023079 13.3182823,3.88638119 C13.2742599,3.9625316 13.1907202,4.00981167 13.1,4.00992 L10.924,4.00992 C10.8332798,4.00981167 10.7497401,3.9625316 10.7057177,3.88638119 C10.6616953,3.81023079 10.6640996,3.71716187 10.712,3.6432 C11.043426,3.13349632 11.4109591,2.64626777 11.812,2.18496 L11.812,2.18496 Z M14.273,5.91071855 C14.3803945,5.91036228 14.4759275,5.976147 14.51,6.07392 C14.8164631,6.94509776 15.0053356,7.85039525 15.072,8.76768 C15.077248,8.83405202 15.0533134,8.89950232 15.006,8.94816 C14.9586924,8.99695919 14.89244,9.02476348 14.823,9.02496 L9.2,9.02496 C9.13062988,9.02486646 9.06441902,8.99710652 9.01720145,8.94831882 C8.96998389,8.89953113 8.94600528,8.83410254 8.951,8.76768 C9.01766437,7.85039525 9.20653687,6.94509776 9.513,6.07392 C9.54707252,5.976147 9.64260547,5.91036228 9.75,5.91071855 L14.273,5.91071855 Z M8.543,2.568 C8.64201449,2.52717308 8.75713792,2.55184896 8.82866016,2.62922921 C8.9001824,2.70660946 8.9120066,2.81927882 8.858,2.9088 C8.665,3.22656 8.488,3.54912 8.323,3.87456 C8.28122055,3.95734739 8.19382442,4.00992027 8.098,4.00992027 L6.9,4.00992027 C6.79293218,4.01007216 6.69764968,3.94475502 6.66304639,3.84748586 C6.62844311,3.7502167 6.66220208,3.6425924 6.747,3.57984 C7.29856897,3.17083906 7.90207617,2.83083198 8.543,2.568 L8.543,2.568 Z M4.564,6.03648 C4.60787244,5.95910398 4.6922333,5.91088025 4.784,5.91071979 L7.156,5.91071979 C7.23365238,5.91062134 7.3069438,5.94516847 7.35434612,6.00421373 C7.40174843,6.06325899 7.4178791,6.14009779 7.398,6.21216 C7.16530446,7.05802903 7.02422283,7.92470593 6.977,8.7984 C6.96958611,8.92530253 6.86039749,9.02465102 6.728,9.02496001 L3.907,9.02496001 C3.83510815,9.02496001 3.76668885,8.99527903 3.71921235,8.94345307 C3.67173585,8.8916271 3.64979784,8.82268847 3.659,8.75424 C3.78347271,7.80248797 4.09030363,6.88105947 4.564,6.03648 L4.564,6.03648 Z M4.439,13.03872 C4.33627199,13.0386543 4.24413059,12.9780316 4.207,12.88608 C3.98553267,12.3434863 3.82398154,11.7800818 3.725,11.20512 C3.71293972,11.1354796 3.73342967,11.0642739 3.78101713,11.0104519 C3.82860458,10.9566299 3.89846233,10.9256513 3.972,10.9257597 L6.8,10.9257597 C6.92639441,10.9258539 7.0328327,11.0164981 7.048,11.13696 C7.11685563,11.6772527 7.21701081,12.2134434 7.348,12.74304 C7.36574259,12.8144544 7.34846001,12.8897367 7.30109069,12.9473752 C7.25372136,13.0050137 7.18147658,13.0386675 7.105,13.03872 L4.439,13.03872 Z M5.777,15.33792 C5.71255219,15.2670032 5.69701035,15.1665559 5.73720404,15.0807177 C5.77739772,14.9948794 5.86597017,14.9393615 5.964,14.93856 L7.909,14.93856 C8.01053451,14.9388155 8.10182324,14.997999 8.14,15.08832 C8.4360447,15.782793 8.77601138,16.4592533 9.158,17.11392 C9.21002782,17.2031564 9.19743962,17.3142405 9.12664067,17.3906493 C9.05584171,17.4670581 8.94238465,17.4920065 8.844,17.4528 C7.66819808,16.9796137 6.61954552,16.256505 5.777,15.33792 L5.777,15.33792 Z M10.377,15.2832 C10.3394643,15.2088217 10.3444336,15.1211358 10.390153,15.0511058 C10.4358725,14.9810758 10.515909,14.93856 10.602,14.93856 L13.408,14.93856 C13.494091,14.93856 13.5741275,14.9810758 13.619847,15.0511058 C13.6655664,15.1211358 13.6705357,15.2088217 13.633,15.2832 C13.211712,16.1060851 12.7277306,16.8979964 12.185,17.65248 C12.1441486,17.7095577 12.0766377,17.7436616 12.0045,17.7436616 C11.9323623,17.7436616 11.8648514,17.7095577 11.824,17.65248 C11.2829557,16.8978649 10.8006465,16.1059552 10.381,15.2832 L10.377,15.2832 Z" id="Shape"></path>
            </g>
        </g>
    </g>
</svg>