<?xml version="1.0" encoding="UTF-8"?>
<svg viewBox="0 0 24 24" version="1.1" xmlns="http://www.w3.org/2000/svg">
    <title>domotz_box_24</title>
    <g id="Device-Types" stroke="none" stroke-width="1" fill="current" fill-rule="evenodd">
        <g id="Smart-Home" transform="translate(-209.000000, -128.000000)" fill="current">
            <g id="domotz_box_24" transform="translate(209.000000, 128.000000)">
                <path d="M20.009947,5 C22.2135924,5 24,6.79445134 24,9.00002024 L24,15.9999798 C24,18.2091299 22.2157067,20 20.009947,20 L3.99005301,20 C1.78640758,20 0,18.2055487 0,15.9999798 L0,9.00002024 C0,6.79087006 1.78429328,5 3.99005301,5 L20.009947,5 Z M14.6649638,6 C14.266888,6 13.9436183,6.32326965 13.9436183,6.7213455 L13.9436183,12.6537443 C13.9556407,13.0424694 13.9730065,14.1578832 13.9142302,14.6414519 C13.7833193,15.7101119 12.5864201,16.579734 11.2452518,16.579734 C9.69970232,16.579734 8.44269099,15.3187152 8.44269099,13.7691582 C8.44269099,12.2196012 9.70504562,10.9585824 11.2572743,10.9585824 C11.4362748,10.9585824 11.6112679,11.0026646 11.8330148,11.0574334 L11.9118285,11.0774708 C12.2992178,11.1736502 12.6906145,10.9372092 12.7854581,10.5511558 C12.8816375,10.1637665 12.6451964,9.77370561 12.259143,9.67752621 L12.1843368,9.65882466 C11.9171718,9.59203341 11.6152754,9.51589139 11.2586101,9.51589139 C8.91022974,9.51589139 7,11.4234495 7,13.7691582 C7,16.1148669 8.90488644,18.0237608 11.2465877,18.0237608 C13.3264672,18.0237608 15.1271593,16.6158012 15.3475704,14.8177808 C15.4303915,14.1378459 15.3916526,12.7646178 15.3863093,12.6323711 L15.3863093,6.7213455 C15.3863093,6.32326965 15.0630397,6 14.6649638,6 Z" id="Combined-Shape"></path>
            </g>
        </g>
    </g>
</svg>