<?xml version="1.0" encoding="UTF-8"?>
<svg viewBox="0 0 24 24" version="1.1" xmlns="http://www.w3.org/2000/svg">
    <title>electric_24</title>
    <g id="Device-Types" stroke="none" stroke-width="1" fill="current" fill-rule="evenodd">
        <g id="Smart-Home" transform="translate(-288.000000, -48.000000)" fill="current">
            <g id="electric_24" transform="translate(288.000000, 48.000000)">
                <path d="M18.722,7 L15.117,7 C15.0269036,6.99950338 14.9438694,6.95113025 14.899,6.873 C14.8535679,6.79514309 14.8535679,6.69885691 14.899,6.621 L18.412,0.805 C18.5405093,0.65168851 18.5626769,0.435562725 18.4679658,0.2593559 C18.3732546,0.0831490749 18.180767,-0.0175995056 17.982,0.005 L13.982,0.005 C13.5884468,0.0200961052 13.2286832,0.231522912 13.024,0.568 L7.752,9.692 C7.63804124,9.85841126 7.63103627,10.0758379 7.73404706,10.2492394 C7.83705786,10.4226409 8.03135176,10.520484 8.232,10.5 L10.905,10.5 C10.992402,10.5001603 11.0733744,10.5459541 11.1185527,10.6207742 C11.1637309,10.6955944 11.1665547,10.7885762 11.126,10.866 L7.468,17.84 C7.40578439,17.9586088 7.26114743,18.0071151 7.14,17.95 L5.505,17.176 C5.33345377,17.0694804 5.11467398,17.0766019 4.9504183,17.1940524 C4.78616261,17.3115029 4.70867655,17.5162252 4.754,17.713 L5.425,23.777 C5.43363142,23.8563046 5.4797373,23.9266723 5.54899956,23.9662508 C5.61826183,24.0058292 5.70229397,24.009826 5.775,23.977 L12.156,21.155 C12.3559951,21.0969335 12.4955563,20.9162977 12.5012629,20.7081218 C12.5069695,20.4999459 12.3775137,20.3119357 12.181,20.243 L9.981,19.272 C9.90885848,19.2408765 9.85573238,19.1774093 9.83779196,19.1009161 C9.81985154,19.0244229 9.83921924,18.9439532 9.89,18.884 L19.113,7.8 C19.2604163,7.65954438 19.2998379,7.43976641 19.2104284,7.25683125 C19.1210188,7.07389609 18.92339,6.96997654 18.722,7 L18.722,7 Z" id="Path"></path>
            </g>
        </g>
    </g>
</svg>