<?xml version="1.0" encoding="UTF-8"?>
<svg viewBox="0 0 24 24" version="1.1" xmlns="http://www.w3.org/2000/svg">
    <title>ereader_24</title>
    <g id="Device-Types" stroke="none" stroke-width="1" fill="current" fill-rule="evenodd">
        <g id="Mobile" transform="translate(-210.000000, -8.000000)" fill="current" fill-rule="nonzero">
            <g id="kindle-1" transform="translate(210.000000, 8.000000)">
                <path d="M19.5,0 L4.5,0 C3.67157288,0 3,0.671572875 3,1.5 L3,22.5 C3,23.3284271 3.67157288,24 4.5,24 L19.5,24 C20.3284271,24 21,23.3284271 21,22.5 L21,1.5 C21,0.671572875 20.3284271,0 19.5,0 Z M6,20 C5.44771525,20 5,19.5522847 5,19 L5,3 C5,2.44771525 5.44771525,2 6,2 L18,2 C18.5522847,2 19,2.44771525 19,3 L19,19 C19,19.5522847 18.5522847,20 18,20 L6,20 Z" id="Shape"></path>
                <path d="M8.5,6.251 L15.5,6.251 C15.9142136,6.251 16.25,5.91521356 16.25,5.501 C16.25,5.08678644 15.9142136,4.751 15.5,4.751 L8.5,4.751 C8.08578644,4.751 7.75,5.08678644 7.75,5.501 C7.75,5.91521356 8.08578644,6.251 8.5,6.251 Z" id="Shape"></path>
                <path d="M8.5,9.751 L15.5,9.751 C15.9142136,9.751 16.25,9.41521356 16.25,9.001 C16.25,8.58678644 15.9142136,8.251 15.5,8.251 L8.5,8.251 C8.08578644,8.251 7.75,8.58678644 7.75,9.001 C7.75,9.41521356 8.08578644,9.751 8.5,9.751 L8.5,9.751 Z" id="Shape"></path>
                <path d="M8.5,13.251 L15.5,13.251 C15.9142136,13.251 16.25,12.9152136 16.25,12.501 C16.25,12.0867864 15.9142136,11.751 15.5,11.751 L8.5,11.751 C8.08578644,11.751 7.75,12.0867864 7.75,12.501 C7.75,12.9152136 8.08578644,13.251 8.5,13.251 Z" id="Shape"></path>
                <path d="M8.5,16.751 L14,16.751 C14.4142136,16.751 14.75,16.4152136 14.75,16.001 C14.75,15.5867864 14.4142136,15.251 14,15.251 L8.5,15.251 C8.08578644,15.251 7.75,15.5867864 7.75,16.001 C7.75,16.4152136 8.08578644,16.751 8.5,16.751 Z" id="Shape"></path>
            </g>
        </g>
    </g>
</svg>