<?xml version="1.0" encoding="UTF-8"?>
<svg viewBox="0 0 24 24" version="1.1" xmlns="http://www.w3.org/2000/svg">
    <title>file_server_24</title>
    <g id="Device-Types" stroke="none" stroke-width="1" fill="current" fill-rule="evenodd">
        <g id="Server" transform="translate(-166.000000, -8.000000)" fill="current" fill-rule="nonzero">
            <g id="folder-hold" transform="translate(166.000000, 8.000000)">
                <path d="M17,21.9999987 L13.25,21.9999987 C13.1119288,21.9999987 13,21.8880712 13,21.75 L13,18.25 C13,18.1119288 13.1119288,17.9999987 13.25,17.9999987 L21,17.9999987 C21.8284271,17.9999987 22.5,17.3284271 22.5,16.4999987 L22.5,4.49999873 C22.5,3.67157288 21.8284271,2.99999873 21,2.99999873 L11.118,2.99999873 C10.9287784,2.99999873 10.7557713,2.89317046 10.671,2.724 L9.724,0.83 C9.46976179,0.320744238 8.94919061,-0.000739454503 8.38,-1.27290729e-06 L3,-1.27290729e-06 C2.17157288,-1.27290729e-06 1.5,0.671572875 1.5,1.49999873 L1.5,16.4999987 C1.5,17.3284271 2.17157288,17.9999987 3,17.9999987 L10.75,17.9999987 C10.8880712,17.9999987 11,18.1119288 11,18.25 L11,21.75 C11,21.8880712 10.8880712,21.9999987 10.75,21.9999987 L7,21.9999987 C6.44771525,21.9999987 6,22.4477153 6,22.9999987 C6,23.5522847 6.44771525,23.9999987 7,23.9999987 L17,23.9999987 C17.5522847,23.9999987 18,23.5522847 18,22.9999987 C18,22.4477153 17.5522847,21.9999987 17,21.9999987 Z" id="Shape"></path>
                <path d="M4,22 L2,22 C1.44771525,22 1,22.4477153 1,23 C1,23.5522847 1.44771525,24 2,24 L4,24 C4.55228475,24 5,23.5522847 5,23 C5,22.4477153 4.55228475,22 4,22 Z" id="Shape"></path>
                <path d="M22,22 L20,22 C19.4477153,22 19,22.4477153 19,23 C19,23.5522847 19.4477153,24 20,24 L22,24 C22.5522847,24 23,23.5522847 23,23 C23,22.4477153 22.5522847,22 22,22 Z" id="Shape"></path>
            </g>
        </g>
    </g>
</svg>