<?xml version="1.0" encoding="UTF-8"?>
<svg viewBox="0 0 24 24" version="1.1" xmlns="http://www.w3.org/2000/svg">
    <title>fingbox_24</title>
    <g id="Device-Types" stroke="none" stroke-width="1" fill="current" fill-rule="evenodd">
        <g id="Smart-Home" transform="translate(-168.000000, -128.000000)">
            <g id="fingbox_24" transform="translate(168.000000, 128.000000)">
                <path d="M11.5500322,4.72832843 C19.5251561,4.72832843 21.3260347,7.85077859 21.3260347,7.85077859 C22.2636462,8.91639894 22.0121194,10.0605515 22.0121194,10.0605515 L22.0121194,10.0605515 L21.5756655,14.0144262 C21.499289,14.5868222 21.3403145,15.147825 21.0808479,15.6659285 C19.7514588,18.3205625 16.2997045,19.5696379 11.4240534,19.4156542 C7.9275042,19.3052092 4.83464228,18.3742155 3.01487955,16.7878177 C1.988093,15.8927478 1.37429637,14.7405152 1.28292902,13.3959339 L1.28292902,13.3959339 L1.06031738,9.40537987 L1.06031738,9.40537987 L1.04805211,9.25587215 C1.02683972,9.02457696 1.03643862,8.01964326 1.74539477,7.29593753 C1.74539477,7.29593753 3.57490837,4.72832843 11.5500322,4.72832843 Z M11.5009125,6 C10.3246303,6 9.2048195,6.08671959 8.17947864,6.23736084 L7.62979912,6.3257311 C7.0899453,6.42016665 6.58025375,6.53238697 6.10689103,6.65869233 L5.64586631,6.78955566 C3.70254686,7.3757876 2.48,8.20334753 2.48,8.97118644 C2.48,9.56183175 3.20340051,10.187815 4.42181087,10.7121087 L4.80195588,10.8662091 C6.44586642,11.4944411 8.8275438,11.9423729 11.5009125,11.9423729 C14.1742813,11.9423729 16.5559587,11.4944411 18.1998692,10.8662091 L18.5800142,10.7121087 C19.7984246,10.187815 20.5218251,9.56183175 20.5218251,8.97118644 C20.5218251,8.20334753 19.2992782,7.3757876 17.3559588,6.78955566 L16.8949341,6.65869233 C16.4215713,6.53238697 15.9118798,6.42016665 15.372026,6.3257311 L14.8223465,6.23736084 C13.7970056,6.08671959 12.6771948,6 11.5009125,6 Z" id="Combined-Shape" fill="current"></path>
                <g id="fingbox" transform="translate(1.000000, 4.000000)"></g>
            </g>
        </g>
    </g>
</svg>