<?xml version="1.0" encoding="UTF-8"?>
<svg viewBox="0 0 24 24" version="1.1" xmlns="http://www.w3.org/2000/svg">
    <title>firewall_24</title>
    <g id="Device-Types" stroke="none" stroke-width="1" fill="current" fill-rule="evenodd">
        <g id="Network" transform="translate(-88.000000, -8.000000)" fill="current" fill-rule="nonzero">
            <g id="firewall" transform="translate(88.000000, 8.000000)">
                <rect id="Rectangle-path" x="5.25" y="19.214" width="10.5" height="4.25" rx="0.25"></rect>
                <path d="M0.75,19.214 C0.611928813,19.214 0.5,19.3259288 0.5,19.464 L0.5,22.464 C0.5,23.0162847 0.94771525,23.464 1.5,23.464 L3.5,23.464 C3.63807119,23.464 3.75,23.3520712 3.75,23.214 L3.75,19.464 C3.75,19.3259288 3.63807119,19.214 3.5,19.214 L0.75,19.214 Z" id="Shape"></path>
                <path d="M23.25,17.714 C23.3880712,17.714 23.5,17.6020712 23.5,17.464 L23.5,14.464 C23.5,13.9117153 23.0522847,13.464 22.5,13.464 L12,13.464 C11.8619288,13.464 11.75,13.5759288 11.75,13.714 L11.75,17.464 C11.75,17.6020712 11.8619288,17.714 12,17.714 L23.25,17.714 Z" id="Shape"></path>
                <path d="M17.25,23.214 C17.25,23.3520712 17.3619288,23.464 17.5,23.464 L22.5,23.464 C23.0522847,23.464 23.5,23.0162847 23.5,22.464 L23.5,19.464 C23.5,19.3259288 23.3880712,19.214 23.25,19.214 L17.5,19.214 C17.3619288,19.214 17.25,19.3259288 17.25,19.464 L17.25,23.214 Z" id="Shape"></path>
                <path d="M10,17.714 C10.1380712,17.714 10.25,17.6020712 10.25,17.464 L10.25,13.714 C10.25,13.5759288 10.1380712,13.464 10,13.464 L1.5,13.464 C0.94771525,13.464 0.5,13.9117153 0.5,14.464 L0.5,17.464 C0.5,17.6020712 0.611928813,17.714 0.75,17.714 L10,17.714 Z" id="Shape"></path>
                <path d="M17.628,4.73 L17.367,4.73 L15.794,6.7 C15.7352072,6.77380058 15.6398716,6.80821241 15.5474969,6.78897648 C15.4551221,6.76974055 15.3814471,6.70013428 15.357,6.609 C14.8716729,4.83058729 14.9147605,2.94932807 15.481,1.195 C15.5344223,1.03100297 15.4995485,0.851051511 15.3887307,0.7188835 C15.2779129,0.586715489 15.1068003,0.52099504 14.936,0.545 C12.0483019,0.938775555 9.50017273,2.63384342 8.021,5.145 C7.98210963,5.21111933 7.91501739,5.25572461 7.839,5.266 C7.76325491,5.27656876 7.68679408,5.25230715 7.631,5.2 L6.531,4.133 C6.43170223,4.0363974 6.29677527,3.98532281 6.15839864,3.9919573 C6.02002201,3.9985918 5.89060028,4.06234064 5.801,4.168 C4.13086521,6.13826762 3.59622235,8.83114347 4.387,11.29 C4.42013569,11.3933849 4.51643547,11.4633843 4.625,11.4630016 L7.954,11.4630016 C8.07474616,11.4630016 8.1782657,11.376774 8.2,11.258 C8.47657071,9.6765598 9.45314611,8.30487016 10.857,7.526 C11.0354375,7.42182346 11.2595752,7.43813512 11.4210495,7.56704878 C11.5825239,7.69596244 11.6480706,7.91092151 11.586,8.108 C11.2988965,9.0721834 11.3911946,10.109643 11.844,11.008 C11.8851604,11.0880747 11.9660561,11.13997 12.056,11.144 C12.5083085,11.1282803 12.9192974,10.8766777 13.139,10.481 C13.2167816,10.3538176 13.3472587,10.2679778 13.4948421,10.2468945 C13.6424254,10.2258111 13.7917185,10.2716838 13.902,10.372 C14.184235,10.6358907 14.4089279,10.9552271 14.562,11.31 C14.6022495,11.4004986 14.6919546,11.4588657 14.791,11.459 L18.37,11.459 C18.4783594,11.4587526 18.5743267,11.3889948 18.608,11.286 C19.3217025,9.06578695 18.9593317,6.63975146 17.628,4.725 L17.628,4.73 Z" id="Shape"></path>
            </g>
        </g>
    </g>
</svg>