<?xml version="1.0" encoding="UTF-8"?>
<svg viewBox="0 0 24 24" version="1.1" xmlns="http://www.w3.org/2000/svg">
    <title>fitness_24</title>
    <g id="Device-Types" stroke="none" stroke-width="1" fill="current" fill-rule="evenodd">
        <g id="Smart-Home" transform="translate(-328.000000, -128.000000)" fill="current" fill-rule="nonzero">
            <g id="fitness_24" transform="translate(328.000000, 128.000000)">
                <path d="M20.6300908,20.4495563 C20.5824601,20.3945935 20.5615918,20.3213712 20.5730908,20.2495563 C20.5831931,20.1784966 20.6232327,20.1151612 20.6830908,20.0755563 C21.8120432,19.3453132 22.4955893,18.094089 22.5000908,16.7495563 C22.490241,14.9596786 21.3001732,13.3911197 19.5790908,12.8995563 L18.5200908,12.6765563 C18.4394404,12.6598631 18.3722619,12.6043702 18.3406418,12.5283219 C18.3090218,12.4522737 18.3170514,12.36551 18.3620908,12.2965563 C20.0047666,9.69361139 20.4943258,6.52596116 19.7140908,3.54855632 C19.6701595,3.37726813 19.7199706,3.19551449 19.8450908,3.07055632 L21.2070908,1.70855632 C21.5981084,1.31809099 21.5985561,0.684573938 21.2080908,0.293556347 C20.8176255,-0.0974612444 20.1841084,-0.097908973 19.7930908,0.292556317 L15.7930908,4.29255632 C15.5331342,4.54363079 15.4288782,4.91543421 15.5203937,5.26506364 C15.6119091,5.61469307 15.8849541,5.88773803 16.2345835,5.97925347 C16.5842129,6.07076891 16.9560164,5.9665129 17.2070908,5.70655632 L17.6070908,5.30655632 C17.6751325,5.23773448 17.7768878,5.21457218 17.8680138,5.24716312 C17.9591398,5.27975406 18.0231269,5.36219366 18.0320908,5.45855632 C18.282093,7.7650858 17.6175088,10.0776664 16.1810908,11.8995563 C16.0629821,12.0508604 15.8686834,12.1211965 15.6810908,12.0805563 L7.71809083,10.3995563 C7.53654961,10.3614273 7.39103855,10.2259249 7.34009083,10.0475563 L6.91709083,8.56855632 C6.89583352,8.49315803 6.91099783,8.41215843 6.95809083,8.34955632 C7.00520024,8.28648015 7.07936425,8.24939815 7.15809083,8.24955632 L8.00009083,8.24955632 C8.50480332,8.24899988 8.92998983,7.87243029 8.99152751,7.37148306 C9.05306519,6.87053583 8.73166255,6.40225326 8.24209083,6.27955632 L2.24209083,4.77955632 C1.84133091,4.67961958 1.42036453,4.83635226 1.1825409,5.1740441 C0.944717261,5.51173595 0.938976151,5.96089612 1.16809083,6.30455632 L1.86809083,7.35855632 C2.23891085,7.91507642 2.86334416,8.24943344 3.53209083,8.24955632 L4.36509083,8.24955632 C4.58852012,8.24949592 4.78487121,8.39767772 4.84609083,8.61255632 L5.27909083,10.1295563 C5.298194,10.1939926 5.28987295,10.2634552 5.25609083,10.3215563 C5.22291083,10.3801698 5.16731793,10.422767 5.10209083,10.4395563 C3.19743131,10.9378542 1.70520596,12.4175465 1.19086154,14.3179356 C0.676517113,16.2183246 1.21874929,18.2486472 2.61209083,19.6395563 C2.98396607,20.0051892 3.40706512,20.3147656 3.86809083,20.5585563 C3.93500368,20.5940665 3.98211283,20.6581055 3.99609083,20.7325563 C4.00995169,20.8071054 3.9893685,20.8839248 3.94009083,20.9415563 L2.74009083,22.3415563 C2.50786819,22.6130782 2.43814081,22.987864 2.55717432,23.3247356 C2.67620782,23.6616072 2.96591818,23.9093858 3.31717432,23.9747356 C3.66843045,24.0400854 4.02786819,23.9130782 4.26009083,23.6415563 L6.16709083,21.4155563 C6.25743372,21.3102603 6.38746603,21.2472362 6.52609083,21.2415563 L18.0260908,20.7615563 C18.179195,20.755519 18.3266148,20.8200151 18.4260908,20.9365563 L20.7450908,23.6365563 C20.9726775,23.9235181 21.3389314,24.0631044 21.69978,24.0004065 C22.0606285,23.9377086 22.3583313,23.6827589 22.4757815,23.3358466 C22.5932317,22.9889342 22.5116357,22.6055696 22.2630908,22.3365563 L20.6300908,20.4495563 Z M13.0630908,15.5225563 C13.1298381,15.7904026 12.9669013,16.0616655 12.6990908,16.1285563 L9.78209083,16.8585563 C9.28005595,18.1437226 7.9692219,18.9236698 6.60022935,18.7517661 C5.2312368,18.5798624 4.15393332,17.500038 3.9852298,16.1306474 C3.81652627,14.7612568 4.59953509,13.4522493 5.88587128,12.9532196 C7.17220747,12.4541899 8.63314641,12.8926655 9.43209083,14.0175563 C9.47978357,14.0850041 9.4910797,14.1716568 9.46227211,14.2490773 C9.43346451,14.3264977 9.36827262,14.3846898 9.28809083,14.4045563 L6.81809083,15.0215563 C6.44999862,15.1127302 6.20787752,15.4643189 6.25397297,15.8407226 C6.30006842,16.2171264 6.61987527,16.4998998 6.99909083,16.4995563 L12.4560908,15.1585563 C12.5848602,15.1262015 12.7212109,15.1463914 12.8350785,15.2146745 C12.9489461,15.2829575 13.0309794,15.393726 13.0630908,15.5225563 Z" id="Shape"></path>
            </g>
        </g>
    </g>
</svg>