<?xml version="1.0" encoding="UTF-8"?>
<svg viewBox="0 0 24 24" version="1.1" xmlns="http://www.w3.org/2000/svg">
    <title>fridge_24</title>
    <g id="Device-Types" stroke="none" stroke-width="1" fill="current" fill-rule="evenodd">
        <g id="Smart-Home" transform="translate(-88.000000, -48.000000)" fill="current" fill-rule="nonzero">
            <g id="Bold" transform="translate(88.000000, 48.000000)">
                <path d="M3.5,10 C3.22385763,10 3,10.2238576 3,10.5 L3,21.5 C3,22.1630412 3.2633921,22.798926 3.73223305,23.267767 C4.20107399,23.7366079 4.83695878,24 5.5,24 L18.5,24 C19.1630412,24 19.798926,23.7366079 20.267767,23.267767 C20.7366079,22.798926 21,22.1630412 21,21.5 L21,10.5 C21,10.2238576 20.7761424,10 20.5,10 L3.5,10 Z M7.25,17.5 C7.25,17.9142136 6.91421356,18.25 6.5,18.25 C6.08578644,18.25 5.75,17.9142136 5.75,17.5 L5.75,12.5 C5.75,12.0857864 6.08578644,11.75 6.5,11.75 C6.91421356,11.75 7.25,12.0857864 7.25,12.5 L7.25,17.5 Z" id="Shape"></path>
                <path d="M20.5,8.5 C20.7761424,8.5 21,8.27614237 21,8 L21,2.5 C21,1.11928813 19.8807119,0 18.5,0 L5.5,0 C4.11928813,0 3,1.11928813 3,2.5 L3,8 C3,8.27614237 3.22385763,8.5 3.5,8.5 L20.5,8.5 Z M5.75,3 C5.75,2.58578644 6.08578644,2.25 6.5,2.25 C6.91421356,2.25 7.25,2.58578644 7.25,3 L7.25,6 C7.25,6.41421356 6.91421356,6.75 6.5,6.75 C6.08578644,6.75 5.75,6.41421356 5.75,6 L5.75,3 Z" id="Shape"></path>
            </g>
        </g>
    </g>
</svg>