<?xml version="1.0" encoding="UTF-8"?>
<svg viewBox="0 0 24 24" version="1.1" xmlns="http://www.w3.org/2000/svg">
    <title>game_console_24</title>
    <g id="Device-Types" stroke="none" stroke-width="1" fill="current" fill-rule="evenodd">
        <g id="Audio-&amp;-Video" transform="translate(-88.000000, -8.000000)" fill="current" fill-rule="nonzero">
            <g id="Bold" transform="translate(88.000000, 8.000000)">
                <path d="M5.76,3.75 L8.64,3.75 C9.70038672,3.75 10.56,4.6454305 10.56,5.75 L10.56,10.25 C10.56,10.8022847 10.9898066,11.25 11.52,11.25 C12.0501934,11.25 12.48,10.8022847 12.48,10.25 L12.48,5.75 C12.48,3.540861 10.7607734,1.75 8.64,1.75 L5.76,1.75 C5.22980664,1.75 4.8,2.19771525 4.8,2.75 C4.8,3.30228475 5.22980664,3.75 5.76,3.75 Z" id="Shape"></path>
                <path d="M17.76,11.2499732 C16.4740847,11.2492067 15.2322722,11.7382465 14.26848,12.625 C14.1807259,12.7056165 14.0677255,12.7500685 13.95072,12.75 L9.08928,12.75 C8.97260525,12.7498251 8.85998603,12.7053889 8.77248,12.625 C6.64976194,10.6749361 3.42847962,10.815197 1.46939885,12.9429903 C-0.489681923,15.0707837 -0.489681923,18.4292163 1.46939885,20.5570097 C3.42847962,22.684803 6.64976194,22.8250639 8.77248,20.875 C8.86023409,20.7943835 8.97323454,20.7499315 9.09024,20.75 L13.95168,20.75 C14.0683548,20.7501749 14.180974,20.7946111 14.26848,20.875 C16.0301841,22.4934135 18.6064371,22.7049207 20.5897834,21.3939712 C22.5731296,20.0830218 23.4865977,17.5648837 22.8311426,15.2152632 C22.1756876,12.8656427 20.1089388,11.2495961 17.76,11.2499732 L17.76,11.2499732 Z M6.96,17.25 L6.24,17.25 C5.97490332,17.25 5.76,17.4738576 5.76,17.75 L5.76,18.5 C5.76,18.9142136 5.43764502,19.25 5.04,19.25 C4.64235498,19.25 4.32,18.9142136 4.32,18.5 L4.32,17.75 C4.32,17.4738576 4.10509668,17.25 3.84,17.25 L3.12,17.25 C2.72235498,17.25 2.4,16.9142136 2.4,16.5 C2.4,16.0857864 2.72235498,15.75 3.12,15.75 L3.84,15.75 C4.10509668,15.75 4.32,15.5261424 4.32,15.25 L4.32,14.5 C4.32,14.0857864 4.64235498,13.75 5.04,13.75 C5.43764502,13.75 5.76,14.0857864 5.76,14.5 L5.76,15.25 C5.76,15.5261424 5.97490332,15.75 6.24,15.75 L6.96,15.75 C7.35764502,15.75 7.68,16.0857864 7.68,16.5 C7.68,16.9142136 7.35764502,17.25 6.96,17.25 Z M15.36,17.75 C14.8298066,17.75 14.4,17.3022847 14.4,16.75 C14.4,16.1977153 14.8298066,15.75 15.36,15.75 C15.8901934,15.75 16.32,16.1977153 16.32,16.75 C16.32,17.3022847 15.8901934,17.75 15.36,17.75 Z M17.76,20.25 C17.2298066,20.25 16.8,19.8022847 16.8,19.25 C16.8,18.6977153 17.2298066,18.25 17.76,18.25 C18.2901934,18.25 18.72,18.6977153 18.72,19.25 C18.72,19.8022847 18.2901934,20.25 17.76,20.25 Z M17.76,15.25 C17.2298066,15.25 16.8,14.8022847 16.8,14.25 C16.8,13.6977153 17.2298066,13.25 17.76,13.25 C18.2901934,13.25 18.72,13.6977153 18.72,14.25 C18.72,14.8022847 18.2901934,15.25 17.76,15.25 Z M20.16,17.75 C19.6298066,17.75 19.2,17.3022847 19.2,16.75 C19.2,16.1977153 19.6298066,15.75 20.16,15.75 C20.6901934,15.75 21.12,16.1977153 21.12,16.75 C21.12,17.3022847 20.6901934,17.75 20.16,17.75 Z" id="Shape"></path>
            </g>
        </g>
    </g>
</svg>