<?xml version="1.0" encoding="UTF-8"?>
<svg viewBox="0 0 24 24" version="1.1" xmlns="http://www.w3.org/2000/svg">
    <title>garage_24</title>
    <g id="Device-Types" stroke="none" stroke-width="1" fill="current" fill-rule="evenodd">
        <g id="Smart-Home" transform="translate(-208.000000, -48.000000)" fill="current" fill-rule="nonzero">
            <g id="house-garage" transform="translate(208.000000, 48.000000)">
                <path d="M23.7,5.917 L12.2,0.917 C12.0726832,0.860353726 11.9273168,0.860353726 11.8,0.917 L0.3,5.917 C0.117872289,5.99648702 7.77156117e-16,6.17628241 7.77156117e-16,6.375 L7.77156117e-16,7.875 C7.77156117e-16,8.15114237 0.223857625,8.375 0.5,8.375 L23.5,8.375 C23.7761424,8.375 24,8.15114237 24,7.875 L24,6.375 C24,6.17628241 23.8821277,5.99648702 23.7,5.917 Z" id="Shape"></path>
                <path d="M17.25,14.375 L7.25,14.375 C6.83578644,14.375 6.5,14.7107864 6.5,15.125 C6.5,15.5392136 6.83578644,15.875 7.25,15.875 L17.25,15.875 C17.6642136,15.875 18,15.5392136 18,15.125 C18,14.7107864 17.6642136,14.375 17.25,14.375 L17.25,14.375 Z" id="Shape"></path>
                <path d="M17.25,17.875 L7.25,17.875 C6.83578644,17.875 6.5,18.2107864 6.5,18.625 C6.5,19.0392136 6.83578644,19.375 7.25,19.375 L17.25,19.375 C17.6642136,19.375 18,19.0392136 18,18.625 C18,18.2107864 17.6642136,17.875 17.25,17.875 Z" id="Shape"></path>
                <path d="M24,22.125 C24,21.5727153 23.5522847,21.125 23,21.125 L22.5,21.125 C22.2238576,21.125 22,20.9011424 22,20.625 L22,10.375 C22,10.0988576 21.7761424,9.875 21.5,9.875 L2.5,9.875 C2.22385763,9.875 2,10.0988576 2,10.375 L2,20.625 C2,20.9011424 1.77614237,21.125 1.5,21.125 L1,21.125 C0.44771525,21.125 0,21.5727153 0,22.125 C0,22.6772847 0.44771525,23.125 1,23.125 L23,23.125 C23.5522847,23.125 24,22.6772847 24,22.125 Z M5,13.375 C5,12.8227153 5.44771525,12.375 6,12.375 L18.5,12.375 C19.0522847,12.375 19.5,12.8227153 19.5,13.375 L19.5,20.625 C19.5,20.9011424 19.2761424,21.125 19,21.125 L5.5,21.125 C5.22385763,21.125 5,20.9011424 5,20.625 L5,13.375 Z" id="Shape"></path>
            </g>
        </g>
    </g>
</svg>