<?xml version="1.0" encoding="UTF-8"?>
<svg viewBox="0 0 24 24" version="1.1" xmlns="http://www.w3.org/2000/svg">
    <title>gateway_24</title>
    <g id="Device-Types" stroke="none" stroke-width="1" fill="current" fill-rule="evenodd">
        <g id="Network" transform="translate(-208.000000, -8.000000)" fill="current" fill-rule="nonzero">
            <g id="button-zigzag-1" transform="translate(208.000000, 8.000000)">
                <path d="M8.532,2 C5.90978981,2.00275587 3.78475587,4.12778981 3.782,6.75 L3.782,16 C3.782,16.1380712 3.67007119,16.25 3.532,16.25 L1.511,16.25 C1.10590565,16.2496792 0.740636754,16.4937845 0.585967481,16.8681893 C0.431298208,17.2425941 0.517787888,17.6733241 0.805,17.959 L4.326,21.459 C4.71615388,21.8473868 5.34684612,21.8473868 5.737,21.459 L9.257,17.959 C9.54344729,17.6740955 9.63032069,17.2448154 9.47718808,16.8709531 C9.32405546,16.4970908 8.96100278,16.2520988 8.557,16.25 L6.532,16.25 C6.46561434,16.2502671 6.40187053,16.2240137 6.3549284,16.1770716 C6.30798627,16.1301295 6.28173285,16.0663857 6.282,16 L6.282,6.749 C6.282,5.50635931 7.28935931,4.499 8.532,4.499 C9.77464069,4.499 10.782,5.50635931 10.782,6.749 L10.782,17.249 C10.782,19.8723526 12.9086474,21.999 15.532,21.999 C18.1553526,21.999 20.282,19.8723526 20.282,17.249 L20.246,8 C20.2454648,7.93344155 20.2715999,7.86943946 20.3185713,7.82228016 C20.3655427,7.77512086 20.4294399,7.74873054 20.496,7.749 L22.49,7.749 C22.8920714,7.74773829 23.254285,7.50579082 23.4094243,7.13485305 C23.5645636,6.76391527 23.4824534,6.3361359 23.201,6.049 L19.743,2.549 C19.3565471,2.15765717 18.7266028,2.15184917 18.333,2.536 L14.75,6.036 C14.4585057,6.32020561 14.3684035,6.75275315 14.5221737,7.12971001 C14.675944,7.50666687 15.0428868,7.75277416 15.45,7.752 L17.5,7.752 C17.566212,7.75173409 17.6298033,7.7778505 17.6767164,7.82457591 C17.7236295,7.87130132 17.7500005,7.93478747 17.75,8.001 L17.786,17.252 C17.786,18.4946407 16.7786407,19.502 15.536,19.502 C14.2933593,19.502 13.286,18.4946407 13.286,17.252 L13.286,6.749 C13.2821394,4.12584843 11.1551542,2.00110025 8.532,2 Z" id="Shape"></path>
            </g>
        </g>
    </g>
</svg>