<?xml version="1.0" encoding="UTF-8"?>
<svg viewBox="0 0 24 24" version="1.1" xmlns="http://www.w3.org/2000/svg">
    <title>generic_24</title>
    <g id="Device-Types" stroke="none" stroke-width="1" fill="current" fill-rule="evenodd">
        <g id="Mobile" transform="translate(-50.000000, -8.000000)" fill="current">
            <g id="generic_24" transform="translate(49.000000, 7.000000)">
                <path d="M13,9 C10.794,9 9,10.794 9,13 C9,15.206 10.794,17 13,17 C15.206,17 17,15.206 17,13 C17,10.794 15.206,9 13,9" id="Fill-700"></path>
                <path d="M13,1 C11.5161136,1 10.0671052,1.27103853 8.70789334,1.79306297 C8.19232562,1.99107401 7.93489506,2.56954388 8.1329061,3.08511161 C8.33091713,3.60067933 8.90938701,3.85810989 9.42495473,3.66009885 C10.5562988,3.22559027 11.7623346,3 13,3 C13.5522847,3 14,2.55228475 14,2 C14,1.44771525 13.5522847,1 13,1 Z M4.98760429,4.07278595 C3.89754141,5.05202145 2.99273149,6.22278189 2.32241751,7.52562898 C2.06974821,8.01672639 2.26303238,8.61966844 2.75412979,8.87233774 C3.24522721,9.12500704 3.84816926,8.93172287 4.10083856,8.44062546 C4.65962438,7.35454863 5.41452244,6.37776361 6.32415993,5.56060954 C6.73501107,5.19152989 6.76887355,4.55927107 6.39979391,4.14841993 C6.03071426,3.73756879 5.39845543,3.7037063 4.98760429,4.07278595 Z M1.06913337,11.7076011 C1.023956,12.1275464 1.00081271,12.5512014 1.00002103,12.9773594 C1.00002103,14.0415917 1.13355392,15.0700384 1.39682024,16.0659865 C1.53796191,16.5999317 2.08522795,16.9183619 2.61917315,16.7772202 C3.15311834,16.6360786 3.47154851,16.0888125 3.33040684,15.5548673 C3.1112453,14.7257695 3.00000198,13.8691369 3.00002103,12.9792366 C3.00067873,12.6251799 3.01998899,12.2716914 3.05765959,11.9215251 C3.11673308,11.3724088 2.71947484,10.8793735 2.17035849,10.8203 C1.62124214,10.7612265 1.12820686,11.1584848 1.06913337,11.7076011 Z M3.26338346,20.0084082 C4.12046482,21.1961922 5.1885366,22.2202899 6.4114694,23.0262791 C6.87261009,23.3301997 7.49281478,23.2027476 7.79673533,22.7416069 C8.10065589,22.2804662 7.97320379,21.6602615 7.51206309,21.3563409 C6.49184554,20.6839538 5.60037804,19.8291893 4.88523602,18.8381116 C4.56206753,18.3902494 3.93702363,18.2891651 3.48916142,18.6123336 C3.0412992,18.9355021 2.94021496,19.560546 3.26338346,20.0084082 Z M10.4322883,24.7234782 C11.2577288,24.904056 12.1042784,24.9972482 12.9617467,24.99994 C13.605971,25.0000037 14.2120288,24.9547758 14.8135635,24.8632065 C15.3595583,24.7800919 15.7347969,24.2700978 15.6516822,23.7241029 C15.5685675,23.1781081 15.0585735,22.8028695 14.5125786,22.8859842 C14.0113847,22.962279 13.5059934,22.9999946 12.9649777,22.9999449 C12.2524385,22.9977035 11.5470543,22.9200514 10.8597108,22.7696845 C10.3201856,22.651655 9.78713216,22.9933448 9.66910268,23.53287 C9.5510732,24.0723953 9.89276302,24.6054487 10.4322883,24.7234782 Z M18.9747752,23.4048872 C20.2439322,22.6736298 21.3709006,21.7148222 22.2975196,20.5801287 C22.6468481,20.1523576 22.5832579,19.522394 22.1554868,19.1730655 C21.7277158,18.823737 21.0977522,18.8873273 20.7484237,19.3150983 C19.9751627,20.2619969 19.0346843,21.0621417 17.9763022,21.6719557 C17.4977664,21.9476764 17.3333523,22.5591222 17.609073,23.037658 C17.8847937,23.5161938 18.4962394,23.6806079 18.9747752,23.4048872 Z M24.3798255,16.8114097 C24.7843251,15.6061957 24.9952281,14.3384055 24.9999238,13.044173 C25.0000031,12.8235706 24.9961445,12.6408495 24.987729,12.4539512 C24.9628864,11.9022255 24.4954854,11.4751023 23.9437597,11.4999449 C23.392034,11.5247875 22.9649108,11.9921884 22.9897533,12.5439142 L22.9955244,12.7001004 L22.9999266,13.0401954 C22.9960195,14.1164757 22.8204425,15.1719123 22.4837663,16.1750454 C22.3080391,16.6986277 22.5900314,17.26553 23.1136137,17.4412572 C23.637196,17.6169843 24.2040983,17.334992 24.3798255,16.8114097 Z M23.9952642,8.19299213 C23.4064331,6.85056546 22.5749285,5.62701946 21.546553,4.5829546 C21.1589962,4.18948514 20.5258494,4.18469195 20.1323799,4.5722487 C19.7389105,4.95980545 19.7341173,5.59295228 20.121674,5.98642174 C20.9796836,6.85752146 21.6731095,7.87788682 22.1637116,8.99636945 C22.3855581,9.50213873 22.9754073,9.73230361 23.4811765,9.51045709 C23.9869458,9.28861057 24.2171107,8.69876141 23.9952642,8.19299213 Z M17.9060354,2.04870917 C16.5751524,1.45048705 15.1420976,1.09917047 13.6637971,1.01814841 C13.11234,0.987924381 12.6407943,1.41046729 12.6105702,1.96192441 C12.5803462,2.51338152 13.0028891,2.98492726 13.5543462,3.01515129 C14.78596,3.08265305 15.9782832,3.37495376 17.0860758,3.87289837 C17.5898117,4.09932396 18.1817246,3.87451952 18.4081502,3.37078358 C18.6345758,2.86704765 18.4097713,2.27513477 17.9060354,2.04870917 Z" id="Fill-700" fill-rule="nonzero"></path>
            </g>
        </g>
    </g>
</svg>