<?xml version="1.0" encoding="UTF-8"?>
<svg viewBox="0 0 24 24" version="1.1" xmlns="http://www.w3.org/2000/svg">
    <title>health_monitor_24</title>
    <g id="Device-Types" stroke="none" stroke-width="1" fill="current" fill-rule="evenodd">
        <g id="Smart-Home" transform="translate(-248.000000, -88.000000)" fill="current" fill-rule="nonzero">
            <g id="Bold" transform="translate(248.000000, 88.000000)">
                <path d="M3.758,12.392 C3.92984285,12.3918721 4.08957963,12.303507 4.181,12.158 L5.19,10.551 C5.48624027,10.040498 6.04131872,9.73657234 6.631,9.762 C7.21116988,9.78750417 7.73490494,10.117024 8.009,10.629 L8.925,12.27 C8.97155743,12.353617 9.06176596,12.4033166 9.15732272,12.3979961 C9.25287948,12.3926755 9.33701305,12.3332687 9.374,12.245 L10.974,8.416 C11.2438019,7.72663665 11.9367932,7.29861261 12.674,7.366 C13.3901223,7.46543845 13.9679983,8.00138156 14.121,8.708 L15.45,14.266 C15.4746089,14.3715568 15.5649153,14.4489045 15.673,14.457 C15.7807297,14.4659275 15.8819945,14.4046038 15.924,14.305 L16.281,13.451 C16.5288517,12.8224424 17.1304598,12.40467 17.806,12.392 L21.6,12.392 C21.8035527,12.3924465 21.9870574,12.2694509 22.064,12.081 C22.6531625,10.7121551 22.9710404,9.24196982 23,7.752 C23,3.138 20.324,0.868 17.672,0.665 C15.3210172,0.554179652 13.1490304,1.9169558 12.226,4.082 C12.1841045,4.16870553 12.0962968,4.22379835 12,4.22379835 C11.9037032,4.22379835 11.8158955,4.16870553 11.774,4.082 C10.8542234,1.91418001 8.68006658,0.550042329 6.328,0.665 C3.676,0.868 1,3.138 1,7.752 C1.02895955,9.24196982 1.34683746,10.7121551 1.936,12.081 C2.01280527,12.2691131 2.19581145,12.3920395 2.399,12.392 L3.758,12.392 Z" id="Shape"></path>
                <path d="M18.39,14.392 C18.1885133,14.3921005 18.0067739,14.5131287 17.929,14.699 L17.067,16.757 C16.8206278,17.3859871 16.2194008,17.8044379 15.544,17.817 C15.4848689,17.8166592 15.4257932,17.8133216 15.367,17.807 C14.6509987,17.7077297 14.0733377,17.1716157 13.921,16.465 L12.592,10.907 C12.5668658,10.8016548 12.4767593,10.7244729 12.3688036,10.7158182 C12.2608479,10.7071635 12.1595961,10.7690045 12.118,10.869 L10.746,14.146 C10.5137828,14.7361983 9.96779145,15.1443365 9.336,15.2 C8.69410848,15.2442167 8.08676455,14.9048417 7.788,14.335 L6.764,12.5 C6.72112255,12.4227973 6.64069523,12.3739436 6.55241916,12.37148 C6.4641431,12.3690165 6.38111635,12.4133088 6.334,12.488 L5.634,13.6 C5.33997981,14.0855824 4.81563311,14.3844524 4.248,14.39 L3.969,14.39 C3.78599798,14.3900693 3.61765419,14.4901089 3.53011091,14.6508133 C3.44256764,14.8115178 3.44981288,15.007209 3.549,15.161 C5.62834051,18.3366446 8.31481384,21.0700165 11.454,23.204 C11.7935525,23.3940365 12.2074475,23.3940365 12.547,23.204 C15.684389,21.0699203 18.3691457,18.3369059 20.447,15.162 C20.5461871,15.008209 20.5534324,14.8125178 20.4658891,14.6518133 C20.3783458,14.4911089 20.210002,14.3910693 20.027,14.391 L18.39,14.392 Z" id="Shape"></path>
            </g>
        </g>
    </g>
</svg>