<?xml version="1.0" encoding="UTF-8"?>
<svg viewBox="0 0 24 24" version="1.1" xmlns="http://www.w3.org/2000/svg">
    <title>heating_24</title>
    <g id="Device-Types" stroke="none" stroke-width="1" fill="current" fill-rule="evenodd">
        <g id="Smart-Home" transform="translate(-368.000000, -8.000000)" fill="current" fill-rule="nonzero">
            <g id="ac-heat" transform="translate(368.000000, 8.000000)">
                <path d="M24,9.12 C24,8.85490332 23.7761424,8.64 23.5,8.64 L0.5,8.64 C0.223857625,8.64 0,8.85490332 0,9.12 L0,11.52 C0,12.0501934 0.44771525,12.48 1,12.48 L2.2,12.48 C2.3892216,12.4800061 2.56222872,12.5825564 2.647,12.74496 L3.47,14.3232 C3.72141521,14.812752 4.24144541,15.1219759 4.81,15.1200094 L19.19,15.1200094 C19.7585546,15.1219759 20.2785848,14.812752 20.53,14.3232 L21.352,12.74496 C21.4369324,12.5822468 21.6104183,12.4796423 21.8,12.48 L23,12.48 C23.5522847,12.48 24,12.0501934 24,11.52 L24,9.12 Z M19.018,12.93504 C18.9332287,13.0974436 18.7602216,13.2 18.571,13.2 L5.429,13.2 C5.2397784,13.2 5.06677128,13.0974436 4.982,12.93504 L4.482,11.97504 C4.4043329,11.8262464 4.41249587,11.6494488 4.50357142,11.5078355 C4.59464697,11.3662222 4.75563594,11.28 4.929,11.28 L19.071,11.28 C19.2443641,11.28 19.405353,11.3662222 19.4964286,11.5078355 C19.5875041,11.6494488 19.5956671,11.8262464 19.518,11.97504 L19.018,12.93504 Z" id="Shape"></path>
                <path d="M12.64,16.54176 C12.215293,16.2024363 11.5844623,16.2578813 11.231,16.6656 C10.8775378,17.0733187 10.9352931,17.6789162 11.36,18.01824 C11.549,18.16896 11.636,18.23808 11.107,19.2864 C10.66,20.17344 9.907,21.65856 11.36,22.81824 C11.784707,23.1575637 12.4155377,23.1021187 12.769,22.6944 C13.1224622,22.2866813 13.0647069,21.6810838 12.64,21.34176 C12.475,21.21024 12.392,21.144 12.907,20.12256 C13.359,19.22496 14.117,17.72352 12.64,16.54176 Z" id="Shape"></path>
                <path d="M6.379,16.54176 C6.10426276,16.3224275 5.72850707,16.2604637 5.39327646,16.3792097 C5.05804586,16.4979557 4.81426983,16.7793712 4.75377646,17.1174497 C4.6932831,17.4555282 4.82526276,17.7989075 5.1,18.01824 C5.289,18.16896 5.376,18.23808 4.847,19.2864 C4.399,20.17344 3.647,21.65856 5.1,22.81824 C5.37473724,23.037744 5.75058823,23.0998663 6.08597354,22.981206 C6.42135884,22.8625457 6.66532547,22.5811302 6.72597354,22.242966 C6.78662161,21.9048018 6.65473724,21.561264 6.38,21.34176 C6.215,21.21024 6.132,21.144 6.647,20.12256 C7.1,19.22496 7.856,17.72352 6.379,16.54176 Z" id="Shape"></path>
                <path d="M18.883,16.54176 C18.6082628,16.322256 18.2324118,16.2601337 17.8970265,16.378794 C17.5616412,16.4974543 17.3176745,16.7788698 17.2570265,17.117034 C17.1963784,17.4551982 17.3282628,17.798736 17.603,18.01824 C17.792,18.16896 17.878,18.23808 17.35,19.2864 C16.902,20.17344 16.15,21.65856 17.603,22.81824 C18.027707,23.1575638 18.6585378,23.1021187 19.012,22.6944 C19.3654622,22.2866813 19.307707,21.6810838 18.883,21.34176 C18.718,21.21024 18.635,21.144 19.15,20.12256 C19.6,19.22496 20.36,17.72352 18.883,16.54176 Z" id="Shape"></path>
                <path d="M21.5,0 L2.5,0 C1.11928813,0 0,1.0745166 0,2.4 L0,6.72 C0,6.98509668 0.223857625,7.2 0.5,7.2 L23.5,7.2 C23.7761424,7.2 24,6.98509668 24,6.72 L24,2.4 C24,1.76348042 23.7366079,1.15303103 23.267767,0.702943725 C22.798926,0.252856417 22.1630412,0 21.5,0 Z M17,5.28 C16.4477153,5.28 16,4.85019336 16,4.32 C16,3.78980664 16.4477153,3.36 17,3.36 C17.5522847,3.36 18,3.78980664 18,4.32 C18,4.85019336 17.5522847,5.28 17,5.28 Z M20.5,5.28 C19.9477153,5.28 19.5,4.85019336 19.5,4.32 C19.5,3.78980664 19.9477153,3.36 20.5,3.36 C21.0522847,3.36 21.5,3.78980664 21.5,4.32 C21.5,4.85019336 21.0522847,5.28 20.5,5.28 Z" id="Shape"></path>
            </g>
        </g>
    </g>
</svg>