<?xml version="1.0" encoding="UTF-8"?>
<svg viewBox="0 0 24 24" version="1.1" xmlns="http://www.w3.org/2000/svg">
    <title>humidity_24</title>
    <g id="Device-Types" stroke="none" stroke-width="1" fill="current" fill-rule="evenodd">
        <g id="Smart-Home" transform="translate(-88.000000, -128.000000)" fill="current" fill-rule="nonzero">
            <g id="Bold" transform="translate(88.000000, 128.000000)">
                <path d="M4.416,17.725 C6.65708283,19.2207848 9.30654296,19.985509 12,19.914 C14.693457,19.985509 17.3429172,19.2207848 19.584,17.725 C20.0327314,17.4024657 20.1350343,16.7772314 19.8125,16.3285 C19.4899657,15.8797686 18.8647314,15.7774657 18.416,16.1 C16.5149622,17.3505043 14.2743808,17.9839854 12,17.914 C9.72561923,17.9839854 7.48503784,17.3505043 5.584,16.1 C5.29496198,15.8761082 4.90677877,15.8278008 4.57168207,15.9740223 C4.23658538,16.1202439 4.00799791,16.437683 3.97556359,16.8018512 C3.94312926,17.1660195 4.11201891,17.5188596 4.416,17.722 L4.416,17.725 Z" id="Shape"></path>
                <path d="M23.771,18.528 C23.4198929,18.1021569 22.7901686,18.041288 22.364,18.392 C19.377972,20.6217793 15.7250435,21.7750388 12,21.664 C8.27495651,21.7750388 4.62202797,20.6217793 1.636,18.392 C1.20963617,18.0407469 0.579253101,18.1016362 0.228,18.528 C-0.123253101,18.9543638 -0.0623638269,19.5847469 0.364,19.936 C3.70910823,22.4594911 7.81123997,23.7737526 12,23.664 C16.18876,23.7737526 20.2908918,22.4594911 23.636,19.936 C23.8406544,19.767216 23.9698586,19.5240314 23.9951774,19.2599662 C24.0204961,18.9959011 23.9398545,18.7325962 23.771,18.528 Z" id="Shape"></path>
                <path d="M12,15.914 C15.0361953,15.9106932 17.4966932,13.4501953 17.5,10.414 C17.5,8.047 14.236,2.871 12.833,0.756 C12.6374006,0.492198898 12.3284055,0.336640672 12,0.336640672 C11.6715945,0.336640672 11.3625994,0.492198898 11.167,0.756 C9.763,2.871 6.5,8.046 6.5,10.414 C6.5033068,13.4501953 8.96380465,15.9106932 12,15.914 Z M9.25,9.914 C9.52614237,9.914 9.75,10.1378576 9.75,10.414 C9.75110269,11.6561836 10.7578164,12.6628973 12,12.664 C12.2761424,12.664 12.5,12.8878576 12.5,13.164 C12.5,13.4401424 12.2761424,13.664 12,13.664 C10.2059883,13.6617961 8.75220395,12.2080117 8.75,10.414 C8.75,10.1378576 8.97385763,9.914 9.25,9.914 L9.25,9.914 Z" id="Shape"></path>
            </g>
        </g>
    </g>
</svg>