<?xml version="1.0" encoding="UTF-8"?>
<svg viewBox="0 0 24 24" version="1.1" xmlns="http://www.w3.org/2000/svg">
    <title>industrial_24</title>
    <g id="Device-Types" stroke="none" stroke-width="1" fill="current" fill-rule="evenodd">
        <g id="Industry" transform="translate(-40.000000, -8.000000)" fill="current" fill-rule="nonzero">
            <g id="streamline-icon-shipment-crane@24x24" transform="translate(40.000000, 8.000000)">
                <path d="M16.308,9.75 C16.1766893,9.75022131 16.067929,9.85199306 16.059,9.983 L15.208,22.719 C15.1896449,22.9866866 15.2835687,23.2499297 15.4672256,23.4455394 C15.6508825,23.6411491 15.9076889,23.7514627 16.176,23.7500144 L19.176,23.7500144 C19.4444025,23.7511831 19.7011968,23.6406423 19.8848205,23.4448782 C20.0684443,23.249114 20.1623408,22.9857777 20.144,22.718 L19.293,9.983 C19.284071,9.85199306 19.1753107,9.75022131 19.044,9.75 L16.308,9.75 Z" id="Path"></path>
                <path d="M13,4 C13,3.86192881 12.8880712,3.75 12.75,3.75 L0.676,3.75 C0.502635943,3.75 0.341646973,3.83981476 0.250571423,3.98732863 C0.159495874,4.13484249 0.151332902,4.31900672 0.229,4.474 L1,6.026 C1.23651023,6.4558445 1.68077156,6.73052016 2.171,6.75 L2.421,6.75 C2.55907119,6.75 2.671,6.86192881 2.671,7 L2.671,9.783 C2.67102138,9.8796404 2.61534154,9.96763791 2.528,10.009 C1.49368986,10.5280702 0.847274109,11.5928692 0.864,12.75 C0.959213384,14.4385389 2.35979305,15.7569383 4.051,15.7500273 C4.8327168,15.7415213 5.57809692,15.4186553 6.11900278,14.8542318 C6.65990864,14.2898083 6.9507785,13.53137 6.926,12.75 C6.926,12.1977153 6.47828475,11.75 5.926,11.75 C5.37371525,11.75 4.926,12.1977153 4.926,12.75 C4.95134777,13.0006055 4.87157347,13.2504937 4.70570662,13.4400558 C4.53983977,13.6296179 4.30275247,13.7418572 4.051,13.75 C3.46109375,13.7599546 2.95433789,13.3330331 2.864,12.75 C2.824739,12.2534809 3.18199661,11.8135084 3.676,11.75 C4.22828475,11.75 4.676,11.3022847 4.676,10.75 L4.676,7 C4.676,6.86192881 4.78792881,6.75 4.926,6.75 L12.75,6.75 C12.8880712,6.75 13,6.63807119 13,6.5 L13,4 Z" id="Path"></path>
                <path d="M12,17.75 L10,17.75 C9.86192881,17.75 9.75,17.8619288 9.75,18 L9.75,23.5 C9.75,23.6380712 9.86192881,23.75 10,23.75 L12,23.75 C12.5522847,23.75 13,23.3022847 13,22.75 L13,18.75 C13,18.1977153 12.5522847,17.75 12,17.75 Z" id="Path"></path>
                <polygon id="Path" points="4.75 17.75 8.25 17.75 8.25 23.75 4.75 23.75"></polygon>
                <path d="M3.25,18 C3.25,17.8619288 3.13807119,17.75 3,17.75 L1,17.75 C0.44771525,17.75 0,18.1977153 0,18.75 L0,22.75 C0,23.3022847 0.44771525,23.75 1,23.75 L3,23.75 C3.13807119,23.75 3.25,23.6380712 3.25,23.5 L3.25,18 Z" id="Path"></path>
                <path d="M23.889,4.118 C23.7324963,3.87858244 23.4618154,3.7388762 23.176,3.75 L20.75,3.75 C20.6119288,3.75 20.4999907,3.63807119 20.4999907,3.5 L20.4999907,0.622 C20.5127562,0.501434719 20.4603474,0.383198744 20.3624494,0.311681679 C20.2645514,0.240164614 20.1359781,0.226188339 20.025,0.275 L14.974,1.987 C14.6978105,2.09745877 14.5122194,2.35979223 14.4999907,2.657 L14.4999907,7.741 C14.4983305,8.01929756 14.7217169,8.24670498 14.9999907,8.25 L19.9999907,8.25 C20.2782831,8.24670498 20.5016695,8.01929756 20.4999907,7.741 L20.4999907,7 C20.4999907,6.86192881 20.6119288,6.75 20.75,6.75 L22.176,6.75 C22.6662284,6.73052016 23.1104898,6.4558445 23.347,6.026 L23.9,4.926 C24.0393112,4.67363067 24.0351297,4.36648337 23.889,4.118 Z" id="Path"></path>
            </g>
        </g>
    </g>
</svg>