<?xml version="1.0" encoding="UTF-8"?>
<svg viewBox="0 0 24 24" version="1.1" xmlns="http://www.w3.org/2000/svg">
    <title>ipod_24</title>
    <g id="Device-Types" stroke="none" stroke-width="1" fill="current" fill-rule="evenodd">
        <g id="Mobile" transform="translate(-170.000000, -8.000000)" fill="current" fill-rule="nonzero">
            <g id="portable-player" transform="translate(170.000000, 8.000000)">
                <path d="M8.75,17 C8.75,18.7949254 10.2050746,20.25 12,20.25 C13.7949254,20.25 15.25,18.7949254 15.25,17 C15.25,15.2050746 13.7949254,13.75 12,13.75 C10.2059883,13.7522039 8.75220395,15.2059883 8.75,17 L8.75,17 Z M13.5,17 C13.5,17.8284271 12.8284271,18.5 12,18.5 C11.1715729,18.5 10.5,17.8284271 10.5,17 C10.5,16.1715729 11.1715729,15.5 12,15.5 C12.8284271,15.5 13.5,16.1715729 13.5,17 Z" id="Shape"></path>
                <path d="M17.5,0 L6.5,0 C5.11928813,0 4,1.11928813 4,2.5 L4,21.5 C4,22.1630412 4.2633921,22.798926 4.73223305,23.267767 C5.20107399,23.7366079 5.83695878,24 6.5,24 L17.5,24 C18.1630412,24 18.798926,23.7366079 19.267767,23.267767 C19.7366079,22.798926 20,22.1630412 20,21.5 L20,2.5 C20,1.11928813 18.8807119,0 17.5,0 Z M18,9.531 C17.9906856,10.0743977 17.5434216,10.5077965 17,10.5 L7,10.5 C6.45657838,10.5077965 6.00931438,10.0743977 6,9.531 L6,2.969 C6.00931438,2.42560228 6.45657838,1.99220346 7,2 L17,2 C17.5434216,1.99220346 17.9906856,2.42560228 18,2.969 L18,9.531 Z M16.75,17 C16.75,19.6233526 14.6233526,21.75 12,21.75 C9.37664744,21.75 7.25,19.6233526 7.25,17 C7.25,14.3766474 9.37664744,12.25 12,12.25 C14.6219821,12.2533057 16.7466943,14.3780179 16.75,17 Z" id="Shape"></path>
            </g>
        </g>
    </g>
</svg>