<?xml version="1.0" encoding="UTF-8"?>
<svg viewBox="0 0 24 24" version="1.1" xmlns="http://www.w3.org/2000/svg">
    <title>key_lock_24</title>
    <g id="Device-Types" stroke="none" stroke-width="1" fill="current" fill-rule="evenodd">
        <g id="Smart-Home" transform="translate(-368.000000, -48.000000)" fill="current" fill-rule="nonzero">
            <g id="login-key-2" transform="translate(368.000000, 48.000000)">
                <path d="M23.04,0.5 L10.56,0.5 C10.0298066,0.5 9.6,0.94771525 9.6,1.5 L9.6,4 C9.6,4.55228475 10.0298066,5 10.56,5 C11.0901934,5 11.52,4.55228475 11.52,4 L11.52,3 C11.52,2.72385763 11.7349033,2.5 12,2.5 L21.6,2.5 C21.8650967,2.5 22.08,2.72385763 22.08,3 L22.08,21 C22.08,21.2761424 21.8650967,21.5 21.6,21.5 L12,21.5 C11.7349033,21.5 11.52,21.2761424 11.52,21 L11.52,20 C11.52,19.4477153 11.0901934,19 10.56,19 C10.0298066,19 9.6,19.4477153 9.6,20 L9.6,22.5 C9.6,23.0522847 10.0298066,23.5 10.56,23.5 L23.04,23.5 C23.5701934,23.5 24,23.0522847 24,22.5 L24,1.5 C24,0.94771525 23.5701934,0.5 23.04,0.5 Z" id="Shape"></path>
                <path d="M12.14592,14 L12.76128,14 L13.58016,14.854 C13.6703527,14.9477139 13.7926091,15.000237 13.92,15 C14.0472874,14.9996931 14.1693526,14.9472522 14.25984,14.854 L15.07872,14 L15.64128,14 L16.46016,14.854 C16.5502121,14.9480417 16.6724858,15.0008938 16.8,15.0008938 C16.9275142,15.0008938 17.0497879,14.9480417 17.13984,14.854 L17.95872,14 L19.2,14 C19.3273909,14.000237 19.4496473,13.9477139 19.53984,13.854 L20.97984,12.354 C21.1672233,12.1587501 21.1672233,11.8422499 20.97984,11.647 L19.53984,10.147 C19.4498046,10.0529193 19.3275288,10.0000281 19.2,10 L12.14592,10 C11.2108103,7.24490663 8.50624084,5.59225583 5.74131252,6.08640864 C2.97638421,6.58056146 0.95533992,9.07778219 0.95533992,12 C0.95533992,14.9222178 2.97638421,17.4194385 5.74131252,17.9135914 C8.50624084,18.4077442 11.2108103,16.7550934 12.14592,14 L12.14592,14 Z M6.24,12 C6.24,12.8284271 5.59529004,13.5 4.8,13.5 C4.00470996,13.5 3.36,12.8284271 3.36,12 C3.36,11.1715729 4.00470996,10.5 4.8,10.5 C5.59529004,10.5 6.24,11.1715729 6.24,12 Z" id="Shape"></path>
            </g>
        </g>
    </g>
</svg>