<?xml version="1.0" encoding="UTF-8"?>
<svg viewBox="0 0 24 24" version="1.1" xmlns="http://www.w3.org/2000/svg">
    <title>laptop_24</title>
    <g id="Device-Types" stroke="none" stroke-width="1" fill="current" fill-rule="evenodd">
        <g id="Home-&amp;-Office" transform="translate(-48.000000, -8.000000)" fill="current" fill-rule="nonzero">
            <g id="laptop-1" transform="translate(48.000000, 8.000000)">
                <path d="M3.5,14.734 C4.05228475,14.734 4.5,14.2862847 4.5,13.734 L4.5,5.418 C4.5,5.04962607 4.79862607,4.751 5.167,4.751 L18.833,4.751 C19.2013739,4.751 19.5,5.04962607 19.5,5.418 L19.5,13.734 C19.5,14.2862847 19.9477153,14.734 20.5,14.734 C21.0522847,14.734 21.5,14.2862847 21.5,13.734 L21.5,5.418 C21.498897,3.94551369 20.3054863,2.75210299 18.833,2.751 L5.167,2.751 C3.69451369,2.75210299 2.50110299,3.94551369 2.5,5.418 L2.5,13.734 C2.5,14.2862847 2.94771525,14.734 3.5,14.734 Z" id="Shape"></path>
                <path d="M23.894,16.443 C23.7992091,16.3217806 23.6538813,16.251 23.5,16.251 L15.5,16.251 C15.2238576,16.251 15,16.4748576 15,16.751 C15,17.461 13.768,18.251 12,18.251 C10.232,18.251 9,17.461 9,16.751 C9,16.4748576 8.77614237,16.251 8.5,16.251 L0.5,16.251 C0.346105056,16.251 0.200803393,16.3219518 0.106077836,16.4432395 C0.0113522792,16.5645273 -0.0222425837,16.7226794 0.015,16.872 C0.655756863,19.4470617 2.96941657,21.2536801 5.623,21.251 L18.377,21.251 C21.0305834,21.2536801 23.3442431,19.4470617 23.985,16.872 C24.0223424,16.7226165 23.9887726,16.5643591 23.894,16.443 Z" id="Shape"></path>
            </g>
        </g>
    </g>
</svg>