<?xml version="1.0" encoding="UTF-8"?>
<svg viewBox="0 0 24 24" version="1.1" xmlns="http://www.w3.org/2000/svg">
    <title>light_24</title>
    <g id="Device-Types" stroke="none" stroke-width="1" fill="current" fill-rule="evenodd">
        <g id="Smart-Home" transform="translate(-128.000000, -8.000000)" fill="current" fill-rule="nonzero">
            <g id="Bold" transform="translate(128.000000, 8.000000)">
                <path d="M12,-2.03477865e-06 C7.89290809,-0.00274746365 4.30565948,2.77709179 3.28316593,6.75486986 C2.26067237,10.7326479 4.06269892,14.8978081 7.662,16.876 C7.80994582,16.9574566 7.97611207,16.999998 8.145,16.999998 L15.855,16.999998 C16.0238879,16.999998 16.1900542,16.9574566 16.338,16.876 C19.9373011,14.8978081 21.7393276,10.7326479 20.7168341,6.75486986 C19.6943405,2.77709179 16.1070919,-0.00274746365 12,-2.03477865e-06 Z M15.713,14.924 C15.633534,14.9736659 15.54171,15 15.448,15 L13.5,15 C13.2238576,15 13,14.7761424 13,14.5 L13,12.021 C13.0001844,11.9473747 13.0326851,11.877543 13.0888971,11.8299938 C13.1451092,11.7824446 13.2193634,11.7619733 13.292,11.774 C13.3606846,11.7859864 13.4302773,11.7920089 13.5,11.792 C13.8977502,11.7924456 14.2793929,11.6348966 14.561,11.354 L15.707,10.207 C16.0859722,9.81462111 16.0805524,9.19091522 15.6948186,8.80518142 C15.3090848,8.41944763 14.6853789,8.41402779 14.293,8.793 L13.677,9.409 C13.6300979,9.45602085 13.5664136,9.48244689 13.5,9.48244689 C13.4335864,9.48244689 13.3699021,9.45602085 13.323,9.409 L12.707,8.793 C12.3165001,8.40261806 11.6834999,8.40261806 11.293,8.793 L10.677,9.409 C10.6300979,9.45602085 10.5664136,9.48244689 10.5,9.48244689 C10.4335864,9.48244689 10.3699021,9.45602085 10.323,9.409 L9.707,8.793 C9.31462111,8.41402779 8.69091522,8.41944763 8.30518142,8.80518142 C7.91944763,9.19091522 7.91402779,9.81462111 8.293,10.207 L9.439,11.354 C9.77378326,11.6865009 10.2468131,11.8398458 10.713,11.767 C10.7849191,11.7562374 10.8579602,11.7773232 10.9130782,11.8247593 C10.9681963,11.8721954 10.9999282,11.9412801 11,12.014 L11,14.5 C11,14.7761424 10.7761424,15 10.5,15 L8.552,15 C8.45829004,15 8.36646604,14.9736659 8.287,14.924 C5.64029448,13.2679434 4.41027634,10.0593168 5.27174792,7.05841024 C6.13321951,4.05750368 8.87788958,1.98989257 12,1.98989257 C15.1221104,1.98989257 17.8667805,4.05750368 18.7282521,7.05841024 C19.5897237,10.0593168 18.3597055,13.2679434 15.713,14.924 L15.713,14.924 Z" id="Shape"></path>
                <path d="M15,19 C15,18.7238576 14.7761424,18.5 14.5,18.5 L9.5,18.5 C9.22385763,18.5 9,18.7238576 9,19 L9,20.5 C9,21.3284271 9.67157288,22 10.5,22 C10.7761424,22 11,22.2238576 11,22.5 L11,23 C11,23.5522847 11.4477153,24 12,24 C12.5522847,24 13,23.5522847 13,23 L13,22.5 C13,22.2238576 13.2238576,22 13.5,22 C14.3284271,22 15,21.3284271 15,20.5 L15,19 Z" id="Shape"></path>
            </g>
        </g>
    </g>
</svg>