<?xml version="1.0" encoding="UTF-8"?>
<svg viewBox="0 0 24 24" version="1.1" xmlns="http://www.w3.org/2000/svg">
    <title>loudspeaker_24</title>
    <g id="Device-Types" stroke="none" stroke-width="1" fill="current" fill-rule="evenodd">
        <g id="Audio-&amp;-Video" transform="translate(-166.000000, -8.000000)" fill="current" fill-rule="nonzero">
            <g id="loudspeaker_24" transform="translate(166.000000, 8.000000)">
                <g id="speakers" transform="translate(1.000000, 0.000000)">
                    <path d="M18.6875,0.910153846 L18.6875,0.910153846 L4.3125,0.936 C3.51859067,0.936 2.875,1.55591342 2.875,2.32061538 L2.875,21.7052308 C2.875,22.4699327 3.51859067,23.0898462 4.3125,23.0898462 L4.3125,23.0898462 L18.6875,23.064 C19.4814093,23.064 20.125,22.4440866 20.125,21.6793846 L20.125,2.29476923 C20.125,1.53006727 19.4814093,0.910153846 18.6875,0.910153846 Z M11.4904167,9.67292308 C13.8200379,9.67292308 15.9202516,11.0246748 16.8116694,13.0978187 C17.7030873,15.1709626 17.2101462,17.5571964 15.5627182,19.1437526 C13.9152901,20.7303089 11.4378335,21.204718 9.28565543,20.3457498 C7.13347735,19.4867816 5.73044571,17.4636084 5.73083325,15.2196923 C5.73136254,12.1561469 8.30986084,9.67292308 11.4904167,9.67292308 Z M9.10416667,5.53846154 C9.10416667,4.26905628 10.1725272,3.24 11.4904167,3.24 C12.8083062,3.24 13.8766667,4.26905628 13.8766667,5.53846154 C13.8766667,6.80786679 12.8083062,7.83692308 11.4904167,7.83692308 C10.1725272,7.83692308 9.10416667,6.80786679 9.10416667,5.53846154 Z" id="Shape"></path>
                    <ellipse id="Oval" cx="11.5" cy="15.2224615" rx="1.91666667" ry="1.84615385"></ellipse>
                </g>
            </g>
        </g>
    </g>
</svg>