<?xml version="1.0" encoding="UTF-8"?>
<svg viewBox="0 0 24 24" version="1.1" xmlns="http://www.w3.org/2000/svg">
    <title>mail_server_24</title>
    <g id="Device-Types" stroke="none" stroke-width="1" fill="current" fill-rule="evenodd">
        <g id="Server" transform="translate(-126.000000, -8.000000)" fill="current" fill-rule="nonzero">
            <g id="read-email-circle-alternate" transform="translate(126.000000, 8.000000)">
                <path d="M12,0 C5.372583,0 0,5.372583 0,12 C0,18.627417 5.372583,24 12,24 C18.627417,24 24,18.627417 24,12 C23.9928352,5.37555305 18.624447,0.00716484761 12,0 Z M12,22 C6.4771525,22 2,17.5228475 2,12 C2,6.4771525 6.4771525,2 12,2 C17.5228475,2 22,6.4771525 22,12 C21.9939376,17.5203344 17.5203344,21.9939376 12,22 L12,22 Z" id="Shape"></path>
                <path d="M18.375,10.542 C18.2954242,10.4977073 18.1980155,10.5003917 18.121,10.549 L13.2,13.627 C12.4696436,14.0803945 11.5453564,14.0803945 10.815,13.627 L5.886,10.549 C5.80898448,10.5003917 5.71157579,10.4977073 5.632,10.542 C5.5524855,10.5862238 5.503,10.6700149 5.503,10.761 L5.503,15.5 C5.503,16.327257 6.17274469,16.9983455 7,17 L17,17 C17.8284271,17 18.5000073,16.3284271 18.5000073,15.5 L18.5000073,10.761 C18.500687,10.6708488 18.4529731,10.5872539 18.375,10.542 Z" id="Shape"></path>
                <path d="M17,7 L6.99999996,7 C6.17157288,7 5.49999996,7.67157288 5.49999996,8.5 C5.49999996,8.52589926 5.51367392,8.54987299 5.536,8.563 L11.603,12.355 C11.8476834,12.5081299 12.1583166,12.5081299 12.403,12.355 L18.471,8.563 C18.4901122,8.54778858 18.5008733,8.52441108 18.5000493,8.5 C18.5000493,7.67157288 17.8284271,7 17,7 Z" id="Shape"></path>
            </g>
        </g>
    </g>
</svg>