<?xml version="1.0" encoding="UTF-8"?>
<svg viewBox="0 0 24 24" version="1.1" xmlns="http://www.w3.org/2000/svg">
    <title>medical_24</title>
    <g id="Device-Types" stroke="none" stroke-width="1" fill="current" fill-rule="evenodd">
        <g id="Industry" transform="translate(-8.000000, -8.000000)" fill="current" fill-rule="nonzero">
            <g id="medical_24" transform="translate(8.000000, 8.000000)">
                <path d="M20,2 C21.1045695,2 22,2.8954305 22,4 L22,20 C22,21.1045695 21.1045695,22 20,22 L4,22 C2.8954305,22 2,21.1045695 2,20 L2,4 C2,2.8954305 2.8954305,2 4,2 L20,2 Z M13.1111111,7 L10.8888889,7 C10.582064,7 10.3333333,7.24873069 10.3333333,7.55555556 L10.3333333,7.55555556 L10.3333333,9.77777778 C10.3333333,10.0846026 10.0846026,10.3333333 9.77777778,10.3333333 L9.77777778,10.3333333 L7.55555556,10.3333333 C7.24873069,10.3333333 7,10.582064 7,10.8888889 L7,10.8888889 L7,13.1111111 C7,13.417936 7.24873069,13.6666667 7.55555556,13.6666667 L7.55555556,13.6666667 L9.77777778,13.6666667 C10.0846026,13.6666667 10.3333333,13.9153974 10.3333333,14.2222222 L10.3333333,14.2222222 L10.3333333,16.4444444 C10.3333333,16.7512693 10.582064,17 10.8888889,17 L10.8888889,17 L13.1111111,17 C13.417936,17 13.6666667,16.7512693 13.6666667,16.4444444 L13.6666667,16.4444444 L13.6666667,14.2222222 C13.6666667,13.9153974 13.9153974,13.6666667 14.2222222,13.6666667 L14.2222222,13.6666667 L16.4444444,13.6666667 C16.7512693,13.6666667 17,13.417936 17,13.1111111 L17,13.1111111 L17,10.8888889 C17,10.582064 16.7512693,10.3333333 16.4444444,10.3333333 L16.4444444,10.3333333 L14.2222222,10.3333333 C13.9153974,10.3333333 13.6666667,10.0846026 13.6666667,9.77777778 L13.6666667,9.77777778 L13.6666667,7.55555556 C13.6666667,7.24873069 13.417936,7 13.1111111,7 L13.1111111,7 Z" id="Shape"></path>
            </g>
        </g>
    </g>
</svg>