<?xml version="1.0" encoding="UTF-8"?>
<svg viewBox="0 0 24 24" version="1.1" xmlns="http://www.w3.org/2000/svg">
    <title>media_player_24</title>
    <g id="Device-Types" stroke="none" stroke-width="1" fill="current" fill-rule="evenodd">
        <g id="Audio-&amp;-Video" transform="translate(-8.000000, -8.000000)" fill="current" fill-rule="nonzero">
            <g id="video-player-1" transform="translate(8.000000, 8.000000)">
                <path d="M22.4963077,4.71404167 C22.3917968,4.08571189 21.9053454,3.60127043 21.2963077,3.519 C15.1251269,2.66033292 8.87118081,2.66033292 2.7,3.519 C2.09124367,3.60115685 1.6048747,4.08512774 1.5,4.71308333 C0.722770613,9.20139632 0.722770613,13.7976453 1.5,18.2859583 C1.60478779,18.9141352 2.09109793,19.398436 2.7,19.481 C5.78277352,19.9099616 8.88966069,20.125 12,20.125 C15.1097242,20.125 18.2159939,19.9099077 21.2981538,19.481 C21.9073273,19.3990238 22.3939205,18.9144412 22.4981538,18.2859583 C23.2743072,13.7978104 23.273682,9.20196188 22.4963077,4.71404167 L22.4963077,4.71404167 Z M8.30769231,14.3932083 L8.30769231,8.60583333 C8.32432559,8.26398537 8.50876063,7.95491343 8.79618167,7.78723424 C9.08360272,7.61955505 9.43379552,7.61672929 9.72369231,7.77975 L15.1901538,10.6729583 C15.4966914,10.8254869 15.6917371,11.1470903 15.6917371,11.5 C15.6917371,11.8529097 15.4966914,12.1745131 15.1901538,12.3270417 L9.72369231,15.22025 L9.72369231,15.22025 C9.43365452,15.3833293 9.08328465,15.3804023 8.79581218,15.2124985 C8.50833971,15.0445948 8.32402441,14.7352287 8.30769231,14.3932083 Z" id="Shape"></path>
            </g>
        </g>
    </g>
</svg>