<?xml version="1.0" encoding="UTF-8"?>
<svg viewBox="0 0 24 24" version="1.1" xmlns="http://www.w3.org/2000/svg">
    <title>microphone_24</title>
    <g id="Device-Types" stroke="none" stroke-width="1" fill="current" fill-rule="evenodd">
        <g id="Audio-&amp;-Video" transform="translate(-168.000000, -48.000000)" fill="current" fill-rule="nonzero">
            <g id="microphone-alternate" transform="translate(168.000000, 48.000000)">
                <path d="M18,6.25 C18,2.9362915 15.3137085,0.25 12,0.25 C8.6862915,0.25 6,2.9362915 6,6.25 L6,11 C6,11.2761424 6.22385763,11.5 6.5,11.5 L17.5,11.5 C17.7761424,11.5 18,11.2761424 18,11 L18,6.25 Z" id="Shape"></path>
                <path d="M12,18 C14.6826508,17.9988145 17.0385307,16.2170016 17.77,13.636 C17.8126008,13.4852846 17.7821186,13.3233154 17.6876443,13.1983972 C17.5931699,13.073479 17.4456204,13 17.289,13 L6.711,13 C6.55437957,13 6.40683006,13.073479 6.31235574,13.1983972 C6.21788142,13.3233154 6.18739924,13.4852846 6.23,13.636 C6.96146925,16.2170016 9.31734923,17.9988145 12,18 Z" id="Shape"></path>
                <path d="M21,8.25 C20.4477153,8.25 20,8.69771525 20,9.25 L20,11.5 C20.0229857,13.6286952 19.1875142,15.676909 17.6822116,17.1822116 C16.176909,18.6875142 14.1286952,19.5229857 12,19.5 C9.87130477,19.5229857 7.82309102,18.6875142 6.31778843,17.1822116 C4.81248585,15.676909 3.97701429,13.6286952 4,11.5 L4,9.25 C4,8.69771525 3.55228475,8.25 3,8.25 C2.44771525,8.25 2,8.69771525 2,9.25 L2,11.5 C1.94234565,16.5730339 5.73709914,20.8648789 10.779,21.429 C10.9048777,21.443701 10.9998417,21.5502669 11,21.677 L11,22.75 C11,23.3022847 11.4477153,23.75 12,23.75 C12.5522847,23.75 13,23.3022847 13,22.75 L13,21.677 C13.0006056,21.550438 13.0953437,21.4441257 13.221,21.429 C18.2629009,20.8648789 22.0576543,16.5730339 22,11.5 L22,9.25 C22,8.69771525 21.5522847,8.25 21,8.25 Z" id="Shape"></path>
            </g>
        </g>
    </g>
</svg>