<?xml version="1.0" encoding="UTF-8"?>
<svg viewBox="0 0 24 24" version="1.1" xmlns="http://www.w3.org/2000/svg">
    <title>mobile_24</title>
    <g id="Device-Types" stroke="none" stroke-width="1" fill="current" fill-rule="evenodd">
        <g id="Mobile" transform="translate(-90.000000, -8.000000)" fill="current" fill-rule="nonzero">
            <g id="mobile-phone-2" transform="translate(90.000000, 8.000000)">
                <path d="M17,0.034 L7,0.034 C5.34314575,0.034 4,1.37714575 4,3.034 L4,20.966 C4,22.6228542 5.34314575,23.966 7,23.966 L17,23.966 C18.6568542,23.966 20,22.6228542 20,20.966 L20,3.034 C20,1.37714575 18.6568542,0.034 17,0.034 Z M12,22.466 C11.4477153,22.466 11,22.0182847 11,21.466 C11,20.9137153 11.4477153,20.466 12,20.466 C12.5522847,20.466 13,20.9137153 13,21.466 C13,22.0182847 12.5522847,22.466 12,22.466 Z M18,17.966 C18,18.5182847 17.5522847,18.966 17,18.966 L7,18.966 C6.44771525,18.966 6,18.5182847 6,17.966 L6,3.534 C6,2.98171525 6.44771525,2.534 7,2.534 L17,2.534 C17.5522847,2.534 18,2.98171525 18,3.534 L18,17.966 Z" id="Shape"></path>
            </g>
        </g>
    </g>
</svg>