<?xml version="1.0" encoding="UTF-8"?>
<svg viewBox="0 0 24 24" version="1.1" xmlns="http://www.w3.org/2000/svg">
    <title>modem_24</title>
    <g id="Device-Types" stroke="none" stroke-width="1" fill="current" fill-rule="evenodd">
        <g id="Network" transform="translate(-362.000000, -8.000000)" fill="current" fill-rule="nonzero">
            <g id="hard-drive-1" transform="translate(362.000000, 8.000000)">
                <path d="M23,11.751 L1,11.751 C0.44771525,11.751 0,12.1987153 0,12.751 L0,15.751 C0.00333543484,16.7768054 0.634685067,17.6958536 1.591,18.067 C1.68693973,18.1044942 1.7500619,18.196994 1.75,18.3 L1.75,19.5 C1.75000001,19.9142136 2.08578644,20.25 2.5,20.25 C2.91421356,20.25 3.24999999,19.9142136 3.25,19.5 L3.25,18.5 C3.25,18.3619288 3.36192881,18.25 3.5,18.25 L20.5,18.25 C20.6380712,18.25 20.75,18.3619288 20.75,18.5 L20.75,19.5 C20.75,19.9142136 21.0857864,20.25 21.5,20.25 C21.9142136,20.25 22.25,19.9142136 22.25,19.5 L22.25,18.3 C22.2499381,18.196994 22.3130603,18.1044942 22.409,18.067 C23.3653149,17.6958536 23.9966646,16.7768054 24,15.751 L24,12.751 C24,12.1987153 23.5522847,11.751 23,11.751 Z M20,15.751 C19.4477153,15.751 19,15.3032847 19,14.751 C19,14.1987153 19.4477153,13.751 20,13.751 C20.5522847,13.751 21,14.1987153 21,14.751 C21,15.3032847 20.5522847,15.751 20,15.751 Z M18,14.751 C18,15.3032847 17.5522847,15.751 17,15.751 C16.4477153,15.751 16,15.3032847 16,14.751 C16,14.1987153 16.4477153,13.751 17,13.751 C17.5522847,13.751 18,14.1987153 18,14.751 Z M15,14.751 C15,15.3032847 14.5522847,15.751 14,15.751 C13.4477153,15.751 13,15.3032847 13,14.751 C13,14.1987153 13.4477153,13.751 14,13.751 C14.5522847,13.751 15,14.1987153 15,14.751 Z" id="Shape"></path>
                <path d="M1.084,10.7509966 L22.916,10.7509966 C23.3253399,10.7524157 23.6936906,10.502747 23.844,10.122 C23.9963454,9.75246788 23.9097671,9.32748316 23.625,9.047 L19.061,4.19 C18.7799318,3.90817521 18.3980249,3.75015719 18,3.75099665 L6,3.75099665 C5.59670196,3.7507888 5.21030861,3.9129875 4.928,4.201 L0.394,9.027 C0.0979530564,9.30906238 0.00345826863,9.74294837 0.155397556,10.1225764 C0.307336843,10.5022044 0.675095401,10.7510818 1.084,10.7509966 Z" id="Shape"></path>
            </g>
        </g>
    </g>
</svg>