<?xml version="1.0" encoding="UTF-8"?>
<svg viewBox="0 0 24 24" version="1.1" xmlns="http://www.w3.org/2000/svg">
    <title>motion_detector_24</title>
    <g id="Device-Types" stroke="none" stroke-width="1" fill="current" fill-rule="evenodd">
        <g id="Smart-Home" transform="translate(-8.000000, -128.000000)" fill="current" fill-rule="nonzero">
            <g id="motion_detector_24" transform="translate(8.000000, 128.000000)">
                <g id="safety-exit-right" transform="translate(2.000000, 3.000000)">
                    <path d="M15.3939583,1.04183333 C14.3308223,0.794678575 13.2682817,1.45487047 13.0189583,2.5175 C12.8411484,3.21181972 13.0526088,3.94801711 13.5717792,4.44214089 C14.0909497,4.93626466 14.8366954,5.11109431 15.5213823,4.89919804 C16.2060693,4.68730177 16.7226961,4.12179423 16.872,3.42079167 L16.872,3.42079167 C16.9918135,2.90929827 16.9033556,2.37115515 16.6261156,1.9249279 C16.3488756,1.47870066 15.9056019,1.16100377 15.3939583,1.04183333 Z" id="Shape"></path>
                    <path d="M18.2875,11.3160833 C18.344842,11.0004245 18.2720217,10.6749948 18.0856165,10.4138785 C17.8992114,10.1527622 17.6150842,9.97817976 17.2979167,9.929875 L15.0020833,9.58154167 C14.6615567,9.51984243 14.4005722,9.24410943 14.3576667,8.90070833 L14.3339167,8.71070833 C14.2749139,8.19086446 14.1416106,7.68217892 13.9380833,7.20020833 C12.7353455,4.37004818 9.50809649,2.99978826 6.63654167,4.10004167 L4.28529167,5.004125 C3.72185735,5.20650217 3.38550817,5.78467538 3.48808333,6.3745 C3.55942603,6.71573813 3.77654754,7.00865589 4.08229305,7.17614596 C4.38803856,7.34363603 4.75177397,7.36891678 5.07775,7.24533333 L7.48916667,6.31670833 C7.86574855,6.17131291 8.26586683,6.09644168 8.66954167,6.09583333 C9.09853752,6.09597736 9.52348883,6.17876358 9.92116667,6.33966667 C9.98241358,6.36408085 10.0273164,6.41760744 10.0407083,6.48216667 C10.0540701,6.54625844 10.035135,6.61282714 9.99004167,6.66029167 L1.02441667,16.000375 C0.569920835,16.4734529 0.584984588,17.2254 1.0580625,17.6798958 C1.53114041,18.1343917 2.2830875,18.1193279 2.73758333,17.64625 L7.80979167,12.3626667 C7.88361552,12.285998 8.00473963,12.2811112 8.0845,12.3515833 L9.5475,13.6578333 C9.59759543,13.7022242 9.62174287,13.7690023 9.611625,13.8351667 C9.60124449,13.9012465 9.55843858,13.9577265 9.497625,13.9855833 L7.09570833,15.0772917 C6.49867701,15.3490273 6.23497273,16.053302 6.50670833,16.6503333 C6.77844394,17.2473647 7.48271868,17.5110689 8.07975,17.2393333 L11.3152917,15.767625 C11.9273895,15.4893639 12.3563494,14.9193737 12.4542824,14.2541654 C12.5522154,13.5889571 12.305725,12.9195261 11.7997917,12.4766667 L9.74145833,10.647125 C9.70146668,10.6112297 9.6777186,10.5606672 9.67563035,10.5069695 C9.67354211,10.4532717 9.69329177,10.4010177 9.730375,10.362125 L11.772875,8.234125 C11.8722467,8.48243123 11.9410979,8.74188583 11.9779167,9.00679167 L12.0016667,9.19679167 C12.1699315,10.570949 13.2148442,11.674626 14.57775,11.91775 L16.9416667,12.2771667 C17.0009047,12.2859462 17.0606985,12.290444 17.1205833,12.290625 C17.6937794,12.289982 18.1847071,11.8799874 18.2875,11.3160833 Z" id="Shape"></path>
                </g>
                <g id="Group">
                    <path d="M6.5,22 L2.25,22 C2.11192881,22 2,21.8880712 2,21.75 L2,17.5 C2,16.9477153 1.55228475,16.5 1,16.5 C0.44771525,16.5 0,16.9477153 0,17.5 L0,22 C0,23.1045695 0.8954305,24 2,24 L6.5,24 C7.05228475,24 7.5,23.5522847 7.5,23 C7.5,22.4477153 7.05228475,22 6.5,22 Z" id="Shape"></path>
                    <path d="M1,7.5 C1.55228475,7.5 2,7.05228475 2,6.5 L2,2.25 C2,2.11192881 2.11192881,2 2.25,2 L6.5,2 C7.05228475,2 7.5,1.55228475 7.5,1 C7.5,0.44771525 7.05228475,0 6.5,0 L2,0 C0.8954305,0 0,0.8954305 0,2 L0,6.5 C0,7.05228475 0.44771525,7.5 1,7.5 Z" id="Shape"></path>
                    <path d="M23,16.5 C22.4477153,16.5 22,16.9477153 22,17.5 L22,21.75 C22,21.8880712 21.8880712,22 21.75,22 L17.5,22 C16.9477153,22 16.5,22.4477153 16.5,23 C16.5,23.5522847 16.9477153,24 17.5,24 L22,24 C23.1045695,24 24,23.1045695 24,22 L24,17.5 C24,16.9477153 23.5522847,16.5 23,16.5 Z" id="Shape"></path>
                    <path d="M22,0 L17.5,0 C16.9477153,0 16.5,0.44771525 16.5,1 C16.5,1.55228475 16.9477153,2 17.5,2 L21.75,2 C21.8880712,2 22,2.11192881 22,2.25 L22,6.5 C22,7.05228475 22.4477153,7.5 23,7.5 C23.5522847,7.5 24,7.05228475 24,6.5 L24,2 C24,0.8954305 23.1045695,0 22,0 Z" id="Shape"></path>
                </g>
            </g>
        </g>
    </g>
</svg>