<?xml version="1.0" encoding="UTF-8"?>
<svg viewBox="0 0 24 24" version="1.1" xmlns="http://www.w3.org/2000/svg">
    <title>music_24</title>
    <g id="Device-Types" stroke="none" stroke-width="1" fill="current" fill-rule="evenodd">
        <g id="Audio-&amp;-Video" transform="translate(-367.000000, -9.000000)" fill="current" fill-rule="nonzero">
            <g id="music-note-2" transform="translate(366.000000, 9.000000)">
                <path d="M21.5,2.25 C21.4995783,1.50087689 21.1263495,0.801094242 20.5044646,0.383428331 C19.8825797,-0.0342375792 19.0936104,-0.115002229 18.4,0.168 L9.4,3.85 C8.55217289,4.19325738 7.99804564,5.01732376 8,5.932 L8,15.75 C8,15.8880712 7.88807119,16 7.75,16 L6.5,16 C4.290861,16 2.5,17.790861 2.5,20 C2.5,22.209139 4.290861,24 6.5,24 C8.68692952,23.9472801 10.4472801,22.1869295 10.5,20 L10.5,10.758 C10.4995513,10.6565435 10.560946,10.5650456 10.655,10.527 L18.655,7.254 C18.7320731,7.22233703 18.8198552,7.23115392 18.8890918,7.27751232 C18.9583283,7.32387072 18.9999178,7.40167655 19,7.485 L19,11.755 C19,11.8930712 18.8880712,12.005 18.75,12.005 L17.5,12.005 C15.290861,12.005 13.5,13.795861 13.5,16.005 C13.5,18.214139 15.290861,20.005 17.5,20.005 C19.6869295,19.9522801 21.4472801,18.1919295 21.5,16.005 L21.5,2.25 Z M10.845,7.75 C10.7678732,7.78148718 10.6801294,7.77248782 10.611,7.726 C10.5414607,7.6801328 10.499726,7.60230329 10.4999987,7.519 L10.4999987,6.436 C10.4999987,6.23281145 10.6228869,6.04980527 10.811,5.973 L18.311,2.904 C18.4652023,2.84104027 18.6406313,2.85900014 18.7788772,2.95189978 C18.9171231,3.04479942 18.9999987,3.20043989 18.9999987,3.367 L18.9999987,4.243 C19.0001728,4.34437293 18.9388721,4.43573079 18.845,4.474 L10.845,7.75 Z" id="Shape"></path>
            </g>
        </g>
    </g>
</svg>