<?xml version="1.0" encoding="UTF-8"?>
<svg viewBox="0 0 24 24" version="1.1" xmlns="http://www.w3.org/2000/svg">
    <title>nas_storage_24</title>
    <g id="Device-Types" stroke="none" stroke-width="1" fill="current" fill-rule="evenodd">
        <g id="Network" transform="translate(-48.000000, -45.000000)" fill="current" fill-rule="nonzero">
            <g id="hard-drive" transform="translate(48.000000, 45.000000)">
                <path d="M0.5,15.251 L0.5,19.251 C0.503840286,20.3539749 1.39702511,21.2471597 2.5,21.251 L21.5,21.251 C22.6032019,21.2477052 23.4967052,20.3542019 23.5,19.251 L23.5,15.251 C23.4972517,14.1475709 22.6034291,13.2537483 21.5,13.251 L2.5,13.251 C1.39679813,13.2542948 0.503294801,14.1477981 0.5,15.251 Z M20,14.251 C20.5522847,14.251 21,14.6987153 21,15.251 C21,15.8032847 20.5522847,16.251 20,16.251 C19.4477153,16.251 19,15.8032847 19,15.251 C19,14.6987153 19.4477153,14.251 20,14.251 Z M3.5,17.5 L20.5,17.5 C20.9142136,17.5 21.25,17.8357864 21.25,18.25 C21.25,18.6642136 20.9142136,19 20.5,19 L3.5,19 C3.08578644,19 2.75,18.6642136 2.75,18.25 C2.75,17.8357864 3.08578644,17.5 3.5,17.5 Z" id="Shape"></path>
                <path d="M2.5,11.751 L21.5,11.751 C21.9607538,11.751254 22.4166486,11.8451548 22.84,12.027 C22.9273284,12.0648294 23.0285818,12.0495722 23.1008852,11.9876889 C23.1731887,11.9258057 23.2038943,11.8281216 23.18,11.736 L21.49,5.063 L21.49,5.063 C21.0999461,3.72562457 19.892493,2.79196848 18.5,2.751 L5.5,2.751 C4.1078803,2.79239512 2.90094001,3.72596687 2.511,5.063 L0.82,11.736 C0.796105741,11.8281216 0.826811334,11.9258057 0.899114756,11.9876889 C0.971418178,12.0495722 1.07267155,12.0648294 1.16,12.027 C1.58335139,11.8451548 2.03924624,11.751254 2.5,11.751 L2.5,11.751 Z" id="Shape"></path>
            </g>
        </g>
    </g>
</svg>