<?xml version="1.0" encoding="UTF-8"?>
<svg viewBox="0 0 24 24" version="1.1" xmlns="http://www.w3.org/2000/svg">
    <title>network_appliance_24</title>
    <g id="Device-Types" stroke="none" stroke-width="1" fill="current" fill-rule="evenodd">
        <g id="Network" transform="translate(-168.000000, -45.000000)" fill="current" fill-rule="nonzero">
            <g id="server-1" transform="translate(168.000000, 45.000000)">
                <path d="M22.5,2.25 L1.5,2.25 C0.671572875,2.25 0,2.92157288 0,3.75 L0,6.25 C0,7.07842712 0.671572875,7.75 1.5,7.75 L22.5,7.75 C23.3284271,7.75 24,7.07842712 24,6.25 L24,3.75 C24,2.92157288 23.3284271,2.25 22.5,2.25 Z M3.25,5 C3.25,4.30964406 3.80964406,3.75 4.5,3.75 C5.19035594,3.75 5.75,4.30964406 5.75,5 C5.75,5.69035594 5.19035594,6.25 4.5,6.25 C3.80987261,6.24944856 3.25055144,5.69012739 3.25,5 Z M8.5,6.25 C7.80964406,6.25 7.25,5.69035594 7.25,5 C7.25,4.30964406 7.80964406,3.75 8.5,3.75 C9.19035594,3.75 9.75,4.30964406 9.75,5 C9.7488988,5.68989929 9.18989929,6.2488988 8.5,6.25 Z M1.042,3.55 L1.037,3.564 L1.042,3.55 Z" id="Shape"></path>
                <path d="M22.5,9.25 L1.5,9.25 C0.671572875,9.25 0,9.92157288 0,10.75 L0,13.25 C0,14.0784271 0.671572875,14.75 1.5,14.75 L10.75,14.75 C10.8880712,14.75 11,14.8619288 11,15 L11,19.5 C11,19.6380712 10.8880712,19.75 10.75,19.75 L5.5,19.75 C4.94771525,19.75 4.5,20.1977153 4.5,20.75 C4.5,21.3022847 4.94771525,21.75 5.5,21.75 L18.5,21.75 C19.0522847,21.75 19.5,21.3022847 19.5,20.75 C19.5,20.1977153 19.0522847,19.75 18.5,19.75 L13.25,19.75 C13.1119288,19.75 13,19.6380712 13,19.5 L13,15 C13,14.8619288 13.1119288,14.75 13.25,14.75 L22.5,14.75 C23.3284271,14.75 24,14.0784271 24,13.25 L24,10.75 C24,9.92157288 23.3284271,9.25 22.5,9.25 Z M3.25,12 C3.25,11.3096441 3.80964406,10.75 4.5,10.75 C5.19035594,10.75 5.75,11.3096441 5.75,12 C5.75,12.6903559 5.19035594,13.25 4.5,13.25 C3.80987261,13.2494486 3.25055144,12.6901274 3.25,12 Z M8.5,13.25 C7.80964406,13.25 7.25,12.6903559 7.25,12 C7.25,11.3096441 7.80964406,10.75 8.5,10.75 C9.19035594,10.75 9.75,11.3096441 9.75,12 C9.7488988,12.6898993 9.18989929,13.2488988 8.5,13.25 L8.5,13.25 Z" id="Shape"></path>
                <path d="M23,21.75 C23.5522847,21.75 24,21.3022847 24,20.75 C24,20.1977153 23.5522847,19.75 23,19.75 L22,19.75 C21.4477153,19.75 21,20.1977153 21,20.75 C21,21.3022847 21.4477153,21.75 22,21.75 L23,21.75 Z" id="Shape"></path>
                <path d="M1,21.75 L2,21.75 C2.55228475,21.75 3,21.3022847 3,20.75 C3,20.1977153 2.55228475,19.75 2,19.75 L1,19.75 C0.44771525,19.75 0,20.1977153 0,20.75 C0,21.3022847 0.44771525,21.75 1,21.75 Z" id="Shape"></path>
            </g>
        </g>
    </g>
</svg>