<?xml version="1.0" encoding="UTF-8"?>
<svg viewBox="0 0 24 24" version="1.1" xmlns="http://www.w3.org/2000/svg">
    <title>pet_monitor_24</title>
    <g id="Device-Types" stroke="none" stroke-width="1" fill="current" fill-rule="evenodd">
        <g id="Smart-Home" transform="translate(-328.000000, -88.000000)" fill="current" fill-rule="nonzero">
            <g id="Bold" transform="translate(328.000000, 88.000000)">
                <path d="M2.43895833,8.77384615 C2.55967857,8.77277004 2.66070936,8.68534573 2.67470833,8.56984615 C2.68710079,8.46117752 2.71955541,8.35551658 2.77054167,8.25784615 C3.00633273,7.80131908 2.81325552,7.24711649 2.33929166,7.02000001 C1.8653278,6.79288353 1.28995774,6.97885755 1.05416667,7.43538462 C0.820848689,7.88698395 0.713514186,8.3892796 0.742708333,8.89292308 C0.747599842,8.96905165 0.790927948,9.03803363 0.858666667,9.07753846 C0.9268306,9.11699219 1.01092024,9.12114583 1.08291667,9.08861538 C1.5069107,8.89298184 1.96898937,8.78572249 2.43895833,8.77384615 L2.43895833,8.77384615 Z" id="Shape"></path>
                <path d="M8.14583333,2.77846154 C8.27325117,2.78662104 8.38475488,2.6967129 8.39883333,2.57446154 C8.41105058,2.46428768 8.44349961,2.35708215 8.49466667,2.25784615 C8.64719675,1.96170046 8.6241141,1.60967041 8.43411373,1.33436232 C8.24411336,1.05905423 7.91606084,0.90229394 7.57353039,0.923131546 C7.23099994,0.943969151 6.92603007,1.13923892 6.7735,1.43538462 C6.55791853,1.85363237 6.45165885,2.31626914 6.46395833,2.78307692 C6.46514182,2.85846781 6.5046387,2.92850529 6.56965314,2.97049927 C6.63466758,3.01249325 6.71693071,3.02110272 6.78979167,2.99353846 C7.22090698,2.8302087 7.68311024,2.75690029 8.14583333,2.77846154 Z" id="Shape"></path>
                <path d="M22.3195833,7.43538462 C22.0837923,6.97885754 21.5084222,6.79288352 21.0344583,7.02 C20.5604945,7.24711648 20.3674173,7.80131908 20.6032083,8.25784615 C20.6581013,8.36715326 20.6906376,8.48561593 20.6990417,8.60676923 C20.7081415,8.71572865 20.7953588,8.80359089 20.9079583,8.81723077 C21.3812495,8.87496022 21.8375794,9.02409048 22.249625,9.25569231 C22.3195733,9.29483724 22.4053068,9.29733803 22.477586,9.26234179 C22.5498653,9.22734554 22.5989282,9.15957897 22.6080417,9.08215385 C22.6809673,8.51787481 22.5806854,7.9453792 22.3195833,7.43538462 L22.3195833,7.43538462 Z" id="Shape"></path>
                <path d="M16.5964167,1.43446154 C16.4435442,1.13930518 16.138806,0.945125541 15.7969938,0.925068209 C15.4551817,0.905010877 15.1282251,1.06212304 14.9392855,1.33722207 C14.7503458,1.61232109 14.7281275,1.96361289 14.881,2.25876923 C14.9327575,2.35843659 14.9652321,2.46635211 14.9768333,2.57723077 C14.9886442,2.68830607 15.0816224,2.77513802 15.19725,2.78307692 C15.6704699,2.81886592 16.1311858,2.94700233 16.551375,3.15969231 C16.621888,3.19662673 16.7070287,3.19662673 16.7775417,3.15969231 C16.8478549,3.12172853 16.8938685,3.0524774 16.9002083,2.97507692 C16.9480839,2.44439471 16.8429599,1.91128085 16.5964167,1.43446154 Z" id="Shape"></path>
                <path d="M17.1905833,16.6883077 C16.65775,16.3846154 16.19775,16.1224615 16.0875417,15.8021538 C15.3908333,13.7796923 14.6002083,11.4876923 11.5,11.4876923 C8.39979167,11.4876923 7.60916667,13.7796923 6.91245833,15.8030769 C6.80225,16.1224615 6.34225,16.3846154 5.80941667,16.6883077 C4.81179167,17.2578462 3.44425,18.0378462 3.44425,19.9486154 C3.37293343,20.7951959 3.69022454,21.629378 4.31246213,22.2312101 C4.93469971,22.8330422 5.79942208,23.1421109 6.678625,23.0769231 C7.68308827,23.0265968 8.63769466,22.6396678 9.37729167,21.9830769 C9.95288009,21.4508933 10.7040821,21.130107 11.5,21.0766154 C12.2959179,21.130107 13.0471199,21.4508933 13.6227083,21.9830769 C14.3623053,22.6396678 15.3169117,23.0265968 16.321375,23.0769231 C17.2005779,23.1421109 18.0653003,22.8330422 18.6875379,22.2312101 C19.3097755,21.629378 19.6270666,20.7951959 19.55575,19.9486154 C19.55575,18.0378462 18.1882083,17.2615385 17.1905833,16.6883077 Z" id="Shape"></path>
                <ellipse id="Oval" cx="8.05575" cy="7.28215385" rx="2.54533333" ry="3.12830769"></ellipse>
                <ellipse id="Oval" cx="2.54533333" cy="13.2821538" rx="2.54533333" ry="3.12830769"></ellipse>
                <ellipse id="Oval" cx="14.94425" cy="7.28215385" rx="2.54533333" ry="3.12830769"></ellipse>
                <ellipse id="Oval" cx="20.4546667" cy="13.2821538" rx="2.54533333" ry="3.12830769"></ellipse>
            </g>
        </g>
    </g>
</svg>