<?xml version="1.0" encoding="UTF-8"?>
<svg viewBox="0 0 24 24" version="1.1" xmlns="http://www.w3.org/2000/svg">
    <title>phone_24</title>
    <g id="Device-Types" stroke="none" stroke-width="1" fill="current" fill-rule="evenodd">
        <g id="Home-&amp;-Office" transform="translate(-168.000000, -8.000000)" fill="current" fill-rule="nonzero">
            <g id="phone" transform="translate(168.000000, 8.000000)">
                <path d="M22.673,17.009 L20.221,14.556 C19.6936877,14.0277192 18.9779173,13.7308527 18.2315,13.7308527 C17.4850827,13.7308527 16.7693123,14.0277192 16.242,14.556 L15.742,15.056 C13.2777427,12.9912502 11.0014896,10.7119853 8.94,8.245 L9.44,7.745 C10.5362196,6.64556435 10.5362196,4.86643565 9.44,3.767 L6.983,1.317 C5.86871344,0.252485724 4.11428656,0.252485724 3,1.317 L1.66,2.663 C0.332823424,3.9997321 0.124177846,6.08368413 1.16,7.657 C5.15509555,13.6768269 10.313963,18.8367144 16.333,22.833 C17.9108667,23.8587821 19.9895033,23.6509185 21.333,22.333 L22.678,20.987 C23.2061595,20.4600295 23.5029766,19.7445901 23.5029766,18.9985 C23.5029766,18.2524099 23.2061595,17.5369705 22.678,17.01 L22.673,17.009 Z" id="Shape"></path>
            </g>
        </g>
    </g>
</svg>