<?xml version="1.0" encoding="UTF-8"?>
<svg viewBox="0 0 24 24" version="1.1" xmlns="http://www.w3.org/2000/svg">
    <title>photos_24</title>
    <g id="Device-Types" stroke="none" stroke-width="1" fill="current" fill-rule="evenodd">
        <g id="Audio-&amp;-Video" transform="translate(-128.000000, -48.000000)" fill="current" fill-rule="nonzero">
            <g id="photo-frame-landscape" transform="translate(128.000000, 48.000000)">
                <path d="M23.0510769,21.2817083 L19.2156923,1.91666667 C18.9938899,0.803338328 18.0510621,0.00363356079 16.956,-2.56293158e-07 L2.30769231,-2.56293158e-07 C1.89291998,-0.000256843242 1.49988205,0.192543954 1.23669735,0.525365786 C0.973512659,0.858187619 0.867904126,1.29597224 0.948923077,1.71829167 L3.19476923,13.0592083 C3.2035453,13.0970003 3.2035453,13.1364164 3.19476923,13.1742083 L0.982153846,21.088125 C0.890309108,21.4171517 0.974516976,21.772055 1.20305716,22.0191462 C1.43159735,22.2662374 1.76974916,22.3679776 2.09013408,22.2860421 C2.41051901,22.2041066 2.66446295,21.9509434 2.75630769,21.6219167 L3.74492308,18.0760833 C3.77441368,17.9702638 3.86960794,17.8989594 3.97563365,17.9032717 C4.08165935,17.9075839 4.17118892,17.9864013 4.19261538,18.0942917 L4.78430769,21.0833333 C5.00611007,22.1966617 5.94893792,22.9963664 7.044,22.9999997 L21.6923077,22.9999997 C22.10708,23.0002568 22.500118,22.807456 22.7633026,22.4746342 C23.0264873,22.1418124 23.1320959,21.7040278 23.0510769,21.2817083 L23.0510769,21.2817083 Z M4.35415385,3.82375 C4.32515718,3.70783992 4.35112782,3.58452213 4.42407238,3.4917521 C4.49701694,3.39898207 4.60819392,3.34787714 4.72338462,3.35416667 L16.0523077,3.35416667 C16.3172181,3.36471678 16.5432677,3.55637493 16.6061538,3.82375 L19.6449231,19.17625 C19.6739197,19.2921601 19.6479491,19.4154779 19.5750045,19.5082479 C19.50206,19.6010179 19.390883,19.6521229 19.2756923,19.6458333 L7.94769231,19.6458333 C7.68278194,19.6352832 7.45673234,19.4436251 7.39384615,19.17625 L4.35415385,3.82375 Z" id="Shape"></path>
                <path d="M9.23076923,16.2859167 L16.6153846,16.2916667 C16.7723021,16.2916667 16.9184478,16.2088076 17.0033682,16.0718146 C17.0882885,15.9348216 17.1003485,15.762419 17.0353846,15.614125 L14.7276923,10.3432917 C14.6560868,10.179183 14.501867,10.0706431 14.3285174,10.0623523 C14.1551677,10.0540615 13.9919891,10.1474212 13.9061538,10.304 L12.4292308,12.9873333 C12.397819,13.0455704 12.3441846,13.0873327 12.2815385,13.1023333 C12.2181922,13.1185242 12.1512085,13.1063543 12.0969231,13.0687917 L11.3289231,12.5369167 C11.1168228,12.3904289 10.8305118,12.4500497 10.6892308,12.670125 L8.84307692,15.5384167 C8.74691006,15.6860993 8.73766021,15.8769982 8.81906603,16.0339548 C8.90047185,16.1909114 9.05907461,16.2879761 9.23076923,16.2859167 Z" id="Shape"></path>
                <path d="M10.1538462,10.0625 C10.9185481,10.0625 11.5384615,9.41890933 11.5384615,8.625 C11.5384615,7.83109067 10.9185481,7.1875 10.1538462,7.1875 C9.38914419,7.1875 8.76923077,7.83109067 8.76923077,8.625 C8.76923077,9.41890933 9.38914419,10.0625 10.1538462,10.0625 Z" id="Shape"></path>
            </g>
        </g>
    </g>
</svg>