<?xml version="1.0" encoding="UTF-8"?>
<svg viewBox="0 0 24 24" version="1.1" xmlns="http://www.w3.org/2000/svg">
    <title>photo_camera_24</title>
    <g id="Device-Types" stroke="none" stroke-width="1" fill="current" fill-rule="evenodd">
        <g id="Audio-&amp;-Video" transform="translate(-88.000000, -48.000000)" fill="current" fill-rule="nonzero">
            <g id="camera-1" transform="translate(88.000000, 48.000000)">
                <ellipse id="Oval" cx="14.5384615" cy="12.578125" rx="3.46153846" ry="3.59375"></ellipse>
                <path d="M20.7175385,5.86979167 L19.5027692,5.86979167 C19.3038615,5.86246341 19.1287155,5.73166275 19.0587692,5.53820833 C18.4883077,4.28854167 17.8984615,2.99479167 16.6153846,2.99479167 L12,2.99479167 C11.0113846,2.99479167 10.4898462,3.740375 9.54553846,5.0945 C9.19107692,5.59954167 9.07476923,5.86979167 8.76646154,5.86979167 L3.228,5.86979167 C1.32369231,5.86979167 0.923076923,7.02841667 0.923076923,8.00016667 L0.923076923,17.9553333 C0.87969891,18.6042125 1.12026692,19.23884 1.57797716,19.6829848 C2.03568739,20.1271296 2.66180477,20.3335012 3.28246154,20.2447917 L20.7175385,20.2447917 C21.3381952,20.3335012 21.9643126,20.1271296 22.4220228,19.6829848 C22.8797331,19.23884 23.1203011,18.6042125 23.0769231,17.9553333 L23.0769231,8.00016667 C23.0769231,7.02841667 22.668,5.86979167 20.7175385,5.86979167 Z M19.8461538,12.578125 C19.8461538,15.6214441 17.4698191,18.0885417 14.5384615,18.0885417 C11.607104,18.0885417 9.23076923,15.6214441 9.23076923,12.578125 C9.23076923,9.53480591 11.607104,7.06770833 14.5384615,7.06770833 C17.4685537,7.07087764 19.8431011,9.53611965 19.8461538,12.578125 Z M5.53846154,9.46354167 C5.53846154,10.1251328 5.02186702,10.6614583 4.38461538,10.6614583 C3.74736375,10.6614583 3.23076923,10.1251328 3.23076923,9.46354167 C3.23076923,8.80195056 3.74736375,8.265625 4.38461538,8.265625 C5.02186702,8.265625 5.53846154,8.80195056 5.53846154,9.46354167 Z" id="Shape"></path>
                <path d="M3.23076923,4.896125 L6,4.91145833 L6,4.91145833 C6.25490065,4.91145833 6.46153846,4.69692811 6.46153846,4.43229167 L6.46153846,4.19270833 C6.46153846,3.39879901 5.84162504,2.75520833 5.07692308,2.75520833 L4.15384615,2.75520833 C3.38914419,2.75520833 2.76923077,3.39879901 2.76923077,4.19270833 L2.76923077,4.41695833 C2.76923077,4.68159478 2.97586858,4.896125 3.23076923,4.896125 Z" id="Shape"></path>
            </g>
        </g>
    </g>
</svg>