<?xml version="1.0" encoding="UTF-8"?>
<svg viewBox="0 0 24 24" version="1.1" xmlns="http://www.w3.org/2000/svg">
    <title>poe_plug_24</title>
    <g id="Device-Types" stroke="none" stroke-width="1" fill="current" fill-rule="evenodd">
        <g id="Network" transform="translate(-287.000000, -8.000000)" fill="current" fill-rule="nonzero">
            <g id="poe_plug_24" transform="translate(287.000000, 8.000000)">
                <g id="signal-loading" transform="translate(0.000000, 4.000000)">
                    <path d="M23.707,5.293 L18.707,0.293 C18.3146211,-0.0859722095 17.6909152,-0.0805523739 17.3051814,0.305181425 C16.9194476,0.690915223 16.9140278,1.31462111 17.293,1.707 L21.409,5.823 C21.4560209,5.86990213 21.4824469,5.93358637 21.4824469,6 C21.4824469,6.06641363 21.4560209,6.13009787 21.409,6.177 L17.293,10.293 C17.0330434,10.5440745 16.9287874,10.9158779 17.0203028,11.2655073 C17.1118183,11.6151368 17.3848632,11.8881817 17.7344927,11.9796972 C18.0841221,12.0712126 18.4559255,11.9669566 18.707,11.707 L23.707,6.707 C24.0973819,6.31650015 24.0973819,5.68349985 23.707,5.293 Z" id="Shape"></path>
                    <path d="M2.591,6.177 C2.54397915,6.13009787 2.51755311,6.06641363 2.51755311,6 C2.51755311,5.93358637 2.54397915,5.86990213 2.591,5.823 L6.707,1.707 C7.08597221,1.31462111 7.08055237,0.690915223 6.69481858,0.305181425 C6.30908478,-0.0805523739 5.68537889,-0.0859722095 5.293,0.293 L0.293,5.293 C-0.0973819383,5.68349985 -0.0973819383,6.31650015 0.293,6.707 L5.293,11.707 C5.54407447,11.9669566 5.91587789,12.0712126 6.26550732,11.9796972 C6.61513676,11.8881817 6.88818172,11.6151368 6.97969716,11.2655073 C7.0712126,10.9158779 6.96695658,10.5440745 6.707,10.293 L2.591,6.177 Z" id="Shape"></path>
                    <path d="M16.5,5.5 C16.5,4.67157288 15.8284271,4 15,4 L15,1 C15,0.44771525 14.5522847,0 14,0 C13.4477153,0 13,0.44771525 13,1 L13,3.746 C13,3.88407119 12.8880712,3.996 12.75,3.996 L11.25,3.996 C11.1119288,3.996 11,3.88407119 11,3.746 L11,1 C11,0.44771525 10.5522847,0 10,0 C9.44771525,0 9,0.44771525 9,1 L9,4 C8.17157288,4 7.5,4.67157288 7.5,5.5 L7.5,8.5 C7.5,10.4329966 9.06700338,12 11,12 L11,15 C11,15.5522847 11.4477153,16 12,16 C12.5522847,16 13,15.5522847 13,15 L13,12 C13.9282577,12 14.8184964,11.6312511 15.4748737,10.9748737 C16.1312511,10.3184964 16.5,9.42825771 16.5,8.5 L16.5,5.5 Z" id="Shape"></path>
                </g>
            </g>
        </g>
    </g>
</svg>