<?xml version="1.0" encoding="UTF-8"?>
<svg viewBox="0 0 24 24" version="1.1" xmlns="http://www.w3.org/2000/svg">
    <title>pool_24</title>
    <g id="Device-Types" stroke="none" stroke-width="1" fill="current" fill-rule="evenodd">
        <g id="Smart-Home" transform="translate(-288.000000, -128.000000)" fill="current" fill-rule="nonzero">
            <g id="pool_24" transform="translate(288.000000, 128.000000)">
                <g id="streamline-icon-shark-fin@24x24" transform="translate(0.000000, 5.000000)">
                    <path d="M22.931,12.81 C21.349,12.951 20.262,11.254 20.254,11.24 C20.0543245,10.9628935 19.7320365,10.8006017 19.3905144,10.8051819 C19.0489923,10.8097621 18.7311725,10.9806384 18.539,11.263 C17.9363643,12.2064742 16.9051052,12.7897181 15.786,12.82 C14.777639,12.7946613 13.8608417,12.228921 13.386,11.339 C13.2183531,11.0374023 12.9123919,10.8382402 12.5687471,10.8070179 C12.2251022,10.7757957 11.888257,10.9165549 11.669,11.183 C10.9144484,12.1434471 9.7876705,12.7384586 8.569,12.82 C7.4483496,12.7599224 6.42186835,12.174209 5.8,11.24 C5.61677837,10.9773141 5.32293354,10.8134789 5.00315481,10.7957134 C4.68337609,10.7779479 4.37319163,10.908226 4.162,11.149 C4.148,11.167 2.698,12.96 1.052,12.849 C0.78551374,12.8320907 0.523496801,12.9235466 0.325414477,13.1026115 C0.127332153,13.2816764 0.00998312457,13.5331645 1.12416586e-14,13.8 C-0.01,13.989 0.043,14.857 1.168,14.857 C2.56465982,14.7853924 3.88910691,14.2143754 4.9,13.248 C5.8655044,14.2333556 7.18063428,14.7982147 8.56,14.82 C9.96914128,14.7948515 11.3219259,14.2622592 12.37,13.32 C13.2440391,14.2823422 14.4860048,14.8277018 15.786,14.82 C17.1437613,14.8165071 18.4453209,14.2774846 19.408,13.32 C20.3594127,14.3161486 21.6925294,14.8561683 23.069,14.803 C23.6212847,14.7648924 24.0381076,14.2862847 24,13.734 C23.9618924,13.1817153 23.4832847,12.7648924 22.931,12.803 L22.931,12.81 Z" id="Path"></path>
                    <path d="M8.56,9.4 C9.96914128,9.37485155 11.3219259,8.84225916 12.37,7.9 C13.2440391,8.86234218 14.4860048,9.40770183 15.786,9.4 C17.1437613,9.39650713 18.4453209,8.85748465 19.408,7.9 C20.3577692,8.89856575 21.6920273,9.4390478 23.069,9.383 C23.6212847,9.34489234 24.0381076,8.86628474 24,8.314 C23.9618923,7.76171526 23.4832847,7.34489236 22.931,7.383 C21.349,7.511 20.262,5.827 20.254,5.813 C20.0543245,5.53589354 19.7320365,5.3736017 19.3905144,5.37818188 C19.0489923,5.38276205 18.7311725,5.55363843 18.539,5.836 C17.9379863,6.78214756 16.9064462,7.36817322 15.786,7.4 C14.777639,7.3746613 13.8608417,6.80892099 13.386,5.919 C13.218687,5.61700062 12.9126508,5.41748224 12.5688175,5.38624287 C12.2249841,5.3550035 11.8880011,5.49609963 11.669,5.763 C10.9123945,6.72569611 9.7818786,7.32095328 8.56,7.4 C7.44258265,7.33714613 6.42000237,6.75175597 5.8,5.82 C5.61677837,5.5573141 5.32293354,5.39347886 5.00315481,5.37571337 C4.68337609,5.35794789 4.37319163,5.48822595 4.162,5.729 C4.147,5.748 2.695,7.559 1.052,7.429 C0.786031988,7.41486091 0.525412453,7.50740785 0.327926957,7.68612096 C0.13044146,7.86483408 0.0124089335,8.11494565 1.12418755e-14,8.381 C-0.01,8.57 0.043,9.438 1.168,9.438 C2.56439675,9.36693738 3.88881042,8.79664457 4.9,7.831 C5.86599615,8.81525299 7.18106496,9.37900789 8.56,9.4 Z" id="Path"></path>
                    <path d="M8.56,4.02589375 C9.96914128,4.00074529 11.3219259,3.46815291 12.37,2.52589375 C13.2440391,3.48823593 14.4860048,4.03359558 15.786,4.02589375 C17.1437613,4.02240088 18.4453209,3.4833784 19.408,2.52589375 C20.3577692,3.5244595 21.6920273,4.06494155 23.069,4.00889375 C23.6212847,3.97078609 24.0381076,3.49217849 24,2.93989375 C23.9618923,2.38760901 23.4832847,1.97078611 22.931,2.00889375 C21.349,2.13689375 20.262,0.452893748 20.254,0.438893748 C20.0543245,0.161787285 19.7320365,-0.000504556166 19.3905144,0.00407562326 C19.0489923,0.00865580269 18.7311725,0.179532181 18.539,0.461893748 C17.9379863,1.40804131 16.9064462,1.99406697 15.786,2.02589375 C14.777639,2.00055505 13.8608417,1.43481473 13.386,0.544893748 C13.218687,0.242894368 12.9126508,0.0433759922 12.5688175,0.012136619 C12.2249841,-0.0191027543 11.8880011,0.121993378 11.669,0.388893748 C10.9123945,1.35158986 9.7818786,1.94684703 8.56,2.02589375 C7.44258265,1.96303988 6.42000237,1.37764972 5.8,0.445893748 C5.61677837,0.183207853 5.32293354,0.0193726064 5.00315481,0.00160712157 C4.68337609,-0.0161583632 4.37319163,0.1141197 4.162,0.354893748 C4.147,0.373893748 2.695,2.18489375 1.052,2.05489375 C0.786031988,2.04075466 0.525412453,2.1333016 0.327926957,2.31201471 C0.13044146,2.49072782 0.0124089335,2.7408394 -1.36277708e-14,3.00689375 C-0.01,3.19589375 0.043,4.06389375 1.168,4.06389375 C2.56439675,3.99283113 3.88881042,3.42253831 4.9,2.45689375 C5.86599615,3.44114674 7.18106496,4.00490164 8.56,4.02589375 Z" id="Path-Copy"></path>
                </g>
            </g>
        </g>
    </g>
</svg>