<?xml version="1.0" encoding="UTF-8"?>
<svg viewBox="0 0 24 24" version="1.1" xmlns="http://www.w3.org/2000/svg">
    <title>pos_24</title>
    <g id="Device-Types" stroke="none" stroke-width="1" fill="current" fill-rule="evenodd">
        <g id="Home-&amp;-Office" transform="translate(-248.000000, -8.000000)" fill="current" fill-rule="nonzero">
            <g id="contactless-payment" transform="translate(248.000000, 8.000000)">
                <path d="M20.269,8.869 C19.6901032,8.41651452 18.9767539,8.17016792 18.242,8.169 C18.0403547,8.17006689 17.8393334,8.19150916 17.642,8.233 C17.551843,8.25192223 17.479296,8.31871152 17.453,8.407 C17.4264402,8.49495443 17.4506827,8.59038532 17.516,8.655 L21.416,12.555 C21.8772147,12.9965665 22.1934966,13.567757 22.323,14.193 C22.5110719,15.169718 22.2028121,16.1761505 21.5,16.88 L21.117,17.264 C21.0653974,17.3148342 21.0387097,17.3857576 21.044,17.458 C21.0492162,17.5306159 21.0857044,17.5973893 21.144,17.641 L21.329,17.78 C21.6603708,18.0285281 21.7275281,18.4986292 21.479,18.83 C21.2304719,19.1613708 20.7603708,19.2285281 20.429,18.98 L17.153,16.523 L17.142,16.515 L16.942,16.38 C16.8138633,16.2996722 16.6747467,16.2383666 16.529,16.198 C15.8509896,15.9976107 15.1232338,16.2807795 14.7589645,16.8867183 C14.3946953,17.4926571 14.4859859,18.268208 14.981,18.773 L15.175,18.966 C15.2723783,19.0639099 15.2723783,19.2220901 15.175,19.32 L14.475,20.02 C14.4282689,20.0669604 14.3647501,20.0933619 14.2985,20.0933619 C14.2322499,20.0933619 14.1687311,20.0669604 14.122,20.02 L5.526,11.436 C5.42873728,11.3384326 5.42873728,11.1805674 5.526,11.083 L10.612,6 C10.6587701,5.95273162 10.7225038,5.92613423 10.789,5.92613423 C10.8554962,5.92613423 10.9192299,5.95273162 10.966,6 L19.552,14.586 C19.6492627,14.6835674 19.6492627,14.8414326 19.552,14.939 L18.952,15.533 C18.8084061,15.6758485 18.730028,15.8715596 18.7353264,16.0740363 C18.7406249,16.2765131 18.8291316,16.467857 18.98,16.603 L18.98,16.603 C19.2652073,16.860648 19.7005293,16.8558594 19.98,16.592 L20.609,16 L20.615,15.993 C21.2969399,15.3104833 21.2969399,14.2045167 20.615,13.522 L12.026,4.936 C11.3426825,4.25316477 10.2353175,4.25316477 9.552,4.936 L4.466,10.022 C4.13752743,10.3500635 3.95295904,10.7952588 3.95295904,11.2595 C3.95295904,11.7237412 4.13752743,12.1689365 4.466,12.497 L13.052,21.083 C13.7359998,21.7641852 14.8420002,21.7641852 15.526,21.083 L16.226,20.383 C16.2732784,20.3365999 16.3367577,20.3104192 16.403,20.31 C16.4694933,20.3101464 16.5331888,20.3367762 16.58,20.384 L16.95,20.753 C17.066,20.869 17.191,20.974 17.317,21.079 C17.8478885,21.5264776 18.4586222,21.8695064 19.117,22.09 L23.549,23.567 C23.6251824,23.5919091 23.70868,23.5789371 23.7737143,23.5320887 C23.8387486,23.4852403 23.8774983,23.4101497 23.878,23.33 L23.878,11.8 C23.8775348,11.7214212 23.8405839,11.6475194 23.778,11.6 L20.269,8.869 Z" id="Shape"></path>
                <path d="M7.875,1.923 C8.28921356,1.923 8.625,1.58721356 8.625,1.173 C8.625,0.758786438 8.28921356,0.423 7.875,0.423 C3.59684918,0.427959541 0.129959541,3.89484918 0.125,8.173 C0.125,8.58721356 0.460786438,8.923 0.875,8.923 C1.28921356,8.923 1.625,8.58721356 1.625,8.173 C1.62885772,4.7228195 4.4248195,1.92685772 7.875,1.923 Z" id="Shape"></path>
                <path d="M4.822,7.9 C4.83503371,7.86747098 4.84572758,7.83405263 4.854,7.8 C5.02257898,6.41428605 6.11434985,5.32210257 7.5,5.153 C7.53426109,5.14417554 7.56771383,5.13246709 7.6,5.118 C7.85691402,5.05055611 8.05755611,4.84991402 8.125,4.593 C8.14963567,4.50319815 8.15676523,4.4094954 8.146,4.317 C8.12227983,4.11937586 8.02066986,3.93939061 7.86371705,3.81698243 C7.70676424,3.69457426 7.50744943,3.63986699 7.31,3.665 C5.24572307,3.91894962 3.61942628,5.54565875 3.366,7.61 C3.34141976,7.80761804 3.39644179,8.00689861 3.51893607,8.1639089 C3.64143035,8.32091918 3.82133905,8.42276726 4.019,8.447 C4.04950456,8.45098826 4.08023582,8.453 4.111,8.453 C4.17531956,8.44944977 4.2388791,8.4373432 4.3,8.417 C4.55372233,8.35004407 4.75260524,8.15306616 4.822,7.9 Z" id="Shape"></path>
                <path d="M8.685,9.691 C8.6167018,9.94341859 8.68707847,10.2131324 8.87,10.4 L9.234,10.765 C9.31573149,10.8465185 9.33102304,10.9733971 9.271,11.072 C8.90760558,11.6605201 8.95224175,12.4137123 9.38260297,12.9551923 C9.8129642,13.4966723 10.5366416,13.7101713 11.192,13.489 L13.222,12.813 C13.2871743,12.792163 13.3581634,12.8183937 13.3941299,12.8766027 C13.4300964,12.9348116 13.4217945,13.0100351 13.374,13.059 L11.953,14.479 C11.660013,14.7719871 11.660013,15.2470129 11.953,15.54 C12.2459871,15.832987 12.7210129,15.832987 13.014,15.54 L13.335,15.219 C13.3817311,15.1720396 13.4452499,15.1456381 13.5115,15.1456381 C13.5777501,15.1456381 13.6412689,15.1720396 13.688,15.219 L14.009,15.54 C14.1973982,15.7348766 14.4762866,15.8129356 14.7384751,15.7441751 C15.0006635,15.6754146 15.2053497,15.4705354 15.2738629,15.2082822 C15.3423761,14.946029 15.2640542,14.6672144 15.069,14.479 L14.706,14.115 C14.6242685,14.0334815 14.608977,13.9066029 14.669,13.808 C15.0321985,13.219166 14.9873541,12.4658493 14.5568625,11.9242632 C14.1263709,11.382677 13.402597,11.1690222 12.747,11.39 L10.718,12.066 C10.6644907,12.0843168 10.605224,12.0707591 10.565,12.031 C10.5078286,11.9726735 10.5078286,11.8793265 10.565,11.821 L11.986,10.4 C12.2613589,10.1044902 12.2532339,9.64399028 11.9676218,9.3583782 C11.6820097,9.07276612 11.2215098,9.06464114 10.926,9.34 L10.605,9.661 C10.5068665,9.75783479 10.3491335,9.75783479 10.251,9.661 L9.931,9.34 C9.74382452,9.15762324 9.47442105,9.08732755 9.222,9.155 C8.94933499,9.20533866 8.7358468,9.41842929 8.685,9.691 L8.685,9.691 Z" id="Shape"></path>
            </g>
        </g>
    </g>
</svg>