<?xml version="1.0" encoding="UTF-8"?>
<svg viewBox="0 0 24 24" version="1.1" xmlns="http://www.w3.org/2000/svg">
    <title>power_system_24</title>
    <g id="Device-Types" stroke="none" stroke-width="1" fill="current" fill-rule="evenodd">
        <g id="Smart-Home" transform="translate(-248.000000, -8.000000)" fill="current" fill-rule="nonzero">
            <g id="Bold" transform="translate(248.000000, 8.000000)">
                <path d="M14.5,6.048 C14.2238576,6.048 14,5.82414237 14,5.548 C14,4.71957288 13.3284271,4.048 12.5,4.048 L11.5,4.048 C10.6715729,4.048 10,4.71957288 10,5.548 C10,5.82414237 9.77614237,6.048 9.5,6.048 C8.11928813,6.048 7,7.16728813 7,8.548 L7,17.548 C7,18.9287119 8.11928813,20.048 9.5,20.048 L14.5,20.048 C15.8807119,20.048 17,18.9287119 17,17.548 L17,8.548 C17,7.88495878 16.7366079,7.24907399 16.267767,6.78023305 C15.798926,6.3113921 15.1630412,6.048 14.5,6.048 L14.5,6.048 Z M15.076,12.88 L11.909,16.928 C11.7918084,17.0772517 11.5928633,17.1357669 11.4135266,17.0737322 C11.23419,17.0116975 11.1139224,16.8427628 11.114,16.653 L11.114,14.441 C11.114,14.1648576 10.8901424,13.941 10.614,13.941 L9.335,13.941 C9.16497298,13.9407553 9.00994645,13.8436463 8.93552821,13.69077 C8.86110997,13.5378937 8.88030892,13.355974 8.985,13.222 L12.098,9.222 C12.2139328,9.06857634 12.4153013,9.00697806 12.5972265,9.06928745 C12.7791518,9.13159684 12.900472,9.30371601 12.898,9.496 L12.898,11.665 C12.898,11.9411424 13.1218576,12.165 13.398,12.165 L14.731,12.165 C14.9010148,12.164759 15.0562394,12.2616244 15.1307361,12.414449 C15.2052327,12.5672735 15.1859193,12.7492202 15.081,12.883 L15.076,12.88 Z" id="Shape"></path>
                <path d="M3.423,17.194 C3.11499804,16.6822928 2.85393348,16.1437634 2.643,15.585 C2.43593183,15.0887652 1.87352289,14.8451099 1.36987775,15.0334388 C0.866232618,15.2217676 0.601674987,15.7746519 0.771,16.285 C1.02444767,16.9567447 1.33840492,17.6040724 1.709,18.219 C1.88961272,18.5322279 2.225242,18.7235637 2.58678784,18.7194101 C2.94833369,18.7152564 3.27947863,18.5162604 3.45284758,18.1989658 C3.62621654,17.8816712 3.61480407,17.4955026 3.423,17.189 L3.423,17.194 Z" id="Shape"></path>
                <path d="M6.5,20.4 C6.00118607,20.0702196 5.5326755,19.6967497 5.1,19.284 C4.69844308,18.9169441 4.07712143,18.9382491 3.70165074,19.3319492 C3.32618004,19.7256493 3.33433308,20.3472826 3.72,20.731 C4.23882335,21.2275791 4.80106823,21.6767057 5.4,22.073 C5.86198619,22.3767566 6.48274337,22.2484862 6.78649998,21.7865 C7.09025659,21.3245138 6.96198618,20.7037566 6.5,20.4 L6.5,20.4 Z" id="Shape"></path>
                <path d="M10.664,21.96 C10.0713493,21.8808644 9.48700248,21.7486668 8.918,21.565 C8.5727997,21.4331379 8.18301751,21.5023917 7.90436738,21.7450951 C7.62571725,21.9877986 7.50362314,22.3643876 7.58686037,22.7244187 C7.67009761,23.0844498 7.94509733,23.3692329 8.302,23.465 C8.98624099,23.6861241 9.68911651,23.8447731 10.402,23.939 C10.9433325,24.0009082 11.4345946,23.6180552 11.5068018,23.078 C11.579009,22.5379448 11.205582,22.03948 10.667,21.957 L10.664,21.96 Z" id="Shape"></path>
                <path d="M15.092,21.561 C14.5234622,21.7462366 13.9394559,21.8801062 13.347,21.961 C12.9901548,22.0055023 12.6846835,22.23818 12.5469766,22.5703783 C12.4092696,22.9025766 12.4605353,23.2831333 12.6812405,23.5670491 C12.9019457,23.8509648 13.2580993,23.9945134 13.614,23.943 C14.3251088,23.8465071 15.0262115,23.6868766 15.709,23.466 C16.0648425,23.3691522 16.3384992,23.0843144 16.421027,22.7248808 C16.5035549,22.3654471 16.3815571,21.989765 16.103601,21.7473937 C15.8256449,21.5050225 15.4368516,21.4353066 15.092,21.566 L15.092,21.561 Z" id="Shape"></path>
                <path d="M22.649,14.991 C22.1323433,14.7964939 21.5558076,15.0574569 21.361,15.574 C21.1495824,16.133022 20.8888898,16.6721437 20.582,17.185 C20.3981868,17.4918911 20.392061,17.8735334 20.5659299,18.1861658 C20.7397989,18.4987983 21.0672478,18.6949246 21.4249299,18.7006658 C21.782612,18.7064071 22.1161869,18.5208912 22.3,18.214 C22.6698857,17.5984891 22.98349,16.9508644 23.237,16.279 C23.3301508,16.0302465 23.3205068,15.754653 23.2101958,15.5130193 C23.0998847,15.2713856 22.8979712,15.0835674 22.649,14.991 Z" id="Shape"></path>
                <path d="M18.906,19.281 C18.47329,19.694009 18.0047862,20.0678081 17.506,20.398 C17.1903344,20.5867477 17.003755,20.9335397 17.0201916,21.3009636 C17.0366282,21.6683875 17.2534277,21.9971344 17.5846858,22.1569422 C17.915944,22.31675 18.3081896,22.2818227 18.606,22.066 C19.2046527,21.6704427 19.766875,21.2223381 20.286,20.727 C20.6853019,20.3453712 20.6996288,19.7123019 20.318,19.313 C19.9363712,18.9136981 19.3033019,18.8993712 18.904,19.281 L18.906,19.281 Z" id="Shape"></path>
                <path d="M12,0.048 C5.37555305,0.0551648476 0.00716484761,5.42355305 0,12.048 C0,12.416 0.017,12.779 0.049,13.137 C0.0809752653,13.4928365 0.30035816,13.8045844 0.62450927,13.9548113 C0.948660381,14.1050382 1.32833344,14.070921 1.62050928,13.8653113 C1.91268512,13.6597017 2.07297528,13.3138365 2.041,12.958 C2.01366667,12.658 2,12.3546667 2,12.048 C2,6.5251525 6.4771525,2.048 12,2.048 C17.5228475,2.048 22,6.5251525 22,12.048 C22,12.3553333 21.9863333,12.6586667 21.959,12.958 C21.9095705,13.5080756 22.3154244,13.9940705 22.8655,14.0435 C23.4155756,14.0929295 23.9015705,13.6870756 23.951,13.137 C23.983,12.779 24,12.416 24,12.048 C23.9928352,5.42355305 18.624447,0.0551648476 12,0.048 Z" id="Shape"></path>
            </g>
        </g>
    </g>
</svg>