<?xml version="1.0" encoding="UTF-8"?>
<svg viewBox="0 0 24 24" version="1.1" xmlns="http://www.w3.org/2000/svg">
    <title>printer_24</title>
    <g id="Device-Types" stroke="none" stroke-width="1" fill="current" fill-rule="evenodd">
        <g id="Home-&amp;-Office" transform="translate(-128.000000, -8.000000)" fill="current">
            <g id="print-text" transform="translate(128.000000, 8.000000)">
                <path d="M5.75,6 C6.30228475,6 6.75,5.55228475 6.75,5 L6.75,2 L15.586,2 L17.75,4.163 L17.75,5 C17.75,5.55228475 18.1977153,6 18.75,6 C19.3022847,6 19.75,5.55228475 19.75,5 L19.75,3.749 C19.75,3.48380519 19.6445494,3.22949273 19.457,3.042 L17,0.587 C16.6245591,0.212460685 16.1163145,0.00147088628 15.586,0 L6.75,0 C5.6454305,0 4.75,0.8954305 4.75,2 L4.75,5 C4.75,5.55228475 5.19771525,6 5.75,6 Z" id="Path"></path>
                <path d="M21.5,7 L2.5,7 C1.11928813,7 0,8.11928813 0,9.5 L0,14 C0,15.3807119 1.11928813,16.5 2.5,16.5 L5,16.5 L5,22.75 C5.00055144,23.4401274 5.55987261,23.9994486 6.25,24 L18.25,24 C18.9401274,23.9994486 19.4994486,23.4401274 19.5,22.75 L19.5,16.5 L21.5,16.5 C22.1630412,16.5 22.798926,16.2366079 23.267767,15.767767 C23.7366079,15.298926 24,14.6630412 24,14 L24,9.5 C24,8.83695878 23.7366079,8.20107399 23.267767,7.73223305 C22.798926,7.2633921 22.1630412,7 21.5,7 Z M3.5,11.5 C2.94771525,11.5 2.5,11.0522847 2.5,10.5 C2.5,9.94771525 2.94771525,9.5 3.5,9.5 C4.05228475,9.5 4.5,9.94771525 4.5,10.5 C4.5,11.0522847 4.05228475,11.5 3.5,11.5 Z M17.5,21.5 C17.5,21.7761424 17.2761424,22 17,22 L7.5,22 C7.22385763,22 7,21.7761424 7,21.5 L7,12.457 C7,12.1808576 7.22385763,11.957 7.5,11.957 L17,11.957 C17.2761424,11.957 17.5,12.1808576 17.5,12.457 L17.5,21.5 Z" id="Shape" fill-rule="nonzero"></path>
                <path d="M15,14.749 L9.5,14.749 C9.08578644,14.749 8.75,15.0847864 8.75,15.499 C8.75,15.9132136 9.08578644,16.249 9.5,16.249 L15,16.249 C15.4142136,16.249 15.75,15.9132136 15.75,15.499 C15.75,15.0847864 15.4142136,14.749 15,14.749 L15,14.749 Z" id="Path"></path>
                <path d="M13.25,18.249 L9.5,18.249 C9.08578644,18.249 8.75,18.5847864 8.75,18.999 C8.75,19.4132136 9.08578644,19.749 9.5,19.749 L13.25,19.749 C13.6642136,19.749 14,19.4132136 14,18.999 C14,18.5847864 13.6642136,18.249 13.25,18.249 L13.25,18.249 Z" id="Path"></path>
            </g>
        </g>
    </g>
</svg>