<?xml version="1.0" encoding="UTF-8"?>
<svg viewBox="0 0 24 24" version="1.1" xmlns="http://www.w3.org/2000/svg">
    <title>processor_24</title>
    <g id="Device-Types" stroke="none" stroke-width="1" fill="current" fill-rule="evenodd">
        <g id="Engineering" transform="translate(-88.000000, -8.000000)" fill="current" fill-rule="nonzero">
            <g id="computer-chip" transform="translate(88.000000, 8.000000)">
                <path d="M2.435,11 L1,11 C0.44771525,11 0,11.4477153 0,12 C0,12.5522847 0.44771525,13 1,13 L2.435,13 C2.98728475,13 3.435,12.5522847 3.435,12 C3.435,11.4477153 2.98728475,11 2.435,11 Z" id="Shape"></path>
                <path d="M2.435,16 L1,16 C0.44771525,16 0,16.4477153 0,17 C0,17.5522847 0.44771525,18 1,18 L2.435,18 C2.98728475,18 3.435,17.5522847 3.435,17 C3.435,16.4477153 2.98728475,16 2.435,16 Z" id="Shape"></path>
                <path d="M2.435,6.5 L1,6.5 C0.44771525,6.5 0,6.94771525 0,7.5 C0,8.05228475 0.44771525,8.5 1,8.5 L2.435,8.5 C2.98728475,8.5 3.435,8.05228475 3.435,7.5 C3.435,6.94771525 2.98728475,6.5 2.435,6.5 Z" id="Shape"></path>
                <path d="M23,11 L21.565,11 C21.0127153,11 20.565,11.4477153 20.565,12 C20.565,12.5522847 21.0127153,13 21.565,13 L23,13 C23.5522847,13 24,12.5522847 24,12 C24,11.4477153 23.5522847,11 23,11 Z" id="Shape"></path>
                <path d="M21.565,8.5 L23,8.5 C23.5522847,8.5 24,8.05228475 24,7.5 C24,6.94771525 23.5522847,6.5 23,6.5 L21.565,6.5 C21.0127153,6.5 20.565,6.94771525 20.565,7.5 C20.565,8.05228475 21.0127153,8.5 21.565,8.5 Z" id="Shape"></path>
                <path d="M23,16 L21.565,16 C21.0127153,16 20.565,16.4477153 20.565,17 C20.565,17.5522847 21.0127153,18 21.565,18 L23,18 C23.5522847,18 24,17.5522847 24,17 C24,16.4477153 23.5522847,16 23,16 Z" id="Shape"></path>
                <path d="M12,3.435 C12.5522847,3.435 13,2.98728475 13,2.435 L13,1 C13,0.44771525 12.5522847,0 12,0 C11.4477153,0 11,0.44771525 11,1 L11,2.435 C11,2.98728475 11.4477153,3.435 12,3.435 Z" id="Shape"></path>
                <path d="M7.5,3.435 C8.05228475,3.435 8.5,2.98728475 8.5,2.435 L8.5,1 C8.5,0.44771525 8.05228475,0 7.5,0 C6.94771525,0 6.5,0.44771525 6.5,1 L6.5,2.435 C6.5,2.98728475 6.94771525,3.435 7.5,3.435 Z" id="Shape"></path>
                <path d="M16.5,3.435 C17.0522847,3.435 17.5,2.98728475 17.5,2.435 L17.5,1 C17.5,0.44771525 17.0522847,0 16.5,0 C15.9477153,0 15.5,0.44771525 15.5,1 L15.5,2.435 C15.5,2.98728475 15.9477153,3.435 16.5,3.435 Z" id="Shape"></path>
                <path d="M12,20.566 C11.4477153,20.566 11,21.0137153 11,21.566 L11,23 C11,23.5522847 11.4477153,24 12,24 C12.5522847,24 13,23.5522847 13,23 L13,21.566 C13,21.0137153 12.5522847,20.566 12,20.566 Z" id="Shape"></path>
                <path d="M16.5,20.566 C15.9477153,20.566 15.5,21.0137153 15.5,21.566 L15.5,23 C15.5,23.5522847 15.9477153,24 16.5,24 C17.0522847,24 17.5,23.5522847 17.5,23 L17.5,21.566 C17.5,21.0137153 17.0522847,20.566 16.5,20.566 Z" id="Shape"></path>
                <path d="M7.5,20.566 C6.94771525,20.566 6.5,21.0137153 6.5,21.566 L6.5,23 C6.5,23.5522847 6.94771525,24 7.5,24 C8.05228475,24 8.5,23.5522847 8.5,23 L8.5,21.566 C8.5,21.0137153 8.05228475,20.566 7.5,20.566 Z" id="Shape"></path>
                <path d="M18.067,4.5 L5.933,4.5 C5.14164279,4.50110275 4.5005507,5.14264222 4.5,5.934 L4.5,18.067 C4.50165024,18.8577395 5.14226052,19.4983498 5.933,19.5 L18.067,19.5 C18.8577395,19.4983498 19.4983498,18.8577395 19.5,18.067 L19.5,5.934 C19.4994493,5.14264222 18.8583572,4.50110275 18.067,4.5 Z M16.5,15.5 C16.5,16.0522847 16.0522847,16.5 15.5,16.5 L13,16.5 C12.4477153,16.5 12,16.0522847 12,15.5 C12,14.9477153 12.4477153,14.5 13,14.5 L15.5,14.5 C16.0522847,14.5 16.5,14.9477153 16.5,15.5 Z" id="Shape"></path>
            </g>
        </g>
    </g>
</svg>