<?xml version="1.0" encoding="UTF-8"?>
<svg viewBox="0 0 24 24" version="1.1" xmlns="http://www.w3.org/2000/svg">
    <title>projector_24</title>
    <g id="Device-Types" stroke="none" stroke-width="1" fill="current" fill-rule="evenodd">
        <g id="Audio-&amp;-Video" transform="translate(-208.000000, -48.000000)" fill="current" fill-rule="nonzero">
            <g id="presentation-projector" transform="translate(208.000000, 48.000000)">
                <path d="M24,16.4999973 L24,9.49999728 C24,8.67157288 23.3284271,7.99999728 22.5,7.99999728 L22.246,7.99999728 C22.1781984,7.99968337 22.1131997,8.02702946 22.066017,8.07572193 C22.0188344,8.1244144 21.9935486,8.19024199 21.996,8.258 C21.996,8.339 21.996,8.419 21.996,8.49999728 C21.9959999,12.3659932 18.8619932,15.4999973 14.996,15.4999973 C11.1300068,15.4999973 7.99600006,12.3659932 7.996,8.49999728 C7.996,8.419 7.996,8.338 7.996,8.258 C7.99842614,8.19161357 7.97422418,8.12701003 7.92877697,8.07855804 C7.88332975,8.03010605 7.82040573,8.00182321 7.754,7.99999728 L1.5,7.99999728 C1.10217527,7.99999728 0.720644396,8.15803526 0.439339828,8.43933983 C0.158035261,8.7206444 0,9.10217527 0,9.49999728 L0,16.4999973 C0,17.3284271 0.671572875,17.9999973 1.5,17.9999973 L22.5,17.9999973 C23.3284271,17.9999973 24,17.3284271 24,16.4999973 Z M3.5,13.75 C3.5,14.1642136 3.16421356,14.5 2.75,14.5 C2.33578644,14.5 2,14.1642136 2,13.75 L2,11.25 C2,10.8357864 2.33578644,10.5 2.75,10.5 C3.16421356,10.5 3.5,10.8357864 3.5,11.25 L3.5,13.75 Z M6.5,13.75 C6.5,14.1642136 6.16421356,14.5 5.75,14.5 C5.33578644,14.5 5,14.1642136 5,13.75 L5,11.25 C5,10.8357864 5.33578644,10.5 5.75,10.5 C6.16421356,10.5 6.5,10.8357864 6.5,11.25 L6.5,13.75 Z" id="Shape"></path>
                <path d="M1.49999798,19.999998 C1.49999798,20.5522847 1.94771525,20.999998 2.49999798,20.999998 C3.05228475,20.999998 3.49999798,20.5522847 3.49999798,19.999998 L3.49999798,19.25 C3.50026715,19.1836143 3.47401373,19.1198705 3.4270716,19.0729284 C3.38012947,19.0259863 3.31638566,18.9997329 3.25,18.999998 L1.75,18.999998 C1.68361434,18.9997329 1.61987053,19.0259863 1.5729284,19.0729284 C1.52598627,19.1198705 1.49973285,19.1836143 1.49999798,19.25 L1.49999798,19.999998 Z" id="Shape"></path>
                <path d="M20.499998,19.999998 C20.499998,20.5522847 20.9477153,20.999998 21.499998,20.999998 C22.0522847,20.999998 22.499998,20.5522847 22.499998,19.999998 L22.499998,19.25 C22.5002671,19.1836143 22.4740137,19.1198705 22.4270716,19.0729284 C22.3801295,19.0259863 22.3163857,18.9997329 22.25,18.999998 L20.75,18.999998 C20.6836143,18.9997329 20.6198705,19.0259863 20.5729284,19.0729284 C20.5259863,19.1198705 20.4997329,19.1836143 20.499998,19.25 L20.499998,19.999998 Z" id="Shape"></path>
                <path d="M15,14 C18.0375661,14 20.5,11.5375661 20.5,8.5 C20.5,5.46243388 18.0375661,3 15,3 C11.9624339,3 9.5,5.46243388 9.5,8.5 C9.5038566,11.5359672 11.9640328,13.9961434 15,14 L15,14 Z M15,5 C16.9329966,5 18.5,6.56700338 18.5,8.5 C18.5,10.4329966 16.9329966,12 15,12 C13.0670034,12 11.5,10.4329966 11.5,8.5 C11.5,6.56700338 13.0670034,5 15,5 Z" id="Shape"></path>
            </g>
        </g>
    </g>
</svg>