<?xml version="1.0" encoding="UTF-8"?>
<svg viewBox="0 0 24 24" version="1.1" xmlns="http://www.w3.org/2000/svg">
    <title>proxy_server_24</title>
    <g id="Device-Types" stroke="none" stroke-width="1" fill="current" fill-rule="evenodd">
        <g id="Server" transform="translate(-206.000000, -8.000000)" fill="current" fill-rule="nonzero">
            <g id="data-transfer-three-back-forth-back" transform="translate(206.000000, 8.000000)">
                <path d="M22.542,10.527 L8.9,10.527 C8.76192881,10.527 8.65,10.4150712 8.65,10.277 L8.65,9.089 C8.64943293,8.74386479 8.46345212,8.4256551 8.16301681,8.25578087 C7.8625815,8.08590663 7.49403775,8.09057317 7.198,8.268 L2.4,11.143 C2.11091378,11.3157493 1.93390401,11.6277313 1.93390401,11.9645 C1.93390401,12.3012687 2.11091378,12.6132507 2.4,12.786 L7.191,15.661 C7.48719107,15.8385182 7.8559492,15.843091 8.15645114,15.6729721 C8.45695309,15.5028532 8.64279247,15.1843141 8.643,14.839 L8.643,13.652 C8.643,13.5139288 8.75492881,13.402 8.893,13.402 L22.542,13.402 C23.3211451,13.3814481 23.9420823,12.7439161 23.9420823,11.9645 C23.9420823,11.1850839 23.3211451,10.5475519 22.542,10.527 L22.542,10.527 Z" id="Shape"></path>
                <path d="M0.0209996515,4.333 C0.0207346629,4.71428933 0.172015298,5.08005286 0.441533839,5.34975895 C0.711052379,5.61946505 1.07671058,5.77100009 1.458,5.771 L15.1,5.771 C15.2380712,5.771 15.35,5.88292881 15.35,6.021 L15.35,7.208 C15.3495703,7.55358576 15.5353024,7.87261647 15.8360409,8.04286929 C16.1367795,8.21312211 16.5059039,8.20820434 16.802,8.03 L21.6,5.155 C21.8890862,4.98225066 22.066096,4.67026873 22.066096,4.3335 C22.066096,3.99673127 21.8890862,3.68474934 21.6,3.512 L16.806,0.637 C16.5100572,0.458888272 16.1411481,0.45387728 15.8404767,0.623885033 C15.5398052,0.793892786 15.3539313,1.11259307 15.354,1.458 L15.354,2.646 C15.354,2.78407119 15.2420712,2.896 15.104,2.896 L1.458,2.896 C0.664366814,2.896 0.0209996515,3.53936681 0.0209996515,4.333 Z" id="Shape"></path>
                <path d="M21.6,18.845 L16.806,15.97 C16.5098089,15.7924818 16.1410508,15.787909 15.8405489,15.9580279 C15.5400469,16.1281468 15.3542075,16.4466859 15.354,16.792 L15.354,17.979 C15.354,18.1170712 15.2420712,18.229 15.104,18.229 L1.458,18.229 C0.678854907,18.2495519 0.057917674,18.8870839 0.057917674,19.6665 C0.057917674,20.4459161 0.678854907,21.0834481 1.458,21.104 L15.1,21.104 C15.2380712,21.104 15.35,21.2159288 15.35,21.354 L15.35,22.542 C15.3499313,22.8874069 15.5358052,23.2061072 15.8364767,23.376115 C16.1371481,23.5461227 16.5060572,23.5411117 16.802,23.363 L21.6,20.488 C21.8890862,20.3152507 22.066096,20.0032687 22.066096,19.6665 C22.066096,19.3297313 21.8890862,19.0177493 21.6,18.845 L21.6,18.845 Z" id="Shape"></path>
            </g>
        </g>
    </g>
</svg>