<?xml version="1.0" encoding="UTF-8"?>
<svg viewBox="0 0 24 24" version="1.1" xmlns="http://www.w3.org/2000/svg">
    <title>radio_24</title>
    <g id="Device-Types" stroke="none" stroke-width="1" fill="current" fill-rule="evenodd">
        <g id="Audio-&amp;-Video" transform="translate(-48.000000, -48.000000)" fill="current" fill-rule="nonzero">
            <g id="radio-antenna" transform="translate(48.000000, 48.000000)">
                <path d="M24,10.56 C24,9.92348042 23.7366079,9.31303103 23.267767,8.86294373 C22.798926,8.41285642 22.1630412,8.16 21.5,8.16 L8.154,8.16 C8.0371971,8.15960537 7.93624621,8.08161947 7.91085722,7.97216901 C7.88546824,7.86271855 7.9424088,7.75097838 8.048,7.70304 L18.926,2.784 C19.2824271,2.65924148 19.5346207,2.35160025 19.577147,1.98969098 C19.6196732,1.62778171 19.4452078,1.27393635 19.126689,1.07608598 C18.8081701,0.878235607 18.4004566,0.870456173 18.074,1.056 L2.366,8.14848 C2.33915856,8.16020342 2.31039559,8.16735017 2.281,8.1696 C0.990295716,8.27856193 -2.77555756e-16,9.31614218 -2.77555756e-16,10.56 L-2.77555756e-16,20.16 C-2.77555756e-16,21.4854834 1.11928813,22.56 2.5,22.56 L3.25,22.56 C3.38807119,22.56 3.5,22.6674517 3.5,22.8 L3.5,23.04 C3.5,23.5701934 3.94771525,24 4.5,24 C5.05228475,24 5.5,23.5701934 5.5,23.04 L5.5,22.8 C5.5,22.6674517 5.61192881,22.56 5.75,22.56 L18.25,22.56 C18.3880712,22.56 18.5,22.6674517 18.5,22.8 L18.5,23.04 C18.5,23.5701934 18.9477153,24 19.5,24 C20.0522847,24 20.5,23.5701934 20.5,23.04 L20.5,22.8 C20.5,22.6674517 20.6119288,22.56 20.75,22.56 L21.5,22.56 C22.1630412,22.56 22.798926,22.3071436 23.267767,21.8570563 C23.7366079,21.406969 24,20.7965196 24,20.16 L24,10.56 Z M19.5,21.12 C18.6715729,21.12 18,20.47529 18,19.68 C18,18.88471 18.6715729,18.24 19.5,18.24 C20.3284271,18.24 21,18.88471 21,19.68 C21,20.47529 20.3284271,21.12 19.5,21.12 Z M20,16.8 L4,16.8 C2.8954305,16.8 2,15.9403867 2,14.88 L2,14.4 C2,14.2674517 2.11192881,14.16 2.25,14.16 L21.75,14.16 C21.8880712,14.16 22,14.2674517 22,14.4 L22,14.88 C22,15.9403867 21.1045695,16.8 20,16.8 Z M4.5,21.12 C3.67157288,21.12 3,20.47529 3,19.68 C3,18.88471 3.67157288,18.24 4.5,18.24 C5.32842712,18.24 6,18.88471 6,19.68 C6,20.47529 5.32842712,21.12 4.5,21.12 Z M22,12.48 C22,12.6125483 21.8880712,12.72 21.75,12.72 L2.25,12.72 C2.11192881,12.72 2,12.6125483 2,12.48 L2,12 C2,10.9396133 2.8954305,10.08 4,10.08 L20,10.08 C21.1045695,10.08 22,10.9396133 22,12 L22,12.48 Z" id="Shape"></path>
            </g>
        </g>
    </g>
</svg>