<?xml version="1.0" encoding="UTF-8"?>
<svg viewBox="0 0 24 24" version="1.1" xmlns="http://www.w3.org/2000/svg">
    <title>raspberry_24</title>
    <g id="Device-Types" stroke="none" stroke-width="1" fill="current" fill-rule="evenodd">
        <g id="Engineering" transform="translate(-8.000000, -8.000000)" fill="current" fill-rule="nonzero">
            <g id="raspberry_24" transform="translate(8.000000, 8.000000)">
                <path d="M19.4182132,10.7484372 L19.1955569,10.275 C19.1955569,8.0625 18.1286618,7.5703128 17.0061038,6.9281256 C17.0061038,6.9234372 17.0061038,6.9234372 17.0061038,6.9234372 C17.2009274,6.8390628 17.4560547,6.7406256 17.5488281,6.2765628 C18.1704108,6.09375 18.2585446,5.8171872 18.3513181,5.5406256 C18.5275882,5.4468756 18.9729007,5.1703128 18.9729007,4.6171872 C19.2419431,4.4296872 19.4228516,4.1531256 19.3300781,3.7875 C19.5991217,3.4171872 19.6872556,3.1406256 19.5991217,2.8640628 C19.9562991,2.4 19.7753906,2.1234372 19.6872556,1.8468756 C19.9562991,1.29375 19.6872556,0.7406256 18.9729007,0.8343756 C18.7084967,0.3703128 17.9941406,0.4640628 17.9013672,0.4640628 C17.8132321,0.2765628 17.6369632,0.1875 17.1870123,0.2765628 C16.7416998,3.81382317e-05 16.3845212,3.81382317e-05 16.0273438,0.1875 C15.5820313,-0.1828128 15.3176273,0.09375 15.0485837,0.1875 C14.5104978,3.81382317e-05 14.4223639,0.2765628 14.1579587,0.3703128 C13.6198728,0.2765628 13.4436038,0.5578128 13.1745603,0.8343756 C13.1745603,0.8343756 13.0307623,0.7968756 12.9055179,0.8343756 C12.0380859,1.06875 11.6855469,1.9921872 11.5,2.475 C11.3144531,1.9921872 10.9619141,1.06875 10.0944821,0.8296872 C9.96923888,0.7968756 9.82543975,0.8296872 9.82543975,0.8296872 C9.55639619,0.5531256 9.38012725,0.2765628 8.84204131,0.3703128 C8.57763731,0.2765628 8.48950225,0.0046872 7.95141631,0.1875 C7.68237275,0.09375 7.41796875,-0.1828128 6.97265625,0.1875 C6.61547881,0.0046872 6.25830138,0.0046872 5.81298888,0.2765628 C5.36303681,0.1875 5.18676788,0.2765628 5.09863281,0.4640628 C5.00585938,0.4640628 4.29614288,0.3703128 4.02709931,0.8343756 C3.31274444,0.7406256 3.04370087,1.29375 3.31274444,1.8468756 C3.219971,2.1234372 3.04370087,2.4 3.4008795,2.8640628 C3.31274444,3.1406256 3.4008795,3.4171872 3.66992188,3.7875 C3.57714844,4.1578128 3.75805694,4.4343756 4.02709931,4.6171872 C4.02709931,5.1703128 4.47241181,5.4468756 4.64868194,5.5406256 C4.74145538,5.8171872 4.82959044,6.09375 5.45117188,6.2765628 C5.54394531,6.7406256 5.80371094,6.8343756 5.99389619,6.9234372 C5.99389619,6.9234372 5.99389619,6.9281256 5.99389619,6.9281256 C4.87133819,7.575 3.80444306,8.0625 3.80444306,10.275 L3.58178681,10.7531256 C2.1809085,11.5828128 1.13256806,14.5781256 3.11328125,16.6031256 C3.29882812,17.2453128 3.3684085,17.3203128 3.55859375,17.8781256 C3.97607481,20.5265628 5.93359375,21.4828128 6.40209931,21.5765628 C7.06079131,22.1296872 7.50146544,22.4296872 8.53125,22.8 C9.46826231,23.7234372 10.4702154,24 11.5,24 C12.5297858,24 13.5317389,23.7234372 14.46875,22.8 C15.4985358,22.4296872 15.9392087,22.1296872 16.5979007,21.5765628 C17.0664063,21.4828128 19.0239264,20.5265628 19.4414063,17.8734372 C19.6315915,17.3203128 19.7011719,17.2453128 19.8867188,16.5984372 C21.8674319,14.5734372 20.8190915,11.5828128 19.4182132,10.7484372 Z M18.1240234,10.5984372 C18.03125,11.4984372 13.6523437,7.63125 14.3852545,7.5375 C16.4819342,7.18125 18.2167969,8.3484372 18.1240234,10.5984372 Z M13.7126462,8.53125 C13.7126462,9.1781256 12.8127444,9.6656256 11.5,9.6703128 C10.1872556,9.6656256 9.28735381,9.1781256 9.28735381,8.53125 C9.28735381,7.9875 9.96923888,7.44375 10.7207031,7.2 L10.7578125,7.2 C11.0036618,7.1156256 11.2587891,7.0640628 11.5,7.0640628 C11.7412109,7.0640628 11.9963382,7.1156256 12.2421875,7.2 L12.2792969,7.2 C13.0354007,7.44375 13.7126462,7.9875 13.7126462,8.53125 Z M7.53516145,7.75816527 C8.10999315,7.84444192 4.67555284,11.4033535 4.60278928,10.5750977 C4.53002571,8.50445803 5.89070486,7.430314 7.53516145,7.75816527 Z M3.87230216,15.9758176 C2.82215932,15.1833425 2.475369,12.9607668 4.39493154,12.0088853 C5.61602687,11.7720535 4.82964139,16.3720558 3.87230216,15.9758176 Z M7.80124211,19.7963417 C7.40501043,20.1532287 6.27123713,20.1532287 5.40423484,18.8649516 C4.80400256,18.0075513 5.00408032,16.6452856 5.33754259,16.1447723 C5.80439036,15.7182476 6.6047004,16.2883975 7.27162492,17.150151 C7.93462661,17.9335627 8.26808988,19.365465 7.80124211,19.7963417 Z M7.40201576,13.7916161 C6.53762896,13.2548394 6.39553802,12.0536592 7.04284119,11.0551776 C7.69014436,10.0529427 8.98475069,9.71886465 9.84518977,10.2518889 C10.7095766,10.7886655 10.9266602,12.0536592 10.2083111,12.9883273 C9.56100789,13.9229954 8.26640155,14.2570735 7.40201576,13.7916161 Z M11.39,23.0000381 C10.2840681,22.9873529 9.39,21.9049003 9.39,21.5962325 C9.39,21.1311167 10.3730508,21.0000381 11.3306785,21.0000381 C11.3476277,21.0000381 11.3688138,21.0042662 11.39,21.0042662 C11.4111862,21.0042662 11.4281353,21.0000381 11.4493226,21.0000381 C12.4069492,21.0000381 13.39,21.1311167 13.39,21.5962325 C13.39,21.9049003 12.4959319,22.9873529 11.39,23.0000381 Z M11.5875522,19.0000381 C11.5647005,19.0000381 11.5418477,18.9959008 11.5189961,18.9959008 C11.4961445,18.9959008 11.4732929,19.0000381 11.4504401,19.0000381 C10.111318,19.0000381 9.01899612,18.1106894 9.01899612,16.99797 C9.01899612,15.8893868 10.1021779,15.0041744 11.5189961,15.0000381 C12.9358155,15.0041744 14.0189961,15.8893868 14.0189961,16.99797 C14.0189961,18.1106894 12.9266742,19.0000381 11.5875522,19.0000381 Z M12.4506851,12.9893076 C11.7323359,12.0543711 11.9494196,10.7852596 12.8138063,10.2520832 C13.6742454,9.71890595 14.9688517,10.0530799 15.6161549,11.0518482 C16.263458,12.0543711 16.1213671,13.2558963 15.2569813,13.7890726 C14.3925945,14.2584182 13.0979882,13.9242442 12.4506851,12.9893076 Z M17.6337402,18.8654755 C16.7667,20.153158 15.6328782,20.153158 15.2366282,19.7964357 C14.769761,19.3657578 15.1032378,17.9345164 15.7701915,17.1471151 C16.4371462,16.2901104 17.2335682,15.7158736 17.7004354,16.1465515 C18.0339132,16.6468338 18.2339987,18.0084708 17.6337402,18.8654755 Z M18.6430606,12.0066735 C20.5626239,12.7205846 20.2158324,14.3875164 19.1656898,14.9818728 C18.2083508,15.2790514 17.4219655,11.8290496 18.6430606,12.0066735 Z M16.2841711,2.00003814 C16.2227296,2.12302282 16.0384042,2.18275791 16.0998466,2.30574259 C16.2841711,2.24600751 16.5335529,2.18275791 16.7793198,2.12302282 C16.6564359,2.24600751 16.5335529,2.30574259 16.6564359,2.3689922 C16.9058167,2.30574259 17.1515836,2.18275791 17.4624069,2.30574259 L17.2744675,2.49197598 L18.0189961,2.49197598 L18.0189961,2.49197598 C17.8924992,2.67469575 17.7696152,2.79768044 17.7081738,3.04716343 L18.0189961,3.04716343 L18.0189961,3.04716343 C17.8924992,3.41611659 17.6467323,3.47585167 17.5852899,3.59883636 C17.6467323,3.66208596 17.7696152,3.66208596 17.9575546,3.59883636 C17.8310567,3.84480573 17.6467323,3.97130403 17.4624069,4.1540238 C17.5238484,4.21375889 17.5852899,4.21375889 17.7696152,4.1540238 C17.5852899,4.33674357 17.3973505,4.46324187 17.213026,4.64596165 C17.2744675,4.70921035 17.3973505,4.70921035 17.5202344,4.70921035 C17.335909,4.89193012 17.0250866,5.0149148 16.7793198,5.13789949 C16.8407612,5.26088328 16.9672591,5.20114819 17.0250866,5.20114819 C16.8407612,5.32413288 16.5335529,5.44711756 16.2841711,5.50685265 C16.3456135,5.57010135 16.407055,5.62983733 16.5335529,5.62983733 C16.2227296,5.81607072 15.7890233,5.69308604 15.6661404,5.81607072 C15.6661404,5.87580581 15.7890233,5.93905541 15.8504648,5.99879049 L15.7659731,5.99923824 L15.7659731,5.99923824 L15.5639352,5.99984171 C14.9749531,5.99563673 14.0298499,5.91667737 13.8228883,5.08519164 C14.0541983,4.77948718 14.7336715,4.11888493 15.369774,3.73939003 C14.5891027,3.95022053 13.8807158,4.41404764 13.5048371,4.66704425 C12.5145416,4.1751064 13.2554562,2.98391383 13.8120454,2.49197598 C13.8120454,2.61496067 13.8734878,2.67469575 13.8734878,2.73794535 C14.0578123,2.55522558 14.1806962,2.3689922 14.3686356,2.18275791 C14.3686356,2.30574259 14.3071941,2.3689922 14.4300771,2.49197598 C14.552961,2.30574259 14.675844,2.18275791 14.9252248,2.05977412 C14.8023418,2.24600751 14.9252248,2.30574259 14.9866672,2.3689922 C15.1709917,2.24600751 15.2974896,2.12302282 15.604698,2.00003814 C15.5432565,2.12302282 15.4203735,2.18275791 15.5432565,2.30574259 C15.7311958,2.18275791 15.8540797,2.12302282 16.2841711,2.00003814 Z M7.4327866,2.00003814 C7.73993037,2.12291948 7.86640166,2.24580082 8.05068829,2.36868216 C8.11211686,2.30548571 8.23858815,2.24580082 8.11211686,2.05972393 C8.36144529,2.18260437 8.48430335,2.30548571 8.60716049,2.4915626 C8.73363178,2.36868216 8.67220321,2.30548571 8.67220321,2.18260437 C8.85648891,2.36868216 8.97934698,2.55475906 9.16363361,2.73732529 C9.16363361,2.6776404 9.2286754,2.61444395 9.2286754,2.4915626 C9.78514852,2.98308707 10.5222941,4.17327868 9.53220594,4.66480315 C9.15640623,4.41201914 8.4481683,3.94858178 7.6676612,3.73792844 C8.30362995,4.11710446 8.9829602,4.7771516 9.21422157,5.08610983 C9.00426079,5.91394051 8.06143818,5.99485629 7.47331321,5.99977021 L7.27151694,5.99936072 C7.24136335,5.99913549 7.21312633,5.99894099 7.1870714,5.99894099 C7.24849997,5.93574543 7.37135804,5.87605964 7.37135804,5.81286409 C7.24849997,5.68998275 6.81488492,5.81286409 6.50412792,5.63029786 C6.63059828,5.63029786 6.69202778,5.56710141 6.75345635,5.50741652 C6.50412792,5.44422097 6.19698323,5.32133962 6.00908337,5.19845828 C6.07051286,5.19845828 6.19698323,5.25814317 6.25841272,5.13877339 C6.00908337,5.01238139 5.7019396,4.88950005 5.51403974,4.70693382 C5.64051103,4.70693382 5.76336817,4.70693382 5.82479766,4.64373826 C5.64051103,4.46117203 5.45261117,4.33478003 5.26832454,4.1522138 C5.45261117,4.21540935 5.51403974,4.21540935 5.57546831,4.1522138 C5.39118261,3.96964757 5.20689597,3.84325556 5.08042468,3.59749288 C5.26832454,3.66068933 5.39118261,3.66068933 5.45261117,3.59749288 C5.39118261,3.47461154 5.14546741,3.41492665 5.01899612,3.04628352 L5.32975311,3.04628352 L5.32975311,3.04628352 C5.26832454,2.79701018 5.14546741,2.67412883 5.01899612,2.4915626 L5.76336817,2.4915626 L5.76336817,2.4915626 L5.57546831,2.30548571 C5.88622623,2.18260437 6.13555466,2.30548571 6.38126986,2.36868216 C6.50412792,2.30548571 6.38126986,2.24580082 6.25841272,2.11940882 C6.50412792,2.18260437 6.75345635,2.24580082 6.93774298,2.30548571 C6.99917155,2.18260437 6.81488492,2.12291948 6.75345635,2.00003814 C7.1870714,2.12291948 7.30992854,2.18260437 7.49421517,2.30548571 C7.61707323,2.18260437 7.49421517,2.12291948 7.4327866,2.00003814 Z" id="Shape"></path>
            </g>
        </g>
    </g>
</svg>