<?xml version="1.0" encoding="UTF-8"?>
<svg width="18px" height="23px" viewBox="0 0 18 23" version="1.1" xmlns="http://www.w3.org/2000/svg">
    <title>remote_control_24</title>
    <g id="Device-Types" stroke="none" stroke-width="1" fill="current" fill-rule="evenodd">
        <g id="Audio-&amp;-Video" transform="translate(-11.000000, -48.000000)" fill="current" fill-rule="nonzero">
            <g id="modern-tv-remote-hand" transform="translate(8.000000, 48.000000)">
                <path d="M5.638,2.79168 C7.49123667,1.62980782 9.88476333,1.62980782 11.738,2.79168 C12.1972248,3.0864675 12.8184297,2.96805577 13.1255,2.52719999 C13.4325703,2.08634422 13.3092248,1.48998751 12.85,1.1952 C10.3215338,-0.389364996 7.05646625,-0.389364996 4.528,1.1952 C4.22128206,1.38162078 4.04389171,1.71297397 4.06454056,2.06091089 C4.08518942,2.40884782 4.30063402,2.71871537 4.62742253,2.87048729 C4.95421104,3.0222592 5.3410123,2.9920955 5.638,2.79168 Z" id="Shape"></path>
                <path d="M5.636,4.47936 C5.32737161,4.66509095 5.14835354,4.9972345 5.16869859,5.34637385 C5.18904365,5.69551319 5.40553337,6.00641659 5.73381444,6.15794328 C6.06209552,6.30946996 6.45023585,6.27764933 6.747,6.07488 C7.92640028,5.33668401 9.44859972,5.33668401 10.628,6.07488 C10.9250607,6.26756959 11.3068413,6.2928513 11.6286483,6.14114345 C11.9504554,5.9894356 12.1630413,5.68395473 12.185837,5.34047686 C12.2086327,4.99699899 12.0381495,4.66808806 11.739,4.4784 C9.88471081,3.31606309 7.48989231,3.31643979 5.636,4.47936 L5.636,4.47936 Z" id="Shape"></path>
                <path d="M20.523,22.91424 C20.8737715,22.7033476 20.9802844,22.2595379 20.761,21.92256 L18.451,18.38112 C18.4011536,18.304556 18.3748118,18.2160478 18.375,18.12576 L18.375,14.09376 C18.375,12.552 17.056,11.63904 15.658,10.67232 C15.209,10.36128 14.747,10.0416 14.293,9.68256 C14.1905232,9.60161713 14.1257683,9.4848857 14.113,9.35808 C13.98843,8.12847682 12.91188,7.1904 11.625,7.1904 L5.625,7.1904 C4.24428813,7.1904 3.125,8.2649166 3.125,9.5904 L3.125,19.1904 C3.125,20.5158834 4.24428813,21.5904 5.625,21.5904 L11.625,21.5904 C11.8059015,21.5905436 11.986287,21.5718747 12.163,21.53472 C12.3538295,21.4939714 12.551894,21.5637276 12.67,21.71328 C13.004,22.13664 13.32,22.50912 13.55,22.76928 C13.718975,22.9755607 13.9914755,23.0772475 14.261212,23.0346772 C14.5309485,22.9921068 14.7551962,22.8120222 14.8464868,22.5646658 C14.9377775,22.3173094 14.8816511,22.0418611 14.7,21.84576 C13.7444469,20.8478777 12.9597088,19.7108885 12.375,18.47712 L12.375,17.51712 C12.3749778,17.3465804 12.3118996,17.1815849 12.197,17.05152 L10.444,15.06336 C10.1843393,14.776783 10.2093103,14.3438925 10.5003442,14.0865915 C10.7913781,13.8292905 11.2428325,13.8409766 11.519,14.11296 L14.1,16.5888 C14.3944177,16.8615298 14.8621977,16.8574172 15.151363,16.5795567 C15.4405282,16.3016962 15.4443711,15.8526237 15.16,15.57024 L14.276,14.7216 C14.182531,14.6316427 14.1300281,14.5097784 14.13,14.38272 L14.13,11.85504 C14.13,11.7641347 14.1835006,11.6810316 14.2681966,11.6403775 C14.3528926,11.5997234 14.4542456,11.6084968 14.53,11.66304 L14.789,11.84448 C16.089,12.74304 16.883,13.33152 16.883,14.0976 L16.883,18.4704 C16.8827996,18.6061219 16.9222986,18.7391712 16.997,18.8544 L19.497,22.68864 C19.7173776,23.0202836 20.1742282,23.1207373 20.523,22.91424 L20.523,22.91424 Z M11.623,10.5504 C11.623,11.0805934 11.1752847,11.5104 10.623,11.5104 C10.0707153,11.5104 9.623,11.0805934 9.623,10.5504 C9.623,10.0202066 10.0707153,9.59039808 10.623,9.59039808 C10.8885628,9.58989012 11.1434309,9.69080755 11.3314,9.87089776 C11.5193692,10.050988 11.625,10.2954592 11.625,10.5504 L11.623,10.5504 Z M6.623,15.3504 C6.07071525,15.3504 5.623,14.9205934 5.623,14.3904 C5.623,13.8602066 6.07071525,13.4304 6.623,13.4304 C7.17528475,13.4304 7.623,13.8602066 7.623,14.3904 C7.623,14.9198445 7.17650354,15.3493411 6.625,15.3504 L6.623,15.3504 Z M7.623,18.2304 C7.623,18.7605934 7.17528475,19.1904 6.623,19.1904 C6.07071525,19.1904 5.623,18.7605934 5.623,18.2304 C5.623,17.7002066 6.07071525,17.2703981 6.623,17.2703981 C6.88856284,17.2698901 7.14343086,17.3708075 7.33140003,17.5508978 C7.51936919,17.730988 7.625,17.9754592 7.625,18.2304 L7.623,18.2304 Z M6.623,11.5104 C6.07071525,11.5104 5.623,11.0805934 5.623,10.5504 C5.623,10.0202066 6.07071525,9.5904 6.623,9.5904 C7.17528475,9.5904 7.623,10.0202066 7.623,10.5504 C7.623,11.0798445 7.17650354,11.5093411 6.625,11.5104 L6.623,11.5104 Z" id="Shape"></path>
            </g>
        </g>
    </g>
</svg>