<?xml version="1.0" encoding="UTF-8"?>
<svg viewBox="0 0 24 24" version="1.1" xmlns="http://www.w3.org/2000/svg">
    <title>rfid_24</title>
    <g id="Device-Types" stroke="none" stroke-width="1" fill="current" fill-rule="evenodd">
        <g id="Engineering" transform="translate(-168.000000, -8.000000)" fill="current" fill-rule="nonzero">
            <g id="Group" transform="translate(168.000000, 8.000000)">
                <path d="M21.9950534,0 C23.1023548,0 24,0.896392772 24,1.9985627 L24,15.050293 L16.0197754,24 L1.99652486,24 C0.893874627,24 0,23.1029738 0,21.9950534 L0,2.00494659 C0,0.897645164 0.897026226,0 2.00494659,0 L21.9950534,0 Z M22,14.288 L22,1.9985627 L2.00133269,2.00133284 L1.9995747,21.9993725 L15.123,22 L22,14.288 Z" id="Rectangle"></path>
                <path d="M19.4962901,3 C20.3267661,3 21,3.67229458 21,4.49892203 L21,14.2877197 L15.0148315,21 L4.49739365,21 C3.67040597,21 3,20.3272303 3,19.4962901 L3,4.50370994 C3,3.67323387 3.67276967,3 4.50370994,3 L19.4962901,3 Z M19,5 L5,5 L5,19 L14.118,19 L19,13.525 L19,5 Z" id="Rectangle-Copy"></path>
                <path d="M13.0020869,9 C14.1055038,9 15,9.89826062 15,10.9979131 L15,13.0020869 C15,14.1055038 14.1017394,15 13.0020869,15 L10.9979131,15 C9.89449617,15 9,14.1017394 9,13.0020869 L9,10.9979131 C9,9.89449617 9.89826062,9 10.9979131,9 L13.0020869,9 Z M13.0020869,10.5 L10.9979131,10.5 C10.7552803,10.5 10.5505819,10.6775082 10.5080888,10.9088697 L10.5,10.9979131 L10.5,13.0020869 C10.5,13.2447197 10.6775082,13.4494181 10.9088697,13.4919112 L10.9979131,13.5 L13.0020869,13.5 C13.2447197,13.5 13.4494181,13.3224918 13.4919112,13.0911303 L13.5,13.0020869 L13.5,10.9979131 C13.5,10.7552803 13.3224918,10.5505819 13.0911303,10.5080888 L13.0020869,10.5 Z" id="Rectangle-2"></path>
            </g>
        </g>
    </g>
</svg>