<?xml version="1.0" encoding="UTF-8"?>
<svg viewBox="0 0 24 24" version="1.1" xmlns="http://www.w3.org/2000/svg">
    <title>robot_24</title>
    <g id="Device-Types" stroke="none" stroke-width="1" fill="current" fill-rule="evenodd">
        <g id="Smart-Home" transform="translate(-168.000000, -88.000000)" fill="current" fill-rule="nonzero">
            <g id="robot" transform="translate(168.000000, 88.000000)">
                <path d="M6,10.5416667 L18,10.5416667 C19.0196026,10.5416667 19.8461538,9.68354577 19.8461538,8.625 L19.8461538,1.91666667 C19.8461538,0.858120896 19.0196026,0 18,0 L6,0 C4.98039738,0 4.15384615,0.858120896 4.15384615,1.91666667 L4.15384615,8.625 C4.15384615,9.68354577 4.98039738,10.5416667 6,10.5416667 Z M15.6923077,3.83333333 C16.4570097,3.83333333 17.0769231,4.47692401 17.0769231,5.27083333 C17.0769231,6.06474266 16.4570097,6.70833333 15.6923077,6.70833333 C14.9276057,6.70833333 14.3076923,6.06474266 14.3076923,5.27083333 C14.3076923,4.47692401 14.9276057,3.83333333 15.6923077,3.83333333 Z M8.30769231,3.83333333 C9.07239427,3.83333333 9.69230769,4.47692401 9.69230769,5.27083333 C9.69230769,6.06474266 9.07239427,6.70833333 8.30769231,6.70833333 C7.54299035,6.70833333 6.92307692,6.06474266 6.92307692,5.27083333 C6.92307692,4.47692401 7.54299035,3.83333333 8.30769231,3.83333333 Z" id="Shape"></path>
                <path d="M10.6153846,11.9791667 C10.1055833,11.9791667 9.69230769,12.4082271 9.69230769,12.9375 C9.69230769,13.4667729 10.1055833,13.8958333 10.6153846,13.8958333 L13.3846154,13.8958333 C13.8944167,13.8958333 14.3076923,13.4667729 14.3076923,12.9375 C14.3076923,12.4082271 13.8944167,11.9791667 13.3846154,11.9791667 L10.6153846,11.9791667 Z" id="Shape"></path>
                <path d="M22.4307692,9.455875 C22.1248884,9.03245669 21.5463026,8.9466446 21.1384615,9.26420833 C20.7306205,9.58177206 20.6479654,10.1824567 20.9538462,10.605875 C21.4126673,11.2410025 21.2886846,12.1420294 20.676923,12.6183749 C20.0651615,13.0947205 19.1972827,12.9660024 18.7384615,12.330875 C18.4325808,11.9074567 17.8539949,11.8216446 17.4461538,12.1392083 C17.0383128,12.4567721 16.9556577,13.0574567 17.2615385,13.480875 C17.8223549,14.2649652 18.6883812,14.7515266 19.6273846,14.8100833 C19.6946509,14.8153124 19.7563823,14.8507163 19.7964568,14.9070488 C19.8365312,14.9633813 19.8509692,15.0350485 19.836,15.1033333 C19.6933885,15.7507706 19.3407681,16.3276477 18.8372308,16.7372917 L18.48,17.0247917 C18.3547304,17.126116 18.1743283,17.1043576 18.0747692,16.9759167 C17.2635619,15.9334778 16.0406738,15.3293448 14.7498462,15.3333333 L9.25015385,15.3333333 C7.9587329,15.3317944 6.73641933,15.938799 5.92707692,16.9835833 C5.82751789,17.1120243 5.64711573,17.1337826 5.52184615,17.0324583 L5.16461538,16.7449583 C4.66196254,16.3365296 4.30942935,15.7614865 4.16584615,15.1157917 C4.15087697,15.0475069 4.16531496,14.9758397 4.2053894,14.9195072 C4.24546384,14.8631747 4.30719528,14.8277707 4.37446154,14.8225417 C5.31393762,14.7619487 6.17943034,14.2728513 6.73846154,13.486625 C7.04434231,13.0632067 6.96168718,12.4625221 6.55384614,12.1449584 C6.1460051,11.8273946 5.56741925,11.9132067 5.26153846,12.336625 C4.80271728,12.9717524 3.9348385,13.1004706 3.32307694,12.624125 C2.71131539,12.1477794 2.58733269,11.2467525 3.04615385,10.611625 C3.24402402,10.3377214 3.28611363,9.97502962 3.15656793,9.66017218 C3.02702222,9.34531475 2.74552227,9.12612599 2.41810638,9.08517218 C2.0906905,9.04421837 1.76710094,9.18772138 1.56923077,9.461625 C0.576845359,10.8338977 0.742136849,12.7624865 1.95230769,13.9312917 C2.13235139,14.1053567 2.23801675,14.3468373 2.24584615,14.602125 C2.28690375,16.0347089 2.93853638,17.3744108 4.02461538,18.259125 L4.62369231,18.7382917 C4.8612772,18.9305125 4.99358442,19.2309889 4.97815385,19.5432917 C4.95983796,19.9339359 4.99087098,20.3253884 5.07046154,20.7076667 C5.07876923,20.7440833 5.088,20.7805 5.1,20.8169167 L5.50153846,22.0292083 C5.69358881,22.6100644 6.21985374,23 6.81138462,23 L17.1886154,23 C17.7795649,22.9998368 18.3052829,22.6103113 18.4975385,22.0301667 L18.8990769,20.817875 C18.9110769,20.7814583 18.9203077,20.7450417 18.9286154,20.708625 C19.0082059,20.3263467 19.039239,19.9348942 19.0209231,19.54425 C19.0054925,19.2319472 19.1377997,18.9314708 19.3753846,18.73925 L19.9744615,18.2600833 C21.0605405,17.3753691 21.7121732,16.0356672 21.7532308,14.6030833 C21.7610602,14.3477957 21.8667255,14.1063151 22.0467692,13.93225 C23.2610182,12.7628832 23.4268612,10.8296138 22.4307692,9.455875 Z" id="Shape"></path>
            </g>
        </g>
    </g>
</svg>