<?xml version="1.0" encoding="UTF-8"?>
<svg viewBox="0 0 24 24" version="1.1" xmlns="http://www.w3.org/2000/svg">
    <title>router_24</title>
    <g id="Device-Types" stroke="none" stroke-width="1" fill="current" fill-rule="evenodd">
        <g id="Network" transform="translate(-168.000000, -8.000000)" fill="current" fill-rule="nonzero">
            <g id="button-shuffle" transform="translate(168.000000, 8.000000)">
                <path d="M0.374999599,6.749 C0.374734645,7.08069384 0.506313542,7.39889319 0.740762782,7.63352999 C0.975212022,7.86816679 1.29330605,8 1.625,8 L6.4,8 C7.48132753,8.10685697 8.44699321,8.72265455 9,9.658 C9.40118169,10.2151734 10.1766608,10.3444833 10.736925,9.94762948 C11.2971893,9.55077567 11.4325021,8.77632141 11.04,8.213 C10.0359472,6.59823067 8.29966015,5.58302665 6.4,5.5 L1.625,5.5 C0.935034399,5.5 0.375551972,6.05903462 0.374999599,6.749 Z" id="Shape"></path>
                <path d="M23.457,7.3 C23.6811995,6.96396313 23.6811995,6.52603687 23.457,6.19 L21.548,3.331 C21.3035149,2.96434429 20.8478277,2.80095725 20.4260651,2.92872922 C20.0043025,3.0565012 19.7159011,3.44530807 19.716,3.886 L19.716,5.249 C19.716,5.38707119 19.6040712,5.499 19.466,5.499 L17.852,5.499 C14.78,5.499 12.894,8.462 11.07,11.328 C9.609,13.624 8.1,16 6.4,16 L1.625,16 C0.934644063,16 0.375,16.5596441 0.375,17.25 C0.375,17.9403559 0.934644063,18.5 1.625,18.5 L6.4,18.5 C9.472,18.5 11.358,15.537 13.182,12.671 C14.641,10.374 16.152,8 17.852,8 L19.466,8 C19.6040712,8 19.716,8.11192881 19.716,8.25 L19.716,9.612 C19.7160117,10.052574 20.004359,10.4412335 20.426,10.569 C20.519916,10.5980039 20.6177086,10.6125042 20.716,10.612 C21.0502785,10.61205 21.3624754,10.4450697 21.548,10.167 L23.457,7.3 Z" id="Shape"></path>
                <path d="M20.426,21.069 C20.519916,21.0980039 20.6177086,21.1125042 20.716,21.1120127 C21.0502785,21.1120127 21.3624754,20.9450697 21.548,20.667 L23.457,17.8 C23.6811995,17.4639631 23.6811995,17.0260369 23.457,16.69 L21.548,13.827 C21.3035149,13.4603443 20.8478277,13.2969572 20.4260651,13.4247292 C20.0043025,13.5525012 19.7159011,13.9413081 19.716,14.382 L19.716,15.745 C19.716,15.8830712 19.6040712,15.995 19.466,15.995 L17.852,15.995 C16.6439218,15.9024311 15.5217161,15.3350359 14.731,14.417 C14.4205362,14.095461 13.9621168,13.9639771 13.5284239,14.0720771 C13.094731,14.1801771 12.751653,14.5114381 12.6284239,14.9410771 C12.5051948,15.3707162 12.6205362,15.833461 12.931,16.155 C14.1858821,17.5681531 15.9599032,18.4124096 17.848,18.495 L19.462,18.495 C19.6000712,18.495 19.712,18.6069288 19.712,18.745 L19.712,20.108 C19.7107728,20.5511533 20.0013552,20.9422594 20.426,21.069 Z" id="Shape"></path>
            </g>
        </g>
    </g>
</svg>