<?xml version="1.0" encoding="UTF-8"?>
<svg viewBox="0 0 24 24" version="1.1" xmlns="http://www.w3.org/2000/svg">
    <title>satellite_24</title>
    <g id="Device-Types" stroke="none" stroke-width="1" fill="current" fill-rule="evenodd">
        <g id="Audio-&amp;-Video" transform="translate(-326.000000, -9.000000)" fill="current" fill-rule="nonzero">
            <g id="antenna" transform="translate(326.000000, 9.000000)">
                <path d="M15.407,6.909 C15.5944927,7.09654937 15.8488052,7.202 16.114,7.202 C16.3789991,7.20096515 16.6329537,7.09571948 16.821,6.909 L19.3,4.432 C20.2739571,3.45609486 20.2739571,1.87590514 19.3,0.9 C18.3101285,-0.0473154006 16.7498715,-0.0473154006 15.76,0.9 L13.284,3.375 C12.8942841,3.76538508 12.8942841,4.39761492 13.284,4.788 L15.407,6.909 Z" id="Shape"></path>
                <path d="M4.8,13.273 C4.40411049,12.8958571 3.78188951,12.8958571 3.386,13.273 L0.911,15.747 C0.195937003,16.4618744 -0.0181071506,17.5370913 0.368669798,18.4713097 C0.755446747,19.4055282 1.66688156,20.0147841 2.678,20.0150079 C3.34139531,20.016672 3.97794134,19.7531247 4.446,19.283 L6.921,16.807 C7.31138194,16.4165001 7.31138194,15.7834999 6.921,15.393 L4.8,13.273 Z" id="Shape"></path>
                <path d="M6.446,13.505 C6.64124993,13.700191 6.95775007,13.700191 7.153,13.505 L13.517,7.141 C13.712191,6.94575007 13.712191,6.62924993 13.517,6.434 C11.5619163,4.49596635 8.40802731,4.5028726 6.46144996,6.44944996 C4.5148726,8.39602731 4.50796635,11.5499163 6.446,13.505 Z" id="Shape"></path>
                <path d="M9.893,12.313 C9.84179049,12.3641628 9.81516307,12.4349434 9.81995283,12.5071729 C9.82474258,12.5794024 9.86048309,12.6460472 9.918,12.69 C10.7147464,13.3123564 11.8458145,13.262737 12.585,12.573 C13.2797264,11.8299757 13.3396377,10.6950376 12.727,9.883 C12.6833536,9.82520455 12.6168697,9.78907915 12.5446301,9.78390549 C12.4723905,9.77873183 12.4014371,9.80501425 12.35,9.856 L9.893,12.313 Z" id="Shape"></path>
                <path d="M9.639,19.574 C9.97474851,19.6107116 10.3122504,19.6290002 10.65,19.6290002 C13.2096194,19.6266476 15.6471538,18.5345319 17.3526902,16.6259191 C19.0582266,14.7173063 19.8704034,12.1727712 19.586,9.629 C19.5465222,9.273878 19.3205878,8.96679293 18.9933042,8.82342075 C18.6660206,8.68004857 18.2871099,8.72217093 17.9993042,8.93392075 C17.7114984,9.14567057 17.5585222,9.494878 17.598,9.85 C17.8351816,11.9659325 17.0964299,14.0747899 15.5906746,15.5801559 C14.0849194,17.085522 11.9758712,17.8237286 9.86,17.586 C9.31102896,17.5249725 8.81652746,17.920529 8.7555,18.4695 C8.69447254,19.018471 9.09002896,19.5129725 9.639,19.574 L9.639,19.574 Z" id="Shape"></path>
                <path d="M23.633,9.713 C23.5791298,9.35363466 23.334556,9.05177441 22.9941766,8.9245451 C22.6537972,8.79731579 22.2711884,8.86474354 21.9948077,9.10066546 C21.718427,9.33658739 21.5917772,9.70386898 21.664,10.06 C22.2278575,13.2588898 21.2040059,16.532453 18.9179383,18.8399898 C16.6318706,21.1475266 13.3680206,22.2019322 10.164,21.668 C9.80817382,21.6008058 9.44382244,21.7312246 9.21146251,22.0089586 C8.97910259,22.2866926 8.91504255,22.6683434 9.04398795,23.0067225 C9.17293335,23.3451016 9.47473526,23.5873341 9.833,23.64 C10.5061478,23.7527619 11.187473,23.8096226 11.87,23.81 C15.410218,23.7916409 18.7620824,22.2126432 21.0305523,19.494643 C23.2990221,16.7766429 24.2530925,13.1964225 23.638,9.71 L23.633,9.713 Z" id="Shape"></path>
            </g>
        </g>
    </g>
</svg>