<?xml version="1.0" encoding="UTF-8"?>
<svg viewBox="0 0 24 24" version="1.1" xmlns="http://www.w3.org/2000/svg">
    <title>scale_24</title>
    <g id="Device-Types" stroke="none" stroke-width="1" fill="current" fill-rule="evenodd">
        <g id="Smart-Home" transform="translate(-88.000000, -88.000000)" fill="current" fill-rule="nonzero">
            <g id="Bold" transform="translate(88.000000, 88.000000)">
                <path d="M23.441,5.8416 C23.496138,5.35378317 23.2874999,4.87279123 22.888,4.56672 C19.798294,2.19895696 15.9532519,0.925262036 12,0.96 C8.04709036,0.925483204 4.20243895,2.19916568 1.113,4.56672 C0.713126811,4.87258202 0.504096561,5.35360816 0.559,5.8416 L2.409,22.70976 C2.48884086,23.4427572 3.13229833,23.9995745 3.9,24 L20.1,24 C20.8673573,23.9996262 21.5106834,23.4433369 21.591,22.71072 L23.441,5.8416 Z M20.4999994,9.12 C20.4999994,9.38509668 20.2761424,9.60000037 19.9999994,9.60000037 L13.721,9.60000037 C13.5055123,9.60025663 13.314094,9.46794831 13.246,9.27168 L12.474,7.04832 C12.3899272,6.86941071 12.2044498,6.75439844 11.9999994,6.75439844 C11.7955502,6.75439844 11.6100728,6.86941071 11.526,7.04832 L10.754,9.27168 C10.6860222,9.46761295 10.4951196,9.5998432 10.28,9.60000037 L3.99999942,9.60000037 C3.72385763,9.60000037 3.49999942,9.38509668 3.49999942,9.12 L3.49999942,6.11232 C3.49974316,5.950205 3.58474379,5.79891894 3.726,5.71008 C4.38561592,5.29795452 5.07926533,4.93835382 5.8,4.63488 C5.92744474,4.5807092 6.07265833,4.58006477 6.20061931,4.63310213 C6.3285803,4.68613949 6.42767335,4.78804431 6.474,4.91424 L7.211,6.912 C7.2971085,7.15855437 7.51501368,7.34137564 7.78105932,7.39027667 C8.04710496,7.43917771 8.31994485,7.3465588 8.4948327,7.14797737 C8.66972055,6.94939594 8.719477,6.67571358 8.625,6.432 L7.85,4.33056 C7.81338595,4.23119981 7.82173392,4.12166655 7.87302269,4.02848055 C7.92431146,3.93529456 8.01386483,3.86695197 8.12,3.84 C8.96809211,3.624911 9.83455818,3.48322422 10.709,3.41664 C10.8485566,3.40561621 10.9865334,3.45127769 11.0893683,3.54251755 C11.1922033,3.63375741 11.2504716,3.76221363 11.25,3.89664 L11.25,4.8 C11.25,5.19764501 11.5857864,5.51999997 11.9999994,5.51999997 C12.4142136,5.51999997 12.75,5.19764501 12.75,4.8 L12.75,3.89472 C12.7495044,3.7601121 12.8079081,3.63148995 12.9109695,3.54021785 C13.0140309,3.44894575 13.1522782,3.40341202 13.292,3.41472 C14.1661845,3.48185185 15.032327,3.62418302 15.88,3.84 C15.9861352,3.86695197 16.0756885,3.93529456 16.1269773,4.02848055 C16.1782661,4.12166655 16.186614,4.23119981 16.15,4.33056 L15.375,6.432 C15.280523,6.67571358 15.3302795,6.94939594 15.5051673,7.14797737 C15.6800552,7.3465588 15.952895,7.43917771 16.2189407,7.39027667 C16.4849863,7.34137564 16.7028915,7.15855437 16.789,6.912 L17.526,4.9104 C17.5723267,4.78420431 17.6714197,4.68229949 17.7993807,4.62926213 C17.9273417,4.57622477 18.0725553,4.5768692 18.2,4.63104 C18.9208392,4.93430831 19.6145058,5.29391791 20.274,5.70624 C20.4149593,5.79489246 20.4999994,5.94574541 20.4999994,6.10752 L20.4999994,9.12 Z" id="Shape"></path>
            </g>
        </g>
    </g>
</svg>