<?xml version="1.0" encoding="UTF-8"?>
<svg viewBox="0 0 24 24" version="1.1" xmlns="http://www.w3.org/2000/svg">
    <title>scanner_24</title>
    <g id="Device-Types" stroke="none" stroke-width="1" fill="current" fill-rule="evenodd">
        <g id="Home-&amp;-Office" transform="translate(-208.000000, -8.000000)" fill="current" fill-rule="nonzero">
            <g id="scanner" transform="translate(208.000000, 8.000000)">
                <path d="M0.334,19.9999961 C0.260550256,19.9995872 0.19066544,20.0316244 0.143039132,20.087542 C0.0954128233,20.1434595 0.0749045146,20.2175518 0.087,20.29 C0.458,22.593 2.448,23.9999961 5.5,23.9999961 L18.5,23.9999961 C21.552,23.9999961 23.542,22.592 23.913,20.29 C23.9250955,20.2175518 23.9045872,20.1434595 23.8569609,20.087542 C23.8093346,20.0316244 23.7394497,19.9995872 23.666,19.9999961 L0.334,19.9999961 Z M19.5,21 C19.9142136,21 20.25,21.3357864 20.25,21.75 C20.25,22.1642136 19.9142136,22.5 19.5,22.5 C19.0857864,22.5 18.75,22.1642136 18.75,21.75 C18.75,21.3357864 19.0857864,21 19.5,21 Z M16.5,21 C16.9142136,21 17.25,21.3357864 17.25,21.75 C17.25,22.1642136 16.9142136,22.5 16.5,22.5 C16.0857864,22.5 15.75,22.1642136 15.75,21.75 C15.75,21.3357864 16.0857864,21 16.5,21 Z" id="Shape"></path>
                <path d="M4.031,9.751 C3.92885491,9.75102377 3.83699797,9.81318558 3.799,9.908 L0.3,18.658 C0.269624643,18.7347453 0.279086408,18.8215373 0.325284748,18.8899349 C0.371483089,18.9583324 0.448463463,18.9995197 0.531,19 L23.469,19 C23.5519747,19 23.6295335,18.9587945 23.6760209,18.8900652 C23.7225084,18.8213359 23.7318666,18.7340198 23.701,18.657 L20.201,9.907 C20.163002,9.81218558 20.0711451,9.75 19.969,9.75 L4.031,9.751 Z M19.914,17.281 C19.8210629,17.4184959 19.6659591,17.5009182 19.5,17.501 L4.5,17.501 C4.3340506,17.501 4.17893309,17.4185889 4.08595817,17.2811303 C3.99298326,17.1436717 3.97426682,16.9690397 4.036,16.815 L6.036,11.815 C6.11167868,11.6249783 6.29546285,11.5002111 6.5,11.5 L17.5,11.5 C17.7042902,11.5 17.8880041,11.6243712 17.964,11.814 L19.964,16.814 C20.0260315,16.9682954 20.0072907,17.1433344 19.914,17.281 L19.914,17.281 Z" id="Shape"></path>
                <path d="M20.09,8.251 C20.2083035,8.25016789 20.3099646,8.16683911 20.334,8.051 L21.988,0.609 C22.0210838,0.460889518 21.9851087,0.305769162 21.8902099,0.187340041 C21.795311,0.068910919 21.6517605,0 21.5,0 L2.5,0 C2.34845803,0 2.20512037,0.0688445993 2.11026333,0.187027143 C2.01540628,0.305209687 1.97926692,0.460035418 2.012,0.608 L3.666,8.055 C3.69003542,8.17083911 3.79169654,8.25416789 3.91,8.255 L20.09,8.251 Z" id="Shape"></path>
            </g>
        </g>
    </g>
</svg>