<?xml version="1.0" encoding="UTF-8"?>
<svg viewBox="0 0 24 24" version="1.1" xmlns="http://www.w3.org/2000/svg" xmlns:xlink="http://www.w3.org/1999/xlink">
    <title>security_system_24</title>
    <g id="Device-Types" stroke="none" stroke-width="1" fill="current" fill-rule="evenodd">
        <g id="Smart-Home" transform="translate(-249.000000, -128.000000)" fill="current" fill-rule="nonzero">
            <g id="streamline-icon-real-estate-action-house-shield@24x24" transform="translate(249.000000, 128.000000)">
                <path d="M9.5,16.848 L9.5,13.456 C9.49948007,12.2444547 10.217941,11.1481046 11.329,10.665 C13.291324,9.90792029 15.374738,9.51319312 17.478,9.5 C19.6373446,9.5123866 21.7756065,9.92572964 23.784,10.719 C23.8067062,10.7300008 23.8340331,10.7231146 23.8488144,10.7026671 C23.8635958,10.6822195 23.8615659,10.6541115 23.844,10.636 L13.029,0.408 C12.4510285,-0.137425759 11.5479715,-0.137425759 10.97,0.408 L0.156,10.636 C0.00662386951,10.7766703 -0.0416471895,10.9943229 0.0342526115,11.184955 C0.110152413,11.375587 0.294814441,11.5004978 0.5,11.5 L3,11.5 L3,22 C3,22.5522847 3.44771525,23 4,23 L11.2,23 C11.3949653,23 11.57219,22.8868074 11.6540144,22.7098434 C11.7358387,22.5328795 11.7073375,22.3244934 11.581,22.176 C10.2795244,20.7017086 9.54226963,18.8141096 9.5,16.848 Z" id="Path"></path>
                <path d="M23.072,12.04 C21.2822663,11.3697068 19.3890534,11.017733 17.478,11 C15.580898,11.014112 13.7015011,11.3662872 11.928,12.04 C11.3643992,12.2852175 11,12.841364 11,13.456 L11,16.847 C11,19.447 12.679,22.313 16.743,23.864 C17.2166236,24.0450341 17.7403764,24.0450341 18.214,23.864 C22.289,22.309 24,19.439 24,16.847 L24,13.456 C24,12.841364 23.6356008,12.2852175 23.072,12.04 Z M20.5,17.25 L18.75,17.25 C18.4738576,17.25 18.25,17.4738576 18.25,17.75 L18.25,19.5 C18.25,19.9142136 17.9142136,20.25 17.5,20.25 C17.0857864,20.25 16.75,19.9142136 16.75,19.5 L16.75,17.75 C16.75,17.4738576 16.5261424,17.25 16.25,17.25 L14.5,17.25 C14.0857864,17.25 13.75,16.9142136 13.75,16.5 C13.75,16.0857864 14.0857864,15.75 14.5,15.75 L16.25,15.75 C16.5261424,15.75 16.75,15.5261424 16.75,15.25 L16.75,13.5 C16.75,13.0857864 17.0857864,12.75 17.5,12.75 C17.9142136,12.75 18.25,13.0857864 18.25,13.5 L18.25,15.25 C18.25,15.5261424 18.4738576,15.75 18.75,15.75 L20.5,15.75 C20.9142136,15.75 21.25,16.0857864 21.25,16.5 C21.25,16.9142136 20.9142136,17.25 20.5,17.25 Z" id="Shape"></path>
            </g>
        </g>
    </g>
</svg>