<?xml version="1.0" encoding="UTF-8"?>
<svg width="24px" height="25px" viewBox="0 0 24 25" version="1.1" xmlns="http://www.w3.org/2000/svg">
    <title>sensor_24</title>
    <g id="Device-Types" stroke="none" stroke-width="1" fill="current" fill-rule="evenodd">
        <g id="Smart-Home" transform="translate(-127.000000, -128.000000)" fill="current">
            <g id="sensor_24" transform="translate(127.000000, 128.000000)">
                <rect id="Rectangle" x="3" y="0" width="5" height="25" rx="2.5"></rect>
                <path d="M6.19056888,12.3349543 C8.43165171,13.8307391 11.0811118,14.5954633 13.7745689,14.5239543 C16.4680259,14.5954633 19.1174861,13.8307391 21.3585689,12.3349543 C21.8073002,12.01242 21.9096032,11.3871857 21.5870689,10.9384543 C21.2645346,10.4897229 20.6393002,10.38742 20.1905689,10.7099543 C18.289531,11.9604586 16.0489497,12.5939397 13.7745689,12.5239543 C11.5001881,12.5939397 9.25960672,11.9604586 7.35856888,10.7099543 C7.06953086,10.4860625 6.68134765,10.4377551 6.34625095,10.5839766 C6.01115426,10.7301982 5.7825668,11.0476373 5.75013247,11.4118055 C5.71769815,11.7759738 5.8865878,12.1288139 6.19056888,12.3319543 L6.19056888,12.3349543 Z" id="Shape" fill-rule="nonzero" transform="translate(13.760714, 12.514529) rotate(-90.000000) translate(-13.760714, -12.514529) "></path>
                <path d="M29.2712682,10.1109558 C28.9201611,9.68511272 28.2904367,9.62424384 27.8642682,9.97495581 C24.8782402,12.2047351 21.2253117,13.3579947 17.5002682,13.2469558 C13.7752247,13.3579947 10.1222961,12.2047351 7.13626816,9.97495581 C6.70990433,9.62370271 6.07952126,9.68459198 5.72826816,10.1109558 C5.37701506,10.5373196 5.43790433,11.1677027 5.86426816,11.5189558 C9.20937639,14.0424469 13.3115081,15.3567084 17.5002682,15.2469558 C21.6890282,15.3567084 25.7911599,14.0424469 29.1362682,11.5189558 C29.3409226,11.3501718 29.4701268,11.1069872 29.4954455,10.842922 C29.5207643,10.5788569 29.4401226,10.3155521 29.2712682,10.1109558 Z" id="Shape" fill-rule="nonzero" transform="translate(17.500007, 12.500000) rotate(-90.000000) translate(-17.500007, -12.500000) "></path>
            </g>
        </g>
    </g>
</svg>