<?xml version="1.0" encoding="UTF-8"?>
<svg viewBox="0 0 24 24" version="1.1" xmlns="http://www.w3.org/2000/svg">
    <title>server_24</title>
    <g id="Device-Types" stroke="none" stroke-width="1" fill="current" fill-rule="evenodd">
        <g id="Server" transform="translate(-48.000000, -8.000000)" fill="current" fill-rule="nonzero">
            <g id="server-3" transform="translate(48.000000, 8.000000)">
                <path d="M22.5,1.5 L1.5,1.5 C0.671572875,1.5 0,2.17157288 0,3 L0,6 C0,6.82842712 0.671572875,7.5 1.5,7.5 L22.5,7.5 C23.3284271,7.5 24,6.82842712 24,6 L24,3 C24,2.17157288 23.3284271,1.5 22.5,1.5 Z M3.25,4.5 C3.25,3.80964406 3.80964406,3.25 4.5,3.25 C5.19035594,3.25 5.75,3.80964406 5.75,4.5 C5.75,5.19035594 5.19035594,5.75 4.5,5.75 C3.80987261,5.74944856 3.25055144,5.19012739 3.25,4.5 Z M8.5,5.75 C7.80964406,5.75 7.25,5.19035594 7.25,4.5 C7.25,3.80964406 7.80964406,3.25 8.5,3.25 C9.19035594,3.25 9.75,3.80964406 9.75,4.5 C9.7488988,5.18989929 9.18989929,5.7488988 8.5,5.75 Z" id="Shape"></path>
                <path d="M22.5,9 L1.5,9 C0.671572875,9 0,9.67157288 0,10.5 L0,13.5 C0,14.3284271 0.671572875,15 1.5,15 L22.5,15 C23.3284271,15 24,14.3284271 24,13.5 L24,10.5 C24,9.67157288 23.3284271,9 22.5,9 Z M3.25,12 C3.25,11.3096441 3.80964406,10.75 4.5,10.75 C5.19035594,10.75 5.75,11.3096441 5.75,12 C5.75,12.6903559 5.19035594,13.25 4.5,13.25 C3.80987261,13.2494486 3.25055144,12.6901274 3.25,12 Z M8.5,13.25 C7.80964406,13.25 7.25,12.6903559 7.25,12 C7.25,11.3096441 7.80964406,10.75 8.5,10.75 C9.19035594,10.75 9.75,11.3096441 9.75,12 C9.7488988,12.6898993 9.18989929,13.2488988 8.5,13.25 L8.5,13.25 Z" id="Shape"></path>
                <path d="M22.5,16.5 L1.5,16.5 C0.671572875,16.5 0,17.1715729 0,18 L0,21 C0,21.8284271 0.671572875,22.5 1.5,22.5 L22.5,22.5 C23.3284271,22.5 24,21.8284271 24,21 L24,18 C24,17.1715729 23.3284271,16.5 22.5,16.5 Z M3.25,19.5 C3.25,18.8096441 3.80964406,18.25 4.5,18.25 C5.19035594,18.25 5.75,18.8096441 5.75,19.5 C5.75,20.1903559 5.19035594,20.75 4.5,20.75 C3.80987261,20.7494486 3.25055144,20.1901274 3.25,19.5 Z M8.5,20.75 C7.80964406,20.75 7.25,20.1903559 7.25,19.5 C7.25,18.8096441 7.80964406,18.25 8.5,18.25 C9.19035594,18.25 9.75,18.8096441 9.75,19.5 C9.7488988,20.1898993 9.18989929,20.7488988 8.5,20.75 L8.5,20.75 Z" id="Shape"></path>
            </g>
        </g>
    </g>
</svg>