<?xml version="1.0" encoding="UTF-8"?>
<svg viewBox="0 0 24 24" version="1.1" xmlns="http://www.w3.org/2000/svg">
    <title>sleep_24</title>
    <g id="Device-Types" stroke="none" stroke-width="1" fill="current" fill-rule="evenodd">
        <g id="Smart-Home" transform="translate(-168.000000, -48.000000)" fill="current" fill-rule="nonzero">
            <g id="hotel-double-bed-2" transform="translate(168.000000, 48.000000)">
                <path d="M23.225,15.5 C23.3738105,15.5001598 23.5149592,15.4340272 23.6100732,15.3195811 C23.7051872,15.205135 23.7443812,15.0542698 23.717,14.908 L22.228,6.908 C22.1837502,6.6716176 21.9774883,6.50022277 21.737,6.5 L2.263,6.5 C2.02251168,6.50022277 1.81624977,6.6716176 1.772,6.908 L0.283,14.908 C0.255618766,15.0542698 0.294812819,15.205135 0.389926831,15.3195811 C0.485040842,15.4340272 0.626189497,15.5001598 0.775,15.5 L23.225,15.5 Z" id="Shape"></path>
                <path d="M0.5,16.5 C0.223857625,16.5 0,16.7238576 0,17 L0,20.25 C0.00165263759,21.4919555 1.0080445,22.4983474 2.25,22.5 C2.38807119,22.5 2.5,22.6119288 2.5,22.75 L2.5,23.25 C2.5,23.6642136 2.83578644,24 3.25,24 C3.66421356,24 4,23.6642136 4,23.25 L4,23 C4,22.7238576 4.22385763,22.5 4.5,22.5 L19.5,22.5 C19.7761424,22.5 20,22.7238576 20,23 L20,23.25 C20,23.6642136 20.3357864,24 20.75,24 C21.1642136,24 21.5,23.6642136 21.5,23.25 L21.5,22.75 C21.5,22.6119288 21.6119288,22.5 21.75,22.5 C22.9919555,22.4983474 23.9983474,21.4919555 24,20.25 L24,17 C24,16.7238576 23.7761424,16.5 23.5,16.5 L0.5,16.5 Z" id="Shape"></path>
                <path d="M22,2.25 C21.9983474,1.0080445 20.9919555,0.00165263759 19.75,0 L4.25,0 C3.0080445,0.00165263759 2.00165264,1.0080445 2,2.25 L2,5 C2,5.27614237 2.22385763,5.5 2.5,5.5 L4.076,5.5 C4.32078712,5.50037684 4.52985515,5.32347312 4.57,5.082 L4.93,2.917 C4.97058114,2.67592443 5.17953313,2.49954188 5.424,2.5 L10,2.5 C10.2761424,2.5 10.5,2.72385763 10.5,3 L10.5,5 C10.5,5.27614237 10.7238576,5.5 11,5.5 L13,5.5 C13.2761424,5.5 13.5,5.27614237 13.5,5 L13.5,3 C13.5,2.72385763 13.7238576,2.5 14,2.5 L18.576,2.5 C18.8204669,2.49954188 19.0294189,2.67592443 19.07,2.917 L19.43,5.082 C19.4701448,5.32347312 19.6792129,5.50037684 19.924,5.5 L21.5,5.5 C21.7761424,5.5 22,5.27614237 22,5 L22,2.25 Z" id="Shape"></path>
            </g>
        </g>
    </g>
</svg>