<?xml version="1.0" encoding="UTF-8"?>
<svg viewBox="0 0 24 24" version="1.1" xmlns="http://www.w3.org/2000/svg">
    <title>small_cell_24</title>
    <g id="Device-Types" stroke="none" stroke-width="1" fill="current" fill-rule="evenodd">
        <g id="Network" transform="translate(-8.000000, -45.000000)" fill="current" fill-rule="nonzero">
            <g id="antenna-2" transform="translate(8.000000, 45.000000)">
                <path d="M12,3.585 C9.36122127,3.58775591 7.22275591,5.72622127 7.22,8.365 C7.22,8.7222656 7.41059891,9.05239263 7.72,9.23102543 C8.02940107,9.40965823 8.41059893,9.40965823 8.72,9.23102543 C9.02940109,9.05239263 9.22,8.7222656 9.22,8.365 C9.20092539,7.35941362 9.72648372,6.42194209 10.5943071,5.91356185 C11.4621304,5.4051816 12.5368696,5.4051816 13.4046929,5.91356185 C14.2725163,6.42194209 14.7980746,7.35941362 14.779,8.365 C14.779,8.91728475 15.2267153,9.36500003 15.779,9.36500003 C16.3312847,9.36500003 16.779,8.91728475 16.779,8.365 C16.7767952,5.72638304 14.6386164,3.58775683 12,3.585 L12,3.585 Z" id="Shape"></path>
                <path d="M4.433,9.567 C4.98528475,9.567 5.433,9.11928475 5.433,8.567 C5.433,4.94014605 8.37314605,2 12,2 C15.626854,2 18.567,4.94014605 18.567,8.567 C18.567,9.11928475 19.0147153,9.567 19.567,9.567 C20.1192847,9.567 20.567,9.11928475 20.567,8.567 C20.567,3.83557655 16.7314235,-9.51128065e-16 12,-9.51128065e-16 C7.26857655,-9.51128065e-16 3.433,3.83557655 3.433,8.567 C3.433,8.83221649 3.53835684,9.0865704 3.72589322,9.27410678 C3.9134296,9.46164316 4.16778351,9.567 4.433,9.567 Z" id="Shape"></path>
                <path d="M20.5,11.866 C20.373,11.543 20.083,11.55 19.632,11.466 C19.0896768,11.3715143 18.5729748,11.7331163 18.476,12.275 L18.176,13.968 C18.1506714,14.1016415 18.023145,14.1905101 17.889,14.168 L14.694,13.635 C14.5829729,13.6173222 14.4978909,13.5268969 14.487,13.415 C14.4300012,12.7234402 13.9043435,12.1621588 13.218,12.06 C13.096068,12.0447511 13.0034917,11.9428322 13,11.82 L13,8.567 C13,8.01471525 12.5522847,7.567 12,7.567 C11.4477153,7.567 11,8.01471525 11,8.567 L11,11.82 C10.9998779,11.9436881 10.909326,12.0486942 10.787,12.067 C10.1004753,12.168813 9.57464195,12.730282 9.518,13.422 C9.50677277,13.533744 9.42185403,13.6239958 9.311,13.642 L6.116,14.175 C5.98185498,14.1975101 5.85432858,14.1086415 5.829,13.975 L5.529,12.282 C5.43202524,11.7401163 4.9153232,11.3785143 4.373,11.473 C3.942,11.55 3.634,11.542 3.505,11.873 C2.57172598,14.2146429 3.04555048,16.8828598 4.728,18.76 C4.969,19.033 5.286,18.902 5.678,18.833 C6.21947742,18.7355473 6.58052729,18.2189958 6.486,17.677 L6.267,16.441 C6.25540204,16.375202 6.27051572,16.3074952 6.30899368,16.2528753 C6.34747164,16.1982553 6.40613822,16.1612302 6.472,16.15 L9.219,15.692 C9.29148169,15.6802992 9.36545252,15.7009205 9.42142734,15.7484318 C9.47740217,15.795943 9.50976832,15.8655803 9.51,15.939 L9.51,17.926 C9.51038594,18.669162 10.0548745,19.300003 10.79,19.409 C10.9125464,19.4269053 11.0033064,19.5321528 11.003,19.656 L11.003,23.5 C11.003,23.7761424 11.2268576,24 11.503,24 L12.503,24 C12.7791424,24 13.003,23.7761424 13.003,23.5 L13.003,19.649 C13.0031221,19.5253119 13.093674,19.4203058 13.216,19.402 C13.9511255,19.293003 14.4956141,18.662162 14.496,17.919 L14.496,15.932 C14.4962317,15.8585803 14.5285978,15.788943 14.5845727,15.7414318 C14.6405475,15.6939205 14.7145183,15.6732992 14.787,15.685 L17.534,16.143 C17.5998618,16.1542302 17.6585284,16.1912553 17.6970063,16.2458753 C17.7354843,16.3004952 17.750598,16.368202 17.739,16.434 L17.52,17.67 C17.4254727,18.2119958 17.7865226,18.7285473 18.328,18.826 C18.728,18.896 19.039,19.026 19.278,18.753 C20.9601067,16.8756521 21.4335399,14.2074571 20.5,11.866 Z" id="Shape"></path>
            </g>
        </g>
    </g>
</svg>