<?xml version="1.0" encoding="UTF-8"?>
<svg viewBox="0 0 24 24" version="1.1" xmlns="http://www.w3.org/2000/svg">
    <title>smart_meter_24</title>
    <g id="Device-Types" stroke="none" stroke-width="1" fill="current" fill-rule="evenodd">
        <g id="Smart-Home" transform="translate(-328.000000, -8.000000)" fill="current" fill-rule="nonzero">
            <g id="Bold" transform="translate(328.000000, 8.000000)">
                <path d="M24,2.5 C24,1.11928813 22.5076158,0 20.6666667,0 L3.33333333,0 C1.49238417,0 0,1.11928813 0,2.5 L0,21.5 C0,22.1630412 0.351189468,22.798926 0.976310729,23.267767 C1.60143199,23.7366079 2.44927837,24 3.33333333,24 L20.6666667,24 C21.5507216,24 22.398568,23.7366079 23.0236893,23.267767 C23.6488105,22.798926 24,22.1630412 24,21.5 L24,2.5 Z M20.6666667,14.9285714 C20.6666667,15.3033361 20.3681898,15.6071429 20,15.6071429 L17.3333333,15.6071429 C17.1912447,15.6064348 17.0650849,15.5144783 17.0186667,15.3777857 C16.3359695,13.3492442 14.5392956,11.923623 12.44,11.7447143 C12.3256362,11.7324189 12.2252168,11.6618921 12.1733333,11.5574286 L9.2,5.5005 C8.87083829,4.82967127 8.06972647,4.5574604 7.41066667,4.8925 C6.75160687,5.2275396 6.48417162,6.04295699 6.81333333,6.71378571 L9.43066667,12.0405714 C9.50881573,12.2010881 9.45031956,12.3957863 9.29733333,12.4843571 C8.21309778,13.1392844 7.39239254,14.1646091 6.98133333,15.3777857 C6.93491509,15.5144783 6.80875529,15.6064348 6.66666667,15.6071429 L4,15.6071429 C3.63181017,15.6071429 3.33333333,15.3033361 3.33333333,14.9285714 L3.33333333,4.07142857 C3.33333333,3.69666392 3.63181017,3.39285714 4,3.39285714 L20,3.39285714 C20.3681898,3.39285714 20.6666667,3.69666392 20.6666667,4.07142857 L20.6666667,14.9285714 Z" id="Shape"></path>
            </g>
        </g>
    </g>
</svg>