<?xml version="1.0" encoding="UTF-8"?>
<svg viewBox="0 0 24 24" version="1.1" xmlns="http://www.w3.org/2000/svg">
    <title>smart_controller_24</title>
    <g id="Device-Types" stroke="none" stroke-width="1" fill="current" fill-rule="evenodd">
        <g id="Smart-Home" transform="translate(-48.000000, -88.000000)" fill="current">
            <g id="smart_controller_24" transform="translate(48.000000, 88.000000)">
                <path d="M12,18.9375 C8.17446429,18.9375 5.0625,15.8255357 5.0625,12 C5.0625,8.17525714 8.17446429,5.0625 12,5.0625 C15.8255357,5.0625 18.9375,8.17525714 18.9375,12 C18.9375,15.8255357 15.8255357,18.9375 12,18.9375 M12,16.46875 C9.53580357,16.46875 7.53125,14.4641964 7.53125,12 C7.53125,9.53631429 9.53580357,7.53125 12,7.53125 C14.4641964,7.53125 16.46875,9.53631429 16.46875,12 C16.46875,14.4641964 14.4641964,16.46875 12,16.46875 M19.5,0 L4.5,0 C2.019,0 0,2.019 0,4.5 L0,19.5 C0,21.981 2.019,24 4.5,24 L19.5,24 C21.981,24 24,21.981 24,19.5 L24,4.5 C24,2.019 21.981,0 19.5,0" id="Fill-155"></path>
            </g>
        </g>
    </g>
</svg>