<?xml version="1.0" encoding="UTF-8"?>
<svg viewBox="0 0 24 24" version="1.1" xmlns="http://www.w3.org/2000/svg">
    <title>smart_home_24</title>
    <g id="Device-Types" stroke="none" stroke-width="1" fill="current" fill-rule="evenodd">
        <g id="Smart-Home" transform="translate(-48.000000, -8.000000)" fill="current" fill-rule="nonzero">
            <g id="home-to-cloud-sync" transform="translate(48.000000, 8.000000)">
                <path d="M23.792,17.771 C24.1158687,17.3333028 24.0236447,16.7159396 23.586,16.392 L17.6,11.958 C17.247688,11.6975296 16.7657571,11.7007887 16.417,11.966 L10.579,16.4 C10.1580328,16.7328799 10.0810248,17.341498 10.4058144,17.768738 C10.730604,18.1959781 11.3376425,18.2845812 11.771,17.968 L11.931,17.847 C12.0069311,17.7909841 12.1078627,17.7822852 12.1922585,17.8244831 C12.2766542,17.866681 12.330254,17.9526456 12.331,18.047 L12.331,23.1 C12.3307345,23.2961682 12.4084761,23.4843927 12.5470942,23.6231985 C12.6857124,23.7620042 12.8738316,23.84 13.07,23.84 L15.041,23.84 C15.2371684,23.84 15.4252876,23.7620042 15.5639058,23.6231985 C15.7025239,23.4843927 15.7802655,23.2961682 15.78,23.1 L15.78,19.647 C15.7989938,18.9805235 16.3447529,18.4500963 17.0115,18.4500963 C17.6782471,18.4500963 18.2240062,18.9805235 18.243,19.647 L18.243,23.1 C18.2427345,23.2961682 18.3204761,23.4843927 18.4590942,23.6231985 C18.5977124,23.7620042 18.7858316,23.84 18.982,23.84 L20.953,23.84 C21.1491684,23.84 21.3372876,23.7620042 21.4759058,23.6231985 C21.6145239,23.4843927 21.6922655,23.2961682 21.692,23.1 L21.692,17.939 C21.692746,17.8446456 21.7463458,17.758681 21.8307415,17.7164831 C21.9151373,17.6742852 22.0160689,17.6829841 22.092,17.739 L22.414,17.977 C22.6231994,18.13337 22.8859836,18.2001547 23.1444572,18.1626404 C23.4029309,18.125126 23.6358864,17.9863908 23.792,17.777 L23.792,17.771 Z" id="Shape"></path>
                <path d="M3.378,10.533 C2.46138545,10.5243876 1.57974267,10.1799848 0.9,9.565 C0.308129059,8.9624965 -0.0116166627,8.14416422 0.015,7.3 C0.0142448369,5.71923602 1.15600271,4.36942449 2.715,4.108 C2.81060791,4.09260602 2.88861857,4.02317654 2.915,3.93 C3.46648847,1.97978835 5.10563708,0.530993852 7.108818,0.223209527 C9.11199892,-0.0845747986 11.1104798,0.80530596 12.222,2.5 C12.261583,2.55924001 12.3244769,2.59886677 12.395,2.609 C13.2107407,2.72937053 13.9680573,3.10295674 14.56,3.677 C15.6719771,4.7541487 16.0625435,6.37624242 15.5627197,7.84147915 C15.062896,9.30671588 13.7624413,10.351966 12.224,10.525 C12.1818601,10.5301536 12.1394535,10.5328249 12.097,10.533 L3.378,10.533 Z M3.248,6.033 C2.77831424,6.03404332 2.34768033,6.29462981 2.12884891,6.71022409 C1.91001748,7.12581838 1.93884047,7.62833218 2.20375539,8.01617993 C2.46867032,8.40402769 2.92627525,8.61366694 3.393,8.561 L12.019,8.561 C13.0955046,8.43861077 13.8835067,7.48836347 13.8045593,6.40780407 C13.7256118,5.32724467 12.8078618,4.5016224 11.725,4.537 C11.3270026,4.56853652 10.9535218,4.34170838 10.798,3.974 C10.1716355,2.65079538 8.72848764,1.91996118 7.29118179,2.19808858 C5.85387593,2.47621599 4.78753655,3.69265119 4.7,5.154 C4.68342232,5.44035097 4.54284991,5.70525229 4.31500936,5.8794946 C4.08716881,6.05373691 3.79469464,6.12001034 3.514,6.061 C3.42649695,6.04288179 3.33735897,6.03383395 3.248,6.034 L3.248,6.033 Z" id="Shape"></path>
                <path d="M10.3610005,20.88 C10.3610005,20.3358375 9.9201622,19.8945519 9.376,19.894 L7.405,19.894 C6.86106545,19.89345 6.42010192,19.4529337 6.419,18.909 L6.419,16.2 C6.419,16.0619288 6.53092881,15.95 6.669,15.95 L7.405,15.95 C7.80421715,15.9510482 8.16467033,15.7112645 8.31798261,15.3426579 C8.47129489,14.9740514 8.38720758,14.5493727 8.105,14.267 L6.131,12.3 C5.74599052,11.9152193 5.12200948,11.9152193 4.737,12.3 L2.767,14.27 C2.48479242,14.5523727 2.40070511,14.9770514 2.55401739,15.3456579 C2.70732967,15.7142645 3.06778285,15.9540482 3.467,15.953 L4.2,15.953 C4.33807119,15.953 4.45,16.0649288 4.45,16.203 L4.45,18.91 C4.45165364,20.5418683 5.77413173,21.8643464 7.406,21.866 L9.376,21.866 C9.6374116,21.866 9.88810187,21.7620864 10.072854,21.5771467 C10.2576061,21.392207 10.3612654,21.1414115 10.3610005,20.88 L10.3610005,20.88 Z" id="Shape"></path>
            </g>
        </g>
    </g>
</svg>