<?xml version="1.0" encoding="UTF-8"?>
<svg viewBox="0 0 24 24" version="1.1" xmlns="http://www.w3.org/2000/svg">
    <title>smart_plug_24</title>
    <g id="Device-Types" stroke="none" stroke-width="1" fill="current" fill-rule="evenodd">
        <g id="Smart-Home" transform="translate(-88.000000, -8.000000)" fill="current" fill-rule="nonzero">
            <g id="charger-1" transform="translate(88.000000, 8.000000)">
                <path d="M20,6 L17.75,6 C17.6119288,6 17.5,5.88807119 17.5,5.75 L17.5,1.5 C17.5,0.671572875 16.8284271,0 16,0 C15.1715729,0 14.5,0.671572875 14.5,1.5 L14.5,5.75 C14.5,5.88807119 14.3880712,6 14.25,6 L9.75,6 C9.61192881,6 9.5,5.88807119 9.5,5.75 L9.5,1.5 C9.5,0.671572875 8.82842712,0 8,0 C7.17157288,0 6.5,0.671572875 6.5,1.5 L6.5,5.75 C6.5,5.88807119 6.38807119,6 6.25,6 L4,6 C3.17157288,6 2.5,6.67157288 2.5,7.5 C2.5,8.32842712 3.17157288,9 4,9 L20,9 C20.8284271,9 21.5,8.32842712 21.5,7.5 C21.5,6.67157288 20.8284271,6 20,6 Z" id="Shape"></path>
                <path d="M18,10.5 L6,10.5 C5.72385763,10.5 5.5,10.7238576 5.5,11 L5.5,13.5 C5.5064988,15.7037809 7.11210149,17.5767722 9.289,17.92 C9.41053147,17.9391939 9.50002989,18.0439622 9.5,18.167 L9.5,19.5 C9.50032614,20.2455098 10.0481161,20.8776407 10.786,20.984 C10.909099,21.0019126 11.0003013,21.1076049 11,21.232 L11,23 C11,23.5522847 11.4477153,24 12,24 C12.5522847,24 13,23.5522847 13,23 L13,21.233 C13.0001277,21.1087642 13.0911214,21.0033136 13.214,20.985 C13.9522597,20.8785864 14.500171,20.2458895 14.5,19.5 L14.5,18.168 C14.4999701,18.0449622 14.5894685,17.9401939 14.711,17.921 C16.8882713,17.577712 18.4939914,15.7041599 18.5,13.5 L18.5,11 C18.5,10.7238576 18.2761424,10.5 18,10.5 Z" id="Shape"></path>
            </g>
        </g>
    </g>
</svg>