<?xml version="1.0" encoding="UTF-8"?>
<svg viewBox="0 0 24 24" version="1.1" xmlns="http://www.w3.org/2000/svg">
    <title>smoke_24</title>
    <g id="Device-Types" stroke="none" stroke-width="1" fill="current" fill-rule="evenodd">
        <g id="Smart-Home" transform="translate(-49.000000, -128.000000)" fill="current" fill-rule="nonzero">
            <g id="safety-call-firefighters-2" transform="translate(49.000000, 128.000000)">
                <path d="M5,10.5 C5.55228475,10.5 6,10.0522847 6,9.5 C6,7.56700338 7.56700338,6 9.5,6 C10.0522847,6 10.5,5.55228475 10.5,5 C10.5,4.44771525 10.0522847,4 9.5,4 C6.46380465,4.0033068 4.0033068,6.46380465 4,9.5 C4,9.76521649 4.10535684,10.0195704 4.29289322,10.2071068 C4.4804296,10.3946432 4.73478351,10.5 5,10.5 Z" id="Shape"></path>
                <path d="M9.5,2 C10.0522847,2 10.5,1.55228475 10.5,1 C10.5,0.44771525 10.0522847,0 9.5,0 C4.25580777,0.00606170045 0.00606170045,4.25580777 0,9.5 C0,10.0522847 0.44771525,10.5 1,10.5 C1.55228475,10.5 2,10.0522847 2,9.5 C2.00440928,5.35969213 5.35969213,2.00440928 9.5,2 Z" id="Shape"></path>
                <path d="M14.5,4 C13.9477153,4 13.5,4.44771525 13.5,5 C13.5,5.55228475 13.9477153,6 14.5,6 C16.4329966,6 18,7.56700338 18,9.5 C18,10.0522847 18.4477153,10.5 19,10.5 C19.5522847,10.5 20,10.0522847 20,9.5 C19.9966932,6.46380465 17.5361953,4.0033068 14.5,4 Z" id="Shape"></path>
                <path d="M14.5,-2.11186624e-15 C13.9477153,-2.11186624e-15 13.5,0.44771525 13.5,1 C13.5,1.55228475 13.9477153,2 14.5,2 C18.6403079,2.00440928 21.9955907,5.35969213 22,9.5 C22,10.0522847 22.4477153,10.5 23,10.5 C23.5522847,10.5 24,10.0522847 24,9.5 C23.9939383,4.25580777 19.7441922,0.00606170045 14.5,-2.11186624e-15 Z" id="Shape"></path>
                <path d="M11.75,9 C7.60786438,9 4.25,12.3578644 4.25,16.5 C4.25,20.6421356 7.60786438,24 11.75,24 C15.8921356,24 19.25,20.6421356 19.25,16.5 C19.2455907,12.3596921 15.8903079,9.00440928 11.75,9 Z M11.75,21 C10.0298617,20.9994481 8.63555195,19.6051383 8.635,17.885 C8.70736122,17.2511266 8.92389368,16.642236 9.268,16.105 C9.35214567,15.9582104 9.50481933,15.863934 9.67375037,15.854448 C9.8426814,15.8449621 10.0049498,15.9215535 10.105,16.058 L10.199,16.185 C10.3112816,16.336731 10.499441,16.4122977 10.6854797,16.3803751 C10.8715184,16.3484526 11.0237232,16.2144825 11.079,16.034 C11.3250248,15.0436762 11.3001562,14.0054092 11.007,13.028 C10.9577437,12.8321901 11.0310921,12.6259714 11.1929346,12.5052456 C11.3547771,12.3845198 11.5733475,12.3729829 11.747,12.476 C13.6388193,13.6311749 14.8135036,15.6689772 14.865,17.885 C14.865,18.7111494 14.5368134,19.5034618 13.9526376,20.0876376 C13.3684618,20.6718134 12.5761494,21 11.75,21 L11.75,21 Z" id="Shape"></path>
            </g>
        </g>
    </g>
</svg>