<?xml version="1.0" encoding="UTF-8"?>
<svg viewBox="0 0 24 24" version="1.1" xmlns="http://www.w3.org/2000/svg">
    <title>solar_panel_24</title>
    <g id="Device-Types" stroke="none" stroke-width="1" fill="current" fill-rule="evenodd">
        <g id="Smart-Home" transform="translate(-288.000000, -8.000000)" fill="current" fill-rule="nonzero">
            <g id="Bold" transform="translate(288.000000, 8.000000)">
                <rect id="Rectangle-path" x="11.225" y="20.25" width="4" height="3.75" rx="0.5"></rect>
                <path d="M13.725,13.249999 L13.725,14.749999 C13.725,15.0261424 13.9488576,15.249999 14.225,15.249999 L21.925,15.249999 C22.0133593,15.2497291 22.0950127,15.202836 22.1397769,15.1266546 C22.1845411,15.0504733 22.1857665,14.9563205 22.143,14.879 L21.104,13.007 C21.0156086,12.8480476 20.8478757,12.749629 20.666,12.749999 L14.225,12.749999 C13.9488576,12.749999 13.725,12.9738576 13.725,13.249999 Z" id="Shape"></path>
                <path d="M12.225,12.75 L5.781,12.75 C5.5994822,12.75 5.43221765,12.8483609 5.344,13.007 L4.3,14.879 C4.25714769,14.9564765 4.25847044,15.0508397 4.30347757,15.1270847 C4.34848469,15.2033296 4.43046229,15.2500825 4.519,15.25 L12.219,15.25 C12.4951424,15.25 12.719,15.0261424 12.719,14.75 L12.719,13.25 C12.719,12.9761839 12.4987964,12.7532858 12.225,12.75 Z" id="Shape"></path>
                <path d="M13.725,9.75 L13.725,11.25 C13.725,11.5261424 13.9488576,11.75 14.225,11.75 L19.983,11.75 C20.0715377,11.7500825 20.1535153,11.7033296 20.1985224,11.6270847 C20.2435296,11.5508397 20.2448523,11.4564765 20.202,11.379 L19.302,9.764 C19.1255647,9.44672184 18.7910356,9.25 18.428,9.25 L14.225,9.25 C13.9488576,9.25 13.725,9.47385763 13.725,9.75 Z" id="Shape"></path>
                <path d="M12.725,9.75 C12.725,9.47385763 12.5011424,9.25 12.225,9.25 L8.019,9.25 C7.6557537,9.25018679 7.32117443,9.4473359 7.145,9.765 L6.245,11.379 C6.20223351,11.4563205 6.20345885,11.5504733 6.24822308,11.6266546 C6.29298731,11.702836 6.37464075,11.7497291 6.463,11.75 L12.221,11.75 C12.4971424,11.75 12.721,11.5261424 12.721,11.25 L12.725,9.75 Z" id="Shape"></path>
                <path d="M23.749,17.765 L23.049,16.507 C22.9607823,16.3483609 22.7935178,16.25 22.612,16.25 L14.225,16.25 C13.9488576,16.25 13.725,16.4738576 13.725,16.75 L13.725,18.75 C13.725,19.0261424 13.9488576,19.25 14.225,19.25 L22.875,19.25 C23.2290968,19.249818 23.5566947,19.062389 23.7363008,18.7572231 C23.9159068,18.4520572 23.920737,18.0746627 23.749,17.765 L23.749,17.765 Z" id="Shape"></path>
                <path d="M12.725,18.75 L12.725,16.75 C12.725,16.4738576 12.5011424,16.25 12.225,16.25 L3.836,16.25 C3.6544822,16.25 3.48721765,16.3483609 3.399,16.507 L2.699,17.765 C2.52717647,18.0748187 2.53210377,18.4524242 2.71195297,18.757654 C2.89180216,19.0628838 3.2197248,19.2501721 3.574,19.25 L12.224,19.25 C12.3567814,19.2502656 12.4842154,19.1977044 12.5782,19.1039074 C12.6721846,19.0101104 12.725,18.8827817 12.725,18.75 L12.725,18.75 Z" id="Shape"></path>
                <path d="M4.581,9.75 C4.75692063,9.95965332 5.03307412,10.0568358 5.3015225,10.0035624 C5.56997088,9.95028904 5.78808742,9.75501908 5.8706186,9.4940762 C5.95314978,9.23313332 5.88699052,8.94795243 5.698,8.75 C5.02938645,8.00251846 4.93620063,6.9027682 5.46951097,6.05344329 C6.00282132,5.20411838 7.03385741,4.81029252 7.99758248,5.08779336 C8.96130755,5.36529421 9.62502541,6.24711779 9.625,7.25 C9.625,7.66421356 9.96078644,8 10.375,8 C10.7892136,8 11.1250002,7.66421356 11.1250002,7.25 C11.1255405,5.5782065 10.019362,4.10796865 8.41287318,3.64527281 C6.80638435,3.18257697 5.08763739,3.83918873 4.19885171,5.25515265 C3.31006602,6.67111656 3.46593049,8.50440224 4.581,9.75 L4.581,9.75 Z" id="Shape"></path>
                <path d="M7.375,2.5 C7.78921356,2.5 8.125,2.16421356 8.125,1.75 L8.125,0.75 C8.125,0.335786438 7.78921356,-2.49800181e-16 7.375,-2.49800181e-16 C6.96078644,-2.49800181e-16 6.625,0.335786438 6.625,0.75 L6.625,1.75 C6.625,2.16421356 6.96078644,2.5 7.375,2.5 L7.375,2.5 Z" id="Shape"></path>
                <path d="M11.8,3.891 L12.507,3.184 C12.7018766,2.99560179 12.7799356,2.71671338 12.7111751,2.45452495 C12.6424146,2.19233652 12.4375354,1.98765034 12.1752822,1.91913713 C11.913029,1.85062391 11.6342144,1.92894583 11.446,2.124 L10.739,2.831 C10.4549064,3.12541767 10.4591904,3.59319772 10.7486284,3.88236296 C11.0380665,4.1715282 11.5058504,4.17537105 11.8,3.891 L11.8,3.891 Z" id="Shape"></path>
                <path d="M12.125,7.25 C12.125,7.66421356 12.4607864,8 12.875,8 L13.875,8 C14.2892136,8 14.625,7.66421356 14.625,7.25 C14.625,6.83578644 14.2892136,6.5 13.875,6.5 L12.875,6.5 C12.4607864,6.5 12.125,6.83578644 12.125,7.25 L12.125,7.25 Z" id="Shape"></path>
                <path d="M2.956,3.891 C3.25150975,4.16635886 3.71200972,4.15823388 3.9976218,3.8726218 C4.28323388,3.58700972 4.29135886,3.12650975 4.016,2.831 L3.309,2.124 C3.12202942,1.92334682 2.84044446,1.84075082 2.57471109,1.90861446 C2.30897772,1.9764781 2.1014781,2.18397772 2.03361446,2.44971109 C1.96575082,2.71544446 2.04834682,2.99702942 2.249,3.184 L2.956,3.891 Z" id="Shape"></path>
                <path d="M3.309,12.376 L4.016,11.669 C4.21665318,11.4820294 4.29924918,11.2004445 4.23138554,10.9347111 C4.1635219,10.6689777 3.95602228,10.4614781 3.69028891,10.3936145 C3.42455554,10.3257508 3.14297058,10.4083468 2.956,10.609 L2.249,11.316 C2.04834682,11.5029706 1.96575082,11.7845555 2.03361446,12.0502889 C2.1014781,12.3160223 2.30897772,12.5235219 2.57471109,12.5913855 C2.84044446,12.6592492 3.12202942,12.5766532 3.309,12.376 L3.309,12.376 Z" id="Shape"></path>
                <path d="M2.625,7.25 C2.625,6.83578644 2.28921356,6.5 1.875,6.5 L0.875,6.5 C0.460786438,6.5 0.125,6.83578644 0.125,7.25 C0.125,7.66421356 0.460786438,8 0.875,8 L1.875,8 C2.07391237,8 2.2646778,7.92098237 2.40533009,7.78033009 C2.54598237,7.6396778 2.625,7.44891237 2.625,7.25 Z" id="Shape"></path>
            </g>
        </g>
    </g>
</svg>