<?xml version="1.0" encoding="UTF-8"?>
<svg viewBox="0 0 24 24" version="1.1" xmlns="http://www.w3.org/2000/svg">
    <title>sound_system_24</title>
    <g id="Device-Types" stroke="none" stroke-width="1" fill="current" fill-rule="evenodd">
        <g id="Audio-&amp;-Video" transform="translate(-206.000000, -8.000000)" fill="current" fill-rule="nonzero">
            <g id="equalizer-stereo" transform="translate(206.000000, 8.000000)">
                <path d="M15.5,8 L8.5,8 C7.67157288,8 7,8.67157288 7,9.5 L7,21.5 C7,22.3284271 7.67157288,23 8.5,23 L15.5,23 C16.3284271,23 17,22.3284271 17,21.5 L17,9.5 C17,8.67157288 16.3284271,8 15.5,8 Z M12,14.5 C13.6568542,14.5 15,15.8431458 15,17.5 C15,19.1568542 13.6568542,20.5 12,20.5 C10.3431458,20.5 9,19.1568542 9,17.5 C9,15.8431458 10.3431458,14.5 12,14.5 Z M10,11 C10,10.4477153 10.4477153,10 11,10 L13,10 C13.5522847,10 14,10.4477153 14,11 C14,11.5522847 13.5522847,12 13,12 L11,12 C10.4477153,12 10,11.5522847 10,11 Z" id="Shape"></path>
                <path d="M4.5,1 L1.5,1 C0.671572875,1 0,1.67157288 0,2.5 L0,21.5 C0,22.3284271 0.671572875,23 1.5,23 L4.5,23 C5.32842712,23 6,22.3284271 6,21.5 L6,2.5 C6,1.67157288 5.32842712,1 4.5,1 Z M3,3.5 C3.82842712,3.5 4.5,4.17157288 4.5,5 C4.5,5.82842712 3.82842712,6.5 3,6.5 C2.17157288,6.5 1.5,5.82842712 1.5,5 C1.5,4.17157288 2.17157288,3.5 3,3.5 Z M4.5,10 C4.5,10.8284271 3.82842712,11.5 3,11.5 C2.17157288,11.5 1.5,10.8284271 1.5,10 C1.5,9.17157288 2.17157288,8.5 3,8.5 C3.39782473,8.5 3.7793556,8.65803526 4.06066017,8.93933983 C4.34196474,9.2206444 4.5,9.60217527 4.5,10 Z M3,13.5 C3.82842712,13.5 4.5,14.1715729 4.5,15 C4.5,15.8284271 3.82842712,16.5 3,16.5 C2.17157288,16.5 1.5,15.8284271 1.5,15 C1.5,14.1715729 2.17157288,13.5 3,13.5 Z" id="Shape"></path>
                <path d="M22.5,1 L19.5,1 C18.6715729,1 18,1.67157288 18,2.5 L18,21.5 C18,22.3284271 18.6715729,23 19.5,23 L22.5,23 C23.3284271,23 24,22.3284271 24,21.5 L24,2.5 C24,1.67157288 23.3284271,1 22.5,1 Z M21,3.5 C21.8284271,3.5 22.5,4.17157288 22.5,5 C22.5,5.82842712 21.8284271,6.5 21,6.5 C20.1715729,6.5 19.5,5.82842712 19.5,5 C19.5,4.17157288 20.1715729,3.5 21,3.5 Z M22.5,10 C22.5,10.8284271 21.8284271,11.5 21,11.5 C20.1715729,11.5 19.5,10.8284271 19.5,10 C19.5,9.17157288 20.1715729,8.5 21,8.5 C21.8284271,8.5 22.5,9.17157288 22.5,10 Z M21,13.5 C21.8284271,13.5 22.5,14.1715729 22.5,15 C22.5,15.8284271 21.8284271,16.5 21,16.5 C20.1715729,16.5 19.5,15.8284271 19.5,15 C19.5,14.1715729 20.1715729,13.5 21,13.5 Z" id="Shape"></path>
            </g>
        </g>
    </g>
</svg>