<?xml version="1.0" encoding="UTF-8"?>
<svg viewBox="0 0 24 24" version="1.1" xmlns="http://www.w3.org/2000/svg">
    <title>sprinkler_24</title>
    <g id="Device-Types" stroke="none" stroke-width="1" fill="current" fill-rule="evenodd">
        <g id="Smart-Home" transform="translate(-248.000000, -48.000000)" fill="current" fill-rule="nonzero">
            <g id="Bold" transform="translate(248.000000, 48.000000)">
                <path d="M10.5,10.56 L6.5,10.56 C6.22385763,10.56 6,10.7749033 6,11.04 L6,18.48 C6.00107898,19.1357907 6.46357541,19.7080529 7.125,19.872 C7.34571492,19.9267088 7.49994396,20.1178048 7.5,20.33664 L7.5,23.04 C7.5,23.5701934 7.94771525,24 8.5,24 C9.05228475,24 9.5,23.5701934 9.5,23.04 L9.5,20.33952 C9.50005604,20.1206848 9.65428508,19.9295888 9.875,19.87488 C10.5375053,19.7106643 11.0002879,19.1368631 11,18.48 L11,11.04 C11,10.7749033 10.7761424,10.56 10.5,10.56 Z" id="Shape"></path>
                <path d="M15,0.96 C13.8975111,0.93950275 12.8409972,1.38365519 12.109,2.17536 C11.967563,2.32929069 11.7781937,2.43533752 11.569,2.47776 L4.895,3.85056 C4.66452197,3.89808408 4.49999998,4.09369481 4.49999998,4.32 L4.49999998,9.12 C4.49999998,9.38509668 4.72385763,9.6 4.99999998,9.6 L11.043,9.6 C11.3662596,9.59943829 11.6698632,9.74892301 11.858,10.00128 C12.5782699,10.9763013 13.7551543,11.5451612 15,11.52 C15.2761424,11.52 15.5,11.3050967 15.5,11.04 L15.5,1.44 C15.5,1.17490332 15.2761424,0.96 15,0.96 Z" id="Shape"></path>
                <path d="M18,0.96 L17,0.96 C16.7238576,0.96 16.5,1.17490332 16.5,1.44 L16.5,11.04 C16.5,11.3050967 16.7238576,11.52 17,11.52 L18,11.52 C18.8284271,11.52 19.5,10.87529 19.5,10.08 L19.5,2.4 C19.5,1.60470996 18.8284271,0.96 18,0.96 Z" id="Shape"></path>
                <path d="M21.5,7.2 L22.984,7.2 C23.5362847,7.2 23.984,6.77019336 23.984,6.24 C23.984,5.70980664 23.5362847,5.28 22.984,5.28 L21.5,5.28 C20.9477153,5.28 20.5,5.70980664 20.5,6.24 C20.5,6.77019336 20.9477153,7.2 21.5,7.2 Z" id="Shape"></path>
                <path d="M22.055,4.15872 L23.555,3.19872 C23.852245,3.0083689 24.0211283,2.68024205 23.9980331,2.33794166 C23.974938,1.99564128 23.7633732,1.69117093 23.4430331,1.53922165 C23.1226931,1.38727238 22.742245,1.41092889 22.445,1.60128 L20.945,2.56128 C20.4854991,2.85553732 20.361482,3.45167912 20.668,3.89279999 C20.974518,4.33392086 21.5954991,4.45297731 22.055,4.15872 L22.055,4.15872 Z" id="Shape"></path>
                <path d="M23.555,9.28128 L22.055,8.32128 C21.5954991,8.02702269 20.974518,8.14607912 20.668,8.5872 C20.361482,9.02832088 20.4854991,9.62446269 20.945,9.91872 L22.445,10.87872 C22.9045009,11.1729773 23.525482,11.0539209 23.832,10.6128 C24.138518,10.1716791 24.0145009,9.57553731 23.555,9.28128 Z" id="Shape"></path>
                <path d="M3,4.32 C1.34314575,4.32 0,5.60941992 0,7.2 L0,17.28 C0,17.5450967 0.223857625,17.76 0.5,17.76 C2.15685425,17.76 3.5,16.4705801 3.5,14.88 L3.5,4.8 C3.5,4.53490332 3.27614237,4.32 3,4.32 Z" id="Shape"></path>
            </g>
        </g>
    </g>
</svg>