<?xml version="1.0" encoding="UTF-8"?>
<svg viewBox="0 0 24 24" version="1.1" xmlns="http://www.w3.org/2000/svg">
    <title>stb_24</title>
    <g id="Device-Types" stroke="none" stroke-width="1" fill="current" fill-rule="evenodd">
        <g id="Audio-&amp;-Video" transform="translate(-246.000000, -8.000000)" fill="current" fill-rule="nonzero">
            <g id="modern-tv-remote" transform="translate(246.000000, 8.000000)">
                <path d="M21.565,0.5 L2.435,0.5 C1.08590362,0.506611904 -0.00332420213,1.60389151 -7.588605e-06,2.953 L-7.588605e-06,15.547 C-0.00332420213,16.8961085 1.08590362,17.9933881 2.435,18 L7.99999241,18 C8.55228475,18 8.99999241,17.5522847 8.99999241,17 C8.99999241,16.4477153 8.55228475,16 7.99999241,16 L2.435,16 C2.1911802,15.9918745 1.99823828,15.7909488 1.99999241,15.547 L1.99999241,2.953 C1.99823828,2.70905121 2.1911802,2.50812548 2.435,2.5 L21.565,2.5 C21.8088198,2.50812548 22.0017617,2.70905121 21.9999924,2.953 L21.9999924,15.547 C22.0017617,15.7909488 21.8088198,15.9918745 21.565,16 L20.9999924,16 C20.4477153,16 19.9999924,16.4477153 19.9999924,17 C19.9999924,17.5522847 20.4477153,18 20.9999924,18 L21.565,18 C22.9140964,17.9933881 24.0033242,16.8961085 24.0000076,15.547 L24.0000076,2.953 C24.0033242,1.60389151 22.9140964,0.506611904 21.565,0.5 L21.565,0.5 Z" id="Shape"></path>
                <path d="M17.5,12.5 L11.5,12.5 C10.9477153,12.5 10.5,12.9477153 10.5,13.5 L10.5,22.5 C10.5,23.0522847 10.9477153,23.5 11.5,23.5 L17.5,23.5 C18.0522847,23.5 18.5,23.0522847 18.5,22.5 L18.5,13.5 C18.5,12.9477153 18.0522847,12.5 17.5,12.5 Z M16,17 C15.4477153,17 15,16.5522847 15,16 C15,15.4477153 15.4477153,15 16,15 C16.5522847,15 17,15.4477153 17,16 C17,16.5522847 16.5522847,17 16,17 Z M17,19.5 C17,20.0522847 16.5522847,20.5 16,20.5 C15.4477153,20.5 15,20.0522847 15,19.5 C15,18.9477153 15.4477153,18.5 16,18.5 C16.5522847,18.5 17,18.9477153 17,19.5 Z M13,17 C12.4477153,17 12,16.5522847 12,16 C12,15.4477153 12.4477153,15 13,15 C13.5522847,15 14,15.4477153 14,16 C14,16.5522847 13.5522847,17 13,17 Z M14,19.5 C14,20.0522847 13.5522847,20.5 13,20.5 C12.4477153,20.5 12,20.0522847 12,19.5 C12,18.9477153 12.4477153,18.5 13,18.5 C13.5522847,18.5 14,18.9477153 14,19.5 Z" id="Shape"></path>
                <path d="M18.328,7.5 C18.4673555,7.27396781 18.5110899,7.00179092 18.4495605,6.74347978 C18.388031,6.48516865 18.2262905,6.26193567 18,6.123 C15.9286769,4.85441535 13.3349457,4.79863618 11.211,5.977 C10.8987499,6.15080971 10.7029452,6.47799996 10.6973438,6.83532136 C10.6917424,7.19264275 10.8771951,7.52580967 11.1838438,7.70932136 C11.4904925,7.89283305 11.8717499,7.89880971 12.184,7.725 C13.676101,6.89592487 15.4989489,6.9341317 16.955,7.825 C17.4241088,8.11303713 18.0377973,7.9677722 18.328,7.5 Z" id="Shape"></path>
                <path d="M16.664,9.31 C15.3787688,8.52422341 13.7699006,8.49174033 12.454,9.225 C12.1339346,9.39436789 11.9304378,9.72353351 11.9219905,10.08555 C11.9135433,10.4475666 12.1014657,10.7858655 12.413283,10.9699776 C12.7251003,11.1540898 13.1120882,11.1552458 13.425,10.973 C14.1096242,10.5904834 14.9471592,10.606149 15.617,11.014 C15.9211688,11.2269369 16.3182769,11.2538162 16.6483662,11.0838109 C16.9784555,10.9138056 17.1871774,10.5749066 17.1904964,10.203625 C17.1937369,9.83234343 16.9910345,9.48981011 16.664,9.314 L16.664,9.31 Z" id="Shape"></path>
            </g>
        </g>
    </g>
</svg>