<?xml version="1.0" encoding="UTF-8"?>
<svg width="22px" height="24px" viewBox="0 0 22 24" version="1.1" xmlns="http://www.w3.org/2000/svg">
    <title>streaming_dongle_24</title>
    <g id="Device-Types" stroke="none" stroke-width="1" fill="current" fill-rule="evenodd">
        <g id="Audio-&amp;-Video" transform="translate(-128.000000, -8.000000)" fill="current" fill-rule="nonzero">
            <g id="streaming_dongle_24" transform="translate(128.000000, 8.000000)">
                <path d="M20,3 L2,3 C0.9,3 0,3.9 0,5 L0,7 C0,7.55 0.45,8 1,8 C1.55,8 2,7.55 2,7 L2,6 C2,5.45 2.45,5 3,5 L19,5 C19.55,5 20,5.45 20,6 L20,18 C20,18.55 19.55,19 19,19 L14,19 C13.45,19 13,19.45 13,20 C13,20.55 13.45,21 14,21 L20,21 C21.1,21 22,20.1 22,19 L22,5 C22,3.9 21.1,3 20,3 Z M1.14,14.09 C0.54,13.99 0,14.48 0,15.09 C0,15.58 0.36,15.99 0.85,16.07 C2.93,16.43 4.57,18.07 4.93,20.15 C5.01,20.64 5.42,21 5.91,21 C6.52,21 7,20.46 6.91,19.86 C6.43,16.9 4.09,14.57 1.14,14.09 Z M0,18 L0,21 L3,21 C3,19.34 1.66,18 0,18 Z M1.1,10.05 C0.51,10 0,10.46 0,11.05 C0,11.56 0.38,11.99 0.88,12.04 C5.15,12.45 8.55,15.85 8.96,20.12 C9.01,20.62 9.44,20.99 9.95,20.99 C10.55,20.99 11.01,20.47 10.95,19.88 C10.42,14.69 6.29,10.57 1.1,10.05 Z" id="Shape"></path>
            </g>
        </g>
    </g>
</svg>