<?xml version="1.0" encoding="UTF-8"?>
<svg viewBox="0 0 24 24" version="1.1" xmlns="http://www.w3.org/2000/svg">
    <title>surveillance_camera_24</title>
    <g id="Device-Types" stroke="none" stroke-width="1" fill="current" fill-rule="evenodd">
        <g id="Smart-Home" transform="translate(-8.000000, -8.000000)" fill="current" fill-rule="nonzero">
            <g id="surveillance-cctv-1" transform="translate(8.000000, 8.000000)">
                <path d="M19.37,5.53 L17.84,5.942 C17.6468876,5.99398025 17.503324,6.15603008 17.475,6.354 C17.2988458,7.58549194 16.2440268,8.5000946 15,8.5 L5.5,8.5 C5.22385763,8.5 5,8.72385763 5,9 L5,9.5 C5,10.8807119 6.11928813,12 7.5,12 L8.75,12 C9.02614237,12 9.25,12.2238576 9.25,12.5 L9.25,16.788 C9.25013783,17.0337524 9.07166554,17.2431712 8.829,17.282 L3.079,18.2 C2.93455336,18.223113 2.78722983,18.1818098 2.67585093,18.0869743 C2.56447204,17.9921387 2.5002105,17.853284 2.5,17.707 L2.5,16.75 C2.5,16.0596441 1.94035594,15.5 1.25,15.5 C0.559644063,15.5 1.11022302e-15,16.0596441 1.11022302e-15,16.75 L1.11022302e-15,22.75 C1.11022302e-15,23.4403559 0.559644063,24 1.25,24 C1.94035594,24 2.5,23.4403559 2.5,22.75 L2.5,21.25 C2.49986217,21.0042476 2.67833446,20.7948288 2.921,20.756 L9.931,19.639 L9.952,19.639 C10.9968532,19.4237568 11.7479207,18.5057854 11.752,17.439 L11.752,12.5 C11.752,12.2238576 11.9758576,12 12.252,12 L19,12 C19.5522847,12 20,11.5522847 20,11 L20,6.013 C20,5.8574133 19.9276904,5.71066498 19.8042158,5.61600112 C19.6807412,5.52133726 19.5202359,5.48954744 19.37,5.53 Z" id="Shape"></path>
                <path d="M23.788,0.385 C23.5995057,0.141097073 23.3082487,-0.0012048924 23,-7.59036623e-06 L7,-7.59036623e-06 C5.34314575,-7.59036623e-06 4,1.34314575 4,2.99999241 L4,5.99999241 C4,6.55228475 4.44771525,6.99999241 5,6.99999241 L15,6.99999241 C15.5522847,6.99999241 16,6.55228475 16,5.99999241 L16,5.267 C15.9999115,5.0408517 16.1516292,4.84279855 16.37,4.784 L22.783,3.06 C23.1037627,2.97792316 23.3589375,2.73524205 23.457,2.419 L23.97,1.243 C24.0456167,0.944250358 23.9783899,0.627324005 23.788,0.385 L23.788,0.385 Z" id="Shape"></path>
                <path d="M22,6 C21.4477153,6 21,6.44771525 21,7 L21,9 C21,9.55228475 21.4477153,10 22,10 C22.5522847,10 23,9.55228475 23,9 L23,7 C23,6.44771525 22.5522847,6 22,6 Z" id="Shape"></path>
            </g>
        </g>
    </g>
</svg>