<?xml version="1.0" encoding="UTF-8"?>
<svg viewBox="0 0 24 24" version="1.1" xmlns="http://www.w3.org/2000/svg">
    <title>switch_24</title>
    <g id="Device-Types" stroke="none" stroke-width="1" fill="current" fill-rule="evenodd">
        <g id="Network" transform="translate(-128.000000, -8.000000)" fill="current" fill-rule="nonzero">
            <g id="button-split" transform="translate(128.000000, 8.000000)">
                <path d="M20.335,10.123 C20.7562768,10.2512576 21.2118704,10.0888356 21.457,9.723 L23.346,6.889 C23.5701995,6.55296313 23.5701995,6.11503687 23.346,5.779 L21.457,2.944 C21.2125149,2.57734429 20.7568277,2.41395725 20.3350651,2.54172922 C19.9133025,2.6695012 19.6249011,3.05830807 19.625,3.499 L19.625,4.832 C19.625,4.97007119 19.5130712,5.082 19.375,5.082 L17.791,5.082 C14.761,5.082 13.508,6.962 12.501,8.473 C11.501,9.973 10.908,10.749 9.291,10.749 L1.736,10.749 C1.04564406,10.749 0.486,11.3086441 0.486,11.999 C0.486,12.6893559 1.04564406,13.249 1.736,13.249 L9.291,13.249 C10.908,13.249 11.504,14.029 12.501,15.525 C13.508,17.036 14.761,18.916 17.791,18.916 L19.375,18.916 C19.5130712,18.916 19.625,19.0279288 19.625,19.166 L19.625,20.5 C19.6249011,20.9406919 19.9133025,21.3294988 20.3350651,21.4572708 C20.7568277,21.5850428 21.2125149,21.4216557 21.457,21.055 L23.346,18.222 C23.5701995,17.8859631 23.5701995,17.4480369 23.346,17.112 L21.457,14.278 C21.2125149,13.9113443 20.7568277,13.7479572 20.3350651,13.8757292 C19.9133025,14.0035012 19.6249011,14.3923081 19.625,14.833 L19.625,16.167 C19.625,16.3050712 19.5130712,16.417 19.375,16.417 L17.791,16.417 C16.175,16.417 15.579,15.637 14.581,14.141 C14.0973512,13.3502259 13.5071442,12.6297965 12.827,12 C13.5068947,11.3699687 14.0970719,10.6495757 14.581,9.859 C15.581,8.359 16.175,7.583 17.791,7.583 L19.375,7.583 C19.5130712,7.583 19.625,7.69492881 19.625,7.833 L19.625,9.166 C19.6250117,9.60657397 19.913359,9.99523355 20.335,10.123 Z" id="Shape"></path>
            </g>
        </g>
    </g>
</svg>