<?xml version="1.0" encoding="UTF-8"?>
<svg viewBox="0 0 24 24" version="1.1" xmlns="http://www.w3.org/2000/svg">
    <title>tablet_24</title>
    <g id="Device-Types" stroke="none" stroke-width="1" fill="current" fill-rule="evenodd">
        <g id="Mobile" transform="translate(-130.000000, -8.000000)" fill="current" fill-rule="nonzero">
            <g id="tablet" transform="translate(130.000000, 8.000000)">
                <path d="M19,0 L5,0 C3.61928813,0 2.5,1.11928813 2.5,2.5 L2.5,21.5 C2.5,22.1630412 2.7633921,22.798926 3.23223305,23.267767 C3.70107399,23.7366079 4.33695878,24 5,24 L19,24 C20.3807119,24 21.5,22.8807119 21.5,21.5 L21.5,2.5 C21.5,1.11928813 20.3807119,0 19,0 Z M5,4.5 C5,3.94771525 5.44771525,3.5 6,3.5 L18,3.5 C18.5522847,3.5 19,3.94771525 19,4.5 L19,18.5 C19,19.0522847 18.5522847,19.5 18,19.5 L6,19.5 C5.44771525,19.5 5,19.0522847 5,18.5 L5,4.5 Z" id="Shape"></path>
                <path d="M7.5,6.251 L8.5,6.251 C8.91421356,6.251 9.25,6.58678644 9.25,7.001 L9.25,8.001 C9.25,8.41521356 8.91421356,8.751 8.5,8.751 L7.5,8.751 C7.08578644,8.751 6.75,8.41521356 6.75,8.001 L6.75,7.001 C6.75,6.58678644 7.08578644,6.251 7.5,6.251 Z" id="Rectangle-path"></path>
                <path d="M11.5,6.251 L12.5,6.251 C12.9142136,6.251 13.25,6.58678644 13.25,7.001 L13.25,8.001 C13.25,8.41521356 12.9142136,8.751 12.5,8.751 L11.5,8.751 C11.0857864,8.751 10.75,8.41521356 10.75,8.001 L10.75,7.001 C10.75,6.58678644 11.0857864,6.251 11.5,6.251 Z" id="Rectangle-path"></path>
                <path d="M15.5,6.251 L16.5,6.251 C16.9142136,6.251 17.25,6.58678644 17.25,7.001 L17.25,8.001 C17.25,8.41521356 16.9142136,8.751 16.5,8.751 L15.5,8.751 C15.0857864,8.751 14.75,8.41521356 14.75,8.001 L14.75,7.001 C14.75,6.58678644 15.0857864,6.251 15.5,6.251 Z" id="Rectangle-path"></path>
                <rect id="Rectangle-path" x="6.75" y="10.251" width="2.5" height="2.5" rx="0.75"></rect>
                <rect id="Rectangle-path" x="10.75" y="10.251" width="2.5" height="2.5" rx="0.75"></rect>
                <path d="M7.5,14.251 L8.5,14.251 C8.91421356,14.251 9.25,14.5867864 9.25,15.001 L9.25,16.001 C9.25,16.4152136 8.91421356,16.751 8.5,16.751 L7.5,16.751 C7.08578644,16.751 6.75,16.4152136 6.75,16.001 L6.75,15.001 C6.75,14.5867864 7.08578644,14.251 7.5,14.251 Z" id="Rectangle-path"></path>
                <path d="M11.5,14.251 L12.5,14.251 C12.9142136,14.251 13.25,14.5867864 13.25,15.001 L13.25,16.001 C13.25,16.4152136 12.9142136,16.751 12.5,16.751 L11.5,16.751 C11.0857864,16.751 10.75,16.4152136 10.75,16.001 L10.75,15.001 C10.75,14.5867864 11.0857864,14.251 11.5,14.251 Z" id="Rectangle-path"></path>
                <rect id="Rectangle-path" x="14.75" y="10.251" width="2.5" height="2.5" rx="0.75"></rect>
            </g>
        </g>
    </g>
</svg>