<?xml version="1.0" encoding="UTF-8"?>
<svg viewBox="0 0 24 24" version="1.1" xmlns="http://www.w3.org/2000/svg">
    <title>television_24</title>
    <g id="Device-Types" stroke="none" stroke-width="1" fill="current" fill-rule="evenodd">
        <g id="Audio-&amp;-Video" transform="translate(-48.000000, -8.000000)" fill="current" fill-rule="nonzero">
            <g id="modern-tv-wide" transform="translate(48.000000, 8.000000)">
                <path d="M24,4.87 C23.9983474,3.6280445 22.9919555,2.62165264 21.75,2.62 L2.25,2.62 C1.0080445,2.62165264 0.00165263759,3.6280445 0,4.87 L0,15.87 C0.00165263759,17.1119555 1.0080445,18.1183474 2.25,18.12 L2.556,18.12 C2.64612016,18.120053 2.72923689,18.1686057 2.77354706,18.2470803 C2.81785723,18.3255548 2.81650203,18.4218041 2.77,18.499 L2.177,19.486 C1.83864852,20.0769443 2.03509583,20.8299724 2.61900813,21.1803198 C3.20292043,21.5306672 3.9598028,21.3496368 4.322,20.773 L5.768,18.363 C5.85889429,18.2113031 6.02315965,18.1189039 6.2,18.12 L17.8,18.12 C17.9757719,18.1199631 18.1386533,18.2122246 18.229,18.363 L19.675,20.773 C20.0371972,21.3496368 20.7940796,21.5306672 21.3779919,21.1803198 C21.9619042,20.8299724 22.1583515,20.0769443 21.82,19.486 L21.227,18.499 C21.1804049,18.4216508 21.1791428,18.3251859 21.2236982,18.2466441 C21.2682536,18.1681023 21.351701,18.1196916 21.442,18.12 L21.748,18.12 C22.9907365,18.1194495 23.9983453,17.1127355 24,15.87 L24,4.87 Z M21.5,15.12 C21.5,15.3961424 21.2761424,15.62 21,15.62 L3,15.62 C2.72385763,15.62 2.5,15.3961424 2.5,15.12 L2.5,5.62 C2.5,5.34385763 2.72385763,5.12 3,5.12 L21,5.12 C21.2761424,5.12 21.5,5.34385763 21.5,5.62 L21.5,15.12 Z" id="Shape"></path>
            </g>
        </g>
    </g>
</svg>