<?xml version="1.0" encoding="UTF-8"?>
<svg viewBox="0 0 24 24" version="1.1" xmlns="http://www.w3.org/2000/svg">
    <title>terminal_24</title>
    <g id="Device-Types" stroke="none" stroke-width="1" fill="current" fill-rule="evenodd">
        <g id="Server" transform="translate(-88.000000, -8.000000)" fill="current" fill-rule="nonzero">
            <g id="programming-browser-1" transform="translate(88.000000, 8.000000)">
                <path d="M7.019,15.47 C6.82412339,15.6583982 6.74606442,15.9372866 6.81482489,16.1994751 C6.88358537,16.4616635 7.08846465,16.6663497 7.3507178,16.7348629 C7.61297095,16.8033761 7.89178564,16.7250542 8.08,16.53 L10.58,14.03 C10.7206955,13.8895047 10.7997543,13.698832 10.7997543,13.5 C10.7997543,13.301168 10.7206955,13.1104953 10.58,12.97 L8.08,10.47 C7.78585035,10.1856289 7.31806646,10.1894718 7.02862843,10.478637 C6.73919039,10.7678023 6.73490644,11.2355823 7.019,11.53 L8.812,13.323 C8.85902085,13.3699021 8.88544689,13.4335864 8.88544689,13.5 C8.88544689,13.5664136 8.85902085,13.6300979 8.812,13.677 L7.019,15.47 Z" id="Shape"></path>
                <path d="M12.55,15.75 L16.55,15.75 C16.9642136,15.75 17.3,15.4142136 17.3,15 C17.3,14.5857864 16.9642136,14.25 16.55,14.25 L12.55,14.25 C12.1357864,14.25 11.8,14.5857864 11.8,15 C11.8,15.4142136 12.1357864,15.75 12.55,15.75 Z" id="Shape"></path>
                <path d="M24,4.75 C24,3.09314575 22.6568542,1.75 21,1.75 L3,1.75 C1.34314575,1.75 0,3.09314575 0,4.75 L0,19.25 C0,20.9068542 1.34314575,22.25 3,22.25 L21,22.25 C22.6568542,22.25 24,20.9068542 24,19.25 L24,4.75 Z M9.654,3.75 C9.82390498,3.4417474 10.1480236,3.25030462 10.5,3.25030462 C10.8519764,3.25030462 11.176095,3.4417474 11.346,3.75 C11.4422064,3.89939418 11.4954817,4.07236588 11.5,4.25 C11.4954817,4.42763412 11.4422064,4.60060582 11.346,4.75 C11.176095,5.0582526 10.8519764,5.24969538 10.5,5.24969538 C10.1480236,5.24969538 9.82390498,5.0582526 9.654,4.75 C9.55779358,4.60060582 9.5045183,4.42763412 9.5,4.25 C9.5045183,4.07236588 9.55779358,3.89939418 9.654,3.75 L9.654,3.75 Z M6.154,3.75 C6.32390498,3.4417474 6.64802363,3.25030462 7,3.25030462 C7.35197637,3.25030462 7.67609502,3.4417474 7.846,3.75 C7.94220642,3.89939418 7.9954817,4.07236588 8,4.25 C7.9954817,4.42763412 7.94220642,4.60060582 7.846,4.75 C7.67609502,5.0582526 7.35197637,5.24969538 7,5.24969538 C6.64802363,5.24969538 6.32390498,5.0582526 6.154,4.75 C6.05779358,4.60060582 6.0045183,4.42763412 6,4.25 C6.0045183,4.07236588 6.05779358,3.89939418 6.154,3.75 Z M2.592,3.842 C2.75219526,3.48351784 3.10735748,3.25195832 3.5,3.25 C3.85093848,3.25404709 4.17321472,3.44451768 4.346,3.75 C4.44220642,3.89939418 4.4954817,4.07236588 4.5,4.25 C4.4954817,4.42763412 4.44220642,4.60060582 4.346,4.75 C4.17609502,5.0582526 3.85197637,5.24969538 3.5,5.24969538 C3.14802363,5.24969538 2.82390498,5.0582526 2.654,4.75 C2.55779358,4.60060582 2.5045183,4.42763412 2.5,4.25 C2.50091882,4.10896068 2.53230155,3.96978509 2.592,3.842 L2.592,3.842 Z M22,19.25 C22,19.8022847 21.5522847,20.25 21,20.25 L3,20.25 C2.44771525,20.25 2,19.8022847 2,19.25 L2,7 C2,6.86192881 2.11192881,6.75 2.25,6.75 L21.75,6.75 C21.8880712,6.75 22,6.86192881 22,7 L22,19.25 Z" id="Shape"></path>
            </g>
        </g>
    </g>
</svg>