<?xml version="1.0" encoding="UTF-8"?>
<svg viewBox="0 0 24 24" version="1.1" xmlns="http://www.w3.org/2000/svg">
    <title>thermostat_24</title>
    <g id="Device-Types" stroke="none" stroke-width="1" fill="current" fill-rule="evenodd">
        <g id="Smart-Home" transform="translate(-208.000000, -8.000000)" fill="current" fill-rule="nonzero">
            <g id="thermostat_24" transform="translate(208.000000, 8.000000)">
                <g id="Bold" transform="translate(1.000000, 0.000000)">
                    <path d="M12.524,15.76704 C12.3482239,15.5888958 12.2501776,15.3528978 12.25,15.10752 L12.25,2.88 C12.25,1.28941992 10.9068542,0 9.25,0 C7.59314575,0 6.25,1.28941992 6.25,2.88 L6.25,15.10656 C6.25007813,15.3522696 6.15201373,15.5886549 5.976,15.76704 C5.18730289,16.5635829 4.74827893,17.6210219 4.74998591,18.72 C4.74496598,20.6608784 6.0888775,22.366722 8.03562532,22.8904851 C9.98237314,23.4142482 12.0540007,22.6273388 13.1003873,20.9666313 C14.146774,19.3059237 13.9110156,17.1791473 12.524,15.76704 L12.524,15.76704 Z M9.25,20.6400007 C8.34412937,20.6407162 7.55086944,20.0568336 7.31646841,19.2168153 C7.08206739,18.376797 7.46506252,17.4904219 8.25,17.05632 C8.40469661,16.9705784 8.49999546,16.8121231 8.5,16.64064 L8.5,11.52 C8.5,11.122355 8.83578644,10.8 9.25,10.8 C9.66421356,10.8 10,11.122355 10,11.52 L10,16.6416 C10.0000045,16.8130831 10.0953034,16.9715384 10.25,17.05728 C11.0338825,17.4918028 11.4160417,18.37758 11.1817619,19.2169389 C10.9474821,20.0562978 10.1551761,20.6400007 9.25,20.6400007 Z" id="Shape"></path>
                    <path d="M19.25,11.52 C19.25,12.0501934 18.8022847,12.48 18.25,12.48 L14.75,12.48 C14.1977153,12.48 13.75,12.0501934 13.75,11.52 C13.75,10.9898066 14.1977153,10.56 14.75,10.56 L18.25,10.56 C18.8022847,10.56 19.25,10.9898066 19.25,11.52 Z" id="Shape"></path>
                    <path d="M15.75,3.84 L14.75,3.84 C14.1977153,3.84 13.75,3.41019336 13.75,2.88 C13.75,2.34980664 14.1977153,1.92 14.75,1.92 L15.75,1.92 C16.3022847,1.92 16.75,2.34980664 16.75,2.88 C16.75,3.41019336 16.3022847,3.84 15.75,3.84 Z" id="Shape"></path>
                    <path d="M15.75,8.16 L14.75,8.16 C14.1977153,8.16 13.75,7.73019336 13.75,7.2 C13.75,6.66980664 14.1977153,6.24 14.75,6.24 L15.75,6.24 C16.3022847,6.24 16.75,6.66980664 16.75,7.2 C16.75,7.73019336 16.3022847,8.16 15.75,8.16 Z" id="Shape"></path>
                </g>
            </g>
        </g>
    </g>
</svg>