<?xml version="1.0" encoding="UTF-8"?>
<svg viewBox="0 0 24 24" version="1.1" xmlns="http://www.w3.org/2000/svg">
    <title>toy_24</title>
    <g id="Device-Types" stroke="none" stroke-width="1" fill="current" fill-rule="evenodd">
        <g id="Smart-Home" transform="translate(-128.000000, -88.000000)" fill="current" fill-rule="nonzero">
            <g id="toys-teddy-bear" transform="translate(128.000000, 88.000000)">
                <circle id="Oval" cx="12.48" cy="7.2" r="1"></circle>
                <path d="M23.76,9.57408 C23.4973934,9.0622046 23.0413538,8.67630623 22.4930812,8.5020197 C21.9448085,8.32773317 21.3496509,8.37947386 20.83968,8.64576 L17.1504,10.63968 C17.0467479,10.6959865 16.9175186,10.6682654 16.84608,10.5744 C16.7353268,10.4266557 16.7454078,10.2210039 16.87008,10.0848 C17.8705109,9.01423401 18.4430572,7.61361356 18.47904,6.1488 C18.4835781,5.93032532 18.6351092,5.74248993 18.84768,5.69184 C19.9085444,5.43975021 20.7052713,4.56138031 20.8529998,3.48102906 C21.0007283,2.40067781 20.4690586,1.34066141 19.5148151,0.813023387 C18.5605716,0.285385366 17.3801199,0.398703824 16.54368,1.09824 C16.3759645,1.23821825 16.1348845,1.24729328 15.95712,1.12032 C13.8766861,-0.369612172 11.0785139,-0.369612172 8.99808,1.12032 C8.82031554,1.24729328 8.57923555,1.23821825 8.41152,1.09824 C7.57508012,0.398703824 6.39462837,0.285385366 5.44038487,0.813023387 C4.48614137,1.34066141 3.9544717,2.40067781 4.1022002,3.48102906 C4.24992871,4.56138031 5.0466556,5.43975021 6.10752,5.69184 C6.32009085,5.74248993 6.47162191,5.93032532 6.47616,6.1488 C6.51196462,7.61365085 7.08453583,9.01433221 8.08512,10.0848 C8.21185142,10.2196443 8.22241181,10.4263842 8.11008,10.57344 C8.03830761,10.6674513 7.90874368,10.6951568 7.8048,10.63872 L4.10784,8.64 C3.5983988,8.37810085 3.0057622,8.32938345 2.4603904,8.50457221 C1.9150186,8.67976098 1.46161871,9.06449472 1.2,9.57408 C0.654197732,10.6314462 1.06680359,11.9310903 2.12256,12.48 L6.26688,14.71008 C6.43777611,14.8018481 6.53664082,14.9874562 6.51744,15.18048 C6.50912,15.27328 6.50144,15.36544 6.4944,15.45696 C6.4800731,15.6777154 6.31672913,15.8600897 6.09888,15.89856 C4.57163304,16.1650459 3.38651796,17.3793509 3.15726454,18.9126287 C2.92801112,20.4459065 3.70611475,21.953749 5.08862271,22.6552972 C6.47113066,23.3568453 8.147501,23.0945158 9.2496,22.00416 C9.39665919,21.8588819 9.62021165,21.8240727 9.80448,21.91776 C11.4848145,22.779255 13.4771055,22.779255 15.15744,21.91776 C15.3415081,21.8238265 15.5650357,21.8582451 15.71232,22.0032 C16.8145183,23.0917964 18.489649,23.3529567 19.8709177,22.6515438 C21.2521864,21.9501309 22.0296456,20.4435371 21.801,18.9113477 C21.5723544,17.3791583 20.3889105,16.1651863 18.86304,15.8976 C18.6451909,15.8591297 18.4818469,15.6767554 18.46752,15.456 C18.4608,15.36 18.45312,15.27264 18.44352,15.17856 C18.4239136,14.985204 18.5228371,14.7991066 18.69408,14.7072 L22.824,12.48 C23.3341063,12.2189102 23.719428,11.7656609 23.8950112,11.2201823 C24.0705945,10.6747038 24.022021,10.0817886 23.76,9.57216 L23.76,9.57408 Z M14.88,3.12 C15.277645,3.12 15.6,3.44235498 15.6,3.84 C15.6,4.23764502 15.277645,4.56 14.88,4.56 C14.482355,4.56 14.16,4.23764502 14.16,3.84 C14.16,3.44235498 14.482355,3.12 14.88,3.12 Z M10.08,3.12 C10.477645,3.12 10.8,3.44235498 10.8,3.84 C10.8,4.23764502 10.477645,4.56 10.08,4.56 C9.68235498,4.56 9.36,4.23764502 9.36,3.84 C9.36,3.44235498 9.68235498,3.12 10.08,3.12 Z M12.48,5.04 C14.2031284,5.04 15.6,6.43687158 15.6,8.16 C15.6,9.88312842 14.2031284,11.28 12.48,11.28 C10.7568716,11.28 9.36,9.88312842 9.36,8.16 C9.36,6.43687158 10.7568716,5.04 12.48,5.04 Z M14.64864,19.68672 C14.6614811,19.8736336 14.5643959,20.0509359 14.4,20.1408 C13.2068258,20.8075443 11.7531742,20.8075443 10.56,20.1408 C10.3966769,20.0505549 10.3004551,19.8738362 10.31328,19.68768 C10.3853836,18.6415172 9.99602295,17.6162008 9.24768,16.8816 C9.08605291,16.7223433 9.05802162,16.4716635 9.18048,16.28064 C9.85336873,15.0972624 11.1189038,14.3759406 12.48,14.4 C13.8397326,14.3763736 15.1046502,15.0943495 15.78144,16.27392 C15.905201,16.4651418 15.8775274,16.7170115 15.7152,16.8768 C14.9655591,17.6121967 14.5757692,18.6391229 14.64864,19.68672 L14.64864,19.68672 Z" id="Shape"></path>
            </g>
        </g>
    </g>
</svg>