<?xml version="1.0" encoding="UTF-8"?>
<svg viewBox="0 0 24 24" version="1.1" xmlns="http://www.w3.org/2000/svg">
    <title>usb_24</title>
    <g id="Device-Types" stroke="none" stroke-width="1" fill="current" fill-rule="evenodd">
        <g id="Network" transform="translate(-327.000000, -8.000000)" fill="current" fill-rule="nonzero">
            <g id="usb-cable-1" transform="translate(327.000000, 8.000000)">
                <path d="M18.167,10.029 C18.0668788,9.993761 17.9999235,9.89914161 18,9.793 L18,2 C18,0.8954305 17.1045695,0 16,0 L8,0 C6.8954305,0 6,0.8954305 6,2 L6,9.793 C6.00007648,9.89914161 5.93312123,9.993761 5.833,10.029 C5.63349817,10.0996933 5.5,10.2883434 5.5,10.5 L5.5,18.5 C5.5,19.8807119 6.61928813,21 8,21 L10.25,21 C10.3880712,21 10.5,21.1119288 10.5,21.25 L10.5,22.5 C10.5,23.3284271 11.1715729,24 12,24 C12.8284271,24 13.5,23.3284271 13.5,22.5 L13.5,21.25 C13.5,21.1119288 13.6119288,21 13.75,21 L16,21 C17.3807119,21 18.5,19.8807119 18.5,18.5 L18.5,10.5 C18.5,10.2883434 18.3665018,10.0996933 18.167,10.029 Z M7.999998,2.251 C7.99973409,2.18452278 8.02595586,2.1206771 8.07286881,2.0735765 C8.11978176,2.02647591 8.18352225,2 8.25,2 L15.75,2 C15.8880712,2 15.999998,2.11192881 15.999998,2.25 L15.999998,9.25 C15.999998,9.38807119 15.8880712,9.5 15.75,9.5 L8.25,9.5 C8.1123184,9.5 8.00055073,9.3886805 7.999998,9.251 L7.999998,2.251 Z" id="Shape"></path>
                <rect id="Rectangle-path" x="9" y="3.501" width="2" height="2" rx="0.5"></rect>
                <rect id="Rectangle-path" x="13" y="3.501" width="2" height="2" rx="0.5"></rect>
            </g>
        </g>
    </g>
</svg>