<?xml version="1.0" encoding="UTF-8"?>
<svg viewBox="0 0 24 24" version="1.1" xmlns="http://www.w3.org/2000/svg" xmlns:xlink="http://www.w3.org/1999/xlink">
    <title>virtual_machine_24</title>
    <g id="Device-Types" stroke="none" stroke-width="1" fill="current" fill-rule="evenodd">
        <g id="Server" transform="translate(-8.000000, -8.000000)" fill="current" fill-rule="nonzero">
            <g id="app-window-four" transform="translate(8.000000, 8.000000)">
                <path d="M3,11 L8.5,11 C10.0180977,10.9983466 11.2483466,9.76809767 11.25,8.25 L11.25,3.75 C11.248897,2.23167406 10.0183259,1.00110303 8.5,1 L3,1 C1.48128386,1.00110362 0.250551458,2.23228355 0.25,3.751 L0.25,8.251 C0.252204271,9.76870713 1.48229216,10.9983477 3,11 Z M1.749998,4.751 C1.74973409,4.68452278 1.77595586,4.6206771 1.82286881,4.5735765 C1.86978176,4.52647591 1.93352225,4.5 2,4.5 L9.5,4.5 C9.63807119,4.5 9.749998,4.61192881 9.749998,4.75 L9.749998,8.25 C9.7488988,8.93989929 9.18989929,9.4988988 8.5,9.5 L3,9.5 C2.31010071,9.4988988 1.7511012,8.93989929 1.749998,8.25 L1.749998,4.751 Z" id="Shape"></path>
                <path d="M12.75,8.251 C12.7522043,9.76870713 13.9822922,10.9983477 15.5,11 L21,11 C22.5180977,10.9983466 23.7483466,9.76809767 23.75,8.25 L23.75,3.75 C23.748897,2.23167406 22.5183259,1.00110303 21,1 L15.5,1 C13.9816741,1.00110303 12.751103,2.23167406 12.75,3.75 L12.75,8.251 Z M14.25,4.751 C14.25,4.61292881 14.3619288,4.501 14.5,4.501 L22,4.501 C22.1380712,4.501 22.25,4.61292881 22.25,4.751 L22.25,8.251 C22.2483487,8.94050874 21.6895098,9.49890052 21,9.5 L15.5,9.5 C14.8101007,9.4988988 14.2511012,8.93989929 14.25,8.25 L14.25,4.751 Z" id="Shape"></path>
                <path d="M3,23 L8.5,23 C10.0180977,22.9983466 11.2483466,21.7680977 11.25,20.25 L11.25,15.75 C11.248897,14.2316741 10.0183259,13.001103 8.5,13 L3,13 C1.48167406,13.001103 0.251103034,14.2316741 0.25,15.75 L0.25,20.25 C0.251653402,21.7680977 1.48190233,22.9983466 3,23 L3,23 Z M1.75,16.75 C1.75,16.6119288 1.86192881,16.5 2,16.5 L9.5,16.5 C9.63807119,16.5 9.75,16.6119288 9.75,16.75 L9.75,20.25 C9.7488988,20.9398993 9.18989929,21.4988988 8.5,21.5 L3,21.5 C2.31010071,21.4988988 1.7511012,20.9398993 1.75,20.25 L1.75,16.75 Z" id="Shape"></path>
                <path d="M12.75,20.251 C12.7522043,21.7687071 13.9822922,22.9983477 15.5,23 L21,23 C22.5180977,22.9983466 23.7483466,21.7680977 23.75,20.25 L23.75,15.75 C23.748897,14.2316741 22.5183259,13.001103 21,13 L15.5,13 C13.9816741,13.001103 12.751103,14.2316741 12.75,15.75 L12.75,20.251 Z M14.25,16.751 C14.25,16.6129288 14.3619288,16.501 14.5,16.501 L22,16.501 C22.1380712,16.501 22.25,16.6129288 22.25,16.751 L22.25,20.251 C22.2483487,20.9405087 21.6895098,21.4989005 21,21.5 L15.5,21.5 C14.8101007,21.4988988 14.2511012,20.9398993 14.25,20.25 L14.25,16.751 Z" id="Shape"></path>
            </g>
        </g>
    </g>
</svg>