<?xml version="1.0" encoding="UTF-8"?>
<svg viewBox="0 0 24 24" version="1.1" xmlns="http://www.w3.org/2000/svg">
    <title>voice_control_24</title>
    <g id="Device-Types" stroke="none" stroke-width="1" fill="current" fill-rule="evenodd">
        <g id="Smart-Home" transform="translate(-168.000000, -8.000000)" fill="current" fill-rule="nonzero">
            <g id="voice-id" transform="translate(168.000000, 8.000000)">
                <path d="M4,9 L4,15 C4,15.5522847 4.44771525,16 5,16 C5.55228475,16 6,15.5522847 6,15 L6,9 C6,8.44771525 5.55228475,8 5,8 C4.44771525,8 4,8.44771525 4,9 Z" id="Shape"></path>
                <path d="M8.5,6.5 C7.94771525,6.5 7.5,6.94771525 7.5,7.5 L7.5,16.5 C7.5,17.0522847 7.94771525,17.5 8.5,17.5 C9.05228475,17.5 9.5,17.0522847 9.5,16.5 L9.5,7.5 C9.5,6.94771525 9.05228475,6.5 8.5,6.5 Z" id="Shape"></path>
                <path d="M20,15 L20,9 C20,8.44771525 19.5522847,8 19,8 C18.4477153,8 18,8.44771525 18,9 L18,15 C18,15.5522847 18.4477153,16 19,16 C19.5522847,16 20,15.5522847 20,15 Z" id="Shape"></path>
                <path d="M16.5,7.5 C16.5,6.94771525 16.0522847,6.5 15.5,6.5 C14.9477153,6.5 14.5,6.94771525 14.5,7.5 L14.5,16.5 C14.5,17.0522847 14.9477153,17.5 15.5,17.5 C16.0522847,17.5 16.5,17.0522847 16.5,16.5 L16.5,7.5 Z" id="Shape"></path>
                <path d="M12,3.5 C11.4477153,3.5 11,3.94771525 11,4.5 L11,19.5 C11,20.0522847 11.4477153,20.5 12,20.5 C12.5522847,20.5 13,20.0522847 13,19.5 L13,4.5 C13,3.94771525 12.5522847,3.5 12,3.5 Z" id="Shape"></path>
                <path d="M6.5,22 L2.25,22 C2.11192881,22 2,21.8880712 2,21.75 L2,17.5 C2,16.9477153 1.55228475,16.5 1,16.5 C0.44771525,16.5 0,16.9477153 0,17.5 L0,22 C0,23.1045695 0.8954305,24 2,24 L6.5,24 C7.05228475,24 7.5,23.5522847 7.5,23 C7.5,22.4477153 7.05228475,22 6.5,22 Z" id="Shape"></path>
                <path d="M1,7.5 C1.55228475,7.5 2,7.05228475 2,6.5 L2,2.25 C2,2.11192881 2.11192881,2 2.25,2 L6.5,2 C7.05228475,2 7.5,1.55228475 7.5,1 C7.5,0.44771525 7.05228475,0 6.5,0 L2,0 C0.8954305,0 0,0.8954305 0,2 L0,6.5 C0,7.05228475 0.44771525,7.5 1,7.5 Z" id="Shape"></path>
                <path d="M23,16.5 C22.4477153,16.5 22,16.9477153 22,17.5 L22,21.75 C22,21.8880712 21.8880712,22 21.75,22 L17.5,22 C16.9477153,22 16.5,22.4477153 16.5,23 C16.5,23.5522847 16.9477153,24 17.5,24 L22,24 C23.1045695,24 24,23.1045695 24,22 L24,17.5 C24,16.9477153 23.5522847,16.5 23,16.5 Z" id="Shape"></path>
                <path d="M22,0 L17.5,0 C16.9477153,0 16.5,0.44771525 16.5,1 C16.5,1.55228475 16.9477153,2 17.5,2 L21.75,2 C21.8880712,2 22,2.11192881 22,2.25 L22,6.5 C22,7.05228475 22.4477153,7.5 23,7.5 C23.5522847,7.5 24,7.05228475 24,6.5 L24,2 C24,0.8954305 23.1045695,0 22,0 Z" id="Shape"></path>
            </g>
        </g>
    </g>
</svg>