<?xml version="1.0" encoding="UTF-8"?>
<svg viewBox="0 0 24 24" version="1.1" xmlns="http://www.w3.org/2000/svg">
    <title>voip_24</title>
    <g id="Device-Types" stroke="none" stroke-width="1" fill="current" fill-rule="evenodd">
        <g id="Home-&amp;-Office" transform="translate(-368.000000, -8.000000)" fill="current" fill-rule="nonzero">
            <g id="streamline-icon-answer-machine@24x24" transform="translate(368.000000, 8.000000)">
                <path d="M22.249998,6.24999798 L12,6.24999798 C11.9336143,6.24973285 11.8698705,6.27598627 11.8229284,6.3229284 C11.7759863,6.36987053 11.7497329,6.43361434 11.749998,6.5 L11.749998,22 C11.7497329,22.0663857 11.7759863,22.1301295 11.8229284,22.1770716 C11.8698705,22.2240137 11.9336143,22.2502671 12,22.249998 L22.249998,22.249998 C23.0784271,22.249998 23.749998,21.5784271 23.749998,20.749998 L23.749998,7.74999798 C23.749998,6.92157288 23.0784271,6.24999798 22.249998,6.24999798 Z M18,16 C17.4477153,16 17,15.5522847 17,15 C17,14.4477153 17.4477153,14 18,14 C18.5522847,14 19,14.4477153 19,15 C19,15.5522847 18.5522847,16 18,16 Z M19,18.75 C19,19.3022847 18.5522847,19.75 18,19.75 C17.4477153,19.75 17,19.3022847 17,18.75 C17,18.1977153 17.4477153,17.75 18,17.75 C18.5522847,17.75 19,18.1977153 19,18.75 Z M14.75,11.75 C14.4623785,11.761275 14.2199104,11.5375958 14.208,11.25 L14.208,9.25 C14.2199104,8.96240415 14.4623785,8.73872504 14.75,8.75 L20.709,8.75 C20.9964161,8.73928171 21.2385513,8.96265367 21.251,9.25 L21.251,11.25 C21.2385513,11.5373463 20.9964161,11.7607183 20.709,11.75 L14.75,11.75 Z M14.75,16 C14.1977153,16 13.75,15.5522847 13.75,15 C13.75,14.4477153 14.1977153,14 14.75,14 C15.3022847,14 15.75,14.4477153 15.75,15 C15.75,15.5522847 15.3022847,16 14.75,16 Z M15.75,18.75 C15.75,19.3022847 15.3022847,19.75 14.75,19.75 C14.1977153,19.75 13.75,19.3022847 13.75,18.75 C13.75,18.1977153 14.1977153,17.75 14.75,17.75 C15.3022847,17.75 15.75,18.1977153 15.75,18.75 Z M21.25,16 C20.6977153,16 20.25,15.5522847 20.25,15 C20.25,14.4477153 20.6977153,14 21.25,14 C21.8022847,14 22.25,14.4477153 22.25,15 C22.25,15.5522847 21.8022847,16 21.25,16 Z M22.25,18.75 C22.25,19.3022847 21.8022847,19.75 21.25,19.75 C20.6977153,19.75 20.25,19.3022847 20.25,18.75 C20.25,18.1977153 20.6977153,17.75 21.25,17.75 C21.8022847,17.75 22.25,18.1977153 22.25,18.75 Z" id="Shape"></path>
                <path d="M2.5,6.25 L1.75,6.25 C0.921572875,6.25 0.25,6.92157288 0.25,7.75 L0.25,20.75 C0.25,21.5784271 0.921572875,22.25 1.75,22.25 L2.5,22.25 C2.63807119,22.25 2.75,22.1380712 2.75,22 L2.75,6.5 C2.75,6.36192881 2.63807119,6.25 2.5,6.25 Z" id="Path"></path>
                <path d="M8.25,3.75 L7.25,3.75 L7.25,1.25 C7.25,0.69771525 6.80228475,0.25 6.25,0.25 C5.69771525,0.25 5.25,0.69771525 5.25,1.25 L5.25,4.028 C4.63279699,4.38195857 4.25152678,5.03850587 4.25,5.75 L4.25,21.75 C4.25,22.8545695 5.1454305,23.75 6.25,23.75 L8.25,23.75 C9.3545695,23.75 10.25,22.8545695 10.25,21.75 L10.25,5.75 C10.25,4.6454305 9.3545695,3.75 8.25,3.75 Z" id="Path"></path>
            </g>
        </g>
    </g>
</svg>