<?xml version="1.0" encoding="UTF-8"?>
<svg viewBox="0 0 24 24" version="1.1" xmlns="http://www.w3.org/2000/svg">
    <title>vpn_24</title>
    <g id="Device-Types" stroke="none" stroke-width="1" fill="current" fill-rule="evenodd">
        <g id="Network" transform="translate(-247.000000, -8.000000)" fill="current" fill-rule="nonzero">
            <g id="vpn_24" transform="translate(247.000000, 8.000000)">
                <g id="security-lock" transform="translate(1.000000, 0.000000)">
                    <path d="M21.0833333,12.1163077 C21.0833333,10.8418044 20.0106822,9.80861538 18.6875,9.80861538 L18.4479167,9.80861538 C18.1832802,9.80861538 17.96875,9.60197758 17.96875,9.34707692 L17.96875,7.03938462 C17.96875,3.59822579 15.072592,0.808615385 11.5,0.808615385 C7.92740802,0.808615385 5.03125,3.59822579 5.03125,7.03938462 L5.03125,9.34707692 C5.03125,9.60197758 4.81671978,9.80861538 4.55208333,9.80861538 L4.3125,9.80861538 C2.98931779,9.80861538 1.91666667,10.8418044 1.91666667,12.1163077 L1.91666667,13.5009231 C1.91666667,14.7754263 2.98931779,15.8086154 4.3125,15.8086154 L18.6875,15.8086154 C20.0106822,15.8086154 21.0833333,14.7754263 21.0833333,13.5009231 L21.0833333,12.1163077 Z M5.27083333,13.5009231 C4.74156045,13.5009231 4.3125,13.0876475 4.3125,12.5778462 C4.3125,12.0680448 4.74156045,11.6547692 5.27083333,11.6547692 C5.80010622,11.6547692 6.22916667,12.0680448 6.22916667,12.5778462 C6.22863777,13.0872869 5.79973219,13.5000003 5.27083333,13.5 L5.27083333,13.5009231 Z M9.10416667,13.5009231 C8.57489378,13.5009231 8.14583333,13.0876475 8.14583333,12.5778462 C8.14583333,12.0680448 8.57489378,11.6547692 9.10416667,11.6547692 C9.63343955,11.6547692 10.0625,12.0680448 10.0625,12.5778462 C10.0619711,13.0872869 9.63306553,13.5000003 9.10416667,13.5 L9.10416667,13.5009231 Z M15.5729167,9.34707692 C15.5729167,9.60197758 15.3583864,9.80861538 15.09375,9.80861538 L7.90625,9.80861538 C7.64161356,9.80861538 7.42708333,9.60197758 7.42708333,9.34707692 L7.42708333,7.03938462 C7.42708333,4.87272908 9.25059026,3.11630775 11.5,3.11630775 C13.7494097,3.11630775 15.5729167,4.87272908 15.5729167,7.03938462 L15.5729167,9.34707692 Z" id="Shape"></path>
                    <path d="M18.6875,17.1923077 L4.3125,17.1923077 C2.98931779,17.1923077 1.91666667,18.2254967 1.91666667,19.5 L1.91666667,20.8846154 C1.91666667,22.1591187 2.98931779,23.1923077 4.3125,23.1923077 L18.6875,23.1923077 C20.0106822,23.1923077 21.0833333,22.1591187 21.0833333,20.8846154 L21.0833333,19.5 C21.0833333,18.2254967 20.0106822,17.1923077 18.6875,17.1923077 Z M5.27083333,20.8846154 C4.74156045,20.8846154 4.3125,20.4713398 4.3125,19.9615385 C4.3125,19.4517372 4.74156045,19.0384615 5.27083333,19.0384615 C5.80010622,19.0384615 6.22916667,19.4517372 6.22916667,19.9615385 C6.22916667,20.4713398 5.80010622,20.8846154 5.27083333,20.8846154 Z M9.10416667,20.8846154 C8.57489378,20.8846154 8.14583333,20.4713398 8.14583333,19.9615385 C8.14583333,19.4517372 8.57489378,19.0384615 9.10416667,19.0384615 C9.63343955,19.0384615 10.0625,19.4517372 10.0625,19.9615385 C10.0625,20.4713398 9.63343955,20.8846154 9.10416667,20.8846154 Z" id="Shape"></path>
                </g>
            </g>
        </g>
    </g>
</svg>