<?xml version="1.0" encoding="UTF-8"?>
<svg viewBox="0 0 24 24" version="1.1" xmlns="http://www.w3.org/2000/svg">
    <title>washer_24</title>
    <g id="Device-Types" stroke="none" stroke-width="1" fill="current" fill-rule="evenodd">
        <g id="Smart-Home" transform="translate(-48.000000, -48.000000)" fill="current" fill-rule="nonzero">
            <g id="laundry-machine-1" transform="translate(48.000000, 48.000000)">
                <path d="M22.5,0 L1.5,0 C0.671572875,0 0,0.671572875 0,1.5 L0,5.25 C0,5.52614237 0.223857625,5.75 0.5,5.75 L5.384,5.75 C5.42892618,5.74879815 5.47246304,5.73416977 5.509,5.708 C9.44295559,3.09736767 14.5580444,3.09736767 18.492,5.708 C18.5281716,5.73414653 18.5713845,5.74878313 18.616,5.75 L23.5,5.75 C23.7761424,5.75 24,5.52614237 24,5.25 L24,1.5 C24,0.671572875 23.3284271,0 22.5,0 Z M17.75,3.75 C17.3357864,3.75 17,3.41421356 17,3 C17,2.58578644 17.3357864,2.25 17.75,2.25 C18.1642136,2.25 18.5,2.58578644 18.5,3 C18.5,3.19891237 18.4209824,3.3896778 18.2803301,3.53033009 C18.1396778,3.67098237 17.9489124,3.75 17.75,3.75 Z M20.75,3.75 C20.3357864,3.75 20,3.41421356 20,3 C20,2.58578644 20.3357864,2.25 20.75,2.25 C21.1642136,2.25 21.5,2.58578644 21.5,3 C21.5,3.19891237 21.4209824,3.3896778 21.2803301,3.53033009 C21.1396778,3.67098237 20.9489124,3.75 20.75,3.75 Z" id="Shape"></path>
                <path d="M23.5,7.25 L18.616,7.25 C18.2747644,7.24900658 17.9415731,7.14629872 17.659,6.955 C14.2162558,4.72491464 9.78474417,4.72491464 6.342,6.955 C6.0590121,7.14621253 5.72553064,7.24890254 5.384,7.25 L0.5,7.25 C0.223857625,7.25 0,7.47385763 0,7.75 L0,22.5 C0,23.3284271 0.671572875,24 1.5,24 L22.5,24 C23.3284271,24 24,23.3284271 24,22.5 L24,7.75 C24,7.47385763 23.7761424,7.25 23.5,7.25 Z M12,21 C8.41014913,21 5.5,18.0898509 5.5,14.5 C5.5,10.9101491 8.41014913,8 12,8 C15.5898509,8 18.5,10.9101491 18.5,14.5 C18.5,18.0898509 15.5898509,21 12,21 Z" id="Shape"></path>
                <path d="M12,10 C9.51471863,10 7.5,12.0147186 7.5,14.5 C7.5,16.9852814 9.51471863,19 12,19 C14.4852814,19 16.5,16.9852814 16.5,14.5 C16.4972444,12.0158609 14.4841391,10.0027556 12,10 Z M12,17 C10.6192881,17 9.5,15.8807119 9.5,14.5 C9.5,13.1192881 10.6192881,12 12,12 C13.3807119,12 14.5,13.1192881 14.5,14.5 C14.5,15.8807119 13.3807119,17 12,17 L12,17 Z" id="Shape"></path>
            </g>
        </g>
    </g>
</svg>