<?xml version="1.0" encoding="UTF-8"?>
<svg viewBox="0 0 24 24" version="1.1" xmlns="http://www.w3.org/2000/svg">
    <title>watch_24</title>
    <g id="Device-Types" stroke="none" stroke-width="1" fill="current" fill-rule="evenodd">
        <g id="Mobile" transform="translate(-250.000000, -8.000000)" fill="current" fill-rule="nonzero">
            <g id="smart-watch-square-alternate" transform="translate(250.000000, 8.000000)">
                <path d="M21,5.99999998 C21,4.34314575 19.6568542,2.99999998 18,2.99999998 L16.922,2.99999998 C16.8102166,3.00008233 16.7120782,2.92566072 16.682,2.818 L15.98,0.365 C15.9196235,0.149684809 15.7236192,0.000639882284 15.5,-1.8453174e-08 L8.5,-1.8453174e-08 C8.27657071,-1.8453174e-08 8.08021962,0.148121403 8.019,0.363 L7.319,2.818 C7.28902924,2.92658697 7.18963922,3.00133483 7.077,2.99999998 L6,2.99999998 C4.34314575,2.99999998 3,4.34314575 3,5.99999998 L3,18 C3,19.6568542 4.34314575,21 6,21 L7.077,21 C7.18850235,20.9997918 7.2865497,21.0737359 7.317,21.181 L8.017,23.637 C8.07842119,23.8525938 8.27582967,24.0009567 8.5,24 L15.5,24 C15.7230585,23.9996141 15.9188822,23.8515224 15.98,23.637 L16.68,21.181 C16.7107435,21.073937 16.8086105,21.000129 16.92,21 L18,21 C19.6568542,21 21,19.6568542 21,18 L21,5.99999998 Z M19,18 C19,18.5522847 18.5522847,19 18,19 L6,19 C5.44771525,19 5,18.5522847 5,18 L5,6 C5,5.44771525 5.44771525,5 6,5 L18,5 C18.5522847,5 19,5.44771525 19,6 L19,18 Z" id="Shape"></path>
            </g>
        </g>
    </g>
</svg>