<?xml version="1.0" encoding="UTF-8"?>
<svg viewBox="0 0 24 24" version="1.1" xmlns="http://www.w3.org/2000/svg">
    <title>wearable_24</title>
    <g id="Device-Types" stroke="none" stroke-width="1" fill="current" fill-rule="evenodd">
        <g id="Mobile" transform="translate(-290.000000, -8.000000)" fill="current" fill-rule="nonzero">
            <g id="smart-watch-wrist-alternate" transform="translate(290.000000, 8.000000)">
                <path d="M23.971,17.58 L23.155,12.4 C22.8675832,10.4397507 21.1811829,8.99000081 19.2,8.99994859 L15.47,8.99994859 C14.4258728,9.00012935 13.3998106,9.27241324 12.493,9.79 L10.376,11 L9.349,11 C9.24285839,11.0000765 9.148239,10.9331212 9.113,10.833 C9.0421843,10.6331521 8.85302349,10.4996975 8.641,10.5 L4.641,10.5 C4.42934343,10.5001213 4.24069327,10.6334982 4.17,10.833 C4.134761,10.9331212 4.04014161,11.0000765 3.934,11 L1,11 C0.44771525,11 0,11.4477153 0,12 C0,12.5522847 0.44771525,13 1,13 L3.06,13 C3.14574686,12.9997792 3.2255746,13.0436931 3.27129414,13.1162348 C3.31701369,13.1887765 3.32219182,13.2797385 3.285,13.357 C3.18961498,13.5579008 3.14041196,13.777606 3.141,14 L3.141,18 C3.14070414,18.2221519 3.19025435,18.4415397 3.286,18.642 C3.32306931,18.7193881 3.31785911,18.8103802 3.27219856,18.8830312 C3.22653801,18.9556822 3.14680809,18.9998393 3.061,19 L1,19 C0.44771525,19 0,19.4477153 0,20 C0,20.5522847 0.44771525,21 1,21 L3.934,21 C4.04014161,20.9999235 4.134761,21.0668788 4.17,21.167 C4.24069327,21.3665018 4.42934343,21.4998787 4.641,21.5 L8.641,21.5 C8.85302349,21.5003025 9.0421843,21.3668479 9.113,21.167 C9.148239,21.0668788 9.24285839,20.9999235 9.349,21 L10.173,21 L10.873,21.841 C12.0115207,23.2112129 13.7015103,24.0026853 15.483,24.0000068 L17.283,24.0000068 C18.8502219,24.0000068 20.1533239,22.793569 20.274,21.231 C20.2843895,21.1010075 20.3925944,21.0006246 20.523,21 L21,21 C21.8684413,20.9997868 22.6941777,20.623253 23.263793,19.967716 C23.8334082,19.3121789 24.0910028,18.4419701 23.97,17.582 L23.971,17.58 Z M5.641,17.967 C5.22701483,17.9664491 4.89155088,17.6309852 4.891,17.217 L4.891,14.717 C4.89209896,14.3032425 5.2272425,13.968099 5.641,13.967 L7.641,13.967 C8.05498517,13.9675509 8.39044912,14.3030148 8.391,14.717 L8.391,17.217 C8.391,17.6312136 8.05521356,17.967 7.641,17.967 L5.641,17.967 Z M21,19 L16.283,19 C15.7307153,19 15.283,19.4477153 15.283,20 C15.283,20.5522847 15.7307153,21 16.283,21 L17.989,21 C18.070378,20.9998259 18.1467482,21.0392714 18.1937089,21.1057326 C18.2406695,21.1721939 18.2523432,21.2573531 18.225,21.334 C18.1747362,21.4741833 18.0941531,21.6015456 17.989,21.707 C17.8025734,21.8955286 17.5481352,22.001124 17.283,22.0000089 L15.483,22.0000089 C14.2959234,22.0011956 13.1699553,21.4737646 12.411,20.561 L11.411,19.361 C11.2208672,19.1327292 10.9390825,19.0008143 10.642,19.001 L10.223,19.001 C10.1372046,18.9999443 10.0578927,18.9551367 10.0127095,18.8821952 C9.96752635,18.8092538 9.9627329,18.7182861 10,18.641 C10.0940594,18.4404693 10.1422278,18.2214909 10.141,18 L10.141,14 C10.1424872,13.7771963 10.0943205,13.5568596 10,13.355 C9.96395361,13.2784 9.96929587,13.188733 10.0141824,13.1169549 C10.059069,13.0451769 10.1373499,13.0011222 10.222,13 L10.641,13 C10.8162977,13.0001361 10.9886125,12.954645 11.141,12.868 L13.488,11.527 C14.0916411,11.182073 14.7747612,11.0004361 15.47,10.999984 L19.2,10.999984 C20.1945985,10.9960471 21.0397044,11.7263381 21.18,12.711 L21.993,17.87 C22.0304584,18.1556941 21.9428627,18.4436614 21.752661,18.6601043 C21.5624594,18.8765473 21.2881389,19.0004282 21,19 L21,19 Z" id="Shape"></path>
                <path d="M5.108,7.277 C4.84001494,7.52203106 4.72591623,7.89307705 4.80992048,8.24634677 C4.89392472,8.5996165 5.16282928,8.87958789 5.51242575,8.97776382 C5.86202223,9.07593975 6.23736587,8.97689029 6.493,8.719 C6.78027797,8.45515429 7.22172203,8.45515429 7.509,8.719 C7.76366309,8.98166842 8.14143836,9.08430138 8.4940048,8.98660342 C8.84657125,8.88890546 9.11764311,8.60647365 9.20079295,8.25019554 C9.28394279,7.89391743 9.16589609,7.52067132 8.893,7.277 C7.83021555,6.27515558 6.17078445,6.27515558 5.108,7.277 L5.108,7.277 Z" id="Shape"></path>
                <path d="M11.321,6.384 C11.5048062,6.19278454 11.6051187,5.93638074 11.5998676,5.67120064 C11.5946165,5.40602054 11.484232,5.15378896 11.293,4.97 C8.8831349,2.69685143 5.1188651,2.69685143 2.709,4.97 C2.31052655,5.35245719 2.29754281,5.98552655 2.68,6.384 C3.06245719,6.78247345 3.69552655,6.79545719 4.094,6.413 C5.72610783,4.87310516 8.27589217,4.87310516 9.908,6.413 C10.3063379,6.79482076 10.9386637,6.78184309 11.321,6.384 Z" id="Shape"></path>
                <path d="M1.694,4.107 C4.67279075,1.29480036 9.32820925,1.29480036 12.307,4.107 C12.5645885,4.3547637 12.9347904,4.44628498 13.2781543,4.34708864 C13.6215182,4.24789231 13.8858789,3.97304866 13.9716543,3.62608863 C14.0574297,3.2791286 13.9515885,2.91276368 13.694,2.665 C9.93611313,-0.880969503 4.06488687,-0.880969503 0.307,2.665 C0.0494115097,2.91276369 -0.0564297177,3.2791286 0.0293456839,3.62608862 C0.115121085,3.97304864 0.379481792,4.24789228 0.722845684,4.34708862 C1.06620958,4.44628495 1.43641151,4.35476369 1.694,4.107 Z" id="Shape"></path>
            </g>
        </g>
    </g>
</svg>