<?xml version="1.0" encoding="UTF-8"?>
<svg viewBox="0 0 24 24" version="1.1" xmlns="http://www.w3.org/2000/svg">
    <title>weather_24</title>
    <g id="Device-Types" stroke="none" stroke-width="1" fill="current" fill-rule="evenodd">
        <g id="Smart-Home" transform="translate(-208.000000, -88.000000)" fill="current" fill-rule="nonzero">
            <g id="Bold" transform="translate(208.000000, 88.000000)">
                <path d="M9.25,3 C9.80228475,3 10.25,2.55228475 10.25,2 L10.25,1 C10.25,0.44771525 9.80228475,0 9.25,0 C8.69771525,0 8.25,0.44771525 8.25,1 L8.25,2 C8.25,2.55228475 8.69771525,3 9.25,3 Z" id="Shape"></path>
                <path d="M3.416,4.83 C3.66707447,5.08995658 4.03887789,5.1942126 4.38850732,5.10269716 C4.73813676,5.01118172 5.01118172,4.73813676 5.10269716,4.38850732 C5.1942126,4.03887789 5.08995658,3.66707447 4.83,3.416 L4.123,2.709 C3.73062111,2.33002779 3.10691522,2.33544763 2.72118142,2.72118142 C2.33544763,3.10691522 2.33002779,3.73062111 2.709,4.123 L3.416,4.83 Z" id="Shape"></path>
                <path d="M3,9.25 C3,8.69771525 2.55228475,8.25 2,8.25 L1,8.25 C0.44771525,8.25 0,8.69771525 0,9.25 C0,9.80228475 0.44771525,10.25 1,10.25 L2,10.25 C2.55228475,10.25 3,9.80228475 3,9.25 Z" id="Shape"></path>
                <path d="M14.377,5.123 C14.6421948,5.12294336 14.8965073,5.01754937 15.084,4.83 L15.791,4.123 C16.1699722,3.73062111 16.1645524,3.10691522 15.7788186,2.72118142 C15.3930848,2.33544763 14.7693789,2.33002779 14.377,2.709 L13.67,3.416 C13.3840921,3.70199425 13.2985781,4.13203662 13.453322,4.50565456 C13.6080659,4.8792725 13.9726041,5.12291365 14.377,5.123 L14.377,5.123 Z" id="Shape"></path>
                <path d="M5.916,11.994 C5.98811236,11.9656659 6.04292604,11.9053784 6.06428884,11.8309026 C6.08565163,11.7564268 6.07112885,11.6762506 6.025,11.614 C4.77414668,9.85972116 5.13752283,7.42989203 6.8468703,6.11830538 C8.55621776,4.80671873 10.9972926,5.08468551 12.368,6.747 C12.4314886,6.82497426 12.5351265,6.85794996 12.632,6.831 C13.1443589,6.68433465 13.6693112,6.5859061 14.2,6.537 C14.2856671,6.52904862 14.3612267,6.477606 14.4000276,6.40081685 C14.4388285,6.32402769 14.4354183,6.23268239 14.391,6.159 C13.2779743,4.26744688 11.2209872,3.13452969 9.02739521,3.20491241 C6.83380323,3.27529514 4.85367295,4.53774569 3.86419499,6.49675891 C2.87471702,8.45577214 3.0337982,10.798717 4.279,12.606 C4.35598505,12.7199954 4.51059972,12.7503821 4.625,12.674 C5.03023941,12.4025921 5.46296453,12.1746656 5.916,11.994 Z" id="Shape"></path>
                <path d="M22.094,15.074 C22.0332078,15.028089 21.9964474,14.9571415 21.994,14.881 C21.9338691,11.4617602 19.4119981,8.586477 16.0297962,8.08097949 C12.6475944,7.57548199 9.39523773,9.58775996 8.338,12.84 C8.30707883,12.937323 8.21986991,13.0059009 8.118,13.013 C5.16023629,13.2167109 2.89621111,15.7281319 2.99922908,18.691112 C3.10224705,21.6540922 5.53523029,24.0022059 8.5,24.0000016 L19,24.0000016 C21.1294293,23.9990585 23.0246167,22.649539 23.7220272,20.6375528 C24.4194376,18.6255665 23.7660283,16.3926325 22.094,15.074 Z M22,19 C22,20.6568542 20.6568542,22.0000004 19,22.0000004 L8.5,22.0000004 C7.19552705,22.0006031 5.99896268,21.2757081 5.39546494,20.1192305 C4.7919672,18.9627528 4.88169146,17.5666194 5.62825818,16.4969054 C6.3748249,15.4271913 7.65433527,14.8614244 8.948,15.029 C9.48484755,15.1018641 9.98117076,14.7314006 10.064,14.196 C10.4798622,11.6217905 12.8041865,9.79938554 15.4032756,10.0096983 C18.0023647,10.2200111 20.0034373,12.392418 20,15 C20,15.146 19.993,15.289 19.98,15.433 C19.9445158,15.8229927 20.1399362,16.1978091 20.48,16.392 C21.417919,16.9256247 21.997991,17.9209062 22,19 L22,19 Z" id="Shape"></path>
            </g>
        </g>
    </g>
</svg>