<?xml version="1.0" encoding="UTF-8"?>
<svg viewBox="0 0 24 24" version="1.1" xmlns="http://www.w3.org/2000/svg">
    <title>web_server_24</title>
    <g id="Device-Types" stroke="none" stroke-width="1" fill="current" fill-rule="evenodd">
        <g id="Server" transform="translate(-246.000000, -8.000000)" fill="current" fill-rule="nonzero">
            <g id="network-arrow-sync" transform="translate(246.000000, 8.000000)">
                <path d="M4.952,12 C4.952,15.8925029 8.10749708,19.048 12,19.048 C15.8925029,19.048 19.048,15.8925029 19.048,12 C19.048,8.10749708 15.8925029,4.952 12,4.952 C8.10932469,4.9564087 4.9564087,8.10932469 4.952,12 Z M12,17.1680198 C9.17355055,17.128684 6.90289402,14.8262229 6.90289402,11.9995 C6.90289402,9.17277712 9.17355055,6.87031601 12,6.831 C12.128,6.831 12.254,6.831 12.38,6.846 C12.4843824,6.85361603 12.5729727,6.92544601 12.602,7.026 C12.6471756,7.19292613 12.6769667,7.36363924 12.691,7.536 C12.6970245,7.60578086 12.6738518,7.67493688 12.627,7.727 C12.579721,7.77928853 12.5124939,7.80908649 12.442,7.809 C12.25,7.809 12.042,7.795 11.92,7.787 C11.62,7.769 11.582,7.771 11.42,7.771 C10.1232861,7.77209248 9.04875126,8.77687796 8.96076421,10.0706037 C8.87277716,11.3643294 9.80137458,12.5053491 11.086,12.682 C11.2098935,12.6990074 11.3021615,12.8049447 11.302,12.93 L11.302,13.78 C11.302,15.086 12.008,16 13.008,16 C15.008,16 15.233,14.262 15.233,13.262 C15.233,12.385 15.245,11.853 15.244,11.5 C15.2471386,11.3330854 15.2404604,11.1661306 15.224,11 C15.1622398,10.6602469 15.0615773,10.3287318 14.924,10.012 C14.8846226,9.91058318 14.9153532,9.79534371 15,9.727 L15.868,8.993 C15.9218232,8.94805536 15.9919933,8.92767456 16.061519,8.93679268 C16.1310447,8.9459108 16.1935864,8.98369643 16.234,9.041 C17.3433808,10.6182435 17.4805381,12.6825124 16.5895836,14.3926653 C15.6986291,16.1028181 13.9283138,17.173333 12,17.1680198 Z" id="Shape"></path>
                <path d="M3.236,19.438 C3.31488753,19.5312164 3.31488753,19.6677836 3.236,19.761 L2.787,20.294 C2.61851899,20.4888312 2.57064725,20.7604492 2.66236893,21.0011402 C2.75409061,21.2418313 2.9705856,21.4127053 3.226,21.446 L6.096,21.855 C6.20417808,21.9014379 6.32030106,21.9265639 6.438,21.929 C6.47,21.929 6.501,21.921 6.538,21.918 L6.743,21.947 C6.77616774,21.9512871 6.80955845,21.9536244 6.843,21.9540242 C7.06896516,21.9558756 7.28193763,21.8485527 7.41487211,21.6658174 C7.54780659,21.4830821 7.58435067,21.2474128 7.513,21.033 L6.42,17.657 C6.34410184,17.4107131 6.13901317,17.2260505 5.88614191,17.1763122 C5.63327064,17.1265738 5.37352176,17.2198056 5.21,17.419 L4.797,17.909 C4.74816005,17.9671548 4.67594113,18.0005148 4.6,18 C4.52385854,17.9975526 4.45291099,17.9607922 4.407,17.9 C2.14405846,14.9992966 1.73407336,11.0618279 3.35088551,7.75714896 C4.96769766,4.45247002 8.32801323,2.35961857 12.007,2.366 C12.691646,2.36631562 13.3743743,2.43837579 14.044,2.581 C14.376354,2.66216119 14.7265481,2.55613894 14.9580737,2.30426163 C15.1895993,2.05238433 15.2658116,1.69451798 15.1570023,1.37016196 C15.0481931,1.04580593 14.7715841,0.806297844 14.435,0.745 C11.0337528,0.0143263973 7.48446279,0.859516494 4.77757086,3.04471723 C2.07067893,5.22991797 0.496017136,8.52115578 0.492994254,12 C0.490266066,14.7272546 1.46321274,17.3655256 3.236,19.438 L3.236,19.438 Z" id="Shape"></path>
                <path d="M20.764,4.561 C20.6851125,4.46778359 20.6851125,4.33121641 20.764,4.238 L21.213,3.705 C21.3809199,3.5101509 21.4284488,3.23890373 21.3367834,2.99856916 C21.245118,2.75823459 21.0290269,2.58753404 20.774,2.554 L17.859,2.138 C17.7479402,2.09929948 17.6304726,2.08232439 17.513,2.088 L17.262,2.053 C17.0207894,2.01598763 16.7777135,2.10726636 16.6204849,2.2938987 C16.4632564,2.48053103 16.4145723,2.7355753 16.492,2.967 L17.58,6.343 C17.65915,6.58653844 17.8638036,6.76824017 18.115,6.818 C18.159801,6.82675743 18.2053512,6.8311115 18.251,6.831 C18.4587234,6.83114242 18.6559374,6.73967022 18.79,6.581 L19.203,6.091 C19.2514657,6.03321275 19.3235115,6.00050668 19.3989163,6.00206141 C19.474321,6.00361615 19.5449574,6.03926413 19.591,6.099 C21.8540027,8.99802923 22.2652844,12.9339025 20.6504967,16.238144 C19.035709,19.5423856 15.6777077,21.6362047 12,21.632 C11.3153275,21.6321871 10.6325467,21.5601214 9.963,21.417 C9.63142328,21.3384446 9.28329812,21.4454839 9.05313568,21.6967593 C8.82297324,21.9480347 8.74681957,22.3041936 8.85409948,22.6276207 C8.9613794,22.9510478 9.23529165,23.1910908 9.57,23.255 C12.9705114,23.9839371 16.5183362,23.1379354 19.2240018,20.952941 C21.9296674,18.7679466 23.50366,15.4777601 23.5070064,12 C23.5098844,9.27241725 22.5369339,6.6337811 20.764,4.561 Z" id="Shape"></path>
            </g>
        </g>
    </g>
</svg>