<?xml version="1.0" encoding="UTF-8"?>
<svg viewBox="0 0 24 24" version="1.1" xmlns="http://www.w3.org/2000/svg">
    <title>wifi_extender_24</title>
    <g id="Device-Types" stroke="none" stroke-width="1" fill="current" fill-rule="evenodd">
        <g id="Network" transform="translate(-48.000000, -8.000000)" fill="current" fill-rule="nonzero">
            <g id="wifi-signal-1" transform="translate(48.000000, 8.000000)">
                <circle id="Oval" cx="12" cy="11.998" r="1.5"></circle>
                <path d="M15.536,8.462 C15.1436211,8.08302779 14.5199152,8.08844763 14.1341814,8.47418142 C13.7484476,8.85991522 13.7430278,9.48362111 14.122,9.876 C15.291058,11.0487537 15.291058,12.9462463 14.122,14.119 C13.7312586,14.5094653 13.7310347,15.1427585 14.1215,15.5335 C14.5119653,15.9242414 15.1452585,15.9244653 15.536,15.534 C17.4848348,13.5794477 17.4848348,10.4165523 15.536,8.462 L15.536,8.462 Z" id="Shape"></path>
                <path d="M9.878,8.462 C9.48750015,8.07161806 8.85449985,8.07161806 8.464,8.462 C6.51516523,10.4165523 6.51516523,13.5794477 8.464,15.534 C8.85474147,15.9244653 9.48803466,15.9242414 9.87849997,15.5335 C10.2689653,15.1427585 10.2687414,14.5094653 9.878,14.119 C8.70894195,12.9462463 8.70894195,11.0487537 9.878,9.876 C10.2683819,9.48550015 10.2683819,8.85249985 9.878,8.462 Z" id="Shape"></path>
                <path d="M18.01,5.988 C17.6135022,5.64215762 17.0168348,5.66270321 16.6450653,6.03500003 C16.2732958,6.40729685 16.253596,7.00399278 16.6,7.4 C19.1381491,9.93836349 19.1381491,14.0536365 16.6,16.592 C16.3400434,16.8430745 16.2357874,17.2148779 16.3273028,17.5645073 C16.4188183,17.9141368 16.6918632,18.1871817 17.0414927,18.2786972 C17.3911221,18.3702126 17.7629255,18.2659566 18.014,18.006 C21.332913,14.6866368 21.332913,9.3053632 18.014,5.986 L18.01,5.988 Z" id="Shape"></path>
                <path d="M5.5,12 C5.49299099,10.2743373 6.17724701,8.61771749 7.4,7.4 C7.74640404,7.00399278 7.72670421,6.40729685 7.35493472,6.03500003 C6.98316523,5.66270321 6.38649782,5.64215762 5.99,5.988 C2.671087,9.3073632 2.671087,14.6886368 5.99,18.008 C6.23739868,18.2839624 6.61713531,18.4004625 6.97672913,18.3107205 C7.33632296,18.2209784 7.61679153,17.9397142 7.70551453,17.5798676 C7.79423753,17.220021 7.67666214,16.8406159 7.4,16.594 C6.17872897,15.3777469 5.49459583,13.723585 5.5,12 L5.5,12 Z" id="Shape"></path>
                <path d="M20.485,3.513 C20.2339255,3.25304342 19.8621221,3.1487874 19.5124927,3.24030284 C19.1628632,3.33181828 18.8898183,3.60486324 18.7983028,3.95449268 C18.7067874,4.30412211 18.8110434,4.67592553 19.071,4.927 C22.970089,8.83473703 22.970089,15.161263 19.071,19.069 C18.8110434,19.3200745 18.7067874,19.6918779 18.7983028,20.0415073 C18.8898183,20.3911368 19.1628632,20.6641817 19.5124927,20.7556972 C19.8621221,20.8472126 20.2339255,20.7429566 20.485,20.483 C25.1637507,15.7938072 25.1637507,8.20219282 20.485,3.513 Z" id="Shape"></path>
                <path d="M4.929,4.927 C5.18895658,4.67592553 5.2932126,4.30412211 5.20169716,3.95449268 C5.11018172,3.60486324 4.83713676,3.33181828 4.48750732,3.24030284 C4.13787789,3.1487874 3.76607447,3.25304342 3.515,3.513 C-1.16375071,8.20219282 -1.16375071,15.7938072 3.515,20.483 C3.76607447,20.7429566 4.13787789,20.8472126 4.48750732,20.7556972 C4.83713676,20.6641817 5.11018172,20.3911368 5.20169716,20.0415073 C5.2932126,19.6918779 5.18895658,19.3200745 4.929,19.069 C1.02991105,15.161263 1.02991105,8.83473703 4.929,4.927 Z" id="Shape"></path>
            </g>
        </g>
    </g>
</svg>