<?xml version="1.0" encoding="UTF-8"?>
<svg viewBox="0 0 24 24" version="1.1" xmlns="http://www.w3.org/2000/svg">
    <title>wifi_24</title>
    <g id="Device-Types" stroke="none" stroke-width="1" fill="current" fill-rule="evenodd">
        <g id="Network" transform="translate(-8.000000, -8.000000)" fill="current" fill-rule="nonzero">
            <g id="router-signal-1" transform="translate(8.000000, 8.000000)">
                <path d="M20.125,13.728 L16.53125,13.728 C16.3989318,13.728 16.2916667,13.6246811 16.2916667,13.4972308 L16.2916667,10.0356923 C16.2916667,9.27099035 15.648076,8.65107692 14.8541667,8.65107692 C14.0602573,8.65107692 13.4166667,9.27099035 13.4166667,10.0356923 L13.4166667,13.4972308 C13.4166667,13.6246811 13.3094016,13.728 13.1770833,13.728 L2.875,13.728 C1.28718134,13.728 0,14.9678268 0,16.4972308 L0,18.3433846 C0,19.790051 1.15616306,20.9929144 2.653625,21.1043077 C2.77820119,21.113898 2.87440145,21.2137795 2.875,21.3341538 L2.875,21.8049231 C2.875,22.569625 3.51859067,23.1895385 4.3125,23.1895385 C5.10640933,23.1895385 5.75,22.569625 5.75,21.8049231 L5.75,21.3433846 C5.75,21.2159343 5.85726511,21.1126154 5.98958333,21.1126154 L17.0104167,21.1126154 C17.1427349,21.1126154 17.25,21.2159343 17.25,21.3433846 L17.25,21.8049231 C17.25,22.569625 17.8935907,23.1895385 18.6875,23.1895385 C19.4814093,23.1895385 20.125,22.569625 20.125,21.8049231 L20.125,21.3350769 C20.1241988,21.2141741 20.2211469,21.1135162 20.346375,21.1052308 C21.8442044,20.9938102 23.000454,19.7904059 23,18.3433846 L23,16.4972308 C23,14.9678268 21.7128187,13.728 20.125,13.728 Z M7.74429167,16.3384615 C8.33972366,16.3384615 8.82241667,16.8033966 8.82241667,17.3769231 C8.82241667,17.9504495 8.33972366,18.4153846 7.74429167,18.4153846 C7.14885967,18.4153846 6.66616667,17.9504495 6.66616667,17.3769231 C6.66616667,16.8033966 7.14885967,16.3384615 7.74429167,16.3384615 Z M4.03075,18.4892308 C3.7798168,18.4847284 3.53763739,18.3996077 3.34266667,18.2473846 C3.05367716,18.0451785 2.880409,17.7237028 2.875,17.3796923 C2.86288271,16.9744961 3.08038748,16.594983 3.44281501,16.3889406 C3.80524253,16.1828981 4.25529913,16.1828981 4.61772666,16.3889406 C4.98015418,16.594983 5.19765896,16.9744961 5.18554167,17.3796923 C5.17975868,17.6145746 5.09501637,17.8413099 4.94404167,18.0258462 C4.73491923,18.313402 4.39520634,18.486795 4.03075,18.492 L4.03075,18.4892308 Z" id="Shape"></path>
                <path d="M10.7879583,6.12 C10.5388333,6.35176105 10.4389213,6.69496421 10.5266236,7.01769907 C10.6143259,7.34043393 10.8759939,7.59247543 11.2110555,7.67695122 C11.546117,7.76142701 11.9024286,7.66519069 12.1430417,7.42523077 C13.660872,6.03153035 16.0474613,6.03153035 17.5652917,7.42523077 C17.8059047,7.66519069 18.1622163,7.76142701 18.4972779,7.67695122 C18.8323394,7.59247543 19.0940075,7.34043393 19.1817098,7.01769907 C19.2694121,6.69496421 19.1695001,6.35176105 18.920375,6.12 C17.8420128,5.08113407 16.3793302,4.49749047 14.8541667,4.49749047 C13.3290031,4.49749047 11.8663205,5.08113407 10.7879583,6.12 L10.7879583,6.12 Z" id="Shape"></path>
                <path d="M9.432875,4.81384615 C12.4291125,1.93488268 17.2792208,1.93488268 20.2754583,4.81384615 C20.6499189,5.17427568 21.2568249,5.17406904 21.6310208,4.81338462 C22.0052168,4.45270019 22.0050022,3.86812183 21.6305417,3.50769231 C17.8851911,-0.0904513175 11.8231422,-0.0904513175 8.07779167,3.50769231 C7.83555815,3.74084933 7.74086385,4.08077106 7.82937922,4.39941228 C7.91789458,4.7180535 8.17617201,4.96700502 8.50692089,5.05248921 C8.83766978,5.1379734 9.19064149,5.04700318 9.432875,4.81384615 Z" id="Shape"></path>
            </g>
        </g>
    </g>
</svg>