<?xml version="1.0" encoding="UTF-8"?>
<svg viewBox="0 0 24 24" version="1.1" xmlns="http://www.w3.org/2000/svg">
    <title>Family/Her</title>
    <g id="Contact-Types" stroke="none" stroke-width="1" fill="current" fill-rule="evenodd">
        <g id="Contact-Types-(24x24)" transform="translate(-48.000000, 0.000000)">
            <g id="contacttype_her_24" fill="current" transform="translate(48.000000, 0.000000)">
                <g id="hat-female@24x24" transform="translate(0.000000, 0.592593)">
                    <path d="M20.4998,13.0933244 L20.4998,10.0711022 C20.4998,9.35886519 20.4548,9.2923763 20.3968,8.83199111 C20.1678,8.76348741 19.9488,8.65770963 19.7678,8.47536889 L19.4998,8.2043763 L19.4998,8.5861837 C19.4998,9.42132444 18.8278,10.0972948 17.9998,10.0972948 C17.1718,10.0972948 16.4998,9.42132444 16.4998,8.5861837 L16.4998,8.2043763 L16.2318,8.47536889 C15.9388,8.76953185 15.5558,8.91661333 15.1718,8.91661333 C14.7878,8.91661333 14.4038,8.76953185 14.1108,8.47536889 C13.5248,7.88502815 13.5248,6.92799111 14.1108,6.33765037 L14.3788,6.06766519 L13.9998,6.06766519 C13.1718,6.06766519 12.4998,5.39169481 12.4998,4.55655407 C12.4998,3.72242074 13.1718,3.04544296 13.9998,3.04544296 L14.3798,3.04544296 L14.1108,2.77545778 C13.9238,2.58707259 13.8188,2.3573837 13.7508,2.11762074 C13.6678,2.10754667 13.5848,2.09243556 13.5018,2.08236148 C13.4328,2.07329481 13.3648,2.06019852 13.2948,2.05213926 C13.0308,2.02695407 12.7668,2.01184296 12.4998,2.01184296 C8.6898,2.01184296 5.3828,4.75199111 4.6508,8.52674667 C4.6488,8.53379852 4.6448,8.53883556 4.6428,8.54689481 C4.6108,8.70908741 4.5938,8.87530963 4.5728,9.04052444 C4.5618,9.11910222 4.5478,9.19465778 4.5398,9.27323556 C4.5148,9.53919111 4.4998,9.80514667 4.4998,10.0711022 L4.4998,13.0933244 L20.4998,13.0933244 Z" id="Fill-136"></path>
                    <polygon id="Fill-137" points="4.4997 15.10824 20.4997 15.10824 20.4997 14.1008326 4.4997 14.1008326"></polygon>
                    <path d="M23.825,18.2583022 L21.351,16.1215911 L3.648,16.1215911 L1.175,18.2583022 C1.04,18.3741541 0.976,18.5534726 1.008,18.7297689 C1.039,18.9050578 1.161,19.0511319 1.327,19.1135911 C5.038,20.490717 8.801,21.1898578 12.51,21.1898578 L12.51,21.1898578 C16.218,21.1898578 19.974,20.4917244 23.674,19.1125837 C23.84,19.0501244 23.961,18.9050578 23.992,18.7287615 C24.023,18.5534726 23.96,18.3741541 23.825,18.2583022" id="Fill-138"></path>
                    <path d="M21.9998,4.0590963 L19.2058,4.0590963 L21.1818,2.06845926 C21.3768,1.87201481 21.3768,1.55367407 21.1818,1.35622222 C20.9858,1.15977778 20.6698,1.15977778 20.4748,1.35622222 L18.4998,3.34685926 L18.4998,0.53317037 C18.4998,0.255125926 18.2758,0.0294666667 17.9998,0.0294666667 C17.7238,0.0294666667 17.4998,0.255125926 17.4998,0.53317037 L17.4998,3.34685926 L15.5248,1.35622222 C15.3298,1.15977778 15.0138,1.15977778 14.8178,1.35622222 C14.6228,1.55367407 14.6228,1.87201481 14.8178,2.06845926 L16.7938,4.0590963 L13.9998,4.0590963 C13.7238,4.0590963 13.4998,4.28475556 13.4998,4.5628 C13.4998,4.84084444 13.7238,5.0665037 13.9998,5.0665037 L16.7928,5.0665037 L14.8178,7.05714074 C14.6228,7.25257778 14.6228,7.57091852 14.8178,7.76837037 C14.9158,7.86608889 15.0438,7.91545185 15.1718,7.91545185 C15.2998,7.91545185 15.4278,7.86608889 15.5248,7.76837037 L17.4998,5.77773333 L17.4998,8.59242963 C17.4998,8.87047407 17.7238,9.09613333 17.9998,9.09613333 C18.2758,9.09613333 18.4998,8.87047407 18.4998,8.59242963 L18.4998,5.77773333 L20.4748,7.76837037 C20.5718,7.86608889 20.6998,7.91545185 20.8278,7.91545185 C20.9558,7.91545185 21.0838,7.86608889 21.1818,7.76837037 C21.3768,7.57091852 21.3768,7.25257778 21.1818,7.05714074 L19.2068,5.0665037 L21.9998,5.0665037 C22.2758,5.0665037 22.4998,4.84084444 22.4998,4.5628 C22.4998,4.28475556 22.2758,4.0590963 21.9998,4.0590963" id="Fill-139"></path>
                </g>
            </g>
        </g>
    </g>
</svg>