<?xml version="1.0" encoding="UTF-8"?>
<svg viewBox="0 0 24 24" version="1.1" xmlns="http://www.w3.org/2000/svg">
    <title>Family/Pet</title>
    <g id="Contact-Types" stroke="none" stroke-width="1" fill="current" fill-rule="evenodd">
        <g id="Contact-Types-(24x24)" transform="translate(-120.000000, 0.000000)">
            <g id="Home" fill="current" fill-rule="nonzero">
                <g id="contacttype_pet_24" transform="translate(120.000000, 0.000000)">
                    <g id="pet-paw@24x24" transform="translate(0.000000, 3.000000)">
                        <path d="M16.9714286,12.1977143 C16.4337283,10.3765453 14.7559934,9.13082712 12.8571429,9.14277077 L11.1428571,9.14277077 C9.24717463,9.13465408 7.57396058,10.3796092 7.03714286,12.1977143 L5.86114286,16.1182857 C5.62756569,16.8969192 5.77592555,17.7401475 6.26123862,18.3922975 C6.74655169,19.0444474 7.51165792,19.4287091 8.32457143,19.4285715 L15.6754286,19.4285715 C16.4883421,19.4287091 17.2534483,19.0444474 17.7387614,18.3922975 C18.2240744,17.7401475 18.3724343,16.8969192 18.1388571,16.1182857 L16.9714286,12.1977143 Z" id="Path"></path>
                        <path d="M0,11.7142857 C0,13.6078334 1.15126779,15.1428571 2.57142857,15.1428571 C3.99158936,15.1428571 5.14285714,13.6078334 5.14285714,11.7142857 C5.14285714,9.820738 3.99158936,8.28571429 2.57142857,8.28571429 C1.15126779,8.28571429 0,9.820738 0,11.7142857 Z" id="Path"></path>
                        <path d="M5.14285714,4 C5.14285714,5.89354771 6.29412493,7.42857143 7.71428571,7.42857143 C9.1344465,7.42857143 10.2857143,5.89354771 10.2857143,4 C10.2857143,2.10645229 9.1344465,0.571428571 7.71428571,0.571428571 C6.29412493,0.571428571 5.14285714,2.10645229 5.14285714,4 Z" id="Path"></path>
                        <path d="M13.7142857,4 C13.7142857,5.89354771 14.8655535,7.42857143 16.2857143,7.42857143 C17.7058751,7.42857143 18.8571429,5.89354771 18.8571429,4 C18.8571429,2.10645229 17.7058751,0.571428571 16.2857143,0.571428571 C14.8655535,0.571428571 13.7142857,2.10645229 13.7142857,4 Z" id="Path"></path>
                        <path d="M18.8571429,11.7142857 C18.8571429,12.9391963 19.3472543,14.0710604 20.1428571,14.6835158 C20.9384599,15.2959711 21.918683,15.2959711 22.7142857,14.6835158 C23.5098885,14.0710604 24,12.9391963 24,11.7142857 C24,10.4893751 23.5098885,9.35751099 22.7142857,8.74505567 C21.918683,8.13260035 20.9384599,8.13260035 20.1428571,8.74505567 C19.3472543,9.35751099 18.8571429,10.4893751 18.8571429,11.7142857 L18.8571429,11.7142857 Z" id="Path"></path>
                    </g>
                </g>
            </g>
        </g>
    </g>
</svg>