<?xml version="1.0" encoding="UTF-8"?>
<svg viewBox="0 0 24 24" version="1.1" xmlns="http://www.w3.org/2000/svg">
    <title>Help/Medical</title>
    <g id="Contact-Types" stroke="none" stroke-width="1" fill="current" fill-rule="evenodd">
        <g id="Contact-Types-(24x24)" transform="translate(-48.000000, -48.000000)">
            <g id="Help" transform="translate(0.000000, 48.000000)" fill="current" fill-rule="nonzero">
                <g id="contacttype_medical_24" transform="translate(47.000000, 0.000000)">
                    <g id="Group-2" transform="translate(0.988996, 0.002791)">
                        <path d="M21.9010041,2.11020948 C19.0830935,-0.70340316 14.5189146,-0.70340316 11.7010041,2.11020948 L2.13100407,11.6842095 C0.0562834858,13.7411505 -0.56978295,16.8478953 0.546335455,19.5478494 C1.66245386,22.2478034 4.29946324,24.0056441 7.22100407,23.9972563 L7.22100407,23.9972563 C9.13230148,24.0041158 10.9669352,23.2461366 12.3160041,21.8922095 L21.8970041,12.3112095 C24.7034776,9.49034872 24.7034776,4.93207024 21.8970041,2.11120948 L21.9010041,2.11020948 Z M20.4870041,10.8972095 L16.7610041,14.6192095 C16.5657541,14.8144004 16.249254,14.8144004 16.0540041,14.6192095 L9.39300407,7.95820948 C9.1978131,7.76295955 9.1978131,7.44645941 9.39300407,7.25120948 L13.1190041,3.52420948 C14.6073587,2.02927867 16.8513905,1.5816535 18.7994113,2.39111805 C20.747432,3.20058261 22.013399,5.1067239 22.0040749,7.21620948 C22.0112325,8.59676163 21.4648275,9.9226132 20.4870041,10.8972095 Z" id="Shape"></path>
                        <path d="M16.6450041,3.15619224 C15.5530602,3.15341893 14.5053159,3.5872787 13.7350041,4.36120948 C13.450633,4.65535913 13.4544759,5.12314302 13.7436411,5.41258105 C14.0328063,5.70201909 14.5005864,5.70630304 14.7950041,5.42220948 C15.8300862,4.43325077 17.4599219,4.43325077 18.4950041,5.42220948 C18.7879911,5.71519651 19.263017,5.7151965 19.556004,5.42220945 C19.8489911,5.1292224 19.8489911,4.65419654 19.5560041,4.36120948 C18.7855114,3.58693757 17.7373163,3.15304026 16.6450041,3.15619224 Z" id="Path"></path>
                    </g>
                </g>
            </g>
        </g>
    </g>
</svg>