<?xml version="1.0" encoding="UTF-8"?>
<svg viewBox="0 0 24 24" version="1.1" xmlns="http://www.w3.org/2000/svg">
    <title>Family/Pet/Cat</title>
    <g id="Contact-Types" stroke="none" stroke-width="1" fill="current" fill-rule="evenodd">
        <g id="Contact-Types-(24x24)" transform="translate(-168.000000, 0.000000)" fill="current">
            <g id="contacttype_cat_24" transform="translate(168.000000, 0.000000)">
                <g id="cat@24x24" transform="translate(0.000000, 1.208333)">
                    <path d="M0.456687041,13.6931403 L0.554321448,13.6941307 L11.5543214,14.6941307 C11.8843314,14.7241316 12.1275368,15.0159781 12.0975359,15.3459881 C12.0705351,15.6429971 11.8314394,15.8696944 11.543313,15.8901931 L11.4456786,15.8892026 L0.445678552,14.8892026 C0.115668574,14.8592017 -0.127536831,14.5673552 -0.0975359239,14.2373452 C-0.0705351075,13.9403362 0.168560628,13.713639 0.456687041,13.6931403 Z" id="Line" fill-rule="nonzero"></path>
                    <path d="M0.632972662,14.206587 L11.6329727,16.706587 C11.9561033,16.7800257 12.1585185,17.1015087 12.0850797,17.4246393 C12.0189848,17.7154569 11.7519741,17.908495 11.4636707,17.8906575 L11.3670273,17.8767464 L0.367027338,15.3767464 C0.0438967347,15.3033076 -0.158518487,14.9818246 -0.0850797135,14.658694 C-0.0189848174,14.3678765 0.248025901,14.1748384 0.536329306,14.1926758 L0.632972662,14.206587 Z" id="Line" fill-rule="nonzero" transform="translate(6.000000, 16.041667) scale(-1, 1) translate(-6.000000, -16.041667) "></path>
                    <path d="M12.1543214,13.6941307 L23.1543214,14.6941307 C23.4843314,14.7241316 23.7275368,15.0159781 23.6975359,15.3459881 C23.6705351,15.6429971 23.4314394,15.8696944 23.143313,15.8901931 L23.0456786,15.8892026 L12.0456786,14.8892026 C11.7156686,14.8592017 11.4724632,14.5673552 11.5024641,14.2373452 C11.5294649,13.9403362 11.7685606,13.713639 12.056687,13.6931403 L12.1543214,13.6941307 Z" id="Line" fill-rule="nonzero" transform="translate(17.600000, 14.791667) scale(-1, 1) translate(-17.600000, -14.791667) "></path>
                    <path d="M12.6329727,14.206587 L23.6329727,16.706587 C23.9561033,16.7800257 24.1585185,17.1015087 24.0850797,17.4246393 C24.0189848,17.7154569 23.7519741,17.908495 23.4636707,17.8906575 L23.3670273,17.8767464 L12.3670273,15.3767464 C12.0438967,15.3033076 11.8414815,14.9818246 11.9149203,14.658694 C11.9810152,14.3678765 12.2480259,14.1748384 12.5363293,14.1926758 L12.6329727,14.206587 Z" id="Line" fill-rule="nonzero"></path>
                    <path d="M12,4.79166667 C17.5228475,4.79166667 22,8.59724629 22,13.2916667 C22,17.986087 17.5228475,21.7916667 12,21.7916667 C6.4771525,21.7916667 2,17.986087 2,13.2916667 C2,8.59724629 6.4771525,4.79166667 12,4.79166667 Z M8.5,9.79166667 C7.67157288,9.79166667 7,10.6870972 7,11.7916667 C7,12.8962362 7.67157288,13.7916667 8.5,13.7916667 C9.32842712,13.7916667 10,12.8962362 10,11.7916667 C10,10.6870972 9.32842712,9.79166667 8.5,9.79166667 Z M15.5,9.79166667 C14.6715729,9.79166667 14,10.6870972 14,11.7916667 C14,12.8962362 14.6715729,13.7916667 15.5,13.7916667 C16.3284271,13.7916667 17,12.8962362 17,11.7916667 C17,10.6870972 16.3284271,9.79166667 15.5,9.79166667 Z" id="Combined-Shape"></path>
                    <path d="M5.49393597,8.77513084 C3.60252972,3.5606533 3.74315472,0.151595688 4.61854535,0.00350405356 C5.2021391,-0.0952237025 7.08045941,1.89231156 10.2535063,5.96610985 C8.71639691,7.06155527 7.12987347,7.9978956 5.49393597,8.77513084 Z" id="Path-2"></path>
                    <path d="M15.493936,8.77513084 C13.6025297,3.5606533 13.7431547,0.151595688 14.6185453,0.00350405356 C15.2021391,-0.0952237025 17.0804594,1.89231156 20.2535063,5.96610985 C18.7163969,7.06155527 17.1298735,7.9978956 15.493936,8.77513084 Z" id="Path-2" transform="translate(17.126753, 4.387565) scale(-1, 1) translate(-17.126753, -4.387565) "></path>
                </g>
            </g>
        </g>
    </g>
</svg>