<?xml version="1.0" encoding="UTF-8"?>
<svg viewBox="0 0 24 24" version="1.1" xmlns="http://www.w3.org/2000/svg">
    <title>Colleague/Contractor</title>
    <g id="Contact-Types" stroke="none" stroke-width="1" fill="current" fill-rule="evenodd">
        <g id="Contact-Types-(24x24)" transform="translate(-48.000000, -24.000000)">
            <g id="Office" transform="translate(0.000000, 24.000000)" fill="current">
                <g id="contacttype_contractor_24" transform="translate(48.000000, 0.000000)">
                    <g id="user_briefcase@24x24" transform="translate(4.000000, 0.000000)">
                        <path d="M6.25,8 C8.456,8 10.25,6.206 10.25,4 C10.25,1.795 8.456,0 6.25,0 C4.044,0 2.25,1.795 2.25,4 C2.25,6.206 4.044,8 6.25,8" id="Fill-29"></path>
                        <path d="M12.25,9 L7.21,9 L7.768,15.689 L6.25,17.207 L4.732,15.689 L5.29,9 L0.25,9 L0.25,9.5 C0.25,13.054 1.521,15.869 3.75,17.283 L3.75,24 L8.75,24 L8.75,17.283 C10.978,15.869 12.25,13.053 12.25,9.5 L12.25,9 Z" id="Fill-30"></path>
                        <polygon id="Fill-31" points="14.25 16 14.25 15 13.25 15 13.25 16 11.75 16 11.75 24 15.75 24 15.75 16"></polygon>
                    </g>
                </g>
            </g>
            <g id="Home"></g>
        </g>
    </g>
</svg>