<?xml version="1.0" encoding="UTF-8"?>
<svg width="24px" height="24px" viewBox="0 0 24 24" version="1.1" xmlns="http://www.w3.org/2000/svg">
    <title>Guest</title>
    <g id="Contact-Types" stroke="none" stroke-width="1" fill="current" fill-rule="evenodd">
        <g id="Contact-Types-(24x24)" transform="translate(0.000000, -72.000000)">
            <g id="Other" transform="translate(0.000000, 72.000000)" fill="current">
                <g id="ct_guest" transform="translate(0.000000, 4.000000)">
                    <path d="M2.5096,13.99705 L11.8086,9.12605 L21.1086,13.99705 L2.5096,13.99705 Z M22.8796,12.67705 C22.7906,12.61605 13.2936,7.64705 13.1986,7.59705 C14.3916,6.91005 15.3086,5.42705 15.3086,4.49705 C15.3086,2.56705 13.7376,0.99705 11.8086,0.99705 C9.8786,0.99705 8.3086,2.56705 8.3086,4.49705 C8.3086,5.05005 8.7566,5.49705 9.3086,5.49705 C9.8616,5.49705 10.3086,5.05005 10.3086,4.49705 C10.3086,3.67005 10.9816,2.99705 11.8086,2.99705 C12.6356,2.99705 13.3086,3.67005 13.3116,4.45305 C13.2676,4.71905 12.7256,5.66205 12.0836,5.93405 C11.4796,6.19005 11.0866,6.75805 10.9126,7.33805 L0.8446,12.61105 C0.2056,12.94705 -0.1874,13.79605 0.0916,14.68405 C0.3376,15.47005 1.0266,15.99705 1.8086,15.99705 L21.8086,15.99705 C22.5886,15.99705 23.2776,15.47005 23.5256,14.68405 C23.7686,13.90705 23.5156,13.11805 22.8796,12.67705 L22.8796,12.67705 Z" id="Fill-79"></path>
                </g>
            </g>
        </g>
    </g>
</svg>