<?xml version="1.0" encoding="UTF-8"?>
<svg viewBox="0 0 24 24" version="1.1" xmlns="http://www.w3.org/2000/svg">
    <title>Colleague</title>
    <g id="Contact-Types" stroke="none" stroke-width="1" fill="current" fill-rule="evenodd">
        <g id="Contact-Types-(24x24)" transform="translate(0.000000, -24.000000)">
            <g id="Office" transform="translate(0.000000, 24.000000)" fill="current">
                <g id="briefcase@24x24" transform="translate(0.000000, 0.103704)">
                    <path d="M16,4.8962963 L8,4.8962963 L8,4.3962963 C8,3.0182963 9.121,1.8962963 10.5,1.8962963 L13.5,1.8962963 C14.878,1.8962963 16,3.0182963 16,4.3962963 L16,4.8962963 Z M21.5,4.8962963 L17,4.8962963 L17,4.3962963 C17,2.4662963 15.43,0.896296296 13.5,0.896296296 L10.5,0.896296296 C8.57,0.896296296 7,2.4662963 7,4.3962963 L7,4.8962963 L2.5,4.8962963 C1.121,4.8962963 0,6.0182963 0,7.3962963 L0,14.3962963 C0,14.6722963 0.224,14.8962963 0.5,14.8962963 L9,14.8962963 L9,13.3962963 C9,13.1202963 9.224,12.8962963 9.5,12.8962963 L14.5,12.8962963 C14.775,12.8962963 15,13.1202963 15,13.3962963 L15,14.8962963 L23.5,14.8962963 C23.775,14.8962963 24,14.6722963 24,14.3962963 L24,7.3962963 C24,6.0182963 22.878,4.8962963 21.5,4.8962963 L21.5,4.8962963 Z" id="Fill-247"></path>
                    <path d="M22.5,15.8962963 L15,15.8962963 L15,16.3962963 C15,16.6722963 14.775,16.8962963 14.5,16.8962963 L9.5,16.8962963 C9.224,16.8962963 9,16.6722963 9,16.3962963 L9,15.8962963 L1.5,15.8962963 C1.224,15.8962963 1,16.1202963 1,16.3962963 L1,21.3962963 C1,21.6722963 1.224,21.8962963 1.5,21.8962963 L22.5,21.8962963 C22.775,21.8962963 23,21.6722963 23,21.3962963 L23,16.3962963 C23,16.1202963 22.775,15.8962963 22.5,15.8962963" id="Fill-248"></path>
                    <polygon id="Fill-249" points="10 15.8962963 14 15.8962963 14 13.8962963 10 13.8962963"></polygon>
                </g>
            </g>
            <g id="Home"></g>
        </g>
    </g>
</svg>