<?xml version="1.0" encoding="UTF-8"?>
<svg viewBox="0 0 24 24" version="1.1" xmlns="http://www.w3.org/2000/svg">
    <title>Family/Relative</title>
    <g id="Contact-Types" stroke="none" stroke-width="1" fill="current" fill-rule="evenodd">
        <g id="Contact-Types-(24x24)" transform="translate(-96.000000, 0.000000)">
            <g id="Home" fill="current" fill-rule="nonzero">
                <g id="glasses-monocle-moustache@24x24" transform="translate(96.000000, 0.000000)">
                    <path d="M23,24 C22.4477153,24 22,23.5522847 22,23 L22,6.5 C22,5.94771525 22.4477153,5.5 23,5.5 C23.5522847,5.5 24,5.94771525 24,6.5 L24,23 C24,23.5522847 23.5522847,24 23,24 Z" id="Path"></path>
                    <path d="M17.914,21.5 L17.914,21.5 C17.7326595,21.0937288 17.3047203,20.8561207 16.864,20.917 C16.210589,21.0106355 15.5487004,20.816113 15.0498489,20.383839 C14.5509975,19.951565 14.2642824,19.324086 14.264,18.664 C14.3225054,17.3447797 13.5372944,16.1338277 12.309,15.649 C11.3042327,15.2644979 10.1779322,15.3679299 9.26,15.929 C9.09810608,16.0299188 8.89289392,16.0299188 8.731,15.929 C7.81269722,15.3677889 6.68588406,15.2647132 5.681,15.65 C4.45289708,16.1349096 3.66803137,17.3459485 3.727,18.665 C3.72647167,19.3238796 3.44056466,19.9502277 2.94311855,20.382281 C2.44567244,20.8143342 1.78546344,21.0097283 1.133,20.918 C0.692206009,20.8569777 0.264122691,21.0945704 0.0827258553,21.5009178 C-0.0986709803,21.9072653 0.0102678176,22.384589 0.35,22.672 C1.38888114,23.5433457 2.70515689,24.0143816 4.061,24 C4.38031758,23.9999403 4.69919141,23.9762086 5.015,23.929 C6.3826295,23.7331955 7.65417182,23.1126409 8.65,22.155 C8.84442176,21.9644286 9.15557824,21.9644286 9.35,22.155 C10.3458282,23.1126409 11.6173705,23.7331955 12.985,23.929 C14.6468987,24.2074193 16.3476725,23.7485498 17.644,22.672 C17.9851209,22.3851542 18.0952336,21.9071835 17.914,21.5 Z" id="Path"></path>
                    <path d="M21.999,3.5 C21.999,4.05228475 22.4467153,4.5 22.999,4.5 C23.5512847,4.5 23.999,4.05228475 23.999,3.5 C23.999,2.94771525 23.5512847,2.5 22.999,2.5 C22.4467153,2.5 21.999,2.94771525 21.999,3.5 Z" id="Path"></path>
                    <path d="M14.5,12 C11.1862915,12 8.5,9.3137085 8.5,6 C8.5,2.6862915 11.1862915,0 14.5,0 C17.8137085,0 20.5,2.6862915 20.5,6 C20.4966926,9.31233757 17.8123376,11.9966926 14.5,12 Z M14.5,2 C12.290861,2 10.5,3.790861 10.5,6 C10.5,8.209139 12.290861,10 14.5,10 C16.709139,10 18.5,8.209139 18.5,6 C18.5,4.93913404 18.0785726,3.92171839 17.3284271,3.17157288 C16.5782816,2.42142736 15.560866,2 14.5,2 Z" id="Shape"></path>
                    <path d="M12.226,6.75 C11.8117864,6.75 11.476,6.41421356 11.476,6 C11.4776546,4.33073862 12.8307382,2.97810246 14.5,2.977 C14.9142136,2.977 15.25,3.31278644 15.25,3.727 C15.25,4.14121356 14.9142136,4.477 14.5,4.477 C13.6587084,4.477 12.976552,5.15870859 12.976,6 C12.976,6.41421356 12.6402136,6.75 12.226,6.75 L12.226,6.75 Z" id="Path"></path>
                </g>
            </g>
        </g>
    </g>
</svg>