<?xml version="1.0" encoding="UTF-8"?>
<svg viewBox="0 0 24 24" version="1.1" xmlns="http://www.w3.org/2000/svg">
    <title>Help/Maintenance</title>
    <g id="Contact-Types" stroke="none" stroke-width="1" fill="current" fill-rule="evenodd">
        <g id="Contact-Types-(24x24)" transform="translate(-72.000000, -48.000000)">
            <g id="Help" transform="translate(0.000000, 48.000000)" fill="current" fill-rule="nonzero">
                <g id="screw-driver@24x24" transform="translate(72.000000, 0.000000)">
                    <path d="M23.8731429,4.20857143 C24.1093404,3.71640979 24.0089914,3.12874925 23.6228571,2.74285714 L21.2571429,0.378857143 C20.8722015,-0.00756792596 20.2851331,-0.108620692 19.7931429,0.126857143 L15.3017143,2.26971429 C14.9134007,2.45504058 14.643725,2.82254602 14.5834286,3.24857143 L14.1548571,6.24857143 C14.1226565,6.48146425 14.1552801,6.71872662 14.2491429,6.93428571 C14.3195503,7.09617685 14.2834833,7.28467795 14.1582857,7.40914286 L9.81942857,11.7565714 C9.73902492,11.8371786 9.62985194,11.8824804 9.516,11.8824804 C9.40214806,11.8824804 9.29297508,11.8371786 9.21257143,11.7565714 L8.952,11.496 C8.2892385,10.8333061 7.2147615,10.8333061 6.552,11.496 L1.23085714,16.8222857 C0.168247203,17.8845894 -0.24691259,19.4330942 0.141764442,20.8844933 C0.530441473,22.3358923 1.66390604,23.4696836 3.11519301,23.858779 C4.56647999,24.2478743 6.11510435,23.8331609 7.17771429,22.7708571 L12.504,17.4428571 C12.8226592,17.1248095 13.0017316,16.6930771 13.0017316,16.2428571 C13.0017316,15.7926372 12.8226592,15.3609048 12.504,15.0428571 L12.2434286,14.7822857 C12.1628214,14.7018821 12.1175196,14.5927091 12.1175196,14.4788571 C12.1175196,14.3650052 12.1628214,14.2558322 12.2434286,14.1754286 L16.584,9.84 C16.7093203,9.71627545 16.8971977,9.68100604 17.0588571,9.75085714 C17.2209458,9.82211792 17.3960812,9.85889636 17.5731429,9.85885714 C17.6338937,9.85833016 17.6945645,9.8543236 17.7548571,9.84685714 L20.7548571,9.41828571 C21.1808852,9.35675841 21.548096,9.08665587 21.7337143,8.69828571 L23.8731429,4.20857143 Z M19.8051429,6.76285714 C19.7431029,6.89163332 19.620944,6.98100219 19.4794286,7.00114286 L18.2365714,7.17257143 C18.1030001,7.19172383 17.9682381,7.14659126 17.8731429,7.05085714 L16.9422857,6.12 C16.847255,6.02446921 16.8022429,5.89006688 16.8205714,5.75657143 L16.992,4.51371429 C17.0124929,4.37183766 17.1025619,4.24960119 17.232,4.188 L19.8034286,2.96228571 C19.9671494,2.88451726 20.1620904,2.91815145 20.2902857,3.04628571 L20.9434286,3.69942857 C21.0723345,3.82792582 21.106016,4.02382844 21.0274286,4.188 L19.8051429,6.76285714 Z" id="Shape"></path>
                </g>
            </g>
        </g>
    </g>
</svg>