<?xml version="1.0" encoding="UTF-8"?>
<svg viewBox="0 0 24 24" version="1.1" xmlns="http://www.w3.org/2000/svg">
    <title>Family/Kid</title>
    <g id="Contact-Types" stroke="none" stroke-width="1" fill="current" fill-rule="evenodd">
        <g id="Contact-Types-(24x24)" transform="translate(-72.000000, 0.000000)">
            <g id="Home" fill="current" fill-rule="nonzero">
                <g id="contacttype_kid_24" transform="translate(72.000000, 0.000000)">
                    <g id="outdoors-kite-flying@24x24" transform="translate(1.000000, 0.000000)">
                        <path d="M6.712,6.26500217 L12.486,6.26500217 C12.7748449,6.26500217 13.0090032,6.03084492 13.0090032,5.742 L13.0090032,0.525 C13.0097212,0.318575019 12.8887282,0.131113995 12.7003262,0.0467548696 C12.5119241,-0.0376042556 12.2915053,-0.00301420661 12.138,0.135 C10.705,1.426 7.862,3.991 6.358,5.358 C6.19898818,5.50358858 6.14583992,5.73195509 6.22422689,5.93279402 C6.30261386,6.13363296 6.49640684,6.26561888 6.712,6.26500217 Z" id="Path"></path>
                        <path d="M15.244,6.26500217 L21.017,6.26500217 C21.2325932,6.26561888 21.4263861,6.13363296 21.5047731,5.93279402 C21.5831601,5.73195509 21.5300118,5.50358858 21.371,5.358 C19.871,3.991 17.024,1.427 15.592,0.136 C15.4384947,-0.00201420661 15.2180759,-0.0366042556 15.0296738,0.0477548696 C14.8412718,0.132113995 14.7202788,0.319575019 14.7209968,0.526 L14.7209968,5.742 C14.7209968,6.03084492 14.9551551,6.26500217 15.244,6.26500217 Z" id="Path"></path>
                        <path d="M12.039,18.649 C12.1596929,18.8508242 12.4004352,18.9470304 12.6269816,18.8839711 C12.8535281,18.8209118 13.0099411,18.6141572 13.0090042,18.379 L13.0090042,8.5 C13.0090042,8.21115508 12.7748449,7.97699929 12.486,7.97699929 L6.619,7.97699929 C6.43131884,7.97669115 6.25791879,8.07716013 6.16484728,8.24013868 C6.07177577,8.40311723 6.07336132,8.60351453 6.169,8.765 C7.346,10.747 10.449,15.974 12.039,18.649 Z" id="Path"></path>
                        <path d="M21.112,7.97699929 L15.244,7.97699929 C14.9551551,7.97699929 14.720998,8.21115508 14.720998,8.5 L14.720998,18.379 C14.7203615,18.6136726 14.8764037,18.8199247 15.1024052,18.8831305 C15.3284067,18.9463363 15.5688061,18.8509569 15.69,18.65 C17.281,15.974 20.39,10.75 21.562,8.765 C21.6576387,8.60351453 21.6592242,8.40311723 21.5661527,8.24013868 C21.4730812,8.07716013 21.2996812,7.97669115 21.112,7.97699929 Z" id="Path"></path>
                        <path d="M14.216,19.063 C13.9676298,18.9696955 13.692361,18.9789176 13.4507925,19.0886362 C13.209224,19.1983548 13.0211594,19.3995753 12.928,19.648 C12.8161353,20.0767229 12.524473,20.4361966 12.128,20.634 C11.123,21.088 9.285,20.381 7.808,19.813 C6.87953637,19.3788699 5.88465217,19.1040344 4.865,19 C1.681,19 0.465,22.533 0.416,22.683 C0.241201877,23.2076705 0.524829488,23.7747019 1.0495,23.9495 C1.57417051,24.1242981 2.14120188,23.8406705 2.316,23.316 C2.321,23.292 3.134,21 4.865,21 C5.63215126,21.1287987 6.37915629,21.3574051 7.087,21.68 C9.005,22.417 11.179,23.253 12.944,22.458 C13.8262999,22.0410598 14.4977074,21.2788531 14.8,20.351 C14.9944042,19.8340615 14.7329385,19.2574042 14.216,19.063 L14.216,19.063 Z" id="Path"></path>
                    </g>
                </g>
            </g>
        </g>
    </g>
</svg>