<?xml version="1.0" encoding="UTF-8"?>
<svg viewBox="0 0 24 24" version="1.1" xmlns="http://www.w3.org/2000/svg">
    <title>Family</title>
    <g id="Contact-Types" stroke="none" stroke-width="1" fill="current" fill-rule="evenodd">
        <g id="Contact-Types-(24x24)">
            <g id="Home" fill="current" fill-rule="nonzero">
                <g id="love-it@24x24" transform="translate(0.000000, 1.000000)">
                    <path d="M23.3,4.076 C22.3463861,2.21893422 20.568344,0.92435783 18.5081654,0.587108612 C16.4479869,0.249859393 14.3499711,0.909928891 12.854,2.366 L12,3.147 L11.173,2.394 C9.67977422,0.90898302 7.56138037,0.236370629 5.485,0.588 C3.42066444,0.909857493 1.63867041,2.20846004 0.7,4.075 C-0.569113806,6.56206022 -0.0794160016,9.58483121 1.91,11.544 L11.283,21.2 C11.4712814,21.3936637 11.7298973,21.5029268 12,21.5029268 C12.2701027,21.5029268 12.5287186,21.3936637 12.717,21.2 L22.077,11.562 C24.0745789,9.60091036 24.5696041,6.57085464 23.3,4.076 Z" id="Path"></path>
                </g>
            </g>
        </g>
    </g>
</svg>