<?xml version="1.0" encoding="UTF-8"?>
<svg viewBox="0 0 24 24" version="1.1" xmlns="http://www.w3.org/2000/svg">
    <title>Help</title>
    <g id="Contact-Types" stroke="none" stroke-width="1" fill="current" fill-rule="evenodd">
        <g id="Contact-Types-(24x24)" transform="translate(0.000000, -48.000000)">
            <g id="Help" transform="translate(0.000000, 48.000000)" fill="current">
                <g id="ct_help" transform="translate(0.000000, 0.096296)">
                    <path d="M12.75,0.978153682 C11.9941431,0.351896752 11.0133053,0 9.95944742,0 C7.49452508,0 5,1.88871138 5,5.52497781 C5.12038452,10.4018294 12.0237459,13.8571772 12.3158263,14.0023097 C12.4539725,14.0699057 12.6019862,14.1037037 12.75,14.1037037 C12.8980138,14.1037037 13.0460275,14.0699057 13.1841737,14.0023097 C13.4762541,13.8571772 20.3796155,10.4018294 20.5,5.5011204 C20.5,1.88871138 18.0054749,0 15.5405526,0 C14.4866947,0 13.5058569,0.351896752 12.75,0.978153682 Z" id="Fill-23"></path>
                    <path d="M0.500139722,22.1628443 L3.50013972,22.1628443 C3.77613972,22.1688887 4.00013972,21.9432295 4.00013972,21.665185 L4.00013972,14.6133332 C4.00013972,14.3352887 3.77613972,14.1096295 3.50013972,14.1096295 L0.500139722,14.1096295 C0.224139722,14.1096295 0.000139722199,14.3352887 0.000139722199,14.6133332 L0.000139722199,21.665185 C0.000139722199,21.9432295 0.224139722,22.1688887 0.500139722,22.1628443" id="Fill-29"></path>
                    <path d="M18.8126397,20.7776591 C20.0936397,20.0906073 21.6886397,19.2373332 23.7236397,18.2117924 C23.8676397,18.1392591 23.9676397,18.0012443 23.9936397,17.8420739 C24.0196397,17.6818962 23.9666397,17.5197036 23.8536397,17.4048591 C22.6786397,16.2231702 21.6666397,15.8967702 20.3426397,16.2755554 L16.8266397,17.4511999 C16.9376397,17.748385 17.0006397,17.5589924 17.0006397,17.8813628 C17.0006397,18.4525628 16.8306397,19.5012739 16.5226397,19.9082665 C16.1576397,20.3918221 15.6166397,20.1480295 14.9996397,20.1480295 L9.49963972,20.1480295 C9.22363972,20.1480295 8.99963972,19.9223702 8.99963972,19.6443258 C8.99963972,19.3662813 9.22363972,19.1406221 9.49963972,19.1406221 L14.9996397,19.1406221 C15.7896397,19.1406221 15.9996397,18.3487999 15.9996397,17.8813628 C15.9996397,17.4139258 15.7896397,16.6221036 14.9996397,16.6221036 L12.2026397,16.6221036 C11.4586397,15.9169184 9.77363972,15.1170369 7.49963972,15.1170369 L4.99963972,15.1170369 L4.99963972,20.980148 C5.84063972,21.2672591 6.58963972,21.5281776 7.25563972,21.7618962 C13.0806397,23.7988739 13.1886397,23.7908147 18.8126397,20.7776591" id="Fill-31"></path>
                </g>
            </g>
        </g>
    </g>
</svg>