<?xml version="1.0" encoding="UTF-8"?>
<svg viewBox="0 0 24 24" version="1.1" xmlns="http://www.w3.org/2000/svg">
    <title>Family/Him</title>
    <g id="Contact-Types" stroke="none" stroke-width="1" fill="current" fill-rule="evenodd">
        <g id="Contact-Types-(24x24)" transform="translate(-24.000000, 0.000000)">
            <g id="Home" fill="current" fill-rule="nonzero">
                <g id="contacttype_him_24" transform="translate(24.000000, 0.000000)">
                    <g id="ribbon-tie@24x24" transform="translate(0.000000, 5.000000)">
                        <path d="M8.5,8.25 C8.5,7.97385763 8.27614237,7.75 8,7.75 L6.5,7.75 C6.08578644,7.75 5.75,7.41421356 5.75,7 C5.75,6.58578644 6.08578644,6.25 6.5,6.25 L8,6.25 C8.27614237,6.25 8.5,6.02614237 8.5,5.75 L8.5,3.739 C8.5,3.55960063 8.40377653,3.39398208 8.248,3.305 L3.475,0.578 C3.01788326,0.425333438 2.51525209,0.501602417 2.124,0.783 C0.653,1.836 0,4.665 0,7 C0,9.335 0.66,12.168 2.122,13.216 C2.3690031,13.3952521 2.66681445,13.4909021 2.972,13.4890278 C3.1740285,13.4877532 3.37431728,13.4515524 3.564,13.382 L8.249,10.7 C8.40439141,10.6107623 8.50014744,10.4451922 8.5,10.266 L8.5,8.25 Z" id="Path"></path>
                        <polygon id="Path" points="10 3 14 3 14 11 10 11"></polygon>
                        <path d="M21.878,0.784 C21.4563078,0.488440959 20.91382,0.425990913 20.436,0.618 L15.751,3.3 C15.5956086,3.38923766 15.4998526,3.55480784 15.4999998,3.734 L15.4999998,5.75 C15.4999998,6.02614237 15.7238576,6.25 15.9999998,6.25 L17.4999998,6.25 C17.9142136,6.25 18.25,6.58578644 18.25,7 C18.25,7.41421356 17.9142136,7.75 17.4999998,7.75 L15.9999998,7.75 C15.7238576,7.75 15.4999998,7.97385763 15.4999998,8.25 L15.4999998,10.261 C15.4999998,10.4403994 15.5962235,10.6060179 15.752,10.695 L20.525,13.422 C20.9820139,13.5758526 21.4851979,13.4994997 21.876,13.217 C23.34,12.168 23.9999998,9.339 23.9999998,7 C23.9999998,4.661 23.347,1.836 21.878,0.784 Z" id="Path"></path>
                    </g>
                </g>
            </g>
        </g>
    </g>
</svg>