<?xml version="1.0" encoding="UTF-8"?>
<svg viewBox="0 0 24 24" version="1.1" xmlns="http://www.w3.org/2000/svg">
    <title>Help/Cleaning</title>
    <g id="Contact-Types" stroke="none" stroke-width="1" fill="current" fill-rule="evenodd">
        <g id="Contact-Types-(24x24)" transform="translate(-24.000000, -48.000000)">
            <g id="Help" transform="translate(0.000000, 48.000000)" fill="current" fill-rule="nonzero">
                <g id="contacttype_medical_24" transform="translate(47.000000, 0.000000)">
                    <g id="Group-2" transform="translate(0.988996, 0.002791)">
                        <path d="M21.9010041,2.11020948 C19.0830935,-0.70340316 14.5189146,-0.70340316 11.7010041,2.11020948 L2.13100407,11.6842095 C0.0562834858,13.7411505 -0.56978295,16.8478953 0.546335455,19.5478494 C1.66245386,22.2478034 4.29946324,24.0056441 7.22100407,23.9972563 L7.22100407,23.9972563 C9.13230148,24.0041158 10.9669352,23.2461366 12.3160041,21.8922095 L21.8970041,12.3112095 C24.7034776,9.49034872 24.7034776,4.93207024 21.8970041,2.11120948 L21.9010041,2.11020948 Z M20.4870041,10.8972095 L16.7610041,14.6192095 C16.5657541,14.8144004 16.249254,14.8144004 16.0540041,14.6192095 L9.39300407,7.95820948 C9.1978131,7.76295955 9.1978131,7.44645941 9.39300407,7.25120948 L13.1190041,3.52420948 C14.6073587,2.02927867 16.8513905,1.5816535 18.7994113,2.39111805 C20.747432,3.20058261 22.013399,5.1067239 22.0040749,7.21620948 C22.0112325,8.59676163 21.4648275,9.9226132 20.4870041,10.8972095 Z" id="Shape"></path>
                    </g>
                </g>
                <g id="cleaning-vacuum@24x24" transform="translate(24.000000, 0.000000)">
                    <path d="M20.412,20.041 L19.175,20.041 C18.8988576,20.041 18.675,19.8171424 18.675,19.541 L18.675,4.948 C18.675,2.21419049 16.4588095,-0.002 13.725,-0.002 C10.9911905,-0.002 8.775,2.21419049 8.775,4.948 L8.775,11.381 C8.77227909,12.279637 8.492961,13.1556484 7.975,13.89 C7.88280407,14.023305 7.73108113,14.1029034 7.569,14.103 L2.6,14.103 C1.23332363,14.1029996 0.125103939,15.2103241 0.123999461,16.577 L0.123999461,17.552 C0.123745955,17.7243521 0.213338083,17.8843763 0.360403159,17.9742494 C0.507468234,18.0641225 0.690741887,18.0708496 0.844,17.992 C1.38725593,17.712837 1.98921445,17.5671465 2.6,17.567 C4.78558138,17.5692049 6.55679512,19.3404186 6.559,21.526 C6.55853588,22.1361093 6.41285437,22.7373455 6.134,23.28 C6.05506771,23.4334167 6.06189481,23.6168985 6.15200989,23.7640252 C6.24212497,23.9111519 6.40246995,24.000604 6.575,24.0000369 L12.5,24.0000369 C13.8658954,23.9988971 14.9728971,22.8918954 14.974,21.526 C14.9692014,18.4575658 13.0784146,15.7078 10.215,14.605 C10.1495511,14.5801309 10.0978691,14.5284489 10.073,14.463 C10.0478867,14.3980102 10.0511509,14.3254715 10.082,14.263 C10.5337353,13.3695048 10.768743,12.3821982 10.768,11.381 L10.768,4.948 C10.768,3.30826658 12.0972666,1.979 13.737,1.979 C15.3767334,1.979 16.706,3.30826658 16.706,4.948 L16.706,22.515 C16.7065438,23.3329675 17.368039,23.9966975 18.186,24.0000369 L23.386,24.0000369 C23.5191003,24.0016267 23.6472245,23.9494708 23.7413476,23.8553476 C23.8354708,23.7612245 23.8876267,23.6331003 23.8860369,23.5 C23.8810353,21.5858478 22.3261558,20.0376819 20.412,20.041 Z" id="Path"></path>
                    <path d="M0.124,21.526 C0.124,22.8923525 1.23164753,24 2.598,24 C3.96435247,24 5.072,22.8923525 5.072,21.526 C5.072,20.1596475 3.96435247,19.052 2.598,19.052 C1.23164753,19.052 0.124,20.1596475 0.124,21.526 Z" id="Path"></path>
                </g>
            </g>
        </g>
    </g>
</svg>