<?xml version="1.0" encoding="UTF-8"?>
<svg viewBox="0 0 24 24" version="1.1" xmlns="http://www.w3.org/2000/svg">
    <title>Family/Pet/Dog</title>
    <g id="Contact-Types" stroke="none" stroke-width="1" fill="current" fill-rule="evenodd">
        <g id="Contact-Types-(24x24)" transform="translate(-144.000000, 0.000000)">
            <g id="Home" fill="current" fill-rule="nonzero">
                <g id="dog-bone@24x24" transform="translate(144.000000, 0.000000)">
                    <path d="M22.478,5 C21.8124817,4.34948085 20.9196348,3.98394811 19.989,3.981 C19.999869,2.57282547 19.1586115,1.2977217 17.8597403,0.753656281 C16.5608691,0.209590857 15.0619855,0.504466696 14.066,1.5 C13.4144244,2.20367909 13.0698077,3.13781254 13.1082727,4.09605857 C13.1467376,5.05430459 13.565119,5.95781055 14.271,6.607 L6.583,14.293 C5.92050563,13.57495 4.99189707,13.1609092 4.015,13.148 C3.08386592,13.11189 2.18086626,13.4711284 1.529,14.137 C0.878338972,14.7812293 0.508501974,15.6564024 0.499776705,16.572 C0.489492051,17.4877169 0.850239896,18.3686631 1.5,19.014 C2.16415113,19.652488 3.04872252,20.0106141 3.97,20.014 C3.95852618,20.9412675 4.32158734,21.8339581 4.977,22.49 C5.62958601,23.1430656 6.51377418,23.5118368 7.437,23.5162149 C8.82514761,23.5314357 10.087565,22.7140553 10.6415447,21.4411458 C11.1955243,20.1682363 10.9333357,18.687336 9.976,17.682 L17.665,10 C18.2990236,10.6116072 19.1460649,10.9526472 20.027,10.951 C21.4368045,10.950252 22.7069524,10.0992327 23.2438454,8.79566259 C23.7807384,7.49209243 23.47835,5.99340284 22.478,5 Z" id="Path"></path>
                </g>
            </g>
        </g>
    </g>
</svg>