<?xml version="1.0" encoding="UTF-8"?>
<svg viewBox="0 0 24 24" version="1.1" xmlns="http://www.w3.org/2000/svg">
    <title>Colleague/Staff</title>
    <g id="Contact-Types" stroke="none" stroke-width="1" fill="current" fill-rule="evenodd">
        <g id="Contact-Types-(24x24)" transform="translate(-24.000000, -24.000000)">
            <g id="Office" transform="translate(0.000000, 24.000000)" fill="current" fill-rule="nonzero">
                <g id="id-card@24x24" transform="translate(24.000000, 0.000000)">
                    <path d="M24,6.25 C24,5.1454305 23.1045695,4.25 22,4.25 L16,4.25 C15.7238576,4.25 15.5,4.47385763 15.5,4.75 L15.5,6.25 C15.5,6.52614237 15.2761424,6.75 15,6.75 C14.7238576,6.75 14.5,6.52614237 14.5,6.25 L14.5,3.75 C14.5,2.09314575 13.1568542,0.75 11.5,0.75 C9.84314575,0.75 8.5,2.09314575 8.5,3.75 L8.5,6.25 C8.5,6.52614237 8.27614237,6.75 8,6.75 C7.72385763,6.75 7.5,6.52614237 7.5,6.25 L7.5,4.75 C7.5,4.47385763 7.27614237,4.25 7,4.25 L2,4.25 C0.8954305,4.25 0,5.1454305 0,6.25 L0,21.25 C0,22.3545695 0.8954305,23.25 2,23.25 L22,23.25 C23.1045695,23.25 24,22.3545695 24,21.25 L24,6.25 Z M10.5,3.5 C10.5,2.94771525 10.9477153,2.5 11.5,2.5 C12.0522847,2.5 12.5,2.94771525 12.5,3.5 C12.5,4.05228475 12.0522847,4.5 11.5,4.5 C10.9477153,4.5 10.5,4.05228475 10.5,3.5 Z M2.5,21.25 C2.22385763,21.25 2,21.0261424 2,20.75 L2,10.25 C2,9.97385763 2.22385763,9.75 2.5,9.75 L21.5,9.75 C21.7761424,9.75 22,9.97385763 22,10.25 L22,20.75 C22,21.0261424 21.7761424,21.25 21.5,21.25 L2.5,21.25 Z" id="Shape"></path>
                    <path d="M19.25,13.5 L14.5,13.5 C14.0857864,13.5 13.75,13.8357864 13.75,14.25 C13.75,14.6642136 14.0857864,15 14.5,15 L19.25,15 C19.6642136,15 20,14.6642136 20,14.25 C20,13.8357864 19.6642136,13.5 19.25,13.5 Z" id="Path"></path>
                    <path d="M18,16.5 L14.5,16.5 C14.0857864,16.5 13.75,16.8357864 13.75,17.25 C13.75,17.6642136 14.0857864,18 14.5,18 L18,18 C18.4142136,18 18.75,17.6642136 18.75,17.25 C18.75,16.8357864 18.4142136,16.5 18,16.5 Z" id="Path"></path>
                    <path d="M9.457,16.62 C9.41952424,16.4931933 9.41064428,16.3596523 9.431,16.229 C10.0517321,15.445881 10.3596238,14.4601998 10.295,13.463 C10.3515406,12.6069182 9.92690109,11.7905288 9.19350629,11.3453266 C8.46011149,10.9001244 7.53988851,10.9001244 6.80649371,11.3453266 C6.07309891,11.7905288 5.64845941,12.6069182 5.705,13.463 C5.63811191,14.4422484 5.93470085,15.4117703 6.538,16.186 C6.581,16.275 6.591,16.541 6.614,16.568 C5.071,17.148 4.224,17.568 3.876,18.277 C3.69873703,18.6424232 3.57480829,19.0313843 3.508,19.432 C3.48260648,19.5770994 3.52248755,19.7260131 3.617,19.839 C3.71192156,19.9523596 3.85214708,20.0178958 4,20.018 L12,20.018 C12.1478529,20.0178958 12.2880784,19.9523596 12.383,19.839 C12.4775125,19.7260131 12.5173935,19.5770994 12.492,19.432 C12.4251917,19.0313843 12.301263,18.6424232 12.124,18.277 C11.776,17.572 10.929,17.148 9.457,16.62 Z" id="Path"></path>
                </g>
            </g>
            <g id="Home"></g>
        </g>
    </g>
</svg>