<?xml version="1.0" encoding="UTF-8"?>
<svg viewBox="0 0 24 24" fill="current" xmlns="http://www.w3.org/2000/svg">
    <title>bolt_half</title>
    <path d="M15.7292 0C16.5891 0 17.191 0.820814 16.9641 1.62297L16.926 1.73735L13.7216 10.2954H16.63C17.5796 10.2954 18.1865 11.2764 17.7937 12.117L17.7368 12.2258L11.0576 23.6794C10.7406 24.2159 9.95008 24.0362 9.86774 23.4577L9.86078 23.3577V14.1562H7.28693C6.62335 14.1562 6.07289 13.6472 6.00668 13.0004L6 12.8693V1.28693C6 0.623355 6.50899 0.0728923 7.15583 0.00667655L7.28693 0H15.7292ZM11.0608 12.9562L11.06 21.291L16.6997 11.6221C16.7279 11.5735 16.7093 11.5216 16.6664 11.5028L16.63 11.4954L11.9575 11.5028L11.0608 12.9562Z" fill="current"/>
</svg>
