<?xml version="1.0" encoding="UTF-8"?>
<svg viewBox="0 0 24 24" fill="current" xmlns="http://www.w3.org/2000/svg">
    <title>heart_empty</title>
    <g clip-path="url(#clip0)">
        <path d="M21.1888 2.18833C18.022 0.0291583 14.1115 1.03677 12.0003 3.50782C9.88914 1.03677 5.97864 0.0171629 2.81186 2.18833C1.13251 3.33989 0.0769138 5.28314 0.00494147 7.33435C-0.162994 11.9886 3.96342 15.7191 10.261 21.4409L10.381 21.5489C11.2926 22.3766 12.6961 22.3766 13.6077 21.5369L13.7397 21.4169C20.0372 15.7071 24.1517 11.9766 23.9957 7.32235C23.9237 5.28314 22.8681 3.33989 21.1888 2.18833V2.18833ZM12.1203 19.6536L12.0003 19.7736L11.8804 19.6536C6.17057 14.4836 2.40402 11.0649 2.40402 7.59825C2.40402 5.19917 4.20333 3.39986 6.6024 3.39986C8.44969 3.39986 10.249 4.58741 10.8848 6.23077H13.1279C13.7517 4.58741 15.551 3.39986 17.3983 3.39986C19.7973 3.39986 21.5966 5.19917 21.5966 7.59825C21.5966 11.0649 17.8301 14.4836 12.1203 19.6536Z" fill="current"/>
    </g>
    <defs>
        <clipPath id="clip0">
            <rect width="24" height="24" fill="white"/>
        </clipPath>
    </defs>
</svg>
