<?xml version="1.0" encoding="UTF-8"?>
<svg viewBox="0 0 24 24" fill="current" xmlns="http://www.w3.org/2000/svg">
    <title>heart_half</title>
    <path d="M2.81186 2.18833C5.97864 0.0171629 9.88914 1.03677 12.0003 3.50782C14.1115 1.03677 18.022 0.0291583 21.1888 2.18833C22.8681 3.33989 23.9237 5.28314 23.9957 7.32235C24.1517 11.9766 20.0372 15.7071 13.7397 21.4169L13.6077 21.5369C12.6961 22.3766 11.2926 22.3766 10.381 21.5489L10.261 21.4409C3.96342 15.7191 -0.162994 11.9886 0.00494147 7.33435C0.0769138 5.28314 1.13251 3.33989 2.81186 2.18833ZM17.3983 3.39986C15.551 3.39986 13.7517 4.58741 13.1279 6.23077H12.0003V19.7736L12.1203 19.6536C17.8301 14.4836 21.5966 11.0649 21.5966 7.59825C21.5966 5.19917 19.7973 3.39986 17.3983 3.39986ZM11.7874 2.46378L12.0003 23.1236Z" fill="current"/>
</svg>
