<?xml version="1.0" encoding="UTF-8"?>
<svg viewBox="0 0 24 24" fill="current" xmlns="http://www.w3.org/2000/svg">
    <title>star_half</title>
    <path d="M22.7242 8.68015L15.9379 8.09126L13.2879 1.85179C12.8112 0.716069 11.1847 0.716069 10.708 1.85179L8.05797 8.10528L1.28569 8.68015C0.051819 8.7783 -0.452947 10.3206 0.486479 11.1339L5.63229 15.5926L4.08995 22.2107C3.80952 23.4165 5.1135 24.37 6.17912 23.725L11.9979 20.2197L17.8168 23.739C18.8824 24.384 20.1864 23.4305 19.9059 22.2247L18.3636 15.5926L23.5094 11.1339C24.4488 10.3206 23.9581 8.7783 22.7242 8.68015ZM11.9979 17.5977V4.5579L14.3956 10.2225L20.5369 10.7553L15.8818 14.7934L17.284 20.7945L11.9979 17.5977Z" fill="current"/>
</svg>
