<?xml version="1.0" encoding="UTF-8"?>
<svg viewBox="0 0 24 24" version="1.1" xmlns="http://www.w3.org/2000/svg" xmlns:xlink="http://www.w3.org/1999/xlink">
    <g  stroke="none" stroke-width="1" fill="current" fill-rule="evenodd">
        <g  transform="translate(-237.000000, -24.000000)">
            
            <g  transform="translate(237.000000, 24.000000)" fill="current" fill-rule="nonzero">
                <path d="M18.4,7.2 C19.72,7.2 20.8,8.28 20.8,9.6 L20.8,21.6 C20.8,22.92 19.72,24 18.4,24 L6.4,24 C5.08,24 4,22.92 4,21.6 L4,9.6 C4,8.28 5.08,7.2 6.4,7.2 L18.4,7.2 Z M9.74122,11.7 L8.5,11.7 L8.5,18.9 L9.74122,18.9 L9.74122,11.7 Z M13.8929,11.7 L11.6886,11.7 L11.6886,18.9 L12.9299,18.9 L12.9299,16.2578 L13.9357,16.2578 C14.3137,16.2578 14.6651,16.2119 14.9896,16.1202 C15.3142,16.0284 15.596,15.8853 15.8349,15.6908 C16.0739,15.4963 16.2612,15.2523 16.3967,14.9587 C16.5322,14.6651 16.6,14.3202 16.6,13.9239 C16.6,13.5055 16.5322,13.155 16.3967,12.8725 C16.2612,12.5899 16.0721,12.3606 15.8296,12.1844 C15.5871,12.0083 15.2999,11.8835 14.9682,11.8101 C14.7195,11.755 14.4556,11.7206 14.1768,11.7069 L13.8929,11.7 Z M13.7966,12.7239 C14.3173,12.7239 14.7114,12.8101 14.9789,12.9826 C15.2464,13.155 15.3802,13.4688 15.3802,13.9239 C15.3802,14.7972 14.8666,15.2339 13.8394,15.2339 L12.9299,15.2339 L12.9299,12.7239 L13.7966,12.7239 Z M19.6,5.4 L5.2,5.4 C5.2,4.404 6.004,3.6 7,3.6 L17.8,3.6 C18.796,3.6 19.6,4.404 19.6,5.4 Z M18.4,1.8 L6.4,1.8 C6.4,0.804 7.204,0 8.2,0 L16.6,0 C17.596,0 18.4,0.804 18.4,1.8 Z" ></path>
            </g>
        </g>
    </g>
</svg>