<?xml version="1.0" encoding="UTF-8"?>
<svg viewBox="0 0 24 24" version="1.1" xmlns="http://www.w3.org/2000/svg" xmlns:xlink="http://www.w3.org/1999/xlink">
    <g  stroke="none" stroke-width="1" fill="current" fill-rule="evenodd">
        <g  transform="translate(-261.000000, -24.000000)" fill="current">
            <g transform="translate(261.000000, 24.000000)">
                <path d="M14.999975,9 L15.9400167,6.9299975 L17.99995,6 L15.9400167,5.06999833 L14.999975,3 L14.0800083,5.06999833 L12,6 L14.0800083,6.9299975 L14.999975,9 Z M21.0000167,7.999995 C19.5500333,7.999995 18.739975,9.44004167 19.069975,10.509975 L15.52,14.0700333 C15.219975,13.9800167 14.779975,13.9800167 14.4800417,14.0700333 L11.9299667,11.5199583 C12.2699583,10.450025 11.4599917,8.999995 10,8.999995 C8.54999667,8.999995 7.73000167,10.4400333 8.0700025,11.5199583 L3.50999833,16.0700167 C2.44000083,15.7400167 1,16.5499833 1,17.9999667 C1,19.0999667 1.89999983,20.0000417 3,20.0000417 C4.45000333,20.0000417 5.2599975,18.5599583 4.9299975,17.490025 L9.48000083,12.929975 C9.77999833,13.0199917 10.2200167,13.0199917 10.5200417,12.929975 L13.070025,15.4799583 C12.7300333,16.5499833 13.54,17.9999667 14.999975,17.9999667 C16.4499583,17.9999667 17.2700083,16.559975 16.9300167,15.4799583 L20.4899833,11.9299833 C21.5600083,12.2599833 23,11.4500167 23,10.0000333 C23,8.89999667 22.1000167,7.999995 21.0000167,7.999995 Z M4,9.0000025 L3.5,11.000025 L3,9.0000025 L1,8.5000025 L3,8.0000025 L3.5,6.0000025 L4,8.0000025 L6,8.5000025 L4,9.0000025 Z" ></path>
            </g>
        </g>
    </g>
</svg>