<?xml version="1.0" encoding="UTF-8"?>
<svg viewBox="0 0 24 24" version="1.1" xmlns="http://www.w3.org/2000/svg" xmlns:xlink="http://www.w3.org/1999/xlink">
    <g stroke="none" stroke-width="1" fill="current" fill-rule="evenodd">
        <g transform="translate(-144.000000, 0.000000)" fill="current" fill-rule="nonzero">
            <g  transform="translate(144.000000, 0.000000)">
                <g transform="translate(1.000000, 1.000000)">
                    <path d="M10.989,0 C4.917,0 0,4.928 0,11 C0,17.072 4.917,22 10.989,22 C17.072,22 22,17.072 22,11 C22,4.928 17.072,0 10.989,0 Z M18.612,6.6 L15.367,6.6 C15.015,5.225 14.509,3.905 13.849,2.684 C15.873,3.377 17.556,4.785 18.612,6.6 Z M11,2.244 C11.913,3.564 12.628,5.027 13.101,6.6 L8.899,6.6 C9.372,5.027 10.087,3.564 11,2.244 Z M2.486,13.2 C2.31,12.496 2.2,11.759 2.2,11 C2.2,10.241 2.31,9.504 2.486,8.8 L6.204,8.8 C6.116,9.526 6.05,10.252 6.05,11 C6.05,11.748 6.116,12.474 6.204,13.2 L2.486,13.2 Z M3.388,15.4 L6.633,15.4 C6.985,16.775 7.491,18.095 8.151,19.316 C6.127,18.623 4.444,17.226 3.388,15.4 L3.388,15.4 Z M6.633,6.6 L3.388,6.6 C4.444,4.774 6.127,3.377 8.151,2.684 C7.491,3.905 6.985,5.225 6.633,6.6 L6.633,6.6 Z M11,19.756 C10.087,18.436 9.372,16.973 8.899,15.4 L13.101,15.4 C12.628,16.973 11.913,18.436 11,19.756 Z M13.574,13.2 L8.426,13.2 C8.327,12.474 8.25,11.748 8.25,11 C8.25,10.252 8.327,9.515 8.426,8.8 L13.574,8.8 C13.673,9.515 13.75,10.252 13.75,11 C13.75,11.748 13.673,12.474 13.574,13.2 Z M13.849,19.316 C14.509,18.095 15.015,16.775 15.367,15.4 L18.612,15.4 C17.556,17.215 15.873,18.623 13.849,19.316 L13.849,19.316 Z M15.796,13.2 C15.884,12.474 15.95,11.748 15.95,11 C15.95,10.252 15.884,9.526 15.796,8.8 L19.514,8.8 C19.69,9.504 19.8,10.241 19.8,11 C19.8,11.759 19.69,12.496 19.514,13.2 L15.796,13.2 Z" ></path>
                </g>
            </g>
        </g>
    </g>
</svg>