<?xml version="1.0" encoding="UTF-8"?>
<svg viewBox="0 0 24 24" version="1.1" xmlns="http://www.w3.org/2000/svg" xmlns:xlink="http://www.w3.org/1999/xlink">
    <g  stroke="none" stroke-width="1" fill="current" fill-rule="evenodd">
        <g  transform="translate(-168.000000, 0.000000)" fill="current" fill-rule="nonzero">
            <g  transform="translate(168.000000, 0.000000)">
                <path d="M24,9.5 C23.9966932,6.46380465 21.5361953,4.0033068 18.5,4 L5.5,4 C2.46243388,4 0,6.46243388 0,9.5 C0,12.5375661 2.46243388,15 5.5,15 L10.25,15 C10.3880712,15 10.5,15.1119288 10.5,15.25 L10.5,17.904 C10.4993754,18.025546 10.4117509,18.1291787 10.292,18.15 C8.94159725,18.3782225 7.65336025,18.8845954 6.509,19.637 C6.11591346,19.9524614 5.92455874,20.456107 6.009,20.953 C6.00990148,21.493774 6.41991528,21.9461285 6.958,22 L17.042,22 C17.5788966,21.9446953 17.9872563,21.4927369 17.988,20.953 C18.0724972,20.4563925 17.8810979,19.9530124 17.488,19.638 C16.3433953,18.8849694 15.05484,18.3779243 13.704,18.149 C13.5842797,18.1270186 13.4979988,18.0217051 13.5,17.9 L13.5,15.251 C13.5,15.1129288 13.6119288,15.001 13.75,15.001 L18.5,15.001 C21.5365853,14.9976922 23.9972443,12.5365859 24,9.5 Z M12,12.5 C10.3431458,12.5 9,11.1568542 9,9.5 C9,7.84314575 10.3431458,6.5 12,6.5 C13.6568542,6.5 15,7.84314575 15,9.5 C15,10.2956495 14.6839295,11.0587112 14.1213203,11.6213203 C13.5587112,12.1839295 12.7956495,12.5 12,12.5 Z" ></path>
            </g>
        </g>
    </g>
</svg>