<?xml version="1.0" encoding="UTF-8"?>
<svg viewBox="0 0 24 24" version="1.1" xmlns="http://www.w3.org/2000/svg" xmlns:xlink="http://www.w3.org/1999/xlink">
    <g  stroke="none" stroke-width="1" fill="current" fill-rule="evenodd">
        <g  transform="translate(-120.000000, 0.000000)" fill="current" fill-rule="nonzero">
            <g  transform="translate(120.000000, 0.000000)">
                <g  transform="translate(3.000000, 0.000000)">
                    <path d="M16.25,8 L15.125,8 L15.125,5.75 C15.125,2.645 12.605,0.125 9.5,0.125 C6.395,0.125 3.875,2.645 3.875,5.75 L3.875,8 L2.75,8 C1.5125,8 0.5,9.0125 0.5,10.25 L0.5,21.5 C0.5,22.7375 1.5125,23.75 2.75,23.75 L16.25,23.75 C17.4875,23.75 18.5,22.7375 18.5,21.5 L18.5,10.25 C18.5,9.0125 17.4875,8 16.25,8 Z M9.5,18.125 C8.2625,18.125 7.25,17.1125 7.25,15.875 C7.25,14.6375 8.2625,13.625 9.5,13.625 C10.7375,13.625 11.75,14.6375 11.75,15.875 C11.75,17.1125 10.7375,18.125 9.5,18.125 Z M6.125,8 L6.125,5.75 C6.125,3.8825 7.6325,2.375 9.5,2.375 C11.3675,2.375 12.875,3.8825 12.875,5.75 L12.875,8 L6.125,8 Z" ></path>
                </g>
            </g>
        </g>
    </g>
</svg>