<?xml version="1.0" encoding="UTF-8"?>
<svg viewBox="0 0 24 24" version="1.1" xmlns="http://www.w3.org/2000/svg" xmlns:xlink="http://www.w3.org/1999/xlink">
    <g  stroke="none" stroke-width="1" fill="current" fill-rule="evenodd">
        <g  transform="translate(-198.000000, 0.000000)" fill="current" fill-rule="nonzero">
            <g  transform="translate(198.000000, 0.000000)">
                <path d="M17.6969829,6.04226125 L19.4626961,7.80797442 L13.4788903,13.7917802 L9.4447262,9.75761605 C8.96651221,9.27940207 8.1940127,9.27940207 7.71579871,9.75761605 L0.358660489,17.1270162 C-0.119553496,17.6052302 -0.119553496,18.3777297 0.358660489,18.8559437 C0.836874473,19.3341576 1.60937399,19.3341576 2.08758797,18.8559437 L8.57413151,12.3571382 L12.6082956,16.3913024 C13.0865096,16.8695163 13.8590091,16.8695163 14.3372231,16.3913024 L21.1916236,9.5491638 L22.9573367,11.314877 C23.3374555,11.6949958 23.999598,11.4252341 23.999598,10.8857106 L23.999598,5.61309485 C24.0118599,5.26976173 23.7420981,5 23.398765,5 L18.1384112,5 C17.5866258,5 17.3168641,5.66214244 17.6969829,6.04226125 L17.6969829,6.04226125 Z" ></path>
            </g>
        </g>
    </g>
</svg>