<?xml version="1.0" encoding="UTF-8"?>
<svg viewBox="0 0 24 24" version="1.1" xmlns="http://www.w3.org/2000/svg" xmlns:xlink="http://www.w3.org/1999/xlink">
    <g  stroke="none" stroke-width="1" fill="current" fill-rule="evenodd">
        <g  fill="current" fill-rule="nonzero">
            <g  transform="translate(0.999374, 0.999374)">
                <path d="M16.1217259,14.1872156 L15.1028838,14.1872156 L14.7417752,13.8390038 C16.2893835,12.0334608 17.088981,9.57018438 16.650492,6.95214712 C16.0443455,3.36685472 13.0523029,0.503779487 9.44121703,0.0652904873 C3.98589801,-0.605339747 -0.605339747,3.98589801 0.0652904873,9.44121703 C0.503779487,13.0523029 3.36685472,16.0443455 6.95214712,16.650492 C9.57018438,17.088981 12.0334608,16.2893835 13.8390038,14.7417752 L14.1872156,15.1028838 L14.1872156,16.1217259 L19.6683281,21.6028384 C20.1970942,22.1316045 21.0611755,22.1316045 21.5899417,21.6028384 C22.1187078,21.0740722 22.1187078,20.209991 21.5899417,19.6812248 L16.1217259,14.1872156 Z M8.38368474,14.1872156 C5.17239765,14.1872156 2.58015387,11.5949718 2.58015387,8.38368474 C2.58015387,5.17239765 5.17239765,2.58015387 8.38368474,2.58015387 C11.5949718,2.58015387 14.1872156,5.17239765 14.1872156,8.38368474 C14.1872156,11.5949718 11.5949718,14.1872156 8.38368474,14.1872156 Z" ></path>
            </g>
        </g>
    </g>
</svg>