<?xml version="1.0" encoding="UTF-8"?>
<svg viewBox="0 0 24 24" version="1.1" xmlns="http://www.w3.org/2000/svg" xmlns:xlink="http://www.w3.org/1999/xlink">
    <g  stroke="none" stroke-width="1" fill="current" fill-rule="evenodd">
        <g  transform="translate(-242.000000, 0.000000)" fill="current">
            <g  transform="translate(242.000000, 0.000000)">
                <path d="M20.0212913,10.161072 C20.0347663,9.96792118 20.0990246,9.78176452 20.2075579,9.62140286 C20.3130663,9.45483536 20.4613829,9.31967286 20.6370162,9.23007787 C20.8126496,9.1404737 21.0090912,9.09972787 21.2058996,9.11210287 C21.4027079,9.1244687 21.5925496,9.18949703 21.7555329,9.3003862 C21.9186079,9.41127536 22.0487745,9.56393702 22.1325579,9.74240285 C22.7942995,11.3083903 23.0839662,13.0063319 22.9790079,14.7030819 C22.8740495,16.3999235 22.3772162,18.0491901 21.5275579,19.5217234 C21.3337746,19.8574067 21.0546496,20.1359817 20.7185079,20.3291234 C20.3823663,20.5223567 20.0012163,20.6232817 19.6135579,20.6217412 L4.37810919,20.6217412 C3.99416336,20.6194317 3.61751421,20.5166734 3.28558922,20.3236234 C2.95366422,20.1306651 2.67802257,19.8541984 2.48605424,19.5217234 C1.32551119,17.5218318 0.824618865,15.2072485 1.05452628,12.9065069 C1.28443352,10.6057653 2.23344841,8.43603372 3.76676587,6.7054221 C5.30008333,4.97480131 7.33973994,3.77133718 9.59600488,3.26596969 C11.8522332,2.76061137 14.2103581,2.97904387 16.3354664,3.89024718 C16.5204497,3.96629384 16.6813247,4.09138217 16.800583,4.25201883 C16.9197497,4.41266466 16.9929913,4.60279049 17.0122413,4.80193632 C17.0313997,5.00107298 16.9960163,5.20168548 16.9096663,5.3821863 C16.823408,5.56268713 16.689483,5.71622879 16.5224664,5.82630212 C16.3620497,5.93480796 16.1759664,5.99906629 15.982733,6.01258712 C15.7895914,6.02610795 15.5963581,5.98841462 15.4223747,5.90330212 C14.6819831,5.5886288 13.9004331,5.3811963 13.1013748,5.28728381 C11.5221415,5.08135465 9.91663654,5.30782631 8.45601074,5.94256296 C6.99538495,6.5772996 5.73438165,7.59650458 4.80743001,8.89152538 C3.88047837,10.1865553 3.32232005,11.708882 3.19247422,13.2960903 C3.06261922,14.8833902 3.36594421,16.4761902 4.07010003,17.9046318 C4.16301336,18.0840235 4.30352002,18.2342651 4.47622002,18.3390401 C4.64891085,18.4439068 4.84713084,18.4990901 5.0491275,18.4986318 L18.964558,18.4986318 C19.1653996,18.5000985 19.3628496,18.4465651 19.5353663,18.3438068 C19.7079746,18.2410485 19.8491413,18.0929151 19.9435579,17.9156318 C20.7208912,16.2991818 20.9857162,14.4837236 20.7025579,12.7124486 C20.5957662,12.0275153 20.4035413,11.3586236 20.1305579,10.7214487 C20.0453996,10.547557 20.0077246,10.354232 20.0212913,10.161072 Z M9.80554571,14.0270402 C9.80554571,13.4432153 10.0374624,12.8833153 10.4502832,12.4704486 L19.7895579,6.24431128 L13.5633748,15.5835402 C13.1505081,15.9964069 12.5906081,16.2283235 12.0067831,16.2283235 C11.7177582,16.2283235 11.4314832,16.1713985 11.1644582,16.0607568 C10.8973415,15.9501152 10.6546999,15.7879569 10.4502832,15.5835402 C10.2458665,15.3791235 10.0837265,15.1364819 9.9731032,14.8694569 C9.86247987,14.6023402 9.80554571,14.3160652 9.80554571,14.0270402 Z" ></path>
            </g>
        </g>
    </g>
</svg>