<?xml version="1.0" encoding="UTF-8"?>
<svg viewBox="0 0 24 24" version="1.1" xmlns="http://www.w3.org/2000/svg" xmlns:xlink="http://www.w3.org/1999/xlink">
    <g  stroke="none" stroke-width="1" fill="current" fill-rule="evenodd">
        <g  transform="translate(-285.000000, -24.000000)" fill="current" fill-rule="nonzero">
            <g  transform="translate(285.000000, 24.000000)">
                <path d="M7.97794157,9.25521736 L1.53836367,9.25521736 C1.01421202,9.25521736 0.800272832,9.91844404 1.22815175,10.228644 L6.48036489,13.9833107 L4.4586382,20.5084191 C4.30888237,21.0004858 4.87582237,21.4069358 5.29299738,21.0967358 L10.5666083,17.0746774 L15.8401916,21.0861025 C16.2573667,21.3963025 16.824325,21.0004858 16.6745417,20.4976941 L14.6528333,13.9725857 L19.9050584,10.217919 C20.3329584,9.91844404 20.1190084,9.24452903 19.5948584,9.24452903 L13.155275,9.24452903 L11.0693999,2.37707313 C10.9196166,1.87430896 10.2028749,1.87430896 10.0424583,2.37707313 L7.97794157,9.25521736 Z M21.1565834,20.4976941 L19.659025,15.6627358 L22.7718417,13.4377107 C23.1997417,13.1382357 22.9857917,12.4643024 22.4616417,12.4643024 L20.4505667,12.4643024 L17.155975,14.8176608 L18.7177,19.8666608 L20.3222334,21.0861025 C20.7394084,21.3963025 21.3063667,20.9897608 21.1565834,20.4976941 Z M16.9848333,7.11582734 L15.55135,2.38777063 C15.4016583,1.88500646 14.6849166,1.88500646 14.5245,2.38777063 L13.9147333,4.38810232 L14.7490833,7.11582734 L16.9848333,7.11582734 Z" ></path>
            </g>
        </g>
    </g>
</svg>