<?xml version="1.0" encoding="UTF-8"?>
<svg viewBox="0 0 24 24" version="1.1" xmlns="http://www.w3.org/2000/svg" xmlns:xlink="http://www.w3.org/1999/xlink">
    <g  stroke="none" stroke-width="1" fill="current" fill-rule="evenodd">
        <g  transform="translate(-241.000000, -1.000000)">
            <g  transform="translate(264.000000, 0.000000)"></g>
            <g  transform="translate(241.000000, 1.000000)" fill="current" fill-rule="nonzero">
                <g  transform="translate(1.000000, 2.000000)">
                    <path d="M4.125,10.6938341 C4.24664063,10.6940506 4.36337849,10.6459045 4.4495,10.56 C4.6035,10.4041667 8.25,6.72925 8.25,4.125 C8.25,1.84682541 6.40317459,0 4.125,0 C1.84682541,0 0,1.84682541 0,4.125 C0,6.72925 3.6465,10.4041667 3.8005,10.56 C3.88662151,10.6459045 4.00335937,10.6940506 4.125,10.6938341 Z M2.46949971,4.125 C2.46912925,3.53755415 2.82276174,3.00776304 3.36542008,2.78278595 C3.90807842,2.55780886 4.53283173,2.68197755 4.94821876,3.09736458 C5.36360578,3.5127516 5.48777447,4.13750491 5.26279738,4.68016325 C5.03782029,5.22282159 4.50802918,5.57645408 3.92058333,5.57608362 C3.1195909,5.57507325 2.47051008,4.92599243 2.46949971,4.125 Z" ></path>
                    <path d="M17.4166667,8.8605 C14.8866179,8.86353061 12.8363639,10.9137846 12.8333333,13.4438333 C12.8333333,16.3469167 16.9189167,20.4719167 17.0921667,20.6433333 C17.1781539,20.7295382 17.2949083,20.777986 17.4166667,20.777986 C17.538425,20.777986 17.6551794,20.7295382 17.7411667,20.6433333 C17.9144167,20.4719167 22,16.3469167 22,13.4438333 C21.9969694,10.9137846 19.9467154,8.86353061 17.4166667,8.8605 Z M17.4166667,15.048 C16.5307099,15.048 15.8125,14.3297901 15.8125,13.4438333 C15.8125,12.5578765 16.5307099,11.8396667 17.4166667,11.8396667 C18.3026235,11.8396667 19.0208333,12.5578765 19.0208333,13.4438333 C19.0203276,14.3295806 18.3024139,15.0474943 17.4166667,15.048 L17.4166667,15.048 Z" ></path>
                    <path d="M4.125,12.0688333 C3.61873898,12.0688333 3.20833333,12.479239 3.20833333,12.9855 L3.20833333,14.3605 C3.20833333,14.866761 3.61873898,15.2771667 4.125,15.2771667 C4.63126102,15.2771667 5.04166667,14.866761 5.04166667,14.3605 L5.04166667,12.9855 C5.04166667,12.479239 4.63126102,12.0688333 4.125,12.0688333 L4.125,12.0688333 Z" ></path>
                    <path d="M4.125,16.6521667 C3.61873898,16.6521667 3.20833333,17.0625723 3.20833333,17.5688333 L3.20833333,18.9438333 C3.20833333,19.4500944 3.61873898,19.8605 4.125,19.8605 C4.63126102,19.8605 5.04166667,19.4500944 5.04166667,18.9438333 L5.04166667,17.5688333 C5.04166667,17.0625723 4.63126102,16.6521667 4.125,16.6521667 Z" ></path>
                    <path d="M8.70833333,18.0271667 L7.33333333,18.0271667 C6.82707231,18.0271667 6.41666667,18.4375723 6.41666667,18.9438333 C6.41666667,19.4500944 6.82707231,19.8605 7.33333333,19.8605 L8.70833333,19.8605 C9.21459435,19.8605 9.625,19.4500944 9.625,18.9438333 C9.625,18.4375723 9.21459435,18.0271667 8.70833333,18.0271667 Z" ></path>
                    <path d="M13.2916667,18.0271667 L11.9166667,18.0271667 C11.4104056,18.0271667 11,18.4375723 11,18.9438333 C11,19.4500944 11.4104056,19.8605 11.9166667,19.8605 L13.2916667,19.8605 C13.7979277,19.8605 14.2083333,19.4500944 14.2083333,18.9438333 C14.2083333,18.4375723 13.7979277,18.0271667 13.2916667,18.0271667 Z" ></path>
                </g>
            </g>
        </g>
    </g>
</svg>