<?xml version="1.0" encoding="UTF-8"?>
<svg viewBox="0 0 24 24" version="1.1" xmlns="http://www.w3.org/2000/svg" xmlns:xlink="http://www.w3.org/1999/xlink">
    <g stroke="none" stroke-width="1" fill="current" fill-rule="evenodd">
        <g transform="translate(-239.000000, 0.000000)">
            <g transform="translate(239.000000, 0.000000)" fill="current" fill-rule="nonzero">
                <g transform="translate(3.000000, 1.000000)">
                    <path d="M9,-0.502 C9.51283584,-0.502 9.93550716,-0.11595981 9.99327227,0.381378875 L10,0.498 L10,10.248 C10,10.8002847 9.55228475,11.248 9,11.248 C8.48716416,11.248 8.06449284,10.8619598 8.00672773,10.3646211 L8,10.248 L8,0.498 C8,-0.0542847498 8.44771525,-0.502 9,-0.502 Z" id="Path"></path>
                    <path d="M11.0571728,3.67771812 C11.2412393,3.15700901 11.8125728,2.88410627 12.3332819,3.06817277 C15.1813534,4.07494326 17.4212807,6.3151692 18.4277933,9.16362217 C20.2688783,14.370215 17.5401658,20.0836393 12.333199,21.9248565 C7.12647445,23.764877 1.41327706,21.0359293 -0.427793308,15.8293778 C-2.26887829,10.622785 0.459834208,4.90936069 5.66662217,3.06820669 C6.18731254,2.8840872 6.75867382,3.1569318 6.94279331,3.67762217 C7.1269128,4.19831254 6.8540682,4.76967382 6.33337783,4.95379331 C2.16792771,6.42672349 -0.0150375281,10.997453 1.45779331,15.1626222 C2.93067555,19.3279367 7.50139152,21.5111704 11.6666222,20.0392067 C15.8320723,18.5662765 18.0150375,13.995547 16.5421319,9.83016633 C15.7368662,7.55124645 13.9450623,5.75920366 11.6667181,4.95382723 C11.146009,4.76976073 10.8731063,4.19842722 11.0571728,3.67771812 Z" id="Path"></path>
                </g>
            </g>
        </g>
    </g>
</svg>