<?xml version="1.0" encoding="UTF-8"?>
<svg viewBox="0 0 24 24" version="1.1" xmlns="http://www.w3.org/2000/svg" xmlns:xlink="http://www.w3.org/1999/xlink">
    <g  stroke="none" stroke-width="1" fill="current" fill-rule="evenodd">
        <g  transform="translate(-288.000000, 0.000000)" fill="current" fill-rule="nonzero">
            <g  transform="translate(288.000000, 0.000000)">
                <g  transform="translate(1.000000, 2.000000)">
                    <path d="M18.6440833,0.6105 C18.4139317,0.372206464 18.0731119,0.276638453 17.7526183,0.360527606 C17.4321246,0.44441676 17.1818334,0.694707974 17.0979443,1.01520162 C17.0140551,1.33569527 17.1096231,1.67651507 17.3479167,1.90666667 C19.1531667,3.71173253 20.1673611,6.16003778 20.1673611,8.71291667 C20.1673611,11.2657955 19.1531667,13.7141008 17.3479167,15.5191667 C16.989737,15.8770932 16.9895318,16.457612 17.3474583,16.8157917 C17.7053849,17.1739713 18.2859037,17.1741765 18.6440833,16.81625 C20.7933107,14.6673461 22.0007613,11.7526128 22.0007613,8.713375 C22.0007613,5.67413721 20.7933107,2.7594039 18.6440833,0.6105 Z" ></path>
                    <path d="M16.0499167,3.20283333 C15.6869395,2.87553901 15.131016,2.8905876 14.7862768,3.23703946 C14.4415376,3.58349133 14.4292442,4.1394826 14.7583333,4.50083333 C17.08497,6.82766653 17.08497,10.6000001 14.7583333,12.9268333 C14.5267955,13.158535 14.436457,13.4961601 14.5213475,13.8125286 C14.6062381,14.1288971 14.8534608,14.375945 15.1698892,14.4606119 C15.4863176,14.5452788 15.8238788,14.4547016 16.0554167,14.223 C17.5169698,12.7617349 18.338086,10.7796613 18.338086,8.71291667 C18.338086,6.64617207 17.5169698,4.66409841 16.0554167,3.20283333 L16.0499167,3.20283333 Z" ></path>
                    <path d="M1.83333333,8.71383333 C1.8264126,6.15945011 2.84136135,3.70839013 4.65208333,1.90666667 C4.99947453,1.54698602 4.99450634,0.975255621 4.64091703,0.621666306 C4.28732771,0.268076991 3.71559731,0.263108808 3.35591667,0.6105 C1.20668927,2.7594039 -0.000761310374,5.67413721 -0.000761310374,8.713375 C-0.000761310374,11.7526128 1.20668927,14.6673461 3.35591667,16.81625 C3.71409634,17.1741765 4.29461512,17.1739713 4.65254166,16.8157917 C5.01046819,16.457612 5.010263,15.8770932 4.65208333,15.5191667 C2.84112119,13.7183548 1.82608469,11.2677431 1.83333333,8.71383333 L1.83333333,8.71383333 Z" ></path>
                    <path d="M7.24166667,3.20283333 C7.0697291,3.03070438 6.83641681,2.93398723 6.593125,2.93398723 C6.34983319,2.93398723 6.1165209,3.03070438 5.94458333,3.20283333 C2.90224642,6.24558294 2.90224642,11.1784171 5.94458333,14.2211667 C6.17612121,14.4528683 6.51368237,14.5434454 6.8301108,14.4587786 C7.14653924,14.3741117 7.39376193,14.1270637 7.47865248,13.8106952 C7.56354303,13.4943267 7.47320455,13.1567016 7.24166667,12.925 C6.12409085,11.807573 5.49623079,10.2919273 5.49623079,8.71154167 C5.49623079,7.13115598 6.12409085,5.61551038 7.24166667,4.49808333 C7.59890628,4.14023035 7.59890628,3.56068632 7.24166667,3.20283333 Z" ></path>
                    <path d="M11,5.84191167 C9.66218251,5.83938171 8.51759246,6.80211411 8.29089495,8.12058682 C8.06419745,9.43905953 8.82149814,10.728802 10.0833333,11.17325 L10.0833333,18.9044167 C10.0833333,19.4106777 10.493739,19.8210833 11,19.8210833 C11.506261,19.8210833 11.9166667,19.4106777 11.9166667,18.9044167 L11.9166667,11.17325 C13.1785019,10.728802 13.9358026,9.43905953 13.709105,8.12058682 C13.4824075,6.80211411 12.3378175,5.83938171 11,5.84191167 L11,5.84191167 Z" ></path>
                </g>
            </g>
        </g>
    </g>
</svg>