<?xml version="1.0" encoding="UTF-8"?>
<svg width="480px" height="360px" viewBox="0 0 480 360" version="1.1" xmlns="http://www.w3.org/2000/svg" xmlns:xlink="http://www.w3.org/1999/xlink">
    <title> no_results_360</title>
    <g id="-no_results_360" stroke="none" stroke-width="1" fill="none" fill-rule="evenodd">
        <g id="Cohort-analysis-rafiki" transform="translate(-2.000000, -9.000000)" fill-rule="nonzero">
            <g id="freepik--background-complete--inject-11">
                <rect id="Rectangle" fill="#EBEBEB" x="0" y="318.120034" width="485" height="1"></rect>
                <rect id="Rectangle" fill="#EBEBEB" x="384.9251" y="333.753973" width="51.4779" height="1"></rect>
                <rect id="Rectangle" fill="#EBEBEB" x="264.3832" y="330.712691" width="56.9002" height="1"></rect>
                <rect id="Rectangle" fill="#EBEBEB" x="368.794" y="329.30379" width="18.6143" height="1"></rect>
                <rect id="Rectangle" fill="#EBEBEB" x="97.4559" y="326.36939" width="41.8943" height="1"></rect>
                <rect id="Rectangle" fill="#EBEBEB" x="77.0762" y="326.36939" width="14.9768" height="1"></rect>
                <rect id="Rectangle" fill="#EBEBEB" x="127.5259" y="330.469777" width="52.574" height="1"></rect>
                <path d="M229.89,274.784196 L42.5927,274.784196 C39.5375492,274.778836 37.0637,272.296412 37.0637,269.236043 L37.0637,5.49957054 C37.0902833,2.45818346 39.5563831,0.00521005578 42.5927,-1.1010037e-14 L229.89,-1.1010037e-14 C232.94894,-1.1010037e-14 235.4287,2.48399285 235.4287,5.54815332 L235.4287,5.54815332 L235.4287,269.236043 C235.4287,270.707504 234.84516,272.118699 233.806452,273.159179 C232.767745,274.19966 231.358955,274.784196 229.89,274.784196 Z M42.5927,0.194331114 C39.6714783,0.199690478 37.3062,2.57335807 37.3062,5.49957054 L37.3062,269.236043 C37.3062,272.162255 39.6714783,274.535923 42.5927,274.541282 L229.89,274.541282 C232.810592,274.530624 235.17556,272.161619 235.1862,269.236043 L235.1862,5.49957054 C235.17556,2.57399375 232.810592,0.204989059 229.89,0.194331114 L42.5927,0.194331114 Z" id="Shape" fill="#EBEBEB"></path>
                <path d="M439.7107,274.784196 L252.4037,274.784196 C249.34918,274.773535 246.875643,272.295776 246.865,269.236043 L246.865,5.49957054 C246.896862,2.4566177 249.365769,0.00515276439 252.4037,0 L439.7107,0 C442.743234,0.0105237215 445.203463,2.46195918 445.230009,5.49957054 L445.230009,269.236043 C445.232575,270.704928 444.652525,272.114676 443.617455,273.155157 C442.582385,274.195638 441.177083,274.784196 439.7107,274.784196 L439.7107,274.784196 Z M252.4037,0.194331114 C249.483108,0.204989059 247.11814,2.57399375 247.1075,5.49957054 L247.1075,269.236043 C247.11814,272.161619 249.483108,274.530624 252.4037,274.541282 L439.7107,274.541282 C442.631292,274.530624 444.99626,272.161619 445.0069,269.236043 L445.0069,5.49957054 C444.99626,2.57399375 442.631292,0.204989059 439.7107,0.194331114 L252.4037,0.194331114 Z" id="Shape" fill="#EBEBEB"></path>
                <rect id="Rectangle" fill="#F0F0F0" x="360.5005" y="20.6282478" width="42.5151" height="124.303897"></rect>
                <rect id="Rectangle" fill="#F5F5F5" x="351.3631" y="20.6282478" width="48.9074" height="124.303897"></rect>
                <rect id="Rectangle" fill="#FFFFFF" x="355.4662" y="25.5156753" width="40.7109" height="114.538759"></rect>
                <rect id="Rectangle" fill="#F5F5F5" x="365.3311" y="38.1666309" width="20.9714" height="89.2271312"></rect>
                <rect id="Rectangle" fill="#F0F0F0" x="299.3808" y="47.4070754" width="42.5151" height="124.303897"></rect>
                <rect id="Rectangle" fill="#F5F5F5" x="290.2531" y="47.4070754" width="48.9074" height="124.303897"></rect>
                <rect id="Rectangle" fill="#FFFFFF" x="294.3465" y="52.2945029" width="40.7109" height="114.538759"></rect>
                <rect id="Rectangle" fill="#F5F5F5" x="304.2211" y="64.9454584" width="20.9714" height="89.2271312" rx="8.39510414"></rect>
                <rect id="Rectangle" fill="#E6E6E6" x="260.7554" y="223.898594" width="8.2547" height="94.2214408"></rect>
                <rect id="Rectangle" fill="#F0F0F0" x="258.1558" y="223.898594" width="5.7327" height="94.2214408"></rect>
                <rect id="Rectangle" fill="#F0F0F0" x="256.3807" y="223.888877" width="98.164" height="9.29874383"></rect>
                <rect id="Rectangle" fill="#E6E6E6" x="358.2404" y="233.187621" width="8.2547" height="84.922697"></rect>
                <rect id="Rectangle" fill="#F0F0F0" x="355.6311" y="233.187621" width="5.7327" height="84.922697"></rect>
                <rect id="Rectangle" fill="#E6E6E6" x="410.4555" y="233.187621" width="8.2547" height="84.922697"></rect>
                <rect id="Rectangle" fill="#F0F0F0" x="407.8559" y="233.187621" width="5.7327" height="84.922697"></rect>
                <rect id="Rectangle" fill="#E6E6E6" x="312.9802" y="233.187621" width="8.2547" height="84.922697"></rect>
                <rect id="Rectangle" fill="#F0F0F0" x="310.3709" y="233.187621" width="5.7327" height="84.922697"></rect>
                <rect id="Rectangle" fill="#E6E6E6" x="354.5544" y="223.898594" width="64.1655" height="9.29874383"></rect>
                <polygon id="Path" fill="#E6E6E6" points="350.4125 223.694546 392.5396 223.694546 397.7485 166.366867 355.6214 166.366867"></polygon>
                <polygon id="Path" fill="#F0F0F0" points="348.23 223.694546 390.3571 223.694546 395.566 166.366867 353.4389 166.366867"></polygon>
                <polygon id="Path" fill="#FFFFFF" points="384.5953 217.349635 388.6499 172.711778 359.2007 172.711778 355.1461 217.349635"></polygon>
                <rect id="Rectangle" fill="#EBEBEB" x="130.0479" y="29.7909598" width="69.646" height="288.319358"></rect>
                <rect id="Rectangle" fill="#FAFAFA" x="136.7118" y="35.6208933" width="56.3182" height="276.659491"></rect>
                <rect id="Rectangle" fill="#EBEBEB" x="57.4434" y="29.7909598" width="69.646" height="288.319358"></rect>
                <rect id="Rectangle" fill="#E0E0E0" x="127.0894" y="30.9277969" width="2.9585" height="286.0554"></rect>
                <rect id="Rectangle" fill="#FAFAFA" x="64.1073" y="35.6208933" width="56.3182" height="276.659491"></rect>
                <rect id="Rectangle" fill="#E0E0E0" x="48.4709" y="25.0492807" width="160.1955" height="2.59432038" rx="1.06882113"></rect>
                <rect id="Rectangle" fill="#E0E0E0" x="136.7118" y="35.6306098" width="56.3182" height="5.50928709"></rect>
                <rect id="Rectangle" fill="#E0E0E0" x="136.7021" y="35.6208933" width="56.3182" height="9.28902727"></rect>
                <rect id="Rectangle" fill="#E0E0E0" x="64.1073" y="35.6208933" width="56.3182" height="20.2978849"></rect>
                <g id="Group" opacity="0.800000012" transform="translate(185.017800, 18.995866)">
                    <rect id="Rectangle" fill="#F5F5F5" x="0" y="0" width="10.7476" height="295.567909"></rect>
                    <rect id="Rectangle" fill="#F0F0F0" x="2.8421" y="0" width="5.0731" height="295.567909"></rect>
                    <rect id="Rectangle" fill="#F5F5F5" x="5.7715" y="0" width="10.7476" height="295.567909"></rect>
                    <rect id="Rectangle" fill="#F0F0F0" x="8.6039" y="0" width="5.0731" height="295.567909"></rect>
                    <rect id="Rectangle" fill="#F5F5F5" x="11.1453" y="0" width="10.7476" height="295.567909"></rect>
                </g>
                <g id="Group" opacity="0.800000012" transform="translate(50.391500, 18.995866)">
                    <rect id="Rectangle" fill="#F5F5F5" x="0" y="0" width="22.5816" height="295.567909"></rect>
                    <rect id="Rectangle" fill="#F0F0F0" x="5.9655" y="0" width="10.6603" height="295.567909"></rect>
                    <rect id="Rectangle" fill="#F5F5F5" x="12.1153" y="0" width="22.5816" height="295.567909"></rect>
                    <rect id="Rectangle" fill="#F0F0F0" x="18.0808" y="0" width="10.6603" height="295.567909"></rect>
                    <rect id="Rectangle" fill="#F5F5F5" x="23.4158" y="0" width="22.5816" height="295.567909"></rect>
                </g>
            </g>
            <g id="freepik--Shadow--inject-11" transform="translate(54.426700, 340.001718)" fill="#F5F5F5">
                <ellipse id="freepik--path--inject-11" cx="188.0733" cy="10.9991411" rx="188.0733" ry="10.9991411"></ellipse>
            </g>
            <g id="freepik--Table--inject-11" transform="translate(76.431870, 76.537309)">
                <polygon id="Rectangle" fill="#1A6AFF" transform="translate(1.216343, 44.850167) rotate(-4.510000) translate(-1.216343, -44.850167) " points="0.732542001 35.8332977 1.70255224 35.833168 1.70014353 53.8669054 0.730133291 53.8670352"></polygon>
                <polygon id="Rectangle" fill="#1A6AFF" transform="translate(2.693221, 63.554194) rotate(-4.520000) translate(-2.693221, -63.554194) " points="2.20860699 60.6344645 3.17861727 60.6343345 3.17783558 66.4739227 2.2078253 66.4740527"></polygon>
                <polygon id="Path" fill="#1A6AFF" points="39.1048299 3.18703028 77.3519299 3.18703028 115.60873 3.18703028 153.85583 3.18703028 192.10293 3.18703028 230.35003 3.18703028 232.00873 24.2816728 233.67713 45.3665987 235.33583 66.4612411 237.00423 87.5461671 238.66293 108.631093 240.33133 129.725735 202.08423 129.725735 163.82743 129.725735 125.58033 129.725735 87.3332299 129.725735 49.0861299 129.725735 10.8390299 129.725735 9.18032987 108.631093 7.51192987 87.5461671 5.85322987 66.4612411 4.18482987 45.3665987 2.52612987 24.2816728 0.857729874 3.18703028"></polygon>
                <polygon id="Path" fill="#FFFFFF" points="41.9275299 0.27206356 80.1746299 0.27206356 118.42173 0.27206356 156.66883 0.27206356 194.91593 0.27206356 233.16303 0.27206356 234.83143 21.366706 236.49013 42.451632 238.15853 63.5462744 239.81723 84.6312003 241.48563 105.716126 243.14433 126.810769 204.89723 126.810769 166.65013 126.810769 128.40303 126.810769 90.1559299 126.810769 51.9088299 126.810769 13.6520299 126.810769 11.9933299 105.716126 10.3249299 84.6312003 8.66622987 63.5462744 7.00752987 42.451632 5.33912987 21.366706 3.68042987 0.27206356"></polygon>
                <polygon id="Path" fill="#FFFFFF" points="196.58433 21.366706 234.83143 21.366706 233.16303 0.27206356 194.91593 0.27206356"></polygon>
                <polygon id="Path" fill="#FFFFFF" points="158.33723 21.366706 196.58433 21.366706 194.91593 0.27206356 156.66883 0.27206356"></polygon>
                <polygon id="Path" fill="#FFFFFF" points="120.08043 21.366706 158.33723 21.366706 156.66883 0.27206356 118.42173 0.27206356"></polygon>
                <polygon id="Path" fill="#FFFFFF" points="81.8333299 21.366706 120.08043 21.366706 118.42173 0.27206356 80.1746299 0.27206356"></polygon>
                <polygon id="Path" fill="#FFFFFF" points="43.5862299 21.366706 81.8333299 21.366706 80.1746299 0.27206356 41.9275299 0.27206356"></polygon>
                <polygon id="Path" fill="#F5F5F5" points="5.33912987 21.366706 43.5862299 21.366706 41.9275299 0.27206356 3.68042987 0.27206356"></polygon>
                <polygon id="Path" fill="#1A6AFF" points="198.24303 42.451632 236.49013 42.451632 234.83143 21.366706 196.58433 21.366706"></polygon>
                <polygon id="Path" fill="#1A6AFF" opacity="0.300000012" points="159.99593 42.451632 198.24303 42.451632 196.58433 21.366706 158.33723 21.366706"></polygon>
                <polygon id="Path" fill="#1A6AFF" opacity="0.600000024" points="121.74883 42.451632 159.99593 42.451632 158.33723 21.366706 120.08043 21.366706"></polygon>
                <polygon id="Path" fill="#1A6AFF" opacity="0.600000024" points="83.5017299 42.451632 121.74883 42.451632 120.08043 21.366706 81.8333299 21.366706"></polygon>
                <polygon id="Path" fill="#1A6AFF" points="45.2546299 42.451632 83.5017299 42.451632 81.8333299 21.366706 43.5862299 21.366706"></polygon>
                <polygon id="Path" fill="#F5F5F5" points="7.00752987 42.451632 45.2546299 42.451632 43.5862299 21.366706 5.33912987 21.366706"></polygon>
                <path d="M238.42043,63.7891883 L199.67863,63.7891883 L199.67863,63.5657075 L197.99083,42.1892849 L236.72293,42.1892849 L236.72293,42.4127657 L238.42043,63.7891883 Z M200.13453,63.3033605 L237.89663,63.3033605 L236.26703,42.6945458 L198.50493,42.6945458 L200.13453,63.3033605 Z" id="Shape" fill="#E0E0E0"></path>
                <polygon id="Path" fill="#1A6AFF" opacity="0.100000001" points="161.66433 63.5462744 199.91143 63.5462744 198.24303 42.451632 159.99593 42.451632"></polygon>
                <polygon id="Path" fill="#1A6AFF" opacity="0.600000024" points="123.40753 63.5462744 161.66433 63.5462744 159.99593 42.451632 121.74883 42.451632"></polygon>
                <polygon id="Path" fill="#1A6AFF" opacity="0.600000024" points="85.1604299 63.5462744 123.40753 63.5462744 121.74883 42.451632 83.5017299 42.451632"></polygon>
                <polygon id="Path" fill="#1A6AFF" opacity="0.600000024" points="46.9133299 63.5462744 85.1604299 63.5462744 83.5017299 42.451632 45.2546299 42.451632"></polygon>
                <polygon id="Path" fill="#F5F5F5" points="8.66622987 63.5462744 46.9133299 63.5462744 45.2546299 42.451632 7.00752987 42.451632"></polygon>
                <path d="M240.07913,84.8741142 L201.34703,84.8741142 L201.34703,84.6506335 L199.66893,63.2742109 L238.40103,63.2742109 L238.40103,63.4976916 L240.07913,84.8741142 Z M201.79323,84.3882865 L239.55533,84.3882865 L237.93543,63.7891883 L200.17333,63.7891883 L201.79323,84.3882865 Z" id="Shape" fill="#E0E0E0"></path>
                <polygon id="Path" fill="#FFFFFF" points="163.32303 84.6312003 201.57013 84.6312003 199.91143 63.5462744 161.66433 63.5462744"></polygon>
                <polygon id="Path" fill="#1A6AFF" opacity="0.100000001" points="125.07593 84.6312003 163.32303 84.6312003 161.66433 63.5462744 123.40753 63.5462744"></polygon>
                <polygon id="Path" fill="#1A6AFF" opacity="0.800000012" points="86.8288299 84.6312003 125.07593 84.6312003 123.40753 63.5462744 85.1604299 63.5462744"></polygon>
                <polygon id="Path" fill="#1A6AFF" opacity="0.800000012" points="48.5817299 84.6312003 86.8288299 84.6312003 85.1604299 63.5462744 46.9133299 63.5462744"></polygon>
                <polygon id="Path" fill="#F5F5F5" points="10.3249299 84.6312003 48.5817299 84.6312003 46.9133299 63.5462744 8.66622987 63.5462744"></polygon>
                <path d="M241.72813,105.95904 L203.00573,105.95904 L203.00573,105.735559 L201.31793,84.3591368 L240.05003,84.3591368 L240.05003,84.5826176 L241.72813,105.95904 Z M203.44223,105.473212 L241.20433,105.473212 L239.57473,84.8741142 L201.83203,84.8741142 L203.44223,105.473212 Z" id="Shape" fill="#E0E0E0"></path>
                <polygon id="Path" fill="#FFFFFF" points="164.98173 105.716126 203.22883 105.716126 201.57013 84.6312003 163.32303 84.6312003"></polygon>
                <polygon id="Path" fill="#FFFFFF" points="126.73463 105.716126 164.98173 105.716126 163.32303 84.6312003 125.07593 84.6312003"></polygon>
                <polygon id="Path" fill="#1A6AFF" opacity="0.100000001" points="88.4875299 105.716126 126.73463 105.716126 125.07593 84.6312003 86.8288299 84.6312003"></polygon>
                <polygon id="Path" fill="#1A6AFF" points="50.2404299 105.716126 88.4875299 105.716126 86.8288299 84.6312003 48.5817299 84.6312003"></polygon>
                <polygon id="Path" fill="#F5F5F5" points="11.9933299 105.716126 50.2404299 105.716126 48.5817299 84.6312003 10.3249299 84.6312003"></polygon>
                <path d="M243.40623,127.053683 L204.67413,127.053683 L204.67413,126.830202 L202.98633,105.453779 L241.72813,105.453779 L241.72813,105.67726 L243.40623,127.053683 Z M205.12033,126.567855 L242.88243,126.567855 L241.25283,105.95904 L203.50043,105.95904 L205.12033,126.567855 Z" id="Shape" fill="#E0E0E0"></path>
                <polygon id="Path" fill="#FFFFFF" points="166.65013 126.810769 204.89723 126.810769 203.22883 105.716126 164.98173 105.716126"></polygon>
                <polygon id="Path" fill="#FFFFFF" points="128.40303 126.810769 166.65013 126.810769 164.98173 105.716126 126.73463 105.716126"></polygon>
                <polygon id="Path" fill="#FFFFFF" points="90.1559299 126.810769 128.40303 126.810769 126.73463 105.716126 88.4875299 105.716126"></polygon>
                <polygon id="Path" fill="#1A6AFF" opacity="0.100000001" points="51.9088299 126.810769 90.1559299 126.810769 88.4875299 105.716126 50.2404299 105.716126"></polygon>
                <polygon id="Path" fill="#F5F5F5" points="13.6520299 126.810769 51.9088299 126.810769 50.2404299 105.716126 11.9933299 105.716126"></polygon>
                <path d="M235.09333,21.5999034 L196.36123,21.5999034 L196.36123,21.3764226 L194.67343,0 L233.41523,0 L233.41523,0.223480782 L235.09333,21.5999034 Z M196.80743,21.1140756 L234.56953,21.1140756 L232.93993,0.514977453 L195.16813,0.514977453 L196.80743,21.1140756 Z" id="Shape" fill="#E0E0E0"></path>
                <path d="M196.84623,21.5999034 L158.10443,21.5999034 L158.10443,21.3764226 L156.41663,0 L195.16813,0 L195.16813,0.223480782 L196.84623,21.5999034 Z M158.56033,21.1140756 L196.32243,21.1140756 L194.69283,0.514977453 L156.93073,0.514977453 L158.56033,21.1140756 Z" id="Shape" fill="#E0E0E0"></path>
                <path d="M158.59913,21.5999034 L119.85733,21.5999034 L119.85733,21.3764226 L118.16953,0 L156.90163,0 L156.90163,0.223480782 L158.59913,21.5999034 Z M120.31323,21.1140756 L158.07533,21.1140756 L156.44573,0.514977453 L118.68363,0.514977453 L120.31323,21.1140756 Z" id="Shape" fill="#E0E0E0"></path>
                <path d="M120.35203,21.5999034 L81.6102299,21.5999034 L81.6102299,21.3764226 L79.9321299,0 L118.66423,0 L118.66423,0.223480782 L120.35203,21.5999034 Z M82.0564299,21.1140756 L119.81853,21.1140756 L118.19863,0.514977453 L80.4365299,0.514977453 L82.0564299,21.1140756 Z" id="Shape" fill="#E0E0E0"></path>
                <path d="M82.0952299,21.5999034 L43.3631299,21.5999034 L43.3631299,21.3764226 L41.6850299,0 L80.4171299,0 L80.4171299,0.223480782 L82.0952299,21.5999034 Z M43.8093299,21.1140756 L81.5714299,21.1140756 L79.9515299,0.514977453 L42.1894299,0.514977453 L43.8093299,21.1140756 Z" id="Shape" fill="#E0E0E0"></path>
                <path d="M43.8481299,21.5999034 L5.11602987,21.5999034 L5.11602987,21.3764226 L3.43792987,0 L42.1700299,0 L42.1700299,0.223480782 L43.8481299,21.5999034 Z M5.56222987,21.1140756 L43.3243299,21.1140756 L41.7044299,0.514977453 L3.94232987,0.514977453 L5.56222987,21.1140756 Z" id="Shape" fill="#E0E0E0"></path>
                <polygon id="Path" fill="#1A6AFF" opacity="0.100000001" points="198.24303 42.451632 236.49013 42.451632 234.83143 21.366706 196.58433 21.366706"></polygon>
                <path d="M198.50493,42.6945458 L159.77283,42.6945458 L159.77283,42.4710651 L158.09473,21.0946425 L196.82683,21.0946425 L196.82683,21.3181233 L198.50493,42.6945458 Z M160.21903,42.2087181 L197.98113,42.2087181 L196.36123,21.5999034 L158.59913,21.5999034 L160.21903,42.2087181 Z" id="Shape" fill="#E0E0E0"></path>
                <path d="M160.24813,42.6945458 L121.52573,42.6945458 L121.52573,42.4710651 L119.83793,21.0946425 L158.57973,21.0946425 L158.57973,21.3181233 L160.24813,42.6945458 Z M121.96223,42.2087181 L159.72433,42.2087181 L158.10443,21.5999034 L120.35203,21.5999034 L121.96223,42.2087181 Z" id="Shape" fill="#E0E0E0"></path>
                <path d="M122.01073,42.6945458 L83.2786299,42.6945458 L83.2786299,42.4710651 L81.5908299,21.0946425 L120.33263,21.0946425 L120.33263,21.3181233 L122.01073,42.6945458 Z M83.7248299,42.2087181 L121.44813,42.2087181 L119.85733,21.5999034 L82.0952299,21.5999034 L83.7248299,42.2087181 Z" id="Shape" fill="#E0E0E0"></path>
                <path d="M83.7636299,42.6945458 L45.0218299,42.6945458 L45.0218299,42.4710651 L43.3340299,21.0946425 L82.0661299,21.0946425 L82.0661299,21.3181233 L83.7636299,42.6945458 Z M45.4777299,42.2087181 L83.2398299,42.2087181 L81.6102299,21.5999034 L43.8481299,21.5999034 L45.4777299,42.2087181 Z" id="Shape" fill="#E0E0E0"></path>
                <path d="M45.5165299,42.6945458 L6.77472987,42.6945458 L6.77472987,42.4710651 L5.08692987,21.0946425 L43.8869299,21.0946425 L43.8869299,21.3181233 L45.5165299,42.6945458 Z M7.23062987,42.2087181 L44.9927299,42.2087181 L43.3631299,21.5999034 L5.60102987,21.5999034 L7.23062987,42.2087181 Z" id="Shape" fill="#E0E0E0"></path>
                <path d="M238.42043,63.7891883 L199.67863,63.7891883 L199.67863,63.5657075 L197.99083,42.1892849 L236.72293,42.1892849 L236.72293,42.4127657 L238.42043,63.7891883 Z M200.13453,63.3033605 L237.89663,63.3033605 L236.26703,42.6945458 L198.50493,42.6945458 L200.13453,63.3033605 Z" id="Shape" fill="#E0E0E0"></path>
                <path d="M200.17333,63.7891883 L161.43153,63.7891883 L161.43153,63.5657075 L159.74373,42.1892849 L198.46613,42.1892849 L198.46613,42.4127657 L200.17333,63.7891883 Z M161.88743,63.3033605 L199.64953,63.3033605 L198.01993,42.6945458 L160.24813,42.6945458 L161.88743,63.3033605 Z" id="Shape" fill="#E0E0E0"></path>
                <path d="M161.92623,63.7891883 L123.18443,63.7891883 L123.18443,63.5657075 L121.50633,42.1892849 L160.24813,42.1892849 L160.24813,42.4127657 L161.92623,63.7891883 Z M123.64033,63.3033605 L161.39273,63.3033605 L159.77283,42.6945458 L122.01073,42.6945458 L123.64033,63.3033605 Z" id="Shape" fill="#E0E0E0"></path>
                <path d="M123.66943,63.7891883 L84.9373299,63.7891883 L84.9373299,63.5657075 L83.2592299,42.1892849 L121.99133,42.1892849 L121.99133,42.4127657 L123.66943,63.7891883 Z M85.3835299,63.3033605 L123.14563,63.3033605 L121.52573,42.6945458 L83.7636299,42.6945458 L85.3835299,63.3033605 Z" id="Shape" fill="#E0E0E0"></path>
                <path d="M85.4223299,63.7891883 L46.6902299,63.7891883 L46.6902299,63.5657075 L45.0121299,42.1892849 L83.7442299,42.1892849 L83.7442299,42.4127657 L85.4223299,63.7891883 Z M47.1364299,63.3033605 L84.8985299,63.3033605 L83.2786299,42.6945458 L45.5165299,42.6945458 L47.1364299,63.3033605 Z" id="Shape" fill="#E0E0E0"></path>
                <path d="M47.1752299,63.7891883 L8.44312987,63.7891883 L8.44312987,63.5657075 L6.76502987,42.1892849 L45.4971299,42.1892849 L45.4971299,42.4127657 L47.1752299,63.7891883 Z M8.92812987,63.3325102 L46.6902299,63.3325102 L45.0606299,42.7236955 L7.23062987,42.7236955 L8.92812987,63.3325102 Z" id="Shape" fill="#E0E0E0"></path>
                <path d="M240.07913,84.8741142 L201.34703,84.8741142 L201.34703,84.6506335 L199.66893,63.2742109 L238.40103,63.2742109 L238.40103,63.4976916 L240.07913,84.8741142 Z M201.79323,84.3882865 L239.55533,84.3882865 L237.93543,63.7891883 L200.17333,63.7891883 L201.79323,84.3882865 Z" id="Shape" fill="#E0E0E0"></path>
                <path d="M201.83203,84.8741142 L163.09993,84.8741142 L163.09993,84.6506335 L161.41213,63.2742109 L200.15393,63.2742109 L200.15393,63.4976916 L201.83203,84.8741142 Z M163.54613,84.3882865 L201.30823,84.3882865 L199.67863,63.7891883 L161.92623,63.7891883 L163.54613,84.3882865 Z" id="Shape" fill="#E0E0E0"></path>
                <path d="M163.58493,84.8741142 L124.85283,84.8741142 L124.85283,84.6506335 L123.16503,63.2742109 L161.90683,63.2742109 L161.90683,63.4976916 L163.58493,84.8741142 Z M125.29903,84.3882865 L163.06113,84.3882865 L161.43153,63.7891883 L123.66943,63.7891883 L125.29903,84.3882865 Z" id="Shape" fill="#E0E0E0"></path>
                <path d="M125.32813,84.8741142 L86.6057299,84.8741142 L86.6057299,84.6506335 L84.9179299,63.2742109 L123.65973,63.2742109 L123.65973,63.4976916 L125.32813,84.8741142 Z M87.0422299,84.3882865 L124.80433,84.3882865 L123.17473,63.7891883 L85.4223299,63.7891883 L87.0422299,84.3882865 Z" id="Shape" fill="#E0E0E0"></path>
                <path d="M87.0907299,84.8741142 L48.3489299,84.8741142 L48.3489299,84.6506335 L46.6611299,63.2742109 L85.3932299,63.2742109 L85.3932299,63.4976916 L87.0907299,84.8741142 Z M48.8048299,84.3882865 L86.5281299,84.3882865 L84.8985299,63.7891883 L47.1752299,63.7891883 L48.8048299,84.3882865 Z" id="Shape" fill="#E0E0E0"></path>
                <path d="M48.8436299,84.8741142 L10.1018299,84.8741142 L10.1018299,84.6506335 L8.41402987,63.2742109 L47.1461299,63.2742109 L47.1461299,63.4976916 L48.8436299,84.8741142 Z M10.5577299,84.3882865 L48.3198299,84.3882865 L46.6902299,63.7891883 L8.92812987,63.7891883 L10.5577299,84.3882865 Z" id="Shape" fill="#E0E0E0"></path>
                <path d="M241.72813,105.95904 L203.00573,105.95904 L203.00573,105.735559 L201.31793,84.3591368 L240.05003,84.3591368 L240.05003,84.5826176 L241.72813,105.95904 Z M203.44223,105.473212 L241.20433,105.473212 L239.57473,84.8741142 L201.83203,84.8741142 L203.44223,105.473212 Z" id="Shape" fill="#E0E0E0"></path>
                <path d="M203.50043,105.95904 L164.75863,105.95904 L164.75863,105.735559 L163.08053,84.3591368 L201.81263,84.3591368 L201.81263,84.5826176 L203.50043,105.95904 Z M165.21453,105.473212 L202.92813,105.473212 L201.30823,84.8741142 L163.58493,84.8741142 L165.21453,105.473212 Z" id="Shape" fill="#E0E0E0"></path>
                <path d="M165.24363,105.95904 L126.51153,105.95904 L126.51153,105.735559 L124.83343,84.3591368 L163.54613,84.3591368 L163.54613,84.5826176 L165.24363,105.95904 Z M126.95773,105.473212 L164.71983,105.473212 L163.09993,84.8741142 L125.32813,84.8741142 L126.95773,105.473212 Z" id="Shape" fill="#E0E0E0"></path>
                <path d="M126.99653,105.95904 L88.2644299,105.95904 L88.2644299,105.735559 L86.5863299,84.3591368 L125.32813,84.3591368 L125.32813,84.5826176 L126.99653,105.95904 Z M88.7106299,105.473212 L126.47273,105.473212 L124.85283,84.8741142 L87.0907299,84.8741142 L88.7106299,105.473212 Z" id="Shape" fill="#E0E0E0"></path>
                <path d="M88.7494299,105.95904 L50.0173299,105.95904 L50.0173299,105.735559 L48.3392299,84.3591368 L87.0713299,84.3591368 L87.0713299,84.5826176 L88.7494299,105.95904 Z M50.4635299,105.473212 L88.2256299,105.473212 L86.6057299,84.8741142 L48.8436299,84.8741142 L50.4635299,105.473212 Z" id="Shape" fill="#E0E0E0"></path>
                <path d="M50.5023299,105.95904 L11.7702299,105.95904 L11.7702299,105.735559 L10.0824299,84.3591368 L48.8242299,84.3591368 L48.8242299,84.5826176 L50.5023299,105.95904 Z M12.2164299,105.473212 L49.9785299,105.473212 L48.3489299,84.8741142 L10.5868299,84.8741142 L12.2164299,105.473212 Z" id="Shape" fill="#E0E0E0"></path>
                <path d="M243.40623,127.053683 L204.67413,127.053683 L204.67413,126.830202 L202.98633,105.453779 L241.72813,105.453779 L241.72813,105.67726 L243.40623,127.053683 Z M205.12033,126.567855 L242.88243,126.567855 L241.25283,105.95904 L203.50043,105.95904 L205.12033,126.567855 Z" id="Shape" fill="#E0E0E0"></path>
                <path d="M205.15913,127.053683 L166.42703,127.053683 L166.42703,126.830202 L164.73923,105.453779 L203.48103,105.453779 L203.48103,105.67726 L205.15913,127.053683 Z M166.87323,126.567855 L204.63533,126.567855 L203.00573,105.95904 L165.24363,105.95904 L166.87323,126.567855 Z" id="Shape" fill="#E0E0E0"></path>
                <path d="M166.91203,127.053683 L128.17993,127.053683 L128.17993,126.830202 L126.49213,105.453779 L165.23393,105.453779 L165.23393,105.67726 L166.91203,127.053683 Z M128.62613,126.538705 L166.38823,126.538705 L164.75863,105.92989 L126.99653,105.92989 L128.62613,126.538705 Z" id="Shape" fill="#E0E0E0"></path>
                <path d="M128.66493,127.053683 L89.9231299,127.053683 L89.9231299,126.830202 L88.2353299,105.453779 L126.96743,105.453779 L126.96743,105.67726 L128.66493,127.053683 Z M90.4081299,126.538705 L128.14113,126.538705 L126.51153,105.92989 L88.7494299,105.92989 L90.4081299,126.538705 Z" id="Shape" fill="#E0E0E0"></path>
                <path d="M90.4081299,127.053683 L51.6760299,127.053683 L51.6760299,126.830202 L49.9882299,105.453779 L88.7203299,105.453779 L88.7203299,105.67726 L90.4081299,127.053683 Z M52.1222299,126.567855 L89.8746299,126.567855 L88.2547299,105.95904 L50.5023299,105.95904 L52.1222299,126.567855 Z" id="Shape" fill="#E0E0E0"></path>
                <path d="M52.1707299,127.053683 L13.4289299,127.053683 L13.4289299,126.830202 L11.7508299,105.453779 L50.4829299,105.453779 L50.4829299,105.67726 L52.1707299,127.053683 Z M13.8751299,126.538705 L51.6081299,126.538705 L49.9882299,105.92989 L12.2552299,105.92989 L13.8751299,126.538705 Z" id="Shape" fill="#E0E0E0"></path>
            </g>
            <g id="freepik--Character--inject-11" transform="translate(252.474881, 46.794932)">
                <path d="M124.709619,50.2540262 C126.940358,54.7343084 128.93167,59.330251 130.675119,64.0223857 C132.449507,68.7806394 133.914046,73.6491289 135.059519,78.5972192 L135.466919,80.5405304 L135.806419,82.4838415 L135.971319,83.4554971 C136.052244,84.0219865 136.094376,84.593359 136.097419,85.1656109 C136.107041,85.6917422 136.077862,86.217867 136.010119,86.7396929 L135.913119,87.4878677 L135.767619,88.1777432 C135.376152,89.7923378 134.779586,91.3499757 133.992519,92.8125403 C133.312818,94.080045 132.534406,95.2918921 131.664519,96.4368155 C130.070493,98.5386319 128.287974,100.490065 126.339219,102.266749 C124.465582,104.0425 122.454642,105.666993 120.325219,107.125027 C119.065433,107.991318 117.366822,107.827865 116.294711,106.737181 C115.222599,105.646497 115.085719,103.942661 115.969919,102.694277 L116.066919,102.548529 C118.736833,98.928957 121.129848,95.1124379 123.225519,91.1315761 C124.05814,89.5948503 124.603811,87.91882 124.835719,86.1858493 L124.835719,85.8263367 C124.845064,85.7488861 124.845064,85.6705899 124.835719,85.5931394 C124.835719,85.5154069 124.777519,85.53484 124.777519,85.5056904 L124.573819,84.7283659 L124.156719,83.1445673 L123.671719,81.5413356 C123.361319,80.4725145 122.983019,79.3939768 122.643519,78.3154391 C122.304019,77.2369014 121.896619,76.1583638 121.479519,75.0798261 C120.684119,72.9227507 119.830519,70.7559588 118.947819,68.6086 C117.201819,64.3138823 115.271519,59.9317157 113.418819,55.7827464 L113.418819,55.6758643 C112.048933,52.5482053 113.409436,48.8962944 116.489932,47.4322695 C119.570429,45.9682446 123.25472,47.2225867 124.806619,50.2637428 L124.709619,50.2540262 Z" id="Path" fill="#CE7A63"></path>
                <path d="M113.399419,103.238405 L110.867719,107.348508 C110.586556,107.814755 110.502177,108.373916 110.633207,108.902577 C110.764237,109.431238 111.099903,109.885934 111.566119,110.166309 L111.760119,110.263474 L115.805019,112.099903 C116.784741,112.543318 117.939804,112.147714 118.443419,111.196264 L119.539519,109.136354 L122.371919,104.462691 L119.461919,99.9542087 C115.931119,99.9250591 113.399419,103.238405 113.399419,103.238405 Z" id="Path" fill="#CE7A63"></path>
                <path d="M141.228719,293.42055 C140.627629,293.625122 139.96933,293.576016 139.405119,293.284518 C139.173516,293.080845 139.102566,292.74918 139.230519,292.468327 C139.298055,292.237066 139.465283,292.048168 139.686419,291.95335 C140.656419,291.477239 142.965019,292.410028 143.062019,292.458611 C143.128498,292.480422 143.172194,292.544088 143.168719,292.614076 C143.181337,292.683218 143.139292,292.750604 143.071719,292.76954 C142.485004,293.058207 141.866417,293.276713 141.228719,293.42055 Z M140.025919,292.26428 C139.955377,292.278067 139.88691,292.300928 139.822219,292.332295 C139.69506,292.389388 139.599318,292.499501 139.560319,292.633509 C139.463319,292.944438 139.560319,293.041604 139.618519,293.070754 C140.016219,293.410833 141.490619,293.070754 142.528519,292.682091 C141.735142,292.360162 140.880641,292.217502 140.025919,292.26428 Z" id="Shape" fill="#1A6AFF"></path>
                <path d="M143.023219,292.82784 L142.935919,292.82784 C142.101719,292.584926 140.316919,291.321774 140.297519,290.48615 C140.298081,290.215401 140.48173,289.97945 140.743719,289.912873 C141.000511,289.82594 141.281901,289.850604 141.519719,289.980889 C142.489719,290.48615 143.129919,292.526627 143.159019,292.614076 C143.172697,292.676821 143.154544,292.742284 143.110519,292.788974 L143.023219,292.82784 Z M140.937719,290.214086 L140.860119,290.214086 C140.646719,290.291819 140.646719,290.398701 140.646719,290.447284 C140.646719,290.942828 141.839819,291.933917 142.703119,292.342012 C142.480138,291.527885 142.012861,290.802029 141.364519,290.262669 C141.23335,290.193493 141.081038,290.176155 140.937719,290.214086 Z" id="Shape" fill="#1A6AFF"></path>
                <path d="M88.1309187,297.044825 C87.1609187,297.044825 86.2782187,296.908793 85.9678187,296.481265 C85.8028503,296.255658 85.8028503,295.948981 85.9678187,295.723373 C86.0860266,295.514974 86.2869957,295.366639 86.5207187,295.315278 C87.7429187,294.975199 90.3231187,296.452115 90.4007187,296.510414 C90.4623649,296.550433 90.4961588,296.621897 90.4880187,296.695029 C90.4765015,296.764824 90.4218945,296.819524 90.3522187,296.831061 C89.6191672,296.965217 88.8760602,297.036729 88.1309187,297.044825 Z M86.9669187,295.606775 L86.6274187,295.606775 C86.4827708,295.6371 86.3586756,295.729442 86.2879187,295.859405 C86.1618187,296.073169 86.2103187,296.180052 86.2879187,296.238351 C86.6371187,296.714462 88.4995187,296.733895 89.8672187,296.539564 C88.9726171,296.022285 87.9827387,295.691762 86.9572187,295.567909 L86.9669187,295.606775 Z" id="Shape" fill="#1A6AFF"></path>
                <path d="M90.3619187,296.840777 L90.2940187,296.840777 C89.4016187,296.442399 87.6362187,294.839167 87.7720187,294.01326 C87.7720187,293.809212 87.9466187,293.566298 88.4219187,293.517715 C88.7729922,293.478706 89.1244331,293.587839 89.3919187,293.818928 C90.3619187,294.596253 90.5268187,296.57843 90.5365187,296.665879 C90.5466043,296.726596 90.5199797,296.787556 90.4686187,296.821344 C90.4372895,296.842384 90.3986361,296.849424 90.3619187,296.840777 Z M88.5674187,293.838362 L88.4607187,293.838362 C88.1406187,293.838362 88.1212187,293.993826 88.1212187,294.032693 C88.0339187,294.537954 89.2367187,295.791389 90.1388187,296.335516 C90.0611548,295.494574 89.7218658,294.699283 89.1688187,294.061842 C88.999453,293.921187 88.787385,293.842382 88.5674187,293.838362 Z" id="Shape" fill="#1A6AFF"></path>
                <polygon id="Path" fill="#CE7A63" points="98.4711187 296.656163 91.0991187 296.656163 90.3619187 279.555025 97.7339187 279.555025"></polygon>
                <polygon id="Path" fill="#CE7A63" points="151.239119 290.865096 144.032019 292.429461 136.805519 276.49431 144.012619 274.929944"></polygon>
                <path d="M143.343319,291.700719 L151.442819,289.942023 C151.738099,289.887048 152.033174,290.038831 152.160619,290.311252 L154.973619,296.413249 C155.094374,296.675789 155.104866,296.975897 155.002743,297.246256 C154.900619,297.516615 154.694427,297.734594 154.430419,297.851299 C154.355968,297.885857 154.277879,297.911931 154.197619,297.929032 C151.355519,298.492592 149.949019,298.618907 146.389119,299.396231 C144.196919,299.872343 139.249919,301.077196 136.223519,301.737921 C133.197119,302.398647 132.159219,299.473964 133.313519,298.939553 C138.600019,296.520131 140.811619,294.382489 142.237519,292.400311 C142.507086,292.038176 142.901044,291.788935 143.343319,291.700719 L143.343319,291.700719 Z" id="Path" fill="#263238"></path>
                <path d="M91.1476187,295.810804 L99.1986187,295.810804 C99.5016838,295.808515 99.764839,296.019399 99.8291187,296.316083 L101.284119,302.874758 C101.410616,303.453952 101.046682,304.026825 100.469319,304.157344 C100.385522,304.166894 100.300915,304.166894 100.217119,304.157344 C97.3071187,304.157344 93.1167187,303.94358 89.4695187,303.94358 C85.2015187,303.94358 81.5155187,304.176777 76.5103187,304.176777 C73.4742187,304.176777 72.6303187,301.106345 73.9010187,300.834282 C79.6725187,299.571129 84.3867187,299.435098 89.3725187,296.35495 C89.900699,296.008547 90.5163662,295.819825 91.1476187,295.810804 L91.1476187,295.810804 Z" id="Path" fill="#263238"></path>
                <polygon id="Path" fill="#000000" opacity="0.200000003" points="90.3619187 279.564741 90.7402187 288.377657 98.1219187 288.377657 97.7436187 279.564741"></polygon>
                <polygon id="Path" fill="#000000" opacity="0.200000003" points="144.012619 274.929944 136.805519 276.49431 140.540019 284.704799 147.747119 283.15015"></polygon>
                <path d="M93.1943187,108.776841 C93.1943187,108.776841 101.575119,165.23003 106.153519,186.402405 C111.187819,209.566674 136.815219,283.80116 136.815219,283.80116 L150.016919,280.886193 C150.016919,280.886193 131.150419,211.38367 128.279219,188.452598 C125.155819,163.568499 118.637419,108.776841 118.637419,108.776841 L93.1943187,108.776841 Z" id="Path" fill="#1A6AFF"></path>
                <path d="M133.653019,279.360694 C133.594819,279.360694 136.116819,284.141239 136.116819,284.141239 L150.967519,280.915342 L149.716219,276.445727 L133.653019,279.360694 Z" id="Path" fill="#263238"></path>
                <path d="M98.4808187,128.890112 C108.180819,130.833423 107.133219,166.940144 105.969219,185.527915 C103.175619,172.391132 99.0919187,147.098937 96.2692187,129.171892 C96.9511717,128.822862 97.7333537,128.723204 98.4808187,128.890112 Z" id="Path" fill="#000000" opacity="0.300000012"></path>
                <path d="M79.2069187,108.776841 C79.2069187,108.776841 78.1884187,164.005744 78.9935187,186.509287 C79.8277187,209.935903 87.9951187,286.64811 87.9951187,286.64811 L100.488719,286.64811 C100.488719,286.64811 100.944619,211.305937 101.458719,188.297133 C102.069819,163.218703 105.086519,108.757408 105.086519,108.757408 L79.2069187,108.776841 Z" id="Path" fill="#1A6AFF"></path>
                <path d="M85.5895187,281.68295 C85.5313187,281.68295 86.2976187,286.881308 86.2976187,286.881308 L101.487819,286.881308 L101.895219,282.246511 L85.5895187,281.68295 Z" id="Path" fill="#263238"></path>
                <path d="M16.7195187,22.9407881 C29.8630187,19.617726 44.3742187,27.3132381 49.1272187,40.1196586 C53.8802187,52.926079 47.0611187,66.004563 33.9176187,69.3276251 C20.7741187,72.6506871 6.26291865,64.9648916 1.50991865,52.1487546 C-3.24308135,39.3326176 3.60511865,26.2638501 16.7195187,22.9407881 Z M32.5596187,65.6936332 C43.6176187,62.8952652 49.3503187,51.8864076 45.3539187,41.1107473 C41.3575187,30.335087 29.1452187,23.8541443 18.0775187,26.6525123 C7.00981865,29.4508804 1.27711865,40.459738 5.27351865,51.2353983 C9.54634066,62.1498315 21.1540371,68.283931 32.5596187,65.654767 L32.5596187,65.6936332 Z" id="Shape" fill="#263238"></path>
                <path d="M31.9485187,64.0223857 C42.0947187,61.4572149 47.3424187,51.3908632 43.6855187,41.4896929 C39.7860803,31.4753618 29.1468637,25.8385738 18.6886187,28.2460275 C8.55211865,30.8111982 3.28501865,40.8775499 6.95161865,50.7787202 C10.8576665,60.7871467 21.4914261,66.4210435 31.9485187,64.0223857 Z" id="Path" fill="#1A6AFF" opacity="0.200000003"></path>
                <path d="M31.3956187,69.0361284 C31.8267632,70.9572995 32.3577526,72.8546105 32.9864187,74.7203135 C33.6072187,76.5956088 34.2474187,78.4611875 34.9264187,80.307333 C35.6054187,82.1534786 36.3717187,83.9996242 37.1380187,85.8263367 C38.1080187,87.614183 38.1080187,89.6449431 41.0859187,90.9080953 C42.0125615,91.2432881 43.0455892,91.0860584 43.8310187,90.4902834 C43.9608692,90.3828527 44.0722772,90.254843 44.1608187,90.1113378 C45.5382187,87.7210651 43.9280187,86.1081168 43.2490187,84.2814043 C42.4051187,82.474125 41.5224187,80.6668456 40.6203187,78.8692828 C39.7182187,77.07172 38.7385187,75.2935903 37.7103187,73.5251772 C36.6821187,71.756764 35.6345187,69.9980674 34.4414187,68.2782371 C33.8784437,67.7557224 33.0608782,67.614785 32.3559187,67.9187245 C31.7351187,68.1324887 31.2986187,68.6086 31.3956187,69.0361284 Z" id="Path" fill="#263238"></path>
                <path d="M84.6583187,22.9505046 C84.8135187,23.5237814 84.6583187,24.0679085 84.2412187,24.1650741 C83.8241187,24.2622396 83.4458187,23.8735774 83.2712187,23.2905841 C83.0966187,22.7075907 83.2712187,22.1731802 83.6883187,22.0760146 C84.1054187,21.978849 84.5128187,22.3675113 84.6583187,22.9505046 Z" id="Path" fill="#263238"></path>
                <path d="M84.6777187,24.0873416 C84.4369514,26.0260584 83.9310409,27.9223738 83.1742187,29.722944 C84.1227774,30.1016403 85.1909342,30.0338749 86.0842187,29.5383294 L84.6777187,24.0873416 Z" id="Path" fill="#BA4D3C"></path>
                <path d="M85.9581187,19.2290638 C86.0423074,19.1988281 86.107126,19.1302918 86.1327187,19.0444492 C86.1993605,18.8674245 86.1134117,18.669405 85.9387187,18.5974877 C84.9021836,18.1533646 83.714484,18.244045 82.7571187,18.8404015 C82.602762,18.9570736 82.5646523,19.1733975 82.6698187,19.3359459 C82.7864545,19.4918445 83.0058313,19.5263152 83.1645187,19.4136783 L83.1645187,19.4136783 C83.9253856,18.9528964 84.8623529,18.8912917 85.6768187,19.2484969 C85.7691439,19.2819144 85.8712472,19.2748607 85.9581187,19.2290638 L85.9581187,19.2290638 Z" id="Path" fill="#263238"></path>
                <path d="M103.844919,25.7391561 C104.543319,31.3553253 105.047719,37.399023 108.190554,42.0726863 C108.190554,42.0726863 108.287519,47.5625403 98.3062187,48.4661799 C87.3258187,49.4378355 91.5162187,43.6079021 91.5162187,43.6079021 C95.5320187,42.6362465 95.6678187,37.3018574 93.4562187,33.2792033 L103.844919,25.7391561 Z" id="Path" fill="#CE7A63"></path>
                <path d="M110.198419,45.512347 C110.819219,43.0443419 111.488519,40.2168241 109.616419,39.4783659 C107.560019,38.6718918 96.6087187,38.5067103 92.9809187,40.547187 C89.3531187,42.5876637 90.7693187,47.4070754 90.7693187,47.4070754 L110.198419,45.512347 Z" id="Path" fill="#1A6AFF"></path>
                <path d="M120.975119,44.5406914 C127.765119,46.4840026 133.012819,64.605379 133.012819,64.605379 L117.172719,72.3786236 C114.966866,67.6675888 112.998521,62.848589 111.275119,57.9398218 C108.083819,48.9131415 113.981419,42.5973803 120.975119,44.5406914 Z" id="Path" fill="#263238"></path>
                <g id="Group" opacity="0.400000006" transform="translate(112.957969, 47.280760)" fill="#FFFFFF">
                    <polygon id="Rectangle" transform="translate(1.800426, 3.820546) rotate(-66.390000) translate(-1.800426, -3.820546) " points="-1.53113834 3.33749748 5.1325971 3.33332956 5.13198954 4.30359513 -1.53174591 4.30776304"></polygon>
                    <path d="M11.7613495,0 L10.6749495,2.49715482 L11.5576495,2.88581705 L12.4500495,0.845340348 C12.2269495,0.553843676 11.9941495,0.27206356 11.7613495,0 Z" id="Path"></path>
                    <polygon id="Rectangle" transform="translate(5.961644, 14.482219) rotate(-66.390000) translate(-5.961644, -14.482219) " points="2.6300801 13.99917 9.29381555 13.995002 9.29320798 14.9652676 2.62947254 14.9694355"></polygon>
                    <path d="M17.3485495,9.89145373 C17.1836495,9.49307494 17.0090495,9.07526304 16.8247495,8.6671677 L14.8847495,13.2047992 L15.7771495,13.5934615 L17.3485495,9.89145373 Z" id="Path"></path>
                </g>
                <path d="M77.8392187,49.3989693 C76.0738187,56.2005583 74.2987187,72.3786236 79.2069187,108.747692 C95.9782187,110.467522 111.343019,111.507193 118.637419,108.747692 C118.967219,101.508858 115.281219,72.2717415 120.946019,44.5309749 C116.586321,43.6875043 112.176428,43.1292412 107.744319,42.8597273 C102.161985,42.5293661 96.5650519,42.5293661 90.9827187,42.8597273 C88.4573049,43.1042979 85.9475433,43.4903255 83.4652187,44.0159974 C80.7159256,44.5837839 78.5314457,46.6739001 77.8392187,49.3989693 L77.8392187,49.3989693 Z" id="Path" fill="#263238"></path>
                <g id="Group" opacity="0.400000006" transform="translate(75.816769, 43.433004)" fill="#FFFFFF">
                    <polygon id="Path" points="9.36535 1.10768735 10.20925 1.59351514 11.11135 0 9.87945 0.213764226"></polygon>
                    <polygon id="Rectangle" transform="translate(3.442429, 12.506845) rotate(-60.380000) translate(-3.442429, -12.506845) " points="0.111393356 12.0240824 6.77417626 12.0192027 6.77346492 12.9896071 0.110682025 12.9944869"></polygon>
                    <polygon id="Rectangle" transform="translate(14.473306, 9.475104) rotate(-60.370000) translate(-14.473306, -9.475104) " points="11.1422707 8.99234232 17.8050519 8.98746157 17.8043404 9.95786624 11.1415592 9.96274699"></polygon>
                    <polygon id="Rectangle" transform="translate(24.056776, 5.512322) rotate(-60.610000) translate(-24.056776, -5.512322) " points="20.7305755 5.02954704 27.3836849 5.02469786 27.382977 5.99509658 20.7298676 5.99994576"></polygon>
                    <polygon id="Rectangle" transform="translate(36.520233, 3.378277) rotate(-60.380000) translate(-36.520233, -3.378277) " points="33.189197 2.89551472 39.8519799 2.89063499 39.8512685 3.86103941 33.1884856 3.86591914"></polygon>
                    <polygon id="Rectangle" transform="translate(6.485391, 23.566608) rotate(-60.370000) translate(-6.485391, -23.566608) " points="3.15435639 23.0838465 9.81713758 23.0789657 9.8164261 24.0493704 3.15364491 24.0542511"></polygon>
                    <polygon id="Rectangle" transform="translate(16.114715, 19.545357) rotate(-60.610000) translate(-16.114715, -19.545357) " points="12.7885144 19.0625827 19.4416238 19.0577335 19.4409159 20.0281322 12.7878065 20.0329814"></polygon>
                    <polygon id="Rectangle" transform="translate(27.092064, 16.519374) rotate(-60.610000) translate(-27.092064, -16.519374) " points="23.7658635 16.0365991 30.4189729 16.0317499 30.418265 17.0021487 23.7651556 17.0069978"></polygon>
                    <polygon id="Rectangle" transform="translate(39.574235, 14.446492) rotate(-60.380000) translate(-39.574235, -14.446492) " points="36.2431989 13.9637296 42.9059818 13.9588499 42.9052705 14.9292543 36.2424876 14.934134"></polygon>
                    <path d="M0.44135,34.9407344 C0.451056101,35.0051466 0.451056101,35.0706533 0.44135,35.1350655 L0.52865,34.9893172 L0.44135,34.9407344 Z" id="Path"></path>
                    <polygon id="Rectangle" transform="translate(9.502432, 34.598283) rotate(-60.380000) translate(-9.502432, -34.598283) " points="6.1713967 34.1155209 12.8341796 34.1106412 12.8334683 35.0810456 6.17068536 35.0859254"></polygon>
                    <polygon id="Rectangle" transform="translate(20.516738, 31.549779) rotate(-60.380000) translate(-20.516738, -31.549779) " points="17.1857027 31.0670162 23.8484856 31.0621365 23.8477743 32.0325409 17.1849914 32.0374206"></polygon>
                    <polygon id="Rectangle" transform="translate(31.544271, 28.507346) rotate(-60.380000) translate(-31.544271, -28.507346) " points="28.2132353 28.0245835 34.8760182 28.0197038 34.8753069 28.9901082 28.212524 28.9949879"></polygon>
                    <path d="M40.52175,28.1488619 L41.36565,28.6346897 L42.13195,27.2840885 C42.13195,26.5747799 42.19985,25.8557548 42.23865,25.1464462 L40.52175,28.1488619 Z" id="Path"></path>
                    <path d="M3.56475,46.037041 L2.73055,45.5609298 L1.38225,47.9317694 C1.43075,48.4856131 1.47925,49.0394567 1.53745,49.6127335 L3.56475,46.037041 Z" id="Path"></path>
                    <polygon id="Rectangle" transform="translate(12.538414, 45.659156) rotate(-60.380000) translate(-12.538414, -45.659156) " points="9.20737788 45.176394 15.8701608 45.1715143 15.8694495 46.1419187 9.20666655 46.1467984"></polygon>
                    <polygon id="Rectangle" transform="translate(23.565946, 42.616724) rotate(-60.380000) translate(-23.565946, -42.616724) " points="20.2349105 42.1339613 26.8976934 42.1290816 26.896982 43.099486 20.2341991 43.1043657"></polygon>
                    <polygon id="Rectangle" transform="translate(34.581520, 39.553700) rotate(-60.380000) translate(-34.581520, -39.553700) " points="31.250484 39.0709376 37.9132669 39.0660579 37.9125556 40.0364623 31.2497727 40.0413421"></polygon>
                    <path d="M5.75695,56.6086536 L2.90515,61.6418295 C2.92649611,62.0039603 2.97186289,62.364268 3.04095,62.7203672 L3.31255,62.8758321 L6.60085,57.0458986 L5.75695,56.6086536 Z" id="Path"></path>
                    <polygon id="Rectangle" transform="translate(15.586354, 56.730904) rotate(-60.380000) translate(-15.586354, -56.730904) " points="12.2553181 56.2481415 18.918101 56.2432618 18.9173897 57.2136662 12.2546068 57.2185459"></polygon>
                    <polygon id="Rectangle" transform="translate(26.613886, 53.688471) rotate(-60.380000) translate(-26.613886, -53.688471) " points="23.2828507 53.2057088 29.9456336 53.2008291 29.9449223 54.1712335 23.2821394 54.1761132"></polygon>
                    <polygon id="Rectangle" transform="translate(37.631995, 50.615843) rotate(-60.380000) translate(-37.631995, -50.615843) " points="34.3009594 50.1330804 40.9637423 50.1282007 40.963031 51.0986051 34.3002481 51.1034848"></polygon>
                    <polygon id="Path" points="20.66585 65.1009233 19.82195 64.6150956 18.65795 66.6750054 19.73465 66.7333047"></polygon>
                    <polygon id="Path" points="31.69475 62.0596414 30.85085 61.5835302 27.75655 67.0345179 28.86235 67.0345179"></polygon>
                    <polygon id="Path" points="42.67515 59.115525 42.67515 58.9892098 41.88945 58.5422482 38.60115 64.3721817 39.44505 64.8580094"></polygon>
                </g>
                <path d="M77.5870187,50.4872235 L77.5870187,50.4872235 C84.1054187,44.5115418 86.4140187,55.7341636 86.0163187,60.777056 C84.8911187,74.7591797 76.8110187,79.3551106 76.3163187,79.7729225 C75.5015187,64.2264333 76.4812187,55.3746511 77.5870187,50.4872235 Z" id="Path" fill="#000000" opacity="0.300000012"></path>
                <path d="M87.7429187,56.9584496 C86.0745187,59.1543912 84.3479187,61.3600494 82.6310187,63.5365579 L77.4415187,70.0660833 L72.2423187,76.6053253 C70.5351187,78.7818338 68.7988187,80.9291926 67.1401187,83.086268 L66.7618187,83.5720958 C65.9978342,84.5634706 64.8766396,85.2157104 63.6384187,85.3890917 C61.6984187,85.6514387 59.7584187,85.8360533 57.9057187,85.9137857 C56.0530187,85.9915181 54.1227187,85.9915181 52.2506187,85.9137857 C50.3785187,85.8360533 48.5161187,85.6805884 46.6634187,85.4376745 C44.7873239,85.2202626 42.9251338,84.8958507 41.0859187,84.4660189 C39.625444,84.1038644 38.6198997,82.763759 38.6786267,81.2577813 C38.7373538,79.7518036 39.8441921,78.494354 41.3284187,78.2474232 L41.4836187,78.2474232 L46.5567187,77.4020829 C48.257452,77.1170639 49.9420187,76.8158507 51.6104187,76.4984432 C53.2788187,76.19723 54.9278187,75.8280009 56.5574187,75.5267876 C58.1870187,75.2255744 59.7681187,74.7300301 61.3298187,74.3219347 L57.8281187,76.5567425 C60.9418187,71.6984647 64.1816187,67.0831007 67.5281187,62.5260361 C69.1868187,60.2426455 70.8940187,57.9981211 72.6109187,55.7244471 C74.3278187,53.450773 76.0738187,51.2839811 77.8877187,49.1074726 C79.287771,47.3387989 81.5234413,46.4526709 83.752574,46.7828844 C85.9817067,47.1130979 87.8656437,48.6094857 88.694724,50.7083729 C89.5238043,52.8072601 89.172071,55.1897759 87.7720187,56.9584496 L87.7429187,56.9584496 Z" id="Path" fill="#CE7A63"></path>
                <path d="M38.1759187,77.5769809 L33.6072187,79.1219132 C32.5412342,79.4815599 31.9680265,80.6386317 32.3268187,81.7065171 C32.3549419,81.7891122 32.3873186,81.8701922 32.4238187,81.949431 L34.3638187,85.9526519 C34.842527,86.9142018 35.9836216,87.3391246 36.9731187,86.9243075 L39.1265187,86.0401009 L44.2869187,84.2619712 L44.9465187,78.9567318 C42.2402187,76.6053253 38.1759187,77.5769809 38.1759187,77.5769809 Z" id="Path" fill="#CE7A63"></path>
                <path d="M91.1088187,50.3706249 C93.9509187,60.1454799 79.0420187,73.6903586 79.0420187,73.6903586 L65.6851187,60.5244256 C65.6851187,60.5244256 70.0986187,55.0151385 73.2026187,51.3811467 C81.8647187,41.2079128 88.8487187,42.5487975 91.1088187,50.3706249 Z" id="Path" fill="#263238"></path>
                <g id="Group" opacity="0.400000006" transform="translate(67.857919, 44.492109)" fill="#FFFFFF">
                    <path d="M14.4433,0 C14.065,0.116598669 13.6867,0.252630449 13.3181,0.40809534 L12.8816,1.94331114 L13.8516,2.19594159 L14.4433,0 Z" id="Path"></path>
                    <polygon id="Path" points="0.7857 18.9667168 1.3192 17.0525553 0.388 16.7902083 0 18.1893923"></polygon>
                    <polygon id="Rectangle" transform="translate(9.916206, 14.463044) rotate(-74.470000) translate(-9.916206, -14.463044) " points="6.5840479 13.9794491 13.248791 13.9765193 13.2483639 14.946638 6.58362081 14.9495678"></polygon>
                    <polygon id="Rectangle" transform="translate(20.375577, 10.607626) rotate(-74.290000) translate(-20.375577, -10.607626) " points="17.0531462 10.1240414 23.6984401 10.1210898 23.6980085 11.0912111 17.0527147 11.0941628"></polygon>
                    <path d="M16.9071,21.4250054 L15.9371,21.1723749 L14.7246,25.5351084 C15.2031333,25.0039367 15.6978333,24.4306599 16.2087,23.8152781 L16.9071,21.4250054 Z" id="Path"></path>
                </g>
                <path d="M103.583019,16.8290745 C104.941019,24.0387589 106.105019,28.1780116 103.456919,32.7253597 C99.4605187,39.5269487 89.8769187,38.5552931 86.4140187,31.8994524 C83.2809187,25.9140541 81.5640187,15.1383938 87.7914187,10.5230298 C90.5704251,8.44489501 94.2277233,7.96233432 97.4491517,9.24874428 C100.67058,10.5351542 102.993421,13.4057583 103.583019,16.8290745 Z" id="Path" fill="#CE7A63"></path>
                <path d="M89.3434187,23.3780331 C85.6768187,23.1059695 85.9678187,17.5480996 88.0630187,15.6047885 C82.7668187,15.3910243 76.1320187,15.17726 77.7519187,9.39590938 C78.9450187,5.18864076 90.0418187,5.08175864 84.8717187,2.16679193 C89.8284187,-0.913356238 92.7675187,4.21698518 90.3328187,5.3538222 C98.0928187,2.33197337 107.016819,0.165181447 103.835219,7.61777969 C109.170219,6.75300623 112.836819,15.6242216 110.091719,19.4525446 C107.346619,23.2808675 112.128719,23.970743 112.895019,22.1926133 C113.273319,27.3715375 107.986819,27.2160726 107.230219,26.244417 C110.411819,31.1026949 104.000119,37.1949753 97.4817187,33.9107795 C90.9633187,30.6265836 89.3434187,23.3780331 89.3434187,23.3780331 Z" id="Path" fill="#263238"></path>
                <path d="M101.730319,8.10360747 C105.852819,5.75220099 106.580319,2.79836805 104.921619,0 C111.750419,2.35140648 107.443619,8.58943526 101.730319,8.10360747 Z" id="Path" fill="#263238"></path>
                <path d="M92.3989187,22.1926133 C92.7664638,23.6926185 92.6230704,25.2726388 91.9915187,26.681662 C91.1476187,28.5375242 89.5083187,28.0711295 88.7226187,26.3998819 C88.0145187,24.8938158 87.5974187,22.1245974 88.9360187,20.8225789 C90.2746187,19.5205604 91.9430187,20.3950505 92.3989187,22.1926133 Z" id="Path" fill="#CE7A63"></path>
            </g>
            <g id="freepik--Plant--inject-11" transform="translate(98.347420, 193.681404)">
                <path d="M37.2003798,62.058343 C37.2377514,62.5724684 37.0696695,63.0804028 36.7331219,63.470371 C36.3965743,63.8603391 35.9191391,64.1003855 35.4058798,64.1376859 C35.1116478,64.1560651 34.8169694,64.1096321 34.5425798,64.0016541 C29.8089798,62.058343 22.9025798,60.2219139 20.5066798,57.617877 C17.5966798,54.401697 13.9688798,54.4599964 11.3304798,52.8761978 C8.69207984,51.2923992 6.84907984,49.0770245 9.04127984,46.6673187 C11.2334798,44.2576129 11.1752798,44.2478963 11.1752798,40.6333376 C11.1752798,37.0187789 13.6293798,36.4940848 16.7430798,36.6689829 C19.8567798,36.8438809 18.1107798,30.2852057 22.8734798,33.9774969 C27.6361798,37.6697881 26.5012798,44.7531572 29.2366798,48.3579994 C31.9720798,51.9628416 34.8820798,47.8721716 36.0848798,53.1676945 C36.7370256,56.0891566 37.110538,59.0660881 37.2003798,62.058343 Z" id="Path" fill="#1A6AFF"></path>
                <path d="M30.0126798,97.378023 C28.4800798,91.5480896 31.5452798,85.7181561 28.7516798,81.3165564 C25.9580798,76.9149567 27.1608798,72.1538444 26.1714798,68.3838207 C25.1820798,64.6137971 23.1935798,61.8154291 19.7112798,64.2834342 C16.2289798,66.7514394 16.2289798,66.6834235 12.0482798,66.0518474 C7.86757984,65.4202712 6.49017984,68.5587187 5.69477984,72.6979715 C4.89937984,76.8372242 -2.12342016,73.3878469 0.641079839,80.3157512 C3.40557984,87.2436554 11.9609798,86.9813084 15.2589798,91.2177267 C18.5569798,95.454145 14.2404798,99.7197129 20.5066798,100.710802 C26.7728798,101.70189 33.0390798,111.651643 30.0126798,97.378023 Z" id="Path" fill="#1A6AFF"></path>
                <path d="M39.0142798,76.5068613 C42.8942798,71.9497967 49.4611798,71.133606 51.4690798,66.3141944 C53.4769798,61.4947827 58.0941798,59.7943855 60.6161798,56.830836 C63.1381798,53.8672865 64.3118798,50.6316734 60.2960798,49.1741901 C56.2802798,47.7167067 56.3481798,47.6778405 54.4760798,43.8786672 C52.6039798,40.0794939 49.2477798,40.7207866 45.3968798,42.4309004 C41.5459798,44.1410142 40.3819798,36.3872027 36.2788798,42.6057984 C32.1757798,48.8243941 37.2488798,55.7134321 35.6580798,60.85349 C34.0672798,65.993548 28.1017798,64.856711 30.8662798,70.5700458 C33.6307798,76.2833805 29.0329798,87.1270567 39.0142798,76.5068613 Z" id="Path" fill="#1A6AFF"></path>
                <path d="M28.4606798,30.7710335 C27.6652798,26.0876537 23.6106798,23.4641836 24.1538798,19.1111667 C24.6970798,14.7581497 22.3011798,12.0860969 21.7870798,9.04481493 C21.2729798,6.00353299 21.7870798,3.16629872 25.0074798,3.26346428 C28.2278798,3.36062984 28.2375798,3.32176361 30.9729798,0.970357128 C33.7083798,-1.38104936 34.5522798,0.970357128 36.4534798,3.46751195 C38.3546798,5.96466677 43.0009798,2.31124182 43.2919798,8.32578981 C43.5829798,14.3403378 37.8114798,15.2925603 36.8608798,19.7135931 C35.9102798,24.134626 40.3237798,25.096565 36.2303798,28.6528244 C32.1369798,32.2090838 30.9438798,41.9353561 28.4606798,30.7710335 Z" id="Path" fill="#263238"></path>
                <path d="M29.9641798,134.738671 C29.5104464,134.752561 29.1074429,134.449792 28.9941798,134.009438 C26.6176798,124.953608 28.3054798,114.022483 30.2745798,101.371527 C31.8459798,91.2468763 33.6210798,79.771624 33.6210798,67.1789678 C33.6210798,59.6389206 32.4376798,52.128023 31.3900798,45.501332 C30.3133798,38.699743 29.3918798,32.8017937 30.0223798,28.6528244 C30.1054159,28.1161938 30.6070136,27.7485977 31.1427298,27.8317754 C31.678446,27.9149532 32.0454159,28.4174071 31.9623798,28.9540376 C31.3706798,32.7920771 32.2727798,38.5442781 33.3300798,45.2001188 C34.3873798,51.8559594 35.5804798,59.4834557 35.5804798,67.1789678 C35.5804798,79.9173724 33.7859798,91.4703571 32.2048798,101.672741 C30.2648798,114.109932 28.6158798,124.856443 30.8856798,133.513894 C31.0212128,134.031596 30.7132883,134.561609 30.1969798,134.699314 C30.1223983,134.726393 30.0434975,134.738671 29.9641798,134.738671 Z" id="Path" fill="#263238"></path>
                <path d="M30.1484798,110.777153 C31.3124798,104.208762 31.6131798,98.5051435 35.8229798,94.0938272 C40.0327798,89.6825109 39.5962798,84.6201853 41.5556798,80.7529962 C43.5150798,76.885807 46.4056798,74.0971555 50.0043798,76.9343898 C53.6030798,79.771624 53.6030798,79.6938916 58.6567798,79.334379 C63.7104798,78.9748665 64.6804798,82.3659444 64.7483798,86.7578276 C64.8162798,91.1497108 73.8081798,88.0501295 69.1133798,95.0946324 C64.4185798,102.139135 54.4081798,101.235496 49.6454798,105.433048 C44.8827798,109.6306 50.6154798,115.547982 42.9912798,116.121259 C35.3670798,116.694536 30.7983798,113.167426 30.1484798,110.777153 Z" id="Path" fill="#263238"></path>
                <path d="M9.54567984,120.211929 L53.7388798,120.211929 C57.3181798,120.211929 49.4514798,157.319455 43.1561798,157.319455 L20.1283798,157.319455 C13.8330798,157.319455 5.96637984,120.211929 9.54567984,120.211929 Z" id="Path" fill="#1A6AFF"></path>
                <path d="M9.54567984,120.211929 L53.7388798,120.211929 C57.3181798,120.211929 49.4514798,157.319455 43.1561798,157.319455 L20.1283798,157.319455 C13.8330798,157.319455 5.96637984,120.211929 9.54567984,120.211929 Z" id="Path" fill="#FFFFFF" opacity="0.300000012"></path>
            </g>
        </g>
    </g>
</svg>