<?xml version="1.0" encoding="UTF-8"?>
<svg width="480px" height="360px" viewBox="0 0 480 360" version="1.1" xmlns="http://www.w3.org/2000/svg" xmlns:xlink="http://www.w3.org/1999/xlink">
    <title> sheduled_no_results_360</title>
    <g id="-sheduled_no_results_360" stroke="none" stroke-width="1" fill="none" fill-rule="evenodd">
        <g id="Events-rafiki" transform="translate(-2.000000, -5.000000)" fill-rule="nonzero">
            <g id="freepik--background-complete--inject-2">
                <rect id="Rectangle" fill="#EBEBEB" x="0" y="314.304" width="480" height="1"></rect>
                <rect id="Rectangle" fill="#EBEBEB" x="348.48" y="329.7504" width="83.424" height="1"></rect>
                <rect id="Rectangle" fill="#EBEBEB" x="343.3536" y="320.8416" width="8.3424" height="1"></rect>
                <rect id="Rectangle" fill="#EBEBEB" x="268.9152" y="328.8" width="18.4224" height="1"></rect>
                <rect id="Rectangle" fill="#EBEBEB" x="50.3616" y="322.4544" width="20.736" height="1"></rect>
                <rect id="Rectangle" fill="#EBEBEB" x="79.6416" y="322.4544" width="26.8128" height="1"></rect>
                <rect id="Rectangle" fill="#EBEBEB" x="199.3632" y="326.3904" width="44.9664" height="1"></rect>
                <path d="M227.52,271.488 L42.1536,271.488 C39.1299456,271.482705 36.6816,269.030059 36.6816,266.0064 L36.6816,5.4336 C36.7079092,2.42869613 39.1485854,0.00514755814 42.1536,1.36424205e-14 L227.52,1.36424205e-14 C230.547404,1.36424205e-14 233.0016,2.45419592 233.0016,5.4816 L233.0016,266.0064 C233.0016,269.033804 230.547404,271.488 227.52,271.488 Z M42.1536,0.192 C39.262494,0.197295075 36.9216,2.54248915 36.9216,5.4336 L36.9216,266.0064 C36.9216,268.897511 39.262494,271.242705 42.1536,271.248 L227.52,271.248 C230.412664,271.242717 232.756317,268.899064 232.7616,266.0064 L232.7616,5.4336 C232.756317,2.54093555 230.412664,0.197283419 227.52,0.192 L42.1536,0.192 Z" id="Shape" fill="#EBEBEB"></path>
                <path d="M435.1776,271.488 L249.8016,271.488 C246.776387,271.482716 244.325284,269.031613 244.32,266.0064 L244.32,5.4336 C244.351534,2.42714914 246.794988,0.00509095399 249.8016,0 L435.1776,0 C438.17887,0.0103974834 440.613737,2.43242655 440.64,5.4336 L440.64,266.0064 C440.64,269.026322 438.197503,271.477422 435.1776,271.488 Z M249.8016,0.192 C246.908936,0.197283419 244.565283,2.54093555 244.56,5.4336 L244.56,266.0064 C244.565283,268.899064 246.908936,271.242717 249.8016,271.248 L435.1776,271.248 C438.070264,271.242717 440.413917,268.899064 440.4192,266.0064 L440.4192,5.4336 C440.413917,2.54093555 438.070264,0.197283419 435.1776,0.192 L249.8016,0.192 Z" id="Shape" fill="#EBEBEB"></path>
                <rect id="Rectangle" fill="#E6E6E6" x="51.8496" y="17.2224" width="148.4448" height="212.2848"></rect>
                <rect id="Rectangle" fill="#F0F0F0" x="53.9328" y="17.2224" width="150.816" height="212.2848"></rect>
                <rect id="Rectangle" fill="#E6E6E6" x="51.8496" y="229.5072" width="148.4448" height="3.888"></rect>
                <rect id="Rectangle" fill="#F0F0F0" x="56.304" y="229.5072" width="150.816" height="3.888"></rect>
                <polygon id="Rectangle" fill="#FAFAFA" transform="translate(129.345600, 123.360000) rotate(90.000000) translate(-129.345600, -123.360000) " points="29.4384 54.1872 229.2528 54.1872 229.2528 192.5328 29.4384 192.5328"></polygon>
                <polygon id="Path" fill="#FFFFFF" points="124.0896 223.2672 157.6512 23.4624 174.9312 23.4624 141.3696 223.2672"></polygon>
                <polygon id="Path" fill="#FFFFFF" points="80.4864 223.2672 114.048 23.4624 131.328 23.4624 97.7664 223.2672"></polygon>
                <path d="M63.0528,122.976 C62.7936,122.976 62.5824,122.6592 62.5824,122.2656 L62.5824,27.744 C62.5824,27.3504 62.7936,27.0432 63.0528,27.0432 C63.312,27.0432 63.5328,27.3504 63.5328,27.744 L63.5328,122.2656 C63.5328,122.6592 63.36,122.976 63.0528,122.976 Z" id="Path" fill="#F0F0F0"></path>
                <polygon id="Path" fill="#FFFFFF" points="145.0848 223.2672 178.6464 23.4624 185.376 23.4624 151.8144 223.2672"></polygon>
                <polygon id="Rectangle" fill="#E6E6E6" transform="translate(198.124800, 123.369600) rotate(90.000000) translate(-198.124800, -123.369600) " points="98.2176 122.976 298.032 122.976 298.032 123.7632 98.2176 123.7632"></polygon>
                <polygon id="Path" fill="#E0E0E0" opacity="0.5" points="206.2272 41.4816 57.7824 41.4816 57.2064 25.8816 205.6512 25.8816"></polygon>
                <polygon id="Path" fill="#E0E0E0" opacity="0.5" points="206.2272 67.1136 57.7824 67.1136 57.2064 51.5232 205.6512 51.5232"></polygon>
                <polygon id="Path" fill="#E0E0E0" opacity="0.5" points="206.2272 92.7552 57.7824 92.7552 57.2064 77.1648 205.6512 77.1648"></polygon>
                <polygon id="Path" fill="#E0E0E0" opacity="0.5" points="206.2272 118.3968 57.7824 118.3968 57.2064 102.7968 205.6512 102.7968"></polygon>
                <polygon id="Path" fill="#E0E0E0" opacity="0.5" points="206.2272 144.0288 57.7824 144.0288 57.2064 128.4384 205.6512 128.4384"></polygon>
                <polygon id="Path" fill="#E0E0E0" opacity="0.5" points="206.2272 169.6704 57.7824 169.6704 57.2064 154.08 205.6512 154.08"></polygon>
                <polygon id="Path" fill="#E0E0E0" opacity="0.5" points="206.2272 54.2976 57.7824 54.2976 57.2064 38.6976 205.6512 38.6976"></polygon>
                <polygon id="Path" fill="#E0E0E0" opacity="0.5" points="206.2272 79.9392 57.7824 79.9392 57.2064 64.3392 205.6512 64.3392"></polygon>
                <polygon id="Path" fill="#E0E0E0" opacity="0.5" points="206.2272 105.5712 57.7824 105.5712 57.2064 89.9808 205.6512 89.9808"></polygon>
                <polygon id="Path" fill="#E0E0E0" opacity="0.5" points="206.2272 131.2128 57.7824 131.2128 57.2064 115.6224 205.6512 115.6224"></polygon>
                <polygon id="Path" fill="#E0E0E0" opacity="0.5" points="206.2272 156.8544 57.7824 156.8544 57.2064 141.2544 205.6512 141.2544"></polygon>
                <polygon id="Path" fill="#E0E0E0" opacity="0.5" points="206.2272 182.496 57.7824 182.496 57.2064 166.896 205.6512 166.896"></polygon>
                <rect id="Rectangle" fill="#F0F0F0" x="255.6" y="162.768" width="29.5872" height="148.272"></rect>
                <rect id="Rectangle" fill="#F0F0F0" x="261.2832" y="311.04" width="145.9008" height="3.264"></rect>
                <rect id="Rectangle" fill="#F5F5F5" transform="translate(349.012800, 236.904000) rotate(180.000000) translate(-349.012800, -236.904000) " x="285.1776" y="162.768" width="127.6704" height="148.272"></rect>
                <path d="M398.1696,246.3072 L299.856,246.3072 C297.912379,246.301926 296.338074,244.727621 296.3328,242.784 L296.3328,219.84 C296.3328,217.892631 297.908639,216.312492 299.856,216.3072 L316.1088,216.3072 C317.445173,216.328117 318.657349,217.095457 319.248,218.2944 C319.890968,219.480928 321.133667,220.218434 322.4832,220.2144 L375.5616,220.2144 C376.530861,220.212325 377.459667,219.82561 378.144,219.1392 C378.421222,218.855659 378.654227,218.53204 378.8352,218.1792 C379.426217,217.003164 380.629408,216.260453 381.9456,216.2592 L398.1696,216.2592 C400.120712,216.2592 401.7024,217.840888 401.7024,219.792 L401.7024,242.784 C401.697108,244.731361 400.116969,246.3072 398.1696,246.3072 Z M299.856,217.2768 C298.438832,217.282088 297.2928,218.432422 297.2928,219.8496 L297.2928,242.784 C297.298064,244.19743 298.44257,245.341936 299.856,245.3472 L398.1696,245.3472 C399.586778,245.3472 400.737112,244.201168 400.7424,242.784 L400.7424,219.84 C400.7424,218.419082 399.590518,217.267186 398.1696,217.267186 L381.9456,217.267186 C380.997868,217.264042 380.127564,217.789928 379.6896,218.6304 C379.464728,219.074716 379.169749,219.479906 378.816,219.8304 C377.954648,220.696841 376.783339,221.184023 375.5616,221.184 L322.4832,221.184 C320.777761,221.185187 319.209922,220.248172 318.4032,218.7456 C317.973919,217.86351 317.089446,217.293599 316.1088,217.267186 L299.856,217.2768 Z" id="Shape" fill="#EBEBEB"></path>
                <path d="M398.1696,286.368 L299.856,286.368 C297.912379,286.362726 296.338074,284.788421 296.3328,282.8448 L296.3328,259.9104 C296.3328,257.963031 297.908639,256.382892 299.856,256.3776 L316.1088,256.3776 C317.445173,256.398517 318.657349,257.165857 319.248,258.3648 C319.890968,259.551328 321.133667,260.288834 322.4832,260.2848 L375.5616,260.2848 C376.52925,260.288753 377.457307,259.900908 378.1344,259.2096 C378.417628,258.928958 378.654208,258.604875 378.8352,258.2496 C379.426217,257.073564 380.629408,256.330853 381.9456,256.3296 L398.1696,256.3296 C400.120712,256.3296 401.702609,257.911288 401.702609,259.8624 L401.702609,282.7968 C401.712657,283.740392 401.344985,284.64887 400.681342,285.319727 C400.017698,285.990585 399.113248,286.368 398.1696,286.368 Z M299.856,257.337586 C298.438832,257.342888 297.2928,258.493222 297.2928,259.9104 L297.2928,282.8448 C297.298064,284.25823 298.44257,285.402736 299.856,285.408 L398.1696,285.408 C399.586778,285.408 400.737112,284.261968 400.7424,282.8448 L400.7424,259.9104 C400.7424,258.489482 399.590518,257.337586 398.1696,257.337586 L381.9456,257.337586 C380.997868,257.334442 380.127564,257.860328 379.6896,258.7008 C379.464728,259.145116 379.169749,259.550306 378.816,259.9008 C377.958334,260.772716 376.784623,261.260897 375.5616,261.2544 L322.4832,261.2544 C320.777761,261.255587 319.209922,260.318572 318.4032,258.816 C317.973919,257.93391 317.089446,257.363999 316.1088,257.337586 L299.856,257.337586 Z" id="Shape" fill="#EBEBEB"></path>
                <path d="M401.7024,304.2048 L296.3328,304.2048 L296.3328,295.68 L401.7024,295.68 L401.7024,304.2048 Z M297.2928,303.2448 L400.7424,303.2448 L400.7424,296.64 L297.2928,296.64 L297.2928,303.2448 Z" id="Shape" fill="#EBEBEB"></path>
                <path d="M398.1696,206.256 L299.856,206.256 C297.912379,206.250726 296.338074,204.676421 296.3328,202.7328 L296.3328,179.7984 C296.3328,177.851031 297.908639,176.270892 299.856,176.2656 L316.1088,176.2656 C317.44304,176.284691 318.654681,177.047987 319.248,178.2432 C319.889384,179.43125 321.133089,180.169354 322.4832,180.1632 L375.5616,180.1632 C376.530861,180.161125 377.459667,179.77441 378.144,179.088 C378.421222,178.804459 378.654227,178.48084 378.8352,178.128 C379.426217,176.951964 380.629408,176.209253 381.9456,176.208 L398.1696,176.208 C400.120712,176.208 401.702727,177.789688 401.702727,179.7408 L401.702727,202.6752 C401.715244,203.620446 401.348718,204.531408 400.684792,205.204354 C400.020866,205.877301 399.114933,206.256 398.1696,206.256 L398.1696,206.256 Z M299.856,177.225586 C298.438832,177.230888 297.2928,178.381222 297.2928,179.7984 L297.2928,202.7328 C297.298064,204.14623 298.44257,205.290736 299.856,205.296 L398.1696,205.296 C399.586778,205.296 400.737112,204.149968 400.7424,202.7328 L400.7424,179.7984 C400.7424,178.377482 399.590518,177.225586 398.1696,177.225586 L381.9456,177.225586 C380.997868,177.222442 380.127564,177.748328 379.6896,178.5888 C379.464728,179.033116 379.169749,179.438306 378.816,179.7888 C377.955863,180.657049 376.783765,181.144559 375.5616,181.1424 L322.4832,181.1424 C320.778344,181.141474 319.211506,180.205058 318.4032,178.704 C317.973919,177.82191 317.089446,177.251999 316.1088,177.225586 L299.856,177.225586 Z" id="Shape" fill="#EBEBEB"></path>
                <rect id="Rectangle" fill="#F0F0F0" x="285.1872" y="160.3776" width="131.616" height="2.3904"></rect>
                <rect id="Rectangle" fill="#E6E6E6" transform="translate(268.329600, 161.572800) rotate(180.000000) translate(-268.329600, -161.572800) " x="251.472" y="160.3776" width="33.7152" height="2.3904"></rect>
                <rect id="Rectangle" fill="#E6E6E6" x="275.2224" y="22.3392" width="112.9248" height="112.08"></rect>
                <rect id="Rectangle" fill="#F0F0F0" x="276.3744" y="22.3392" width="117.8688" height="112.08"></rect>
                <polygon id="Rectangle" fill="#FFFFFF" transform="translate(335.308800, 78.384000) rotate(90.000000) translate(-335.308800, -78.384000) " points="284.7072 24.8928 385.9104 24.8928 385.9104 131.8752 284.7072 131.8752"></polygon>
                <path d="M335.3088,120.048 C312.298408,120.048 293.6448,101.394392 293.6448,78.384 C293.6448,55.3736082 312.298408,36.72 335.3088,36.72 C358.319192,36.72 376.9728,55.3736082 376.9728,78.384 C376.946349,101.383426 358.308226,120.021549 335.3088,120.048 L335.3088,120.048 Z M335.3088,37.44 C312.696053,37.44 294.3648,55.7712532 294.3648,78.384 C294.3648,100.996747 312.696053,119.328 335.3088,119.328 C357.921547,119.328 376.2528,100.996747 376.2528,78.384 C376.23163,55.7800278 357.912772,37.4611697 335.3088,37.44 L335.3088,37.44 Z" id="Shape" fill="#F5F5F5"></path>
            </g>
            <g id="freepik--Shadow--inject-2" transform="translate(53.865600, 335.923200)" fill="#F5F5F5">
                <ellipse id="freepik--path--inject-2" cx="186.1344" cy="10.8672" rx="186.1344" ry="10.8672"></ellipse>
            </g>
            <g id="freepik--event-calendar--inject-2" transform="translate(65.068800, 135.724800)">
                <polygon id="Path" fill="#1A6AFF" points="0 156.672 235.0944 156.672 251.9904 10.416 16.9056 10.416"></polygon>
                <polygon id="Path" fill="#FFFFFF" opacity="0.4" points="0 156.672 235.0944 156.672 251.9904 10.416 16.9056 10.416"></polygon>
                <polygon id="Path" fill="#1A6AFF" points="281.2704 162.1536 46.176 162.1536 16.9056 10.416 251.9904 10.416"></polygon>
                <polygon id="Path" fill="#FFFFFF" opacity="0.6" points="281.2704 162.1536 46.176 162.1536 16.9056 10.416 251.9904 10.416"></polygon>
                <polygon id="Path" fill="#FFFFFF" points="272.2656 154.0128 52.032 154.0128 28.3872 31.4112 248.6208 31.4112"></polygon>
                <g id="Group" opacity="0.5" transform="translate(41.702400, 38.102400)" fill="#1A6AFF">
                    <polygon id="Path" points="27.4752 23.04 4.4448 23.04 -1.36424205e-14 0 23.0304 0"></polygon>
                    <polygon id="Path" points="200.6304 23.04 177.5904 23.04 173.1552 0 196.1856 0"></polygon>
                    <polygon id="Path" points="171.7632 23.04 148.7328 23.04 144.288 0 167.328 0"></polygon>
                    <polygon id="Path" points="142.9056 23.04 119.8752 23.04 115.4304 0 138.4704 0"></polygon>
                    <polygon id="Path" points="114.048 23.04 91.0176 23.04 86.5728 0 109.6032 0"></polygon>
                    <polygon id="Path" points="85.1904 23.04 62.16 23.04 57.7152 0 80.7456 0"></polygon>
                    <polygon id="Path" points="56.3328 23.04 33.3024 23.04 28.8576 0 51.888 0"></polygon>
                    <polygon id="Path" points="33.0144 51.7632 9.984 51.7632 5.5392 28.7328 28.5696 28.7328"></polygon>
                    <polygon id="Path" points="206.1696 51.7632 183.1392 51.7632 178.6944 28.7328 201.7248 28.7328"></polygon>
                    <polygon id="Path" points="177.312 51.7632 154.2816 51.7632 149.8368 28.7328 172.8672 28.7328"></polygon>
                    <polygon id="Path" points="148.4544 51.7632 125.4144 51.7632 120.9792 28.7328 144.0096 28.7328"></polygon>
                    <polygon id="Path" points="119.5872 51.7632 96.5568 51.7632 92.112 28.7328 115.152 28.7328"></polygon>
                    <polygon id="Path" points="90.7296 51.7632 67.6992 51.7632 63.2544 28.7328 86.2848 28.7328"></polygon>
                    <polygon id="Path" points="61.872 51.7632 38.8416 51.7632 34.3968 28.7328 57.4272 28.7328"></polygon>
                    <polygon id="Path" points="38.5536 80.4864 15.5232 80.4864 11.0784 57.456 34.1088 57.456"></polygon>
                    <polygon id="Path" points="211.7088 80.4864 188.6784 80.4864 184.2336 57.456 207.264 57.456"></polygon>
                    <polygon id="Path" points="182.8512 80.4864 159.8208 80.4864 155.376 57.456 178.4064 57.456"></polygon>
                    <polygon id="Path" points="153.9936 80.4864 130.9632 80.4864 126.5184 57.456 149.5488 57.456"></polygon>
                    <polygon id="Path" points="125.136 80.4864 102.096 80.4864 97.6608 57.456 120.6912 57.456"></polygon>
                    <polygon id="Path" points="96.2688 80.4864 73.2384 80.4864 68.7936 57.456 91.8336 57.456"></polygon>
                    <polygon id="Path" points="67.4112 80.4864 44.3808 80.4864 39.936 57.456 62.9664 57.456"></polygon>
                    <polygon id="Path" points="44.0928 109.2192 21.0624 109.2192 16.6176 86.1792 39.6576 86.1792"></polygon>
                    <polygon id="Path" points="217.248 109.2192 194.2176 109.2192 189.7728 86.1792 212.8032 86.1792"></polygon>
                    <polygon id="Path" points="188.3904 109.2192 165.36 109.2192 160.9152 86.1792 183.9456 86.1792"></polygon>
                    <polygon id="Path" points="159.5328 109.2192 136.5024 109.2192 132.0576 86.1792 155.088 86.1792"></polygon>
                    <polygon id="Path" points="130.6752 109.2192 107.6448 109.2192 103.2 86.1792 126.2304 86.1792"></polygon>
                    <polygon id="Path" points="101.8176 109.2192 78.7776 109.2192 74.3424 86.1792 97.3728 86.1792"></polygon>
                    <polygon id="Path" points="72.96 109.2192 49.92 109.2192 45.4848 86.1792 68.5152 86.1792"></polygon>
                </g>
                <path d="M45.8976,20.832 L45.6,19.3056 C48.3168,19.3056 49.8336,15.2352 48.9024,10.416 C47.9712,5.5968 44.8896,1.5168 42.1824,1.5168 C39.4752,1.5168 37.9488,5.5968 38.8704,10.416 L37.3536,10.416 C36.2208,4.5696 38.2176,2.72848411e-14 41.8848,2.72848411e-14 C45.552,2.72848411e-14 49.3152,4.5696 50.4384,10.416 C51.5616,16.2624 49.5648,20.832 45.8976,20.832 Z" id="Path" fill="#263238"></path>
                <path d="M68.6304,20.832 L68.3328,19.3056 C71.0496,19.3056 72.5664,15.2352 71.6352,10.416 C70.704,5.5968 67.6224,1.5168 64.9152,1.5168 C62.208,1.5168 60.6816,5.5968 61.6032,10.416 L60.0864,10.416 C58.9536,4.5696 60.9504,2.72848411e-14 64.6176,2.72848411e-14 C68.2848,2.72848411e-14 72.048,4.5696 73.1712,10.416 C74.2944,16.2624 72.2976,20.832 68.6304,20.832 Z" id="Path" fill="#263238"></path>
                <path d="M91.4112,20.832 L91.1136,19.3056 C93.8304,19.3056 95.3472,15.2352 94.416,10.416 C93.4848,5.5968 90.4032,1.5168 87.696,1.5168 C84.9888,1.5168 83.4528,5.5968 84.384,10.416 L82.7712,10.416 C81.6384,4.5696 83.6352,2.72848411e-14 87.3024,2.72848411e-14 C90.9696,2.72848411e-14 94.7328,4.5696 95.856,10.416 C96.9792,16.2624 95.0304,20.832 91.4112,20.832 Z" id="Path" fill="#263238"></path>
                <path d="M114.0864,20.832 L113.7984,19.3056 C116.5152,19.3056 118.032,15.2352 117.1008,10.416 C116.1696,5.5968 113.088,1.5168 110.3808,1.5168 C107.6736,1.5168 106.1472,5.5968 107.0784,10.416 L105.552,10.416 C104.4288,4.5696 106.4256,2.72848411e-14 110.0928,2.72848411e-14 C113.76,2.72848411e-14 117.5136,4.5696 118.6464,10.416 C119.7792,16.2624 117.7632,20.832 114.0864,20.832 Z" id="Path" fill="#263238"></path>
                <path d="M136.8192,20.832 L136.5312,19.3056 C139.248,19.3056 140.7648,15.2352 139.8336,10.416 C138.9024,5.5968 135.8208,1.5168 133.1136,1.5168 C130.4064,1.5168 128.88,5.5968 129.8112,10.416 L128.2848,10.416 C127.1616,4.5696 129.1584,2.72848411e-14 132.8256,2.72848411e-14 C136.4928,2.72848411e-14 140.2464,4.5696 141.3792,10.416 C142.512,16.2624 140.496,20.832 136.8192,20.832 Z" id="Path" fill="#263238"></path>
                <path d="M159.5712,20.832 L159.2832,19.3056 C162,19.3056 163.5168,15.2352 162.5856,10.416 C161.6544,5.5968 158.5728,1.5168 155.8656,1.5168 C153.1584,1.5168 151.632,5.5968 152.5632,10.416 L151.0368,10.416 C149.9136,4.5696 151.9008,2.72848411e-14 155.5776,2.72848411e-14 C159.2544,2.72848411e-14 162.9984,4.5696 164.1312,10.416 C165.264,16.2624 163.2288,20.832 159.5712,20.832 Z" id="Path" fill="#263238"></path>
                <path d="M182.2848,20.832 L181.9968,19.3056 C184.7136,19.3056 186.2304,15.2352 185.2992,10.416 C184.368,5.5968 181.2864,1.5168 178.5792,1.5168 C175.872,1.5168 174.3456,5.5968 175.2768,10.416 L173.7504,10.416 C172.6272,4.5696 174.6144,2.72848411e-14 178.2912,2.72848411e-14 C181.968,2.72848411e-14 185.712,4.5696 186.8448,10.416 C187.9776,16.2624 185.9616,20.832 182.2848,20.832 Z" id="Path" fill="#263238"></path>
                <path d="M205.0176,20.832 L204.7296,19.3056 C207.4464,19.3056 208.9632,15.2352 208.032,10.416 C207.1008,5.5968 204.0192,1.5168 201.312,1.5168 C198.6048,1.5168 197.0784,5.5968 198.0096,10.416 L196.4832,10.416 C195.36,4.5696 197.3472,2.72848411e-14 201.024,2.72848411e-14 C204.7008,2.72848411e-14 208.4448,4.5696 209.5776,10.416 C210.7104,16.2624 208.6848,20.832 205.0176,20.832 Z" id="Path" fill="#263238"></path>
                <path d="M227.7312,20.832 L227.4432,19.3056 C230.16,19.3056 231.6768,15.2352 230.7456,10.416 C229.8144,5.5968 226.7328,1.5168 224.0256,1.5168 C221.3184,1.5168 219.792,5.5968 220.7232,10.416 L219.1968,10.416 C218.0736,4.5696 220.0608,2.72848411e-14 223.7376,2.72848411e-14 C227.4144,2.72848411e-14 231.1584,4.5696 232.2816,10.416 C233.4048,16.2624 231.4176,20.832 227.7312,20.832 Z" id="Path" fill="#263238"></path>
                <polygon id="Path" fill="#1A6AFF" points="129.5136 57.8976 48.7584 57.8976 44.3136 34.8672 125.0688 34.8672"></polygon>
                <polygon id="Path" fill="#1A6AFF" points="163.9296 86.6304 140.8896 86.6304 136.4544 63.5904 159.4848 63.5904"></polygon>
                <path d="M235.9872,116.1216 L234.7392,115.0368 C232.177836,112.793651 229.326738,110.904759 226.2624,109.4208 L227.0592,107.0688 C229.913444,108.449817 232.599811,110.15376 235.0656,112.1472 C239.317556,105.841953 244.885308,100.532938 251.3856,96.5856 L253.104,98.928 C246.486926,102.948589 240.883272,108.437279 236.7264,114.9696 L235.9872,116.1216 Z" id="Path" fill="#1A6AFF"></path>
                <polygon id="Path" fill="#FFFFFF" points="155.4816 67.4016 153.3984 67.4016 149.9136 73.7088 144.0096 67.4016 141.9264 67.4016 149.1456 75.1104 144.8928 82.8096 146.9856 82.8096 150.4608 76.512 156.3648 82.8096 158.4576 82.8096 151.2288 75.1104"></polygon>
                <path d="M198.1728,122.5728 L202.0128,142.5504 L182.0448,142.5504 L178.2048,122.5728 L198.1824,122.5728 M199.4208,121.0464 L176.3808,121.0464 L180.8256,144.0864 L203.8656,144.0864 L199.4304,121.0464 L199.4208,121.0464 Z" id="Shape" fill="#1A6AFF"></path>
                <polygon id="Path" fill="#263238" points="140.592 115.3536 88.704 115.3536 84.2592 92.3232 136.1472 92.3232"></polygon>
                <path d="M104.8512,101.5104 C105.131476,102.59535 104.881883,103.748936 104.178186,104.620991 C103.474488,105.493047 102.399674,105.980728 101.28,105.936 C98.7155842,105.840393 96.5421645,104.018672 96,101.5104 C95.7240329,100.425894 95.9752839,99.2747511 96.6780393,98.4038634 C97.3807947,97.5329756 98.4528703,97.0441899 99.5712,97.0848 C102.134324,97.1837594 104.305961,99.0039855 104.8512,101.5104 L104.8512,101.5104 Z" id="Path" fill="#FFFFFF"></path>
                <path d="M105.9168,105.696 C104.925001,107.074149 103.313141,107.869285 101.616,107.8176 C99.7105016,107.771753 97.8901347,107.01897 96.5088,105.7056 C94.7554457,106.653515 93.8102981,108.621282 94.1664,110.5824 L110.1408,110.5824 C109.555247,108.392763 107.998707,106.592129 105.9168,105.696 L105.9168,105.696 Z" id="Path" fill="#FFFFFF"></path>
                <polygon id="Path" fill="#FFFFFF" points="131.9424 102.4032 114.2784 102.4032 113.7888 99.8592 131.4528 99.8592"></polygon>
                <polygon id="Path" fill="#FFFFFF" points="127.0752 107.808 115.3248 107.808 114.8352 105.264 126.5856 105.264"></polygon>
                <path d="M219.8208,37.0176 C224.3712,37.0176 230.8128,37.68 235.68,40.8576 C237.466646,41.9110314 238.751256,43.6423126 239.2416,45.6576 C240.096,49.4304 238.0896,53.5488 235.872,55.7856 C232.368,59.3184 226.9152,61.5456 220.512,61.9872 C219.7824,62.0448 219.0336,62.0736 218.2944,62.0736 C213.785606,62.0340714 209.324318,61.1483267 205.1424,59.4624 C201.024,57.8208 196.656,55.6224 195.4272,51.3408 C194.777711,49.3431674 195.055923,47.1597323 196.1856,45.3888 C196.910799,44.2786388 197.871031,43.3413479 198.9984,42.6432 C204.317348,39.3533995 210.378694,37.4551021 216.624,37.1232 C217.6896,37.056 218.7648,37.0176 219.8208,37.0176 M219.5328,35.5392 C218.3904,35.5392 217.2864,35.5392 216.2496,35.6544 C209.787383,35.9943024 203.51468,37.9553476 198.0096,41.3568 C196.744029,42.1446167 195.666048,43.1996615 194.8512,44.448 C193.533185,46.5488064 193.213298,49.1254796 193.9776,51.4848 C195.4176,56.4576 200.3424,59.04 204.816,60.816 C209.188936,62.5831965 213.856405,63.5082218 218.5728,63.5424 C219.3504,63.5424 220.1184,63.5424 220.8864,63.4656 C226.9728,63.024 233.04,60.9504 237.0336,56.9184 C241.0272,52.8864 243.5712,44.3328 236.3232,39.6384 C231.4368,36.48 225.0432,35.5392 219.5232,35.5392 L219.5328,35.5392 Z" id="Shape" fill="#263238"></path>
            </g>
            <g id="freepik--Character--inject-2" transform="translate(300.167161, 53.800914)">
                <polygon id="Path" fill="#B55B52" points="71.3720386 286.192686 78.2456386 284.368686 74.8952386 268.202286 68.0216386 270.035886"></polygon>
                <path d="M78.4664386,283.101486 L70.8728386,285.597486 C70.6028378,285.672225 70.4440543,285.951169 70.5176386,286.221486 L72.1304386,292.355886 C72.3415413,293.014563 73.0449367,293.379128 73.7048386,293.171886 C76.3352386,292.211886 77.5448386,291.683886 80.8856386,290.589486 C82.9400386,289.907886 87.9128386,288.381486 90.7448386,287.450286 C93.5768386,286.519086 92.5880386,283.744686 91.3016386,283.879086 C85.5416386,284.512686 82.1720386,284.003886 79.7816386,283.139886 C79.3606281,282.976573 78.8962603,282.963015 78.4664386,283.101486 Z" id="Path" fill="#263238"></path>
                <polygon id="Path" fill="#000000" opacity="0.2" points="68.0216386 270.035886 74.8952386 268.202286 76.6232386 276.535086 69.7400386 278.368686"></polygon>
                <path d="M50.3960386,105.290286 C50.3960386,105.290286 59.9960386,163.226286 62.8760386,183.434286 C65.9960386,205.562286 77.6792386,272.128686 77.6792386,272.128686 L66.1592386,276.487086 C66.1592386,276.487086 47.7752386,211.043886 42.6968386,189.530286 C37.1768386,166.173486 25.0232386,105.290286 25.0232386,105.290286 L50.3960386,105.290286 Z" id="Path" fill="#263238"></path>
                <path d="M34.9688386,129.050286 C39.8840386,141.328686 40.4408386,162.199086 38.4440386,170.752686 C35.4296386,156.707886 31.9736386,139.907886 29.3144386,126.842286 C30.2648386,123.491886 31.9928386,121.581486 34.9688386,129.050286 Z" id="Path" fill="#000000" opacity="0.3"></path>
                <polygon id="Path" fill="#263238" points="65.6408386 278.119086 79.0136386 274.106286 78.6296386 268.634286 62.7128386 273.290286"></polygon>
                <path d="M81.2504386,283.495086 C80.6246191,283.678531 79.9809452,283.794392 79.3304386,283.840686 C79.2663018,283.845656 79.2042895,283.816474 79.1672386,283.763886 C79.134656,283.707451 79.134656,283.637921 79.1672386,283.581486 C79.3304386,283.360686 80.8184386,281.421486 81.7496386,281.469486 C81.9635528,281.485153 82.1550178,281.60798 82.2584386,281.795886 C82.4700403,282.072417 82.5036643,282.446017 82.3448386,282.755886 C82.0789232,283.123944 81.6911699,283.385847 81.2504386,283.495086 Z M79.7240386,283.495086 C81.0200386,283.331886 81.8936386,283.005486 82.1048386,282.592686 C82.190858,282.393371 82.165312,282.163457 82.0376386,281.987886 C81.9881939,281.894042 81.8938345,281.832346 81.7880386,281.824686 C81.2888386,281.776686 80.3480386,282.717486 79.7240386,283.475886 L79.7240386,283.495086 Z" id="Shape" fill="#1A6AFF"></path>
                <path d="M79.4072386,283.831086 C79.3825459,283.840725 79.3551313,283.840725 79.3304386,283.831086 C79.2751322,283.822596 79.2280308,283.786365 79.2056386,283.735086 C79.2056386,283.648686 78.3800386,281.757486 78.8408386,280.855086 C78.9638743,280.626852 79.181936,280.465065 79.4360386,280.413486 C79.7188499,280.33101 80.0211964,280.454335 80.1656386,280.711086 C80.5688386,281.392686 80.0216386,283.139886 79.4840386,283.754286 C79.4552386,283.811886 79.4360386,283.831086 79.4072386,283.831086 Z M79.4072386,280.787886 C79.2835125,280.83233 79.1808169,280.921333 79.1192386,281.037486 C78.9577113,281.81031 79.0485698,282.614576 79.3784386,283.331886 C79.846395,282.614777 80.0184268,281.744296 79.8584386,280.903086 C79.8104386,280.816686 79.7240386,280.720686 79.4840386,280.768686 L79.4072386,280.787886 Z" id="Shape" fill="#1A6AFF"></path>
                <path d="M48.9368386,45.6454862 C49.2152386,46.0966862 49.5992386,46.7302862 49.9544386,47.2774862 L51.0488386,49.0054862 C51.8072386,50.1478862 52.5560386,51.2902862 53.3528386,52.4134862 C54.9176386,54.6502862 56.5688386,56.8198862 58.2776386,58.8838862 C59.9446043,60.9018657 61.7471821,62.803874 63.6728386,64.5766862 C65.4135085,66.203325 67.348104,67.609131 69.4328386,68.7622862 L67.9160386,68.3302862 C69.4026764,68.6356342 70.925846,68.7229496 72.4376386,68.5894862 C73.2632386,68.5126862 74.1080386,68.4070862 74.9720386,68.2534862 C75.8360386,68.0998862 76.7096386,67.8886862 77.5928386,67.6486862 C79.4105623,67.1534664 81.1962961,66.5475352 82.9400386,65.8342862 C83.8328386,65.4694862 84.7256386,65.0950862 85.6184386,64.6918862 C86.5112386,64.2886862 87.4232386,63.8374862 88.2008386,63.4726862 L88.4600386,63.3478862 C90.0110125,62.6058546 91.8699869,63.2584276 92.6168386,64.8070862 C93.167058,65.9803594 92.9422835,67.3709139 92.0504386,68.3110862 C91.1768386,69.2134862 90.4088386,69.9334862 89.5448386,70.6918862 C88.6808386,71.4502862 87.8168386,72.1222862 86.9048386,72.7942862 C85.0482465,74.1502286 83.0832147,75.3510813 81.0296386,76.3846862 C78.8624475,77.4735685 76.5791654,78.3140997 74.2232386,78.8902862 C72.9580565,79.1809904 71.6753705,79.3894269 70.3832386,79.5142862 C69.0256688,79.6292649 67.6608084,79.6292649 66.3032386,79.5142862 C65.9173542,79.4762408 65.5390213,79.382466 65.1800386,79.2358862 L64.7960386,79.0726862 C61.6235139,77.6993618 58.6600522,75.8863825 55.9928386,73.6870862 C53.4638208,71.6473794 51.110001,69.3995297 48.9560386,66.9670862 C46.8520916,64.6374492 44.8840343,62.1885962 43.0616386,59.6326862 C42.1592386,58.3526862 41.2888386,57.0726862 40.4504386,55.7926862 C40.0376386,55.1302862 39.6248386,54.4774862 39.2216386,53.7958862 C38.8184386,53.1142862 38.4536386,52.4806862 38.0120386,51.6550862 C36.911089,49.7189925 36.9266632,47.3426185 38.0528947,45.4211213 C39.1791262,43.4996241 41.2449136,42.3249249 43.4720947,42.3393869 C45.6992759,42.3541178 47.749489,43.5557925 48.8504386,45.4918862 L48.9368386,45.6454862 Z" id="Path" fill="#263238"></path>
                <path d="M54.8504386,63.2038862 C51.1064386,55.5238862 44.7224386,55.9654862 42.1496386,58.3366862 L42.8792386,59.4022862 C44.6218327,61.8723403 46.4999095,64.2439731 48.5048386,66.5062862 C50.5577298,68.8318422 52.7780597,71.0040436 55.1480386,73.0054862 C55.8968386,73.6198862 56.6744386,74.2246862 57.4616386,74.8006862 C57.3545726,70.8019473 56.4675696,66.8626105 54.8504386,63.2038862 Z" id="Path" fill="#000000" opacity="0.3"></path>
                <path d="M90.3320386,62.3590862 L95.1320386,58.3558862 L98.0120386,64.5670862 C98.0120386,64.5670862 90.8600386,69.6838862 89.2184386,67.8790862 L89.0264386,65.5654862 C88.9166283,64.3483092 89.4032021,63.1533412 90.3320386,62.3590862 Z" id="Path" fill="#B55B52"></path>
                <polygon id="Path" fill="#B55B52" points="101.535239 59.1142862 103.042439 63.9142862 97.9736386 64.5382862 95.1128386 58.3270862"></polygon>
                <polygon id="Path" fill="#B55B52" points="11.2376386 285.962286 18.3512386 285.962286 19.2728386 269.479086 12.1592386 269.479086"></polygon>
                <path d="M18.7256386,285.136686 L10.7288386,285.136686 C10.5938706,285.131497 10.4623778,285.180186 10.363337,285.272024 C10.2642962,285.363862 10.2058358,285.491311 10.2008386,285.626286 L9.8072386,291.952686 C9.8072386,292.645111 10.3628929,293.209395 11.0552386,293.219886 C13.8392386,293.171886 15.1736386,293.008686 18.6872386,293.008686 C20.8472386,293.008686 26.8088386,293.229486 29.7944386,293.229486 C32.7800386,293.229486 32.6744386,290.272686 31.4360386,290.003886 C25.7528386,288.813486 21.9608386,287.123886 19.9160386,285.578286 C19.5807994,285.30035 19.1610359,285.144631 18.7256386,285.136686 Z" id="Path" fill="#263238"></path>
                <polygon id="Path" fill="#000000" opacity="0.2" points="12.1592386 269.488686 19.2728386 269.488686 18.7928386 277.984686 11.6792386 277.984686"></polygon>
                <path d="M36.4952386,105.290286 C36.4952386,105.290286 35.8808386,167.123886 34.7288386,187.504686 C33.4616386,209.815086 21.8456386,275.930286 21.8456386,275.930286 L8.8088386,275.930286 C8.8088386,275.930286 14.4920386,211.610286 13.7048386,189.530286 C12.8504386,165.530286 12.3320386,105.290286 12.3320386,105.290286 L36.4952386,105.290286 Z" id="Path" fill="#263238"></path>
                <polygon id="Path" fill="#263238" points="7.7624386 275.930286 23.6600386 275.930286 24.4376386 270.986286 7.0904386 271.754286"></polygon>
                <path d="M21.2408386,286.375086 C20.593795,286.36025 19.9501689,286.276578 19.3208386,286.125486 C19.2552578,286.112958 19.2039222,286.061747 19.191235,285.996197 C19.1785479,285.930646 19.2070683,285.863979 19.2632386,285.827886 C19.4936386,285.664686 21.5000386,284.291886 22.3736386,284.637486 C22.5730147,284.713924 22.7184073,284.888395 22.7576386,285.098286 C22.8492684,285.413766 22.7732153,285.754195 22.5560386,286.000686 C22.1784435,286.282665 21.7103303,286.415924 21.2408386,286.375086 L21.2408386,286.375086 Z M19.8008386,285.885486 C21.0776386,286.135086 22.0184386,286.096686 22.3448386,285.770286 C22.4923055,285.609715 22.5401844,285.38137 22.4696386,285.175086 C22.4538312,285.068393 22.3797327,284.979474 22.2776386,284.944686 C21.8168386,284.762286 20.6264386,285.357486 19.8008386,285.885486 L19.8008386,285.885486 Z" id="Shape" fill="#1A6AFF"></path>
                <path d="M19.3880386,286.125486 C19.3633459,286.135125 19.3359313,286.135125 19.3112386,286.125486 C19.2595707,286.100369 19.2262382,286.048519 19.2248386,285.991086 C19.2248386,285.904686 19.0520386,283.859886 19.7720386,283.168686 C19.9587409,282.9898 20.2164098,282.905087 20.4728386,282.938286 C20.7642963,282.948334 21.0125213,283.153218 21.0776386,283.437486 C21.2408386,284.215086 20.1752386,285.703086 19.4744386,286.125486 C19.4463175,286.13433 19.4161597,286.13433 19.3880386,286.125486 L19.3880386,286.125486 Z M20.3480386,283.245486 C20.2153946,283.245351 20.0879418,283.297021 19.9928386,283.389486 C19.5976899,284.071401 19.4327424,284.862476 19.5224386,285.645486 C20.1464386,285.127086 20.8472386,283.994286 20.7416386,283.485486 C20.7416386,283.389486 20.6648386,283.274286 20.4248386,283.245486 L20.3480386,283.245486 Z" id="Shape" fill="#1A6AFF"></path>
                <path d="M47.4008386,47.4694862 C46.6695965,45.0235023 44.6513035,43.1786275 42.1496386,42.6694862 C40.3944179,42.2545625 38.6149353,41.9499664 36.8216386,41.7574862 C31.4340205,41.450065 26.0332567,41.450065 20.6456386,41.7574862 C17.8232386,41.8918862 14.9432386,42.2374862 12.6488386,42.5734862 L12.5624386,42.5734862 C11.3436746,42.7449763 10.2467289,43.4038536 9.52282484,44.3992217 C8.7989208,45.3945897 8.51007481,46.6411759 8.7224386,47.8534862 C10.5303054,57.4014415 11.7136161,67.0571283 12.2648386,76.7590862 C12.8216386,90.8422862 12.0632386,101.901486 12.3320386,105.299886 L50.3960386,105.299886 C52.7096386,70.9222862 49.7240386,55.3030862 47.4008386,47.4694862 Z" id="Path" fill="#E6E6E6"></path>
                <path d="M21.7208386,41.1238862 C24.7160386,53.2774862 27.4808386,84.0742862 27.4328386,108.151086 L11.3432386,108.151086 C11.0552386,104.560686 11.8616386,92.9062862 11.2760386,78.0550862 C10.6994084,67.8453687 9.46484564,57.6834741 7.5800386,47.6326862 C7.35892659,46.3602004 7.65994642,45.0522998 8.41508311,44.0045024 C9.1702198,42.9567051 10.3157485,42.2574332 11.5928386,42.0646862 L11.6792386,42.0646862 C14.0984386,41.7094862 17.1320386,41.3446862 20.1080386,41.2006862 L21.7208386,41.1238862 Z" id="Path" fill="#263238"></path>
                <path d="M49.3592386,47.6422862 C48.5264113,44.9434703 46.340805,42.8780724 43.5992386,42.1990862 C41.0552113,41.7991241 38.4915051,41.5363442 35.9192386,41.4118862 C38.9624386,51.9718862 44.9336386,84.1414862 43.1576386,108.151086 L53.3144386,108.151086 C55.7240386,72.1222862 51.6248386,54.2278862 49.3592386,47.6422862 Z" id="Path" fill="#263238"></path>
                <polygon id="Path" fill="#1A6AFF" points="108.687239 80.9254862 32.9528386 113.335086 23.8520386 92.1766862 99.5960386 59.7670862"></polygon>
                <path d="M44.7704386,93.2230862 C45.7321238,95.4690186 44.6919039,98.0693774 42.4465436,99.0323975 C40.2011833,99.9954175 37.6002066,98.9567437 36.635852,96.7119562 C35.6714973,94.4671688 36.7086248,91.8655751 38.9528386,90.8998862 C40.0322574,90.4354105 41.2520858,90.4192985 42.3433959,90.8551022 C43.434706,91.2909059 44.3078886,92.1428408 44.7704386,93.2230862 Z" id="Path" fill="#FFFFFF"></path>
                <path d="M46.6808386,96.9670862 C46.1109308,98.6697565 44.8413381,100.048201 43.1911874,100.755933 C41.5410367,101.463664 39.6672548,101.433378 38.0408386,100.672686 C36.6530543,102.249505 36.233675,104.456764 36.9464386,106.432686 L51.6344386,100.154286 C50.6924036,98.2640944 48.7914758,97.0410168 46.6808386,96.9670862 Z" id="Path" fill="#FFFFFF"></path>
                <polygon id="Path" fill="#FFFFFF" points="97.9160386 71.4598862 53.6504386 90.4006862 52.6520386 88.0582862 96.9176386 69.1174862"></polygon>
                <polygon id="Path" fill="#FFFFFF" points="94.6232386 78.7462862 55.7912386 95.3638862 54.7832386 93.0214862 93.6152386 76.4038862"></polygon>
                <path d="M16.3160386,59.9590862 C16.0472386,51.8854862 10.0856386,48.8038862 8.4056386,50.9734862 C8.33168389,51.0612024 8.26430102,51.1542549 8.2040386,51.2518862 C9.2504386,57.4726862 10.5272386,66.0358862 11.0840386,74.4742862 C13.9160386,72.8422862 16.5656386,67.6294862 16.3160386,59.9590862 Z" id="Path" fill="#000000" opacity="0.3"></path>
                <path d="M36.0536386,41.7382862 C31.3496386,40.6246862 30.5240386,37.7158862 30.8408386,34.5190862 C30.9154568,33.7184036 31.0405051,32.9232249 31.2152386,32.1382862 L25.3208386,27.2422862 L20.9912386,23.6518862 C22.1912386,28.8646862 23.5448386,38.3590862 20.0312386,41.8342862 C20.0312386,41.8342862 22.9112386,46.6342862 31.0040386,46.2118862 C37.7528386,45.8374862 36.0536386,41.7382862 36.0536386,41.7382862 Z" id="Path" fill="#B55B52"></path>
                <path d="M27.7688386,50.5030862 C28.3248762,48.9033095 29.2299516,47.4473187 30.4184386,46.2406862 C26.8052577,45.0551254 23.5182519,43.0434778 20.8184386,40.3654862 L18.3512386,41.3254862 C18.3512386,41.3254862 19.2248386,47.5942862 27.7688386,50.5030862 Z" id="Path" fill="#FFFFFF"></path>
                <path d="M34.3544386,49.4278862 C33.2860317,48.0956683 31.9437045,47.0087107 30.4184386,46.2406862 C32.7896386,45.5686862 33.7112386,40.7590862 33.7112386,40.7590862 L36.0248386,41.2390862 C36.0248386,41.2390862 40.2968386,47.5078862 34.3544386,49.4278862 Z" id="Path" fill="#FFFFFF"></path>
                <path d="M31.2152386,32.1382862 C31.0405051,32.9232249 30.9154568,33.7184036 30.8408386,34.5190862 C28.6424386,34.0774862 25.7048386,31.7350862 25.3976386,29.4886862 C25.2896334,28.7449776 25.2638781,27.9916347 25.3208386,27.2422862 L31.2152386,32.1382862 Z" id="Path" fill="#000000" opacity="0.2"></path>
                <path d="M33.9608386,6.53508622 C36.9272386,5.99748622 40.3832386,9.10788622 38.7608386,15.4246862 C37.1384386,21.7414862 29.4296386,7.35108622 33.9608386,6.53508622 Z" id="Path" fill="#263238"></path>
                <path d="M19.2056386,16.1542862 C20.7128386,23.0758862 21.2408386,27.1942862 25.3304386,30.3526862 C28.0159658,32.471452 31.6548166,32.9265668 34.7794493,31.5344835 C37.9040819,30.1424003 39.9992741,27.1326603 40.2200386,23.7190862 C40.7576386,17.2774862 38.2136386,7.04388622 30.9272386,5.08548622 C27.7413929,4.13588592 24.2909393,4.956679 21.8739229,7.23908681 C19.4569064,9.52149462 18.4399541,12.9193085 19.2056386,16.1542862 L19.2056386,16.1542862 Z" id="Path" fill="#B55B52"></path>
                <path d="M21.9896386,23.6518862 C23.0072386,21.2518862 23.9096386,14.5702862 23.0840386,11.7958862 C26.3960386,11.6902862 33.3560386,11.0758862 36.2552386,7.85028622 C40.7096386,2.89668622 34.8344386,-2.95931378 27.4424386,1.70628622 C22.6424386,4.71108622 12.2840386,4.11588622 14.0024386,7.46628622 C8.9528386,13.0246862 14.6264386,19.3030862 21.9896386,23.6518862 Z" id="Path" fill="#263238"></path>
                <path d="M13.9928386,7.71588622 C13.9222953,7.71529333 13.8555854,7.68369393 13.8104386,7.62948622 C13.1960386,6.87108622 13.0040386,6.23748622 13.2152386,5.70948622 C13.7240386,4.44228622 16.3640386,4.09668622 19.4072386,3.71268622 C22.2872386,3.34788622 25.4744386,2.93508622 26.4920386,1.63908622 C26.5872713,1.55241594 26.7328059,1.55241594 26.8280386,1.63908622 C26.8744437,1.68263822 26.9007676,1.74344498 26.9007676,1.80708622 C26.9007676,1.87072745 26.8744437,1.93153422 26.8280386,1.97508622 C25.6856386,3.42468622 22.5080386,3.82788622 19.4360386,4.22148622 C16.7768386,4.56708622 14.0312386,4.91268622 13.6760386,5.93028622 C13.5320386,6.29508622 13.6760386,6.78468622 14.1848386,7.38948622 C14.2763129,7.48280866 14.2763129,7.63216377 14.1848386,7.72548622 C14.1216281,7.7443711 14.0538501,7.7409822 13.9928386,7.71588622 L13.9928386,7.71588622 Z" id="Path" fill="#263238"></path>
                <path d="M18.1400386,21.7414862 C18.9663951,23.0340492 20.2146472,24.0007662 21.6728386,24.4774862 C23.5256386,25.0342862 24.1592386,23.3254862 23.4104386,21.5206862 C22.7288386,19.8886862 20.9432386,17.6326862 19.2056386,17.8726862 C17.4680386,18.1126862 17.0936386,20.1190862 18.1400386,21.7414862 Z" id="Path" fill="#B55B52"></path>
                <path d="M29.1128386,16.8454862 C29.1992386,17.4118862 29.5736386,17.8054862 29.9480386,17.8054862 C30.3224386,17.8054862 30.5432386,17.2678862 30.4568386,16.7014862 C30.3704386,16.1350862 29.9960386,15.7414862 29.6216386,15.7414862 C29.2472386,15.7414862 29.0264386,16.2790862 29.1128386,16.8454862 Z" id="Path" fill="#263238"></path>
                <path d="M35.5544386,16.0774862 C35.6408386,16.6438862 36.0152386,17.0374862 36.3896386,17.0374862 C36.7640386,17.0374862 36.9944386,16.4902862 36.8984386,15.9238862 C36.8024386,15.3574862 36.4376386,14.9638862 36.0728386,14.9638862 C35.7080386,14.9638862 35.4680386,15.5110862 35.5544386,16.0774862 Z" id="Path" fill="#263238"></path>
                <path d="M34.5656386,16.6054862 C35.5180223,18.2632809 36.6866688,19.787041 38.0408386,21.1366862 C37.3244398,21.7923541 36.3532806,22.0949617 35.3912386,21.9622862 L34.5656386,16.6054862 Z" id="Path" fill="#A02724"></path>
                <path d="M33.2984386,23.7766862 C31.952778,23.7948792 30.6585128,23.2605177 29.7176386,22.2982862 C29.6781965,22.2536995 29.6655372,22.1914575 29.6844294,22.1350062 C29.7033216,22.078555 29.7508951,22.0364707 29.8092294,22.0246062 C29.8675637,22.0127417 29.9277965,22.0328995 29.9672386,22.0774862 C31.0148394,23.0987861 32.4710355,23.5865411 33.9224386,23.4022862 C33.9672706,23.3940077 34.0135216,23.4048591 34.0499935,23.432213 C34.0864654,23.459567 34.109833,23.5009295 34.1144386,23.5462862 C34.1198417,23.5896256 34.107648,23.6333223 34.0805851,23.6676019 C34.0535223,23.7018815 34.0138486,23.7238835 33.9704386,23.7286862 C33.7476224,23.7583298 33.523206,23.7743596 33.2984386,23.7766862 Z" id="Path" fill="#263238"></path>
                <path d="M27.0104386,15.0118862 C26.9531901,15.0079738 26.8974893,14.9915912 26.8472386,14.9638862 C26.7692624,14.919631 26.712208,14.8460465 26.6887697,14.7595049 C26.6653313,14.6729633 26.6774533,14.5806435 26.7224386,14.5030862 C27.2253084,13.5529489 28.1684707,12.9157744 29.2376386,12.8038862 C29.3267876,12.798646 29.4143553,12.8291107 29.4810016,12.888552 C29.5476479,12.9479933 29.5878895,13.0315206 29.5928386,13.1206862 C29.5980789,13.2098352 29.5676141,13.2974029 29.5081728,13.3640492 C29.4487315,13.4306955 29.3652042,13.4709371 29.2760386,13.4758862 C28.4344802,13.575584 27.6972024,14.0862837 27.3080386,14.8390862 C27.2481022,14.9469704 27.1338457,15.0133128 27.0104386,15.0118862 Z" id="Path" fill="#263238"></path>
                <path d="M38.4440386,13.5430896 C38.3308879,13.5436033 38.2255414,13.4854811 38.1656386,13.3894862 C37.692924,12.6536407 36.905781,12.1785184 36.0344386,12.1030862 C35.8488709,12.1030862 35.6984386,11.9526539 35.6984386,11.7670862 C35.6984386,11.5815185 35.8488709,11.4310862 36.0344386,11.4310862 L36.0344386,11.4310862 C37.1295007,11.5075733 38.1249739,12.0941915 38.7224386,13.0150862 C38.8223442,13.1721521 38.7799002,13.3801279 38.6264386,13.4854862 C38.5725032,13.5219524 38.509135,13.5419634 38.4440386,13.5430896 Z" id="Path" fill="#263238"></path>
                <path d="M17.1896386,52.5190862 C17.2376386,52.4614862 17.1896386,52.5190862 17.1896386,52.5190862 L17.1896386,52.5190862 L17.1224386,52.6246862 L16.9592386,52.8934862 L16.6136386,53.4982862 C16.3736386,53.9302862 16.1432386,54.3718862 15.9128386,54.8326862 C15.4712386,55.7926862 15.0392386,56.7526862 14.6552386,57.7126862 C13.8886074,59.7233285 13.2787854,61.7903042 12.8312386,63.8950862 C11.9396099,68.241417 11.6777288,72.6933943 12.0536386,77.1142862 C12.1055453,78.0442972 12.2307336,78.9687646 12.4280386,79.8790862 C12.6468854,80.7986513 12.9522461,81.6954475 13.3400386,82.5574862 C14.2303011,84.526595 15.3208457,86.3988574 16.5944386,88.1446862 C19.3979372,91.9358725 22.5335246,95.4698337 25.9640386,98.7046862 L26.0984386,98.8390862 C27.2020549,99.9113489 27.3557742,101.62942 26.4600381,102.880569 C25.5643021,104.131718 23.8883518,104.539872 22.5176386,103.840686 C20.1097936,102.610074 17.80477,101.187893 15.6248386,99.5878862 C13.4075161,97.9860392 11.318026,96.2143056 9.3752386,94.2886862 C7.31424661,92.2388704 5.50910305,89.9469828 3.9992386,87.4630862 C3.17060028,86.1114234 2.47916234,84.6803077 1.9352386,83.1910862 C1.40509202,81.6848507 1.01621656,80.1325627 0.7736386,78.5542862 C0.276173316,75.7751705 0.01922199,72.9583416 0.00563860033,70.1350862 C-0.0385195818,67.276688 0.176762938,64.4201782 0.6488386,61.6006862 C1.12411677,58.7387285 1.87315531,55.9290303 2.8856386,53.2102862 C3.40162485,51.8246974 3.99454702,50.4689888 4.6616386,49.1494862 C5.0072386,48.4774862 5.3624386,47.8150862 5.7656386,47.1526862 C5.9672386,46.8166862 6.1784386,46.4806862 6.3992386,46.1350862 L6.7544386,45.6166862 L7.2344386,44.9542862 C9.34724863,42.3251703 13.1668383,41.850808 15.8585749,43.8832378 C18.5503114,45.9156676 19.1398333,49.7191856 17.1896386,52.4710862 L17.1896386,52.5190862 Z" id="Path" fill="#263238"></path>
                <path d="M27.9992386,98.7814862 L31.9640386,98.5702862 L27.3656386,106.250286 C27.3656386,106.250286 20.9528386,105.434286 21.6056386,102.160686 L22.4984386,101.200686 C23.9586535,99.7255235 25.9250984,98.8606996 27.9992386,98.7814862 Z" id="Path" fill="#B55B52"></path>
                <polygon id="Path" fill="#B55B52" points="36.0728386 101.325486 32.6168386 109.485486 27.3656386 106.279086 31.9640386 98.5702862"></polygon>
            </g>
        </g>
    </g>
</svg>